<svg width="40" height="40" viewBox="0 0 40 40" fill="none" xmlns="http://www.w3.org/2000/svg">
<path d="M17.2 25.35L30.2 17L17.2 8.65V25.35ZM9 34C8.2 34 7.5 33.7 6.9 33.1C6.3 32.5 6 31.8 6 31V3C6 2.2 6.3 1.5 6.9 0.9C7.5 0.3 8.2 0 9 0H37C37.8 0 38.5 0.3 39.1 0.9C39.7 1.5 40 2.2 40 3V31C40 31.8 39.7 32.5 39.1 33.1C38.5 33.7 37.8 34 37 34H9ZM9 31H37V3H9V31ZM3 40C2.2 40 1.5 39.7 0.9 39.1C0.3 38.5 0 37.8 0 37V6H3V37H34V40H3Z" fill="#333333"/>
<path d="M17 25V8L30 16.5L17 25Z" fill="#ED396C" stroke="#ED396C"/>
</svg>
