<svg width="36" height="43" viewBox="0 0 36 43" fill="none" xmlns="http://www.w3.org/2000/svg">
<path d="M18 42.05L11.95 36H3C2.2 36 1.5 35.7 0.9 35.1C0.3 34.5 0 33.8 0 33V3C0 2.175 0.3 1.46875 0.9 0.88125C1.5 0.29375 2.2 0 3 0H33C33.8 0 34.5 0.29375 35.1 0.88125C35.7 1.46875 36 2.175 36 3V33C36 33.8 35.7 34.5 35.1 35.1C34.5 35.7 33.8 36 33 36H24.05L18 42.05ZM3 31.1C5 29.2667 7.26493 27.775 9.7948 26.625C12.3247 25.475 15.058 24.9 17.9948 24.9C20.9316 24.9 23.6667 25.475 26.2 26.625C28.7333 27.775 31 29.2667 33 31.1V3H3V31.1ZM18.1 20.95C20.0333 20.95 21.6667 20.2833 23 18.95C24.3333 17.6167 25 15.9833 25 14.05C25 12.1167 24.3333 10.4833 23 9.15C21.6667 7.81667 20.0333 7.15 18.1 7.15C16.1667 7.15 14.5333 7.81667 13.2 9.15C11.8667 10.4833 11.2 12.1167 11.2 14.05C11.2 15.9833 11.8667 17.6167 13.2 18.95C14.5333 20.2833 16.1667 20.95 18.1 20.95ZM18.1 17.95C17.0167 17.95 16.0958 17.5708 15.3375 16.8125C14.5792 16.0542 14.2 15.1333 14.2 14.05C14.2 12.9667 14.5792 12.0458 15.3375 11.2875C16.0958 10.5292 17.0167 10.15 18.1 10.15C19.1833 10.15 20.1042 10.5292 20.8625 11.2875C21.6208 12.0458 22 12.9667 22 14.05C22 15.1333 21.6208 16.0542 20.8625 16.8125C20.1042 17.5708 19.1833 17.95 18.1 17.95ZM18 37.6L22.6 33H30.25V32.55C28.45 31.0167 26.5225 29.8583 24.4674 29.075C22.4123 28.2917 20.2565 27.9 18 27.9C15.7667 27.9 13.6167 28.2917 11.55 29.075C9.48333 29.8583 7.55 31.0167 5.75 32.55V33H13.4L18 37.6Z" fill="#333333"/>
<circle cx="18" cy="14" r="5.5" stroke="#ED396C" stroke-width="3"/>
</svg>
