<svg width="44" height="39" viewBox="0 0 44 39" fill="none" xmlns="http://www.w3.org/2000/svg">
<path d="M22 39C20.4 37.7333 18.6667 36.75 16.8 36.05C14.9333 35.35 13 35 11 35C9.6 35 8.225 35.1833 6.875 35.55C5.525 35.9167 4.23333 36.4333 3 37.1C2.3 37.4667 1.625 37.45 0.975 37.05C0.325 36.65 0 36.0667 0 35.3V11.2C0 10.8333 0.0916667 10.4833 0.275 10.15C0.458333 9.81667 0.733333 9.56667 1.1 9.4C2.63333 8.6 4.23333 8 5.9 7.6C7.56667 7.2 9.26667 7 11 7C12.9333 7 14.825 7.25 16.675 7.75C18.525 8.25 20.3 9 22 10V35.3C23.7 34.2 25.4833 33.375 27.35 32.825C29.2167 32.275 31.1 32 33 32C34.2 32 35.5083 32.1167 36.925 32.35C38.3417 32.5833 39.7 33.0667 41 33.8V8.55C41.3295 8.675 41.6536 8.80625 41.9721 8.94375C42.2907 9.08125 42.6 9.23333 42.9 9.4C43.2333 9.6 43.5 9.86128 43.7 10.1839C43.9 10.5065 44 10.8452 44 11.2V35.3C44 36.0667 43.675 36.65 43.025 37.05C42.375 37.45 41.7 37.4667 41 37.1C39.7667 36.4333 38.475 35.9167 37.125 35.55C35.775 35.1833 34.4 35 33 35C31 35 29.0667 35.35 27.2 36.05C25.3333 36.75 23.6 37.7333 22 39ZM25 30.65V13L38 0V19.35L25 30.65ZM19 33.8V11.85C17.8667 11.2167 16.55 10.75 15.05 10.45C13.55 10.15 12.2 10 11 10C9.43333 10 7.975 10.1667 6.625 10.5C5.275 10.8333 4.06667 11.2589 3 11.7766V33.8C4.16667 33.2333 5.425 32.7917 6.775 32.475C8.125 32.1583 9.54167 32 11.025 32C12.5083 32 13.9167 32.1583 15.25 32.475C16.5833 32.7917 17.8333 33.2333 19 33.8Z" fill="#333333"/>
<path d="M25 30.5V13L38 0V19.5L25 30.5Z" fill="#ED396C"/>
</svg>
