<svg width="50" height="50" viewBox="0 0 50 50" fill="none" xmlns="http://www.w3.org/2000/svg">
<path d="M24.9987 27.0833C22.707 27.0833 20.7452 26.2674 19.1133 24.6354C17.4813 23.0035 16.6654 21.0417 16.6654 18.75V11.4583C16.6654 10.5903 16.9692 9.85244 17.5768 9.2448C18.1845 8.63716 18.9223 8.33334 19.7904 8.33334C20.3112 8.33334 20.806 8.45487 21.2747 8.69793C21.7435 8.94098 22.1168 9.2882 22.3945 9.73959C22.6723 9.2882 23.0456 8.94098 23.5143 8.69793C23.9831 8.45487 24.4779 8.33334 24.9987 8.33334C25.5195 8.33334 26.0143 8.45487 26.4831 8.69793C26.9518 8.94098 27.3251 9.2882 27.6029 9.73959C27.8806 9.2882 28.2539 8.94098 28.7227 8.69793C29.1914 8.45487 29.6862 8.33334 30.207 8.33334C31.0751 8.33334 31.8129 8.63716 32.4206 9.2448C33.0282 9.85244 33.332 10.5903 33.332 11.4583V18.75C33.332 21.0417 32.5161 23.0035 30.8841 24.6354C29.2522 26.2674 27.2904 27.0833 24.9987 27.0833ZM24.9987 23.9583C26.457 23.9583 27.6897 23.4549 28.6966 22.4479C29.7036 21.441 30.207 20.2083 30.207 18.75V12.5H19.7904V18.75C19.7904 20.2083 20.2938 21.441 21.3008 22.4479C22.3077 23.4549 23.5404 23.9583 24.9987 23.9583ZM8.33203 43.75V38.8542C8.33203 37.5347 8.66189 36.4063 9.32161 35.4688C9.98134 34.5313 10.832 33.8195 11.8737 33.3333C14.2001 32.2917 16.431 31.5104 18.5664 30.9896C20.7018 30.4688 22.8459 30.2083 24.9987 30.2083C27.1515 30.2083 29.2869 30.4774 31.4049 31.0156C33.523 31.5538 35.7439 32.3298 38.0675 33.3434C39.1543 33.8339 40.0257 34.5451 40.6816 35.4771C41.3374 36.409 41.6654 37.5347 41.6654 38.8542V43.75H8.33203ZM11.457 40.625H38.5404V38.8542C38.5404 38.2986 38.3754 37.7691 38.0456 37.2656C37.7157 36.7622 37.3077 36.3889 36.8216 36.1458C34.5994 35.0695 32.5681 34.3316 30.7279 33.9323C28.8876 33.533 26.9779 33.3333 24.9987 33.3333C23.0195 33.3333 21.0924 33.533 19.2174 33.9323C17.3424 34.3316 15.3112 35.0695 13.1237 36.1458C12.6376 36.3889 12.2383 36.7622 11.9258 37.2656C11.6133 37.7691 11.457 38.2986 11.457 38.8542V40.625Z" fill="black"/>
<mask id="mask0_3485_4742" style="mask-type:alpha" maskUnits="userSpaceOnUse" x="8" y="8" width="34" height="36">
<path d="M24.9987 27.0833C22.707 27.0833 20.7452 26.2674 19.1133 24.6354C17.4813 23.0035 16.6654 21.0417 16.6654 18.75V11.4583C16.6654 10.5903 16.9692 9.85244 17.5768 9.2448C18.1845 8.63716 18.9223 8.33334 19.7904 8.33334C20.3112 8.33334 20.806 8.45487 21.2747 8.69793C21.7435 8.94098 22.1168 9.2882 22.3945 9.73959C22.6723 9.2882 23.0456 8.94098 23.5143 8.69793C23.9831 8.45487 24.4779 8.33334 24.9987 8.33334C25.5195 8.33334 26.0143 8.45487 26.4831 8.69793C26.9518 8.94098 27.3251 9.2882 27.6029 9.73959C27.8806 9.2882 28.2539 8.94098 28.7227 8.69793C29.1914 8.45487 29.6862 8.33334 30.207 8.33334C31.0751 8.33334 31.8129 8.63716 32.4206 9.2448C33.0282 9.85244 33.332 10.5903 33.332 11.4583V18.75C33.332 21.0417 32.5161 23.0035 30.8841 24.6354C29.2522 26.2674 27.2904 27.0833 24.9987 27.0833ZM24.9987 23.9583C26.457 23.9583 27.6897 23.4549 28.6966 22.4479C29.7036 21.441 30.207 20.2083 30.207 18.75V12.5H19.7904V18.75C19.7904 20.2083 20.2938 21.441 21.3008 22.4479C22.3077 23.4549 23.5404 23.9583 24.9987 23.9583ZM8.33203 43.75V38.8542C8.33203 37.5347 8.66189 36.4063 9.32161 35.4688C9.98134 34.5313 10.832 33.8195 11.8737 33.3333C14.2001 32.2917 16.431 31.5104 18.5664 30.9896C20.7018 30.4688 22.8459 30.2083 24.9987 30.2083C27.1515 30.2083 29.2869 30.4774 31.4049 31.0156C33.523 31.5538 35.7439 32.3298 38.0675 33.3434C39.1543 33.8339 40.0257 34.5451 40.6816 35.4771C41.3374 36.409 41.6654 37.5347 41.6654 38.8542V43.75H8.33203ZM11.457 40.625H38.5404V38.8542C38.5404 38.2986 38.3754 37.7691 38.0456 37.2656C37.7157 36.7622 37.3077 36.3889 36.8216 36.1458C34.5994 35.0695 32.5681 34.3316 30.7279 33.9323C28.8876 33.533 26.9779 33.3333 24.9987 33.3333C23.0195 33.3333 21.0924 33.533 19.2174 33.9323C17.3424 34.3316 15.3112 35.0695 13.1237 36.1458C12.6376 36.3889 12.2383 36.7622 11.9258 37.2656C11.6133 37.7691 11.457 38.2986 11.457 38.8542V40.625Z" fill="black"/>
</mask>
<g mask="url(#mask0_3485_4742)">
<rect x="-9.375" y="-16.6667" width="59.375" height="45.8333" fill="#ED396C"/>
</g>
</svg>
