<svg width="38" height="38" viewBox="0 0 38 38" fill="none" xmlns="http://www.w3.org/2000/svg">
<g clip-path="url(#clip0_445_1597)">
<path d="M19 0C29.4864 0 38 8.51361 38 19C38 29.4864 29.4864 38 19 38C8.51361 38 0 29.4864 0 19C0 8.51361 8.51361 0 19 0Z" fill="#ED396C" fill-opacity="0.2"/>
<path d="M19.5019 11H19.4981C15.3628 11 12 14.3637 12 18.5C12 20.1406 12.5287 21.6612 13.4278 22.8959L12.4931 25.6822L15.3759 24.7606C16.5619 25.5462 17.9766 26 19.5019 26C23.6372 26 27 22.6353 27 18.5C27 14.3647 23.6372 11 19.5019 11ZM23.8659 21.5909C23.685 22.1019 22.9669 22.5256 22.3941 22.6494C22.0022 22.7328 21.4903 22.7994 19.7672 22.085C17.5631 21.1719 16.1437 18.9322 16.0331 18.7869C15.9272 18.6416 15.1425 17.6009 15.1425 16.5247C15.1425 15.4484 15.689 14.9244 15.9094 14.6994C16.0903 14.5147 16.3894 14.4303 16.6762 14.4303C16.7691 14.4303 16.8525 14.435 16.9275 14.4388C17.1478 14.4481 17.2584 14.4613 17.4037 14.8091C17.5847 15.245 18.0253 16.3212 18.0778 16.4319C18.1312 16.5425 18.1847 16.6925 18.1097 16.8378C18.0394 16.9878 17.9775 17.0544 17.8669 17.1819C17.7563 17.3094 17.6513 17.4069 17.5406 17.5437C17.4394 17.6628 17.325 17.7903 17.4525 18.0106C17.58 18.2263 18.0206 18.9453 18.6694 19.5228C19.5066 20.2681 20.1853 20.5063 20.4281 20.6075C20.6091 20.6825 20.8247 20.6647 20.9569 20.5241C21.1247 20.3431 21.3319 20.0431 21.5428 19.7478C21.6928 19.5359 21.8822 19.5097 22.081 19.5847C22.2835 19.655 23.355 20.1847 23.5753 20.2944C23.7957 20.405 23.941 20.4575 23.9944 20.5503C24.0469 20.6431 24.0469 21.0791 23.8659 21.5909Z" fill="#ED396C"/>
</g>
<defs>
<clipPath id="clip0_445_1597">
<rect width="38" height="38" fill="white"/>
</clipPath>
</defs>
</svg>
