<svg height="170.50092938131274" overflow="visible" viewBox="0 0 176.04327253425413  170.50092938131274" width="176.04327253425413" xmlns="http://www.w3.org/2000/svg"><g><defs><path id="path-162822933050393523" d="M123.3732056099672 107.25685709932948 C123.3732056099672 80.40046982644031 137.26076769665255 61.9569335428094 137.26076769665255 49.01409602217465 C137.26076769665255 36.07125850154 129.83253302760966 8.891309027048726 70.40669443123977 8.891309027048726 C10.980855834871125 8.891309027048726 2.260767696652969 45.45481900442301 2.260767696652969 59.69193484113028 C2.260765371294167 126.34752865814603 123.3732056099672 154.821775474678 123.3732056099672 107.25685709932948 Z"></path></defs> <path d="M152.82325204471726 93.69014918502307 C140.4412901931487 69.85839394002096 144.26152918826097 47.08924407935683 138.29431852797507 35.604060579677025 C132.32710786768905 24.118877079996764 113.2043210670156 3.4247390522791648 60.471165774481165 30.82263360232173 C7.7380104819478674 58.22052815236384 16.857367340554788 94.68650585061278 23.421296560641167 107.32020287648447 C54.15242044682782 166.46888174415517 174.75274683536873 135.89819010473866 152.82325204471726 93.69014918502307 Z" style="stroke-width: 0; stroke-linecap: butt; stroke-linejoin: miter; fill: rgb(242, 242, 242);"></path></g><g><defs><path id="path-162822933050293521" d="M40.109589041095695 53.23988165498572 C40.109589041095695 53.23988165498572 54.39027397260248 45.903380737923044 54.39027397260248 45.903380737923044 C54.39027397260248 45.903380737923044 44.73890410958882 36.35587954448528 44.73890410958882 36.35587954448528 C44.73890410958882 36.35587954448528 40.861643835616235 45.07425563428239 40.861643835616235 45.07425563428239 C40.861643835616235 45.07425563428239 35.69753424657517 38.03925475490723 35.69753424657517 38.03925475490723 C35.69753424657517 38.03925475490723 29.146301369862876 40.669005083626026 29.146301369862876 40.669005083626026 C29.146301369862876 40.669005083626026 26.09630136986289 45.945255743157425 26.09630136986289 45.945255743157425 C26.09630136986289 45.945255743157425 33.44136986301354 48.29025603628248 33.44136986301354 48.29025603628248 C33.44136986301354 48.29025603628248 40.109589041095695 53.23988165498572 40.109589041095695 53.23988165498572 Z"></path></defs> <path d="M87.32452890410923 104.86590464299752 C87.32452890410923 104.86590464299752 101.60521383561604 97.52940372593457 101.60521383561604 97.52940372593457 C101.60521383561604 97.52940372593457 91.95384397260239 87.98190253249686 91.95384397260239 87.98190253249686 C91.95384397260239 87.98190253249686 88.07658369862975 96.70027862229426 88.07658369862975 96.70027862229426 C88.07658369862975 96.70027862229426 82.91247410958874 89.66527774291899 82.91247410958874 89.66527774291899 C82.91247410958874 89.66527774291899 76.36124123287641 92.29502807163772 76.36124123287641 92.29502807163772 C76.36124123287641 92.29502807163772 73.31124123287645 97.57127873116906 73.31124123287645 97.57127873116906 C73.31124123287645 97.57127873116906 80.65630972602708 99.91627902429445 80.65630972602708 99.91627902429445 C80.65630972602708 99.91627902429445 87.32452890410923 104.86590464299752 87.32452890410923 104.86590464299752 Z" style="stroke-width: 0; stroke-linecap: butt; stroke-linejoin: miter; fill: rgb(255, 191, 0);"></path></g><g><defs><path id="path-162822933050293519" d="M24.826164383561792 47.10938088867249 C24.826164383561792 47.10938088867249 24.826164383561792 57.71213221401639 24.826164383561792 57.71213221401639 C24.826164383561792 57.71213221401639 28.01821917808236 55.39225692403197 28.01821917808236 55.39225692403197 C28.01821917808236 55.39225692403197 31.13506849315087 57.71213221401639 31.13506849315087 57.71213221401639 C31.13506849315087 57.71213221401639 31.48602739726046 47.42763092845376 31.48602739726046 47.42763092845376 C31.48602739726046 47.42763092845376 24.826164383561792 47.10938088867249 24.826164383561792 47.10938088867249 Z"></path></defs> <path d="M72.04110424657529 98.73540387668527 C72.04110424657529 98.73540387668527 72.04110424657529 109.33815520202916 72.04110424657529 109.33815520202916 C72.04110424657529 109.33815520202916 75.23315904109586 107.01827991204482 75.23315904109586 107.01827991204482 C75.23315904109586 107.01827991204482 78.35000835616438 109.33815520202916 78.35000835616438 109.33815520202916 C78.35000835616438 109.33815520202916 78.70096726027396 99.05365391646637 78.70096726027396 99.05365391646637 C78.70096726027396 99.05365391646637 72.04110424657529 98.73540387668527 72.04110424657529 98.73540387668527 Z" style="stroke-width: 0; stroke-linecap: butt; stroke-linejoin: miter; fill: rgb(237, 57, 108);"></path></g><g><defs><path id="path-162822933050193517" d="M59.37793,63.78259h-7.34555v-20.9882c0.00293,-0.83429 -0.64089,-1.53085 -1.4792,-1.60037c-1.71163,-0.1027 -3.42934,-0.03288 -5.12676,0.20838c-1.06279,-2.74177 -2.87617,-5.13488 -5.23602,-6.90994c-0.92038,-0.69315 -1.91539,-1.283 -2.9668,-1.75874c1.67736,-0.97215 3.11339,-2.3052 4.20226,-3.9009h0.31097c2.07854,0.09042 4.00546,-1.07597 4.87462,-2.95068c0.60939,-1.26809 0.60939,-2.74117 0,-4.00926c0.64682,-1.75061 0.96582,-3.60365 0.94131,-5.46793c-0.20497,-9.11875 -7.7173,-16.40494 -16.91409,-16.40494c-9.19679,0 -16.70913,7.28619 -16.91409,16.40494c-0.06421,1.83406 0.22093,3.66367 0.84045,5.39292c-0.63641,1.2707 -0.63641,2.76357 0,4.03427c0.95184,1.97592 3.0354,3.16335 5.23602,2.98403c1.08943,1.59744 2.52521,2.9331 4.20226,3.90924c-1.04721,0.48203 -2.03906,1.07447 -2.95839,1.76708c-2.36271,1.78428 -4.17377,4.18971 -5.22761,6.94328c-1.78414,-0.27681 -3.59331,-0.36065 -5.3957,-0.25006c-0.83831,0.06952 -1.48212,0.76608 -1.4792,1.60037v20.99653h-7.32034c-0.89585,0 -1.62207,0.72024 -1.62207,1.60871c0,0.88846 0.72623,1.60871 1.62207,1.60871h57.75586c0.89585,0 1.62207,-0.72024 1.62207,-1.60871c0,-0.88846 -0.72623,-1.60871 -1.62207,-1.60871zM15.23739,56.28085c0.51135,-0.00889 0.99081,-0.24817 1.3027,-0.65015l1.80697,-2.4339l1.80697,2.42556c0.31029,0.41052 0.79389,0.65648 1.3111,0.66682c0.17095,-0.00673 0.34036,-0.03473 0.50427,-0.08335c0.66714,-0.21205 1.11701,-0.8306 1.1094,-1.52535v-7.67678c2.3642,1.19711 4.47088,2.83912 6.20254,4.83445c0.30707,0.35506 0.7554,0.55911 1.22706,0.55846v0c0.47399,-0.0077 0.92266,-0.21354 1.23546,-0.5668c3.12342,-3.50992 7.31675,-5.91271 11.94282,-6.84325c1.67924,-0.3664 3.39086,-0.56743 5.10995,-0.60014v19.42117h-36.58487v-19.43784c0.46225,0 0.9329,0 1.40355,0.06668v10.2107c0,0.88846 0.72623,1.60871 1.62207,1.60871zM17.41416,23.4149l0.10085,-0.06668c0.08585,0.03753 0.16526,0.08815 0.23533,0.15003c0.08315,0.58905 0.20955,1.17128 0.3782,1.74207c-0.25252,-0.18174 -0.45249,-0.42605 -0.57991,-0.7085c-0.1859,-0.35098 -0.23382,-0.75791 -0.13447,-1.14193zM17.60747,18.22203v1.90044h-0.15128c-0.34369,-1.19728 -0.4996,-2.43988 -0.46225,-3.68419c-0.12311,-4.9237 2.45511,-9.52656 6.73524,-12.02433c4.28014,-2.49777 9.58928,-2.49777 13.86941,0c4.28014,2.49777 6.85835,7.10063 6.73524,12.02433c0.02384,1.23885 -0.14917,2.47371 -0.51268,3.65918h-0.15128v-1.90044c-0.00305,-0.85064 -0.67331,-1.55189 -1.52962,-1.60037c-2.65817,-0.07554 -5.0152,-1.71482 -5.99242,-4.16763c-0.30162,-0.82709 -1.19925,-1.2795 -2.0507,-1.03357c-0.11543,0.03918 -0.22552,0.09238 -0.32778,0.15837c-4.43997,2.73145 -9.4336,4.45628 -14.62386,5.05117c-0.85829,0.03994 -1.5345,0.73989 -1.53803,1.59204zM43.55222,23.39823l0.08405,-0.06668c0.04763,-0.00402 0.09437,0.01452 0.12607,0.05001c0.14379,0.39114 0.11324,0.82446 -0.08405,1.19194c-0.12314,0.25459 -0.301,0.47935 -0.52108,0.65849c0.17542,-0.60964 0.30742,-1.23076 0.39501,-1.85876zM20.86002,19.66403c4.58916,-0.70826 9.01453,-2.2211 13.06903,-4.4677c1.43555,2.33349 3.80364,3.95173 6.5135,4.45103v1.97546c0,5.36301 -4.3837,9.71058 -9.79126,9.71058c-5.40757,0 -9.79126,-4.34758 -9.79126,-9.71058zM33.51722,34.85922l-2.91637,3.63418l-3.07605,-3.57583c1.96371,-0.49685 4.01926,-0.51687 5.99242,-0.05835zM29.40741,42.06089c0.31594,0.36943 0.78224,0.57893 1.27062,0.57086c0.48838,-0.00807 0.94738,-0.23286 1.25073,-0.61253l4.76536,-5.94304c2.44377,1.32453 4.37654,3.4143 5.49656,5.94304c-4.40969,1.04871 -8.45002,3.26396 -11.69069,6.40982c-2.37614,-2.33625 -5.21502,-4.15837 -8.33728,-5.35124c-0.07967,-0.04331 -0.16433,-0.07689 -0.25214,-0.10002c-0.9245,-0.34175 -1.87421,-0.64182 -2.83232,-0.89187c1.07327,-2.47746 2.92836,-4.54249 5.28644,-5.8847zM19.83467,49.76267l-0.1849,-0.25006c-0.26102,-0.33876 -0.64299,-0.56545 -1.06737,-0.63348c-0.41893,-0.07124 -0.84912,0.02791 -1.19344,0.27506c-0.13099,0.09671 -0.24707,0.21183 -0.34459,0.34175l-0.1849,0.25006v-4.85946c1.00915,0.19949 2.00545,0.45834 2.9836,0.77518z"></path></defs><path d="M59.37793,63.78259h-7.34555v-20.9882c0.00293,-0.83429 -0.64089,-1.53085 -1.4792,-1.60037c-1.71163,-0.1027 -3.42934,-0.03288 -5.12676,0.20838c-1.06279,-2.74177 -2.87617,-5.13488 -5.23602,-6.90994c-0.92038,-0.69315 -1.91539,-1.283 -2.9668,-1.75874c1.67736,-0.97215 3.11339,-2.3052 4.20226,-3.9009h0.31097c2.07854,0.09042 4.00546,-1.07597 4.87462,-2.95068c0.60939,-1.26809 0.60939,-2.74117 0,-4.00926c0.64682,-1.75061 0.96582,-3.60365 0.94131,-5.46793c-0.20497,-9.11875 -7.7173,-16.40494 -16.91409,-16.40494c-9.19679,0 -16.70913,7.28619 -16.91409,16.40494c-0.06421,1.83406 0.22093,3.66367 0.84045,5.39292c-0.63641,1.2707 -0.63641,2.76357 0,4.03427c0.95184,1.97592 3.0354,3.16335 5.23602,2.98403c1.08943,1.59744 2.52521,2.9331 4.20226,3.90924c-1.04721,0.48203 -2.03906,1.07447 -2.95839,1.76708c-2.36271,1.78428 -4.17377,4.18971 -5.22761,6.94328c-1.78414,-0.27681 -3.59331,-0.36065 -5.3957,-0.25006c-0.83831,0.06952 -1.48212,0.76608 -1.4792,1.60037v20.99653h-7.32034c-0.89585,0 -1.62207,0.72024 -1.62207,1.60871c0,0.88846 0.72623,1.60871 1.62207,1.60871h57.75586c0.89585,0 1.62207,-0.72024 1.62207,-1.60871c0,-0.88846 -0.72623,-1.60871 -1.62207,-1.60871zM15.23739,56.28085c0.51135,-0.00889 0.99081,-0.24817 1.3027,-0.65015l1.80697,-2.4339l1.80697,2.42556c0.31029,0.41052 0.79389,0.65648 1.3111,0.66682c0.17095,-0.00673 0.34036,-0.03473 0.50427,-0.08335c0.66714,-0.21205 1.11701,-0.8306 1.1094,-1.52535v-7.67678c2.3642,1.19711 4.47088,2.83912 6.20254,4.83445c0.30707,0.35506 0.7554,0.55911 1.22706,0.55846v0c0.47399,-0.0077 0.92266,-0.21354 1.23546,-0.5668c3.12342,-3.50992 7.31675,-5.91271 11.94282,-6.84325c1.67924,-0.3664 3.39086,-0.56743 5.10995,-0.60014v19.42117h-36.58487v-19.43784c0.46225,0 0.9329,0 1.40355,0.06668v10.2107c0,0.88846 0.72623,1.60871 1.62207,1.60871zM17.41416,23.4149l0.10085,-0.06668c0.08585,0.03753 0.16526,0.08815 0.23533,0.15003c0.08315,0.58905 0.20955,1.17128 0.3782,1.74207c-0.25252,-0.18174 -0.45249,-0.42605 -0.57991,-0.7085c-0.1859,-0.35098 -0.23382,-0.75791 -0.13447,-1.14193zM17.60747,18.22203v1.90044h-0.15128c-0.34369,-1.19728 -0.4996,-2.43988 -0.46225,-3.68419c-0.12311,-4.9237 2.45511,-9.52656 6.73524,-12.02433c4.28014,-2.49777 9.58928,-2.49777 13.86941,0c4.28014,2.49777 6.85835,7.10063 6.73524,12.02433c0.02384,1.23885 -0.14917,2.47371 -0.51268,3.65918h-0.15128v-1.90044c-0.00305,-0.85064 -0.67331,-1.55189 -1.52962,-1.60037c-2.65817,-0.07554 -5.0152,-1.71482 -5.99242,-4.16763c-0.30162,-0.82709 -1.19925,-1.2795 -2.0507,-1.03357c-0.11543,0.03918 -0.22552,0.09238 -0.32778,0.15837c-4.43997,2.73145 -9.4336,4.45628 -14.62386,5.05117c-0.85829,0.03994 -1.5345,0.73989 -1.53803,1.59204zM43.55222,23.39823l0.08405,-0.06668c0.04763,-0.00402 0.09437,0.01452 0.12607,0.05001c0.14379,0.39114 0.11324,0.82446 -0.08405,1.19194c-0.12314,0.25459 -0.301,0.47935 -0.52108,0.65849c0.17542,-0.60964 0.30742,-1.23076 0.39501,-1.85876zM20.86002,19.66403c4.58916,-0.70826 9.01453,-2.2211 13.06903,-4.4677c1.43555,2.33349 3.80364,3.95173 6.5135,4.45103v1.97546c0,5.36301 -4.3837,9.71058 -9.79126,9.71058c-5.40757,0 -9.79126,-4.34758 -9.79126,-9.71058zM33.51722,34.85922l-2.91637,3.63418l-3.07605,-3.57583c1.96371,-0.49685 4.01926,-0.51687 5.99242,-0.05835zM29.40741,42.06089c0.31594,0.36943 0.78224,0.57893 1.27062,0.57086c0.48838,-0.00807 0.94738,-0.23286 1.25073,-0.61253l4.76536,-5.94304c2.44377,1.32453 4.37654,3.4143 5.49656,5.94304c-4.40969,1.04871 -8.45002,3.26396 -11.69069,6.40982c-2.37614,-2.33625 -5.21502,-4.15837 -8.33728,-5.35124c-0.07967,-0.04331 -0.16433,-0.07689 -0.25214,-0.10002c-0.9245,-0.34175 -1.87421,-0.64182 -2.83232,-0.89187c1.07327,-2.47746 2.92836,-4.54249 5.28644,-5.8847zM19.83467,49.76267l-0.1849,-0.25006c-0.26102,-0.33876 -0.64299,-0.56545 -1.06737,-0.63348c-0.41893,-0.07124 -0.84912,0.02791 -1.19344,0.27506c-0.13099,0.09671 -0.24707,0.21183 -0.34459,0.34175l-0.1849,0.25006v-4.85946c1.00915,0.19949 2.00545,0.45834 2.9836,0.77518z" style="stroke-width: 0; stroke-linecap: butt; stroke-linejoin: miter; fill: rgb(96, 96, 96);" transform="translate(57, 54.99998999999934) rotate(0)"></path></g></svg>