<svg width="619" height="189" viewBox="0 0 619 189" fill="none" xmlns="http://www.w3.org/2000/svg">
<path d="M8.77466 181.951C6.79553 180.839 5.26116 179.327 4.12705 177.415C2.99295 175.502 2.43701 173.345 2.43701 170.966C2.43701 168.586 2.99295 166.452 4.12705 164.517C5.26116 162.605 6.79553 161.093 8.77466 159.981C10.7538 158.869 12.9553 158.335 15.4014 158.335C17.8475 158.335 20.049 158.891 22.0281 159.981C24.0072 161.07 25.5416 162.582 26.6757 164.495C27.8098 166.407 28.3658 168.564 28.3658 170.966C28.3658 173.368 27.8098 175.525 26.6757 177.437C25.5416 179.349 24.0072 180.862 22.0281 181.951C20.049 183.041 17.8475 183.597 15.4014 183.597C12.9553 183.597 10.7538 183.041 8.77466 181.951ZM21.0497 180.506C22.7397 179.55 24.0517 178.238 25.0302 176.57C26.0086 174.902 26.4978 173.034 26.4978 170.966C26.4978 168.898 26.0086 167.03 25.0302 165.362C24.0517 163.694 22.7397 162.382 21.0497 161.426C19.3596 160.47 17.4695 160.003 15.4014 160.003C13.3111 160.003 11.4209 160.47 9.73086 161.426C8.04083 162.382 6.70658 163.694 5.72814 165.362C4.7497 167.03 4.26047 168.898 4.26047 170.966C4.26047 173.034 4.7497 174.902 5.72814 176.57C6.70658 178.238 8.04083 179.55 9.73086 180.506C11.4209 181.462 13.3111 181.929 15.4014 181.929C17.4917 181.929 19.3819 181.462 21.0497 180.506Z" fill="white"/>
<path d="M38.5725 181.973C36.6156 180.884 35.0812 179.371 33.9471 177.459C32.813 175.547 32.2571 173.39 32.2571 170.988C32.2571 168.586 32.813 166.429 33.9471 164.517C35.0812 162.605 36.6156 161.092 38.5725 160.003C40.5294 158.913 42.7309 158.357 45.177 158.357C46.9782 158.357 48.646 158.646 50.1582 159.224C51.6703 159.803 52.9601 160.67 54.0275 161.804L52.8933 162.983C50.892 161.026 48.3569 160.025 45.2437 160.025C43.1534 160.025 41.2632 160.492 39.5509 161.448C37.8387 162.404 36.5044 163.716 35.526 165.384C34.5475 167.052 34.0583 168.92 34.0583 170.988C34.0583 173.056 34.5475 174.924 35.526 176.592C36.5044 178.26 37.8387 179.572 39.5509 180.528C41.2632 181.484 43.1534 181.951 45.2437 181.951C48.3347 181.951 50.8697 180.95 52.8933 178.971L54.0275 180.15C52.9601 181.284 51.6703 182.151 50.1359 182.752C48.6015 183.352 46.956 183.641 45.177 183.641C42.7309 183.597 40.5294 183.063 38.5725 181.973Z" fill="white"/>
<path d="M64.5679 160.158H55.6062V158.513H75.353V160.158H66.3913V183.418H64.5679V160.158Z" fill="white"/>
<path d="M83.4255 181.951C81.4464 180.839 79.912 179.327 78.7779 177.414C77.6438 175.502 77.0879 173.345 77.0879 170.966C77.0879 168.586 77.6438 166.451 78.7779 164.517C79.912 162.604 81.4464 161.092 83.4255 159.98C85.4047 158.869 87.6062 158.335 90.0523 158.335C92.4984 158.335 94.6999 158.891 96.679 159.98C98.6581 161.07 100.193 162.582 101.327 164.495C102.461 166.407 103.017 168.564 103.017 170.966C103.017 173.367 102.461 175.524 101.327 177.437C100.193 179.349 98.6581 180.861 96.679 181.951C94.6999 183.041 92.4984 183.596 90.0523 183.596C87.6062 183.596 85.4047 183.041 83.4255 181.951ZM95.7006 180.505C97.3906 179.549 98.7026 178.237 99.681 176.569C100.659 174.902 101.149 173.034 101.149 170.966C101.149 168.898 100.659 167.03 99.681 165.362C98.7026 163.694 97.3906 162.382 95.7006 161.426C94.0105 160.47 92.1203 160.003 90.0523 160.003C87.962 160.003 86.0718 160.47 84.3817 161.426C82.6917 162.382 81.3575 163.694 80.379 165.362C79.4006 167.03 78.9114 168.898 78.9114 170.966C78.9114 173.034 79.4006 174.902 80.379 176.569C81.3575 178.237 82.6917 179.549 84.3817 180.505C86.0718 181.462 87.962 181.929 90.0523 181.929C92.1426 181.929 94.0105 181.462 95.7006 180.505Z" fill="white"/>
<path d="M128.167 172.678C129.101 173.745 129.568 175.124 129.568 176.836C129.568 178.949 128.79 180.572 127.255 181.706C125.721 182.84 123.431 183.418 120.384 183.418H109.288V158.513H119.672C122.385 158.513 124.476 159.069 125.988 160.158C127.5 161.248 128.256 162.827 128.256 164.872C128.256 166.296 127.878 167.496 127.144 168.475C126.41 169.453 125.387 170.143 124.098 170.565C125.877 170.899 127.233 171.61 128.167 172.678ZM111.111 160.091V170.009H119.606C121.785 170.009 123.475 169.587 124.631 168.742C125.81 167.897 126.388 166.651 126.388 165.028C126.388 163.427 125.81 162.182 124.631 161.337C123.453 160.492 121.785 160.069 119.606 160.069H111.111V160.091ZM125.899 180.594C127.144 179.749 127.767 178.459 127.767 176.703C127.767 174.946 127.144 173.656 125.899 172.833C124.654 172.011 122.83 171.588 120.406 171.588H111.111V181.862H120.406C122.808 181.862 124.654 181.439 125.899 180.594Z" fill="white"/>
<path d="M153.229 181.795V183.441H136.039V158.535H152.695V160.18H137.863V170.009H151.138V171.61H137.863V181.817H153.229V181.795Z" fill="white"/>
<path d="M177.134 183.418L171.197 175.102C170.307 175.213 169.507 175.28 168.773 175.28H161.657V183.418H159.833V158.513H168.773C171.908 158.513 174.354 159.246 176.133 160.736C177.912 162.226 178.802 164.272 178.802 166.918C178.802 168.897 178.29 170.543 177.29 171.877C176.289 173.211 174.843 174.168 172.976 174.701L179.202 183.418H177.134ZM168.773 173.678C171.419 173.678 173.465 173.1 174.866 171.922C176.267 170.743 176.956 169.075 176.956 166.918C176.956 164.761 176.267 163.093 174.866 161.915C173.465 160.736 171.441 160.158 168.773 160.158H161.657V173.678H168.773Z" fill="white"/>
<path d="M208.844 181.795V183.441H191.722V182.151L202.262 171.7C203.641 170.321 204.575 169.142 205.064 168.164C205.553 167.185 205.798 166.162 205.798 165.117C205.798 163.538 205.264 162.293 204.174 161.381C203.085 160.47 201.528 160.025 199.505 160.025C197.948 160.025 196.569 160.27 195.391 160.737C194.212 161.204 193.211 161.937 192.344 162.916L191.054 161.782C192.011 160.692 193.211 159.847 194.657 159.247C196.125 158.646 197.77 158.357 199.616 158.357C202.062 158.357 203.997 158.958 205.442 160.136C206.887 161.315 207.621 162.916 207.621 164.939C207.621 166.229 207.332 167.452 206.776 168.609C206.198 169.765 205.131 171.121 203.574 172.656L194.39 181.795H208.844Z" fill="white"/>
<path d="M226.434 169.609C227.702 170.21 228.68 171.077 229.37 172.211C230.059 173.345 230.392 174.635 230.392 176.103C230.392 177.592 230.037 178.905 229.325 180.061C228.613 181.195 227.635 182.084 226.367 182.685C225.1 183.285 223.677 183.619 222.098 183.619C218.873 183.619 216.405 182.529 214.671 180.328C212.958 178.126 212.091 175.057 212.091 171.121C212.091 168.364 212.558 166.029 213.47 164.139C214.382 162.249 215.671 160.781 217.339 159.825C219.007 158.869 220.942 158.357 223.165 158.357C225.522 158.357 227.39 158.78 228.814 159.647L228.057 161.115C226.879 160.359 225.233 159.981 223.143 159.981C220.274 159.981 218.006 160.914 216.361 162.782C214.715 164.65 213.892 167.341 213.892 170.877C213.892 171.966 213.959 172.967 214.115 173.857C214.604 172.256 215.582 170.988 217.006 170.076C218.451 169.165 220.119 168.72 222.031 168.72C223.721 168.698 225.167 168.987 226.434 169.609ZM226.768 180.417C227.969 179.327 228.591 177.904 228.591 176.125C228.591 174.346 227.991 172.923 226.768 171.855C225.567 170.788 223.899 170.254 221.831 170.254C220.497 170.254 219.318 170.521 218.251 171.032C217.183 171.566 216.383 172.256 215.805 173.167C215.227 174.079 214.937 175.08 214.937 176.192C214.937 177.192 215.204 178.148 215.782 179.038C216.338 179.95 217.161 180.661 218.229 181.217C219.296 181.773 220.586 182.04 222.076 182.04C223.988 182.04 225.567 181.506 226.768 180.417Z" fill="white"/>
<path d="M233.973 173.078H243.112V174.679H233.973V173.078Z" fill="white"/>
<path d="M263.503 181.795V183.441H246.381V182.151L256.921 171.7C258.3 170.321 259.234 169.142 259.723 168.164C260.212 167.185 260.457 166.162 260.457 165.117C260.457 163.538 259.923 162.293 258.834 161.381C257.744 160.47 256.187 160.025 254.164 160.025C252.607 160.025 251.228 160.27 250.05 160.737C248.871 161.204 247.871 161.937 247.003 162.916L245.714 161.782C246.67 160.692 247.871 159.847 249.316 159.247C250.784 158.646 252.429 158.357 254.275 158.357C256.721 158.357 258.656 158.958 260.101 160.136C261.547 161.315 262.28 162.916 262.28 164.939C262.28 166.229 261.991 167.452 261.435 168.609C260.857 169.765 259.79 171.121 258.233 172.656L249.049 181.795H263.503Z" fill="white"/>
<path d="M284.229 172.678C285.163 173.745 285.63 175.057 285.63 176.592C285.63 178.771 284.785 180.483 283.095 181.729C281.405 182.974 279.092 183.596 276.157 183.596C273.244 183.596 270.953 182.974 269.263 181.729C267.596 180.483 266.75 178.771 266.75 176.592C266.75 175.035 267.217 173.723 268.129 172.656C269.041 171.611 270.353 170.854 272.065 170.388C270.642 169.921 269.552 169.209 268.796 168.253C268.04 167.297 267.662 166.14 267.662 164.761C267.662 162.76 268.441 161.203 269.975 160.047C271.509 158.891 273.577 158.313 276.157 158.313C278.736 158.313 280.827 158.891 282.383 160.047C283.94 161.203 284.741 162.782 284.741 164.739C284.741 166.096 284.362 167.252 283.584 168.208C282.806 169.164 281.694 169.876 280.249 170.365C281.961 170.854 283.273 171.611 284.229 172.678ZM281.783 180.572C283.139 179.594 283.807 178.282 283.807 176.592C283.807 174.924 283.139 173.612 281.783 172.633C280.426 171.655 278.559 171.166 276.157 171.166C273.777 171.166 271.932 171.655 270.598 172.633C269.263 173.612 268.596 174.924 268.596 176.592C268.596 178.282 269.263 179.616 270.598 180.572C271.932 181.551 273.778 182.04 276.179 182.04C278.559 182.04 280.426 181.551 281.783 180.572ZM271.242 168.364C272.421 169.231 274.067 169.676 276.179 169.676C278.292 169.676 279.937 169.253 281.138 168.386C282.339 167.519 282.939 166.34 282.939 164.85C282.939 163.338 282.339 162.137 281.116 161.248C279.893 160.358 278.247 159.914 276.179 159.914C274.111 159.914 272.488 160.358 271.287 161.226C270.086 162.115 269.486 163.294 269.486 164.828C269.463 166.318 270.064 167.497 271.242 168.364Z" fill="white"/>
<path d="M618.723 132.695H0.280029V136.653H618.723V132.695Z" fill="white"/>
<path d="M358.146 157.757H368.642C371.266 157.757 373.601 158.29 375.647 159.313C377.692 160.358 379.271 161.826 380.405 163.716C381.539 165.607 382.095 167.764 382.095 170.21C382.095 172.656 381.539 174.813 380.405 176.703C379.271 178.593 377.692 180.061 375.647 181.106C373.601 182.151 371.266 182.663 368.642 182.663H358.146V157.757ZM368.419 179.549C370.443 179.549 372.2 179.149 373.734 178.371C375.269 177.592 376.447 176.481 377.27 175.08C378.093 173.679 378.515 172.033 378.515 170.187C378.515 168.342 378.093 166.696 377.27 165.295C376.447 163.894 375.269 162.782 373.734 162.004C372.2 161.226 370.421 160.825 368.419 160.825H361.704V179.549H368.419Z" fill="white"/>
<path d="M391.991 181.284C389.968 180.172 388.389 178.66 387.232 176.703C386.076 174.746 385.498 172.589 385.498 170.187C385.498 167.786 386.076 165.629 387.232 163.672C388.389 161.737 389.968 160.203 391.991 159.091C394.015 157.979 396.261 157.445 398.796 157.445C401.286 157.445 403.532 158.001 405.556 159.091C407.58 160.203 409.158 161.715 410.292 163.65C411.427 165.584 412.005 167.763 412.005 170.187C412.005 172.611 411.427 174.79 410.292 176.725C409.158 178.66 407.58 180.172 405.556 181.284C403.532 182.396 401.286 182.929 398.796 182.929C396.261 182.929 393.992 182.396 391.991 181.284ZM403.71 178.526C405.178 177.704 406.312 176.547 407.157 175.102C408.002 173.634 408.425 172.011 408.425 170.21C408.425 168.408 408.002 166.785 407.157 165.317C406.312 163.85 405.156 162.716 403.71 161.893C402.265 161.07 400.619 160.647 398.774 160.647C396.928 160.647 395.282 161.07 393.815 161.893C392.325 162.716 391.168 163.872 390.323 165.317C389.478 166.785 389.056 168.408 389.056 170.21C389.056 172.011 389.478 173.634 390.323 175.102C391.168 176.569 392.325 177.704 393.815 178.526C395.304 179.349 396.95 179.772 398.774 179.772C400.597 179.772 402.243 179.349 403.71 178.526Z" fill="white"/>
<path d="M438.845 157.757V182.663H435.287V171.566H420.988V182.663H417.43V157.757H420.988V168.475H435.287V157.757H438.845Z" fill="white"/>
<path d="M462.172 176.436H448.941L446.206 182.663H442.536L453.811 157.757H457.324L468.643 182.663H464.907L462.172 176.436ZM460.927 173.59L455.545 161.381L450.164 173.59H460.927Z" fill="white"/>
<path d="M475.536 178.682C475.981 179.149 476.204 179.727 476.204 180.416C476.204 180.772 476.159 181.106 476.07 181.439C475.981 181.773 475.826 182.284 475.581 182.974L473.913 187.91H471.667L472.979 182.618C472.534 182.44 472.156 182.173 471.89 181.773C471.623 181.373 471.489 180.928 471.489 180.394C471.489 179.683 471.712 179.104 472.156 178.66C472.601 178.215 473.179 177.993 473.869 177.993C474.558 177.993 475.092 178.215 475.536 178.682Z" fill="white"/>
<path d="M516.831 184.931C516.031 185.887 515.097 186.599 514.029 187.11C512.962 187.599 511.806 187.866 510.583 187.866C509.026 187.866 507.558 187.488 506.18 186.754C504.801 186.02 503.266 184.731 501.51 182.929C499.153 182.818 497.04 182.173 495.15 181.039C493.26 179.905 491.792 178.393 490.747 176.503C489.702 174.613 489.168 172.522 489.168 170.232C489.168 167.83 489.746 165.673 490.902 163.716C492.059 161.782 493.638 160.247 495.661 159.135C497.685 158.024 499.931 157.49 502.466 157.49C504.956 157.49 507.202 158.046 509.226 159.135C511.25 160.247 512.829 161.759 513.963 163.694C515.097 165.629 515.675 167.808 515.675 170.232C515.675 172.278 515.275 174.146 514.452 175.858C513.629 177.57 512.473 178.993 511.005 180.172C509.515 181.328 507.825 182.129 505.89 182.596C506.713 183.463 507.514 184.108 508.292 184.508C509.07 184.909 509.849 185.086 510.649 185.086C512.406 185.086 513.918 184.375 515.208 182.952L516.831 184.931ZM493.971 175.102C494.816 176.57 495.973 177.704 497.462 178.526C498.952 179.349 500.598 179.772 502.421 179.772C504.223 179.772 505.868 179.349 507.336 178.526C508.804 177.704 509.96 176.547 510.805 175.102C511.65 173.634 512.072 172.011 512.072 170.21C512.072 168.408 511.65 166.785 510.805 165.317C509.96 163.85 508.804 162.716 507.336 161.893C505.868 161.07 504.223 160.648 502.421 160.648C500.598 160.648 498.93 161.07 497.462 161.893C495.973 162.716 494.816 163.872 493.971 165.317C493.126 166.785 492.704 168.408 492.704 170.21C492.704 172.011 493.126 173.634 493.971 175.102Z" fill="white"/>
<path d="M536.578 176.436H523.347L520.612 182.663H516.942L528.217 157.757H531.73L543.049 182.663H539.313L536.578 176.436ZM535.333 173.59L529.951 161.381L524.57 173.59H535.333Z" fill="white"/>
<path d="M550.454 160.848H541.915V157.757H562.507V160.848H553.968V182.663H550.454V160.848Z" fill="white"/>
<path d="M581.008 176.436H567.777L565.042 182.663H561.373L572.647 157.757H576.16L587.479 182.663H583.743L581.008 176.436ZM579.763 173.59L574.381 161.381L569 173.59H579.763Z" fill="white"/>
<path d="M607.849 182.663L602.468 175.013C601.801 175.057 601.289 175.08 600.911 175.08H594.751V182.663H591.193V157.757H600.911C604.135 157.757 606.671 158.535 608.516 160.069C610.362 161.604 611.296 163.739 611.296 166.429C611.296 168.342 610.829 169.987 609.873 171.344C608.917 172.7 607.56 173.679 605.826 174.301L611.741 182.663H607.849ZM605.959 170.588C607.138 169.609 607.738 168.231 607.738 166.429C607.738 164.628 607.138 163.249 605.959 162.293C604.78 161.337 603.046 160.848 600.8 160.848H594.751V172.055H600.8C603.046 172.055 604.78 171.566 605.959 170.588Z" fill="white"/>
<path d="M39.1952 114.238V116.506H4.50488V65.1381H38.1945V67.4063H6.99547V89.2656H34.8811V91.5338H6.99547V114.216H39.1952V114.238Z" fill="white"/>
<path d="M57.1851 65.1381H76.9985C82.3355 65.1381 87.0721 66.2499 91.2082 68.4292C95.3444 70.6307 98.5466 73.6772 100.815 77.5687C103.083 81.4603 104.217 85.8633 104.217 90.8222C104.217 95.7811 103.083 100.184 100.815 104.076C98.5466 107.967 95.3444 111.014 91.2082 113.215C87.0721 115.417 82.3355 116.529 76.9985 116.529H57.1851V65.1381ZM76.8429 114.238C81.8241 114.238 86.2048 113.237 89.9407 111.236C93.6766 109.235 96.5897 106.455 98.6355 102.897C100.681 99.3614 101.726 95.3364 101.726 90.8222C101.726 86.308 100.704 82.3053 98.6355 78.7473C96.5897 75.2116 93.6766 72.4319 89.9407 70.4083C86.2048 68.407 81.8241 67.4063 76.8429 67.4063H59.6756V114.216H76.8429V114.238Z" fill="white"/>
<path d="M126.343 111.236C122.785 107.522 121.028 102.074 121.028 94.8694V65.1381H123.519V94.7805C123.519 101.34 125.031 106.255 128.078 109.568C131.102 112.882 135.483 114.527 141.22 114.527C146.89 114.527 151.271 112.882 154.318 109.568C157.364 106.277 158.899 101.34 158.899 94.7805V65.1381H161.322V94.8694C161.322 102.052 159.566 107.522 156.03 111.236C152.494 114.95 147.557 116.818 141.198 116.818C134.838 116.818 129.901 114.95 126.343 111.236Z" fill="white"/>
<path d="M240.265 114.238V116.506H205.553V65.1381H239.242V67.4063H208.043V89.2656H235.929V91.5338H208.043V114.216H240.265V114.238Z" fill="white"/>
<path d="M289.743 116.506L271.242 91.7784L252.674 116.506H249.805L269.685 89.9327L251.184 65.1381H254.119L271.286 88.1093L288.387 65.1381H291.167L272.665 89.9327L292.634 116.506H289.743Z" fill="white"/>
<path d="M338.421 69.6522C342.023 72.6543 343.824 76.8349 343.824 82.1719C343.824 87.5533 342.023 91.7562 338.421 94.7582C334.818 97.7603 329.815 99.2724 323.411 99.2724H308.067V116.506H305.576V65.1381H323.411C329.815 65.1381 334.818 66.6502 338.421 69.6522ZM336.775 93.1349C339.866 90.5776 341.401 86.9084 341.401 82.1719C341.401 77.4798 339.866 73.8329 336.775 71.2756C333.684 68.7183 329.281 67.4285 323.566 67.4285H308.089V97.0042H323.566C329.281 97.0042 333.684 95.7144 336.775 93.1349Z" fill="white"/>
<path d="M369.242 113.438C365.217 111.192 362.037 108.078 359.747 104.12C357.456 100.162 356.3 95.7367 356.3 90.8445C356.3 85.9522 357.456 81.527 359.747 77.5687C362.037 73.6105 365.217 70.4973 369.242 68.2513C373.289 66.0053 377.781 64.8712 382.784 64.8712C387.788 64.8712 392.302 66.0053 396.371 68.2513C400.441 70.4973 403.599 73.6105 405.911 77.5687C408.202 81.527 409.358 85.9522 409.358 90.8445C409.358 95.7367 408.202 100.162 405.911 104.12C403.599 108.078 400.441 111.192 396.371 113.438C392.302 115.684 387.788 116.818 382.784 116.818C377.781 116.818 373.289 115.684 369.242 113.438ZM395.037 111.458C398.706 109.413 401.597 106.566 403.688 102.942C405.8 99.3169 406.845 95.2919 406.845 90.8445C406.845 86.397 405.8 82.3498 403.688 78.7251C401.575 75.1004 398.706 72.2763 395.037 70.2082C391.368 68.1623 387.276 67.1172 382.784 67.1172C378.293 67.1172 374.201 68.1401 370.576 70.2082C366.929 72.254 364.061 75.1004 361.948 78.7251C359.836 82.3498 358.79 86.3747 358.79 90.8445C358.79 95.3142 359.836 99.3391 361.948 102.942C364.061 106.566 366.929 109.39 370.576 111.458C374.223 113.504 378.293 114.549 382.784 114.549C387.276 114.527 391.368 113.504 395.037 111.458Z" fill="white"/>
<path d="M477.293 114.238V116.506H442.514V114.75L464.529 92.579C467.509 89.5992 469.532 87.0419 470.578 84.9071C471.623 82.7723 472.156 80.593 472.156 78.3471C472.156 74.878 470.978 72.1429 468.598 70.1193C466.219 68.1179 462.839 67.1172 458.436 67.1172C455.011 67.1172 452.032 67.6287 449.519 68.6294C447.006 69.63 444.827 71.1866 443.026 73.2992L441.335 71.6759C445.294 67.1172 451.031 64.849 458.503 64.849C463.439 64.849 467.353 66.0498 470.244 68.4515C473.135 70.8531 474.58 74.0997 474.58 78.2137C474.58 80.8154 474.002 83.306 472.824 85.7076C471.645 88.1093 469.466 90.8889 466.286 94.0689L446.25 114.238H477.293Z" fill="white"/>
<path d="M497.374 113.616C494.371 111.481 492.037 108.456 490.369 104.52C488.701 100.584 487.878 96.0258 487.878 90.8445C487.878 85.6631 488.701 81.1045 490.369 77.1685C492.037 73.2325 494.371 70.2082 497.374 68.0734C500.376 65.9386 503.822 64.8712 507.692 64.8712C511.605 64.8712 515.052 65.9386 518.032 68.0734C521.012 70.2082 523.347 73.2325 524.992 77.1685C526.66 81.1045 527.483 85.6631 527.483 90.8445C527.483 96.0258 526.638 100.584 524.992 104.52C523.325 108.456 521.012 111.481 518.032 113.616C515.052 115.75 511.605 116.818 507.692 116.818C503.822 116.818 500.376 115.75 497.374 113.616ZM516.787 111.681C519.433 109.768 521.479 107.033 522.924 103.453C524.37 99.8728 525.081 95.67 525.081 90.8222C525.081 85.9745 524.347 81.7716 522.924 78.1914C521.479 74.6112 519.433 71.876 516.787 69.9636C514.14 68.0512 511.116 67.095 507.692 67.095C504.267 67.095 501.243 68.0512 498.619 69.9636C495.995 71.876 493.971 74.6112 492.526 78.1914C491.08 81.7716 490.369 85.9745 490.369 90.8222C490.369 95.67 491.08 99.8728 492.526 103.453C493.971 107.033 495.995 109.768 498.619 111.681C501.243 113.593 504.267 114.549 507.692 114.549C511.116 114.549 514.14 113.571 516.787 111.681Z" fill="white"/>
<path d="M573.203 114.238V116.506H538.424V114.75L560.439 92.579C563.419 89.5992 565.443 87.0419 566.488 84.9071C567.533 82.7723 568.067 80.593 568.067 78.3471C568.067 74.878 566.888 72.1429 564.509 70.1193C562.129 68.1179 558.749 67.1172 554.346 67.1172C550.922 67.1172 547.942 67.6287 545.429 68.6294C542.916 69.63 540.737 71.1866 538.936 73.2992L537.246 71.6759C541.204 67.1172 546.941 64.849 554.413 64.849C559.35 64.849 563.263 66.0498 566.154 68.4515C569.045 70.8531 570.49 74.0997 570.49 78.2137C570.49 80.8154 569.912 83.306 568.734 85.7076C567.555 88.1093 565.376 90.8889 562.196 94.0689L542.16 114.238H573.203Z" fill="white"/>
<path d="M611.785 91.7117C614.832 94.3135 616.366 97.827 616.366 102.274C616.366 106.633 614.854 110.146 611.852 112.815C608.85 115.483 604.58 116.818 599.043 116.818C595.285 116.818 591.772 116.173 588.547 114.861C585.323 113.571 582.877 111.837 581.209 109.679L582.521 107.923C584.077 109.88 586.323 111.481 589.236 112.704C592.15 113.927 595.396 114.527 598.954 114.527C603.802 114.527 607.493 113.415 610.073 111.236C612.63 109.035 613.92 106.055 613.92 102.274C613.92 98.4052 612.608 95.4031 609.962 93.2461C607.315 91.0891 603.357 90.0217 598.065 90.0217H595.196V88.2649L611.185 67.4285H582.854V65.1381H614.409V66.8948L598.332 87.8202C604.247 87.8202 608.716 89.1322 611.785 91.7117Z" fill="white"/>
<path d="M107.353 43.8791V22.131C107.353 17.2388 104.24 15.571 101.416 15.571C98.6581 15.571 95.4114 17.2388 95.4114 21.9308V43.8791H86.4276V22.131C86.4276 17.2388 83.3143 15.571 80.4902 15.571C77.666 15.571 74.4861 17.2388 74.4861 22.131V43.8791H65.5022V7.89907H74.286V11.2124C76.6431 8.78857 79.9565 7.47656 83.2698 7.47656C87.2726 7.47656 90.5192 8.92199 92.8097 12.0352C95.8562 8.85528 99.1029 7.47656 103.595 7.47656C107.197 7.47656 110.422 8.65514 112.445 10.6565C115.358 13.5474 116.381 16.9274 116.381 20.8635V43.8569H107.353V43.8791Z" fill="white"/>
<path d="M141.688 43.8791V40.7659C139.264 43.1898 136.996 44.2127 132.837 44.2127C128.768 44.2127 125.788 43.1898 123.653 41.055C121.718 39.0536 120.696 36.1405 120.696 32.9828C120.696 27.2233 124.632 22.5535 132.993 22.5535H141.487V20.7523C141.487 16.794 139.553 15.0817 134.794 15.0817C131.347 15.0817 129.746 15.9268 127.878 18.0393L122.141 12.4577C125.677 8.58843 129.124 7.47656 135.128 7.47656C145.201 7.47656 150.449 11.7461 150.449 20.1741V43.8569H141.688V43.8791ZM141.465 28.691H134.349C131.103 28.691 129.301 30.2254 129.301 32.7604C129.301 35.251 130.947 36.9188 134.483 36.9188C136.973 36.9188 138.552 36.6965 140.153 35.1843C141.109 34.2726 141.465 32.8272 141.465 30.6257V28.691Z" fill="white"/>
<path d="M178.268 43.8791V22.131C178.268 17.2388 175.177 15.571 172.331 15.571C169.484 15.571 166.327 17.2388 166.327 22.131V43.8791H157.343V7.89907H166.104V11.2124C168.461 8.72186 171.775 7.47656 175.088 7.47656C178.691 7.47656 181.581 8.65514 183.583 10.6565C186.474 13.5474 187.252 16.9274 187.252 20.8635V43.8569H178.268V43.8791Z" fill="white"/>
<path d="M217.651 39.8764C215.449 42.2114 211.78 44.3017 206.465 44.3017C201.128 44.3017 197.548 42.2336 195.347 39.8764C192.1 36.4964 191.277 32.4269 191.277 25.8447C191.277 19.3514 192.1 15.2819 195.347 11.9018C197.57 9.56691 201.15 7.49884 206.465 7.49884C211.78 7.49884 215.427 9.56691 217.651 11.9018C220.897 15.3042 221.72 19.3736 221.72 25.8447C221.698 32.4269 220.875 36.4964 217.651 39.8764ZM210.668 17.1499C209.623 16.1047 208.244 15.5488 206.465 15.5488C204.664 15.5488 203.33 16.1047 202.307 17.1499C200.439 19.0178 200.239 22.1088 200.239 25.8447C200.239 29.5805 200.439 32.7382 202.307 34.6284C203.33 35.6513 204.664 36.2073 206.465 36.2073C208.244 36.2073 209.623 35.6513 210.668 34.6284C212.536 32.7605 212.736 29.5805 212.736 25.8447C212.736 22.131 212.536 19.04 210.668 17.1499Z" fill="white"/>
<path d="M245.669 17.7057C244.291 16.327 243.112 15.571 240.911 15.571C238.153 15.571 235.107 17.6613 235.107 22.1977V43.8791H226.123V7.89907H234.884V11.3459C236.619 9.27779 240.066 7.47656 243.935 7.47656C247.448 7.47656 249.939 8.36606 252.43 10.8566L245.669 17.7057Z" fill="white"/>
<path d="M274.6 43.8791V40.7659C272.177 43.1898 269.908 44.2127 265.772 44.2127C261.703 44.2127 258.723 43.1898 256.588 41.055C254.654 39.0536 253.631 36.1405 253.631 32.9828C253.631 27.2233 257.567 22.5535 265.928 22.5535H274.423V20.7523C274.423 16.794 272.488 15.0817 267.707 15.0817C264.26 15.0817 262.681 15.9268 260.791 18.0393L255.076 12.4577C258.59 8.58843 262.036 7.47656 268.063 7.47656C278.136 7.47656 283.384 11.7461 283.384 20.1741V43.8569H274.6V43.8791ZM274.4 28.691H267.284C264.038 28.691 262.236 30.2254 262.236 32.7604C262.236 35.251 263.904 36.9188 267.418 36.9188C269.908 36.9188 271.487 36.6965 273.088 35.1843C274.045 34.2726 274.4 32.8272 274.4 30.6257V28.691Z" fill="white"/>
<path d="M330.749 43.8791V22.131C330.749 17.2388 327.636 15.571 324.812 15.571C322.055 15.571 318.808 17.2388 318.808 21.9308V43.8791H309.824V22.131C309.824 17.2388 306.733 15.571 303.887 15.571C301.04 15.571 297.883 17.2388 297.883 22.131V43.8791H288.899V7.89907H297.66V11.2124C300.017 8.78857 303.331 7.47656 306.644 7.47656C310.647 7.47656 313.893 8.92199 316.184 12.0352C319.23 8.85528 322.477 7.47656 326.947 7.47656C330.549 7.47656 333.774 8.65514 335.775 10.6565C338.688 13.5474 339.711 16.9274 339.711 20.8635V43.8569H330.749V43.8791Z" fill="white"/>
<path d="M365.062 43.8791V40.7659C362.638 43.1898 360.37 44.2127 356.211 44.2127C352.142 44.2127 349.162 43.1898 347.027 41.055C345.093 39.0536 344.048 36.1405 344.048 32.9828C344.048 27.2233 347.984 22.5535 356.345 22.5535H364.84V20.7523C364.84 16.794 362.905 15.0817 358.146 15.0817C354.699 15.0817 353.098 15.9268 351.23 18.0393L345.493 12.4577C349.007 8.58843 352.476 7.47656 358.48 7.47656C368.575 7.47656 373.801 11.7461 373.801 20.1741V43.8569H365.062V43.8791ZM364.862 28.691H357.746C354.499 28.691 352.698 30.2254 352.698 32.7604C352.698 35.251 354.366 36.9188 357.879 36.9188C360.37 36.9188 361.949 36.6965 363.528 35.1843C364.484 34.2726 364.84 32.8272 364.84 30.6257V28.691H364.862Z" fill="white"/>
<path d="M386.499 9.05547C386.499 8.63296 386.632 8.27717 386.899 7.98808C387.166 7.67676 387.477 7.54333 387.856 7.54333H391.213C391.569 7.54333 391.88 7.699 392.147 7.98808C392.392 8.2994 392.525 8.6552 392.525 9.05547V23.3763H410.36V9.05547C410.36 8.63296 410.493 8.27717 410.76 7.98808C411.027 7.67676 411.338 7.54333 411.716 7.54333H415.074C415.43 7.54333 415.741 7.699 416.008 7.98808C416.253 8.2994 416.386 8.6552 416.386 9.05547V42.6561C416.386 43.0786 416.253 43.4344 415.986 43.7235C415.719 44.0348 415.408 44.1683 415.03 44.1683H411.672C411.316 44.1683 411.005 44.0126 410.738 43.7235C410.493 43.4122 410.36 43.0564 410.36 42.6561V28.6466H392.525V42.6784C392.525 43.1009 392.392 43.4567 392.125 43.7458C391.858 44.0571 391.547 44.1905 391.191 44.1905H387.833C387.455 44.1905 387.144 44.0348 386.899 43.7458C386.655 43.4344 386.521 43.0786 386.521 42.6784V9.05547H386.499Z" fill="white"/>
<path d="M424.658 35.162C423.969 33.7389 423.457 32.2045 423.102 30.5811C422.746 28.9578 422.568 27.0454 422.568 24.8439C422.568 22.6424 422.99 20.3964 423.858 18.106C424.703 15.8155 425.926 13.8587 427.482 12.1908C430.796 8.67735 435.065 6.92059 440.313 6.92059C445.895 6.92059 450.276 8.72182 453.456 12.302C456.48 15.7044 457.97 20.1296 457.97 25.6C457.97 31.0259 456.302 35.5623 452.989 39.2092C451.432 40.9215 449.542 42.3002 447.363 43.2787C445.183 44.2571 442.96 44.7686 440.714 44.7686C438.468 44.7686 436.555 44.524 434.976 44.057C433.397 43.59 431.952 42.9229 430.662 42.0779C429.373 41.2328 428.216 40.2099 427.216 39.0313C426.215 37.8528 425.325 36.5852 424.658 35.162ZM429.017 25.4443C429.017 27.29 429.239 29.0245 429.684 30.6701C430.129 32.3157 430.796 33.7833 431.707 35.0731C433.709 37.8972 436.555 39.2982 440.202 39.2982C443.871 39.2982 446.695 37.9417 448.697 35.251C450.542 32.7604 451.454 29.536 451.454 25.5777C451.454 21.8419 450.52 18.7731 448.652 16.3492C446.584 13.7252 443.782 12.391 440.224 12.391C436.8 12.391 434.065 13.614 432.041 16.0824C430.04 18.5063 429.017 21.6195 429.017 25.4443Z" fill="white"/>
<path d="M488.857 39.0759L491.326 38.7423C491.771 38.7423 492.082 38.898 492.282 39.1871C492.46 39.4984 492.593 39.8097 492.682 40.1655C492.771 40.4991 492.86 40.8104 492.927 41.0772C493.016 41.3441 493.038 41.6332 493.038 41.9667C493.038 42.2781 492.882 42.6116 492.571 42.9452C492.26 43.2787 491.859 43.5678 491.392 43.8124C490.37 44.3461 489.302 44.6352 488.19 44.6352C487.078 44.6352 486.078 44.5018 485.188 44.2572C484.299 44.0126 483.454 43.6568 482.653 43.212C481.408 42.5004 480.14 41.522 478.828 40.2545C477.516 38.9869 476.493 37.8751 475.737 36.9856L471.779 32.0933C471.223 31.4262 470.712 30.8703 470.267 30.47V42.745C470.267 43.3899 470.045 43.8347 469.622 44.1015C469.466 44.1905 469.289 44.2349 469.066 44.2349H465.642C465.219 44.2349 464.908 44.1015 464.73 43.8569C464.441 43.4344 464.307 43.0564 464.307 42.7228V9.63361C464.307 9.07767 464.463 8.58845 464.752 8.16594C465.041 7.74343 465.53 7.52106 466.198 7.52106H476.872C486.367 7.52106 491.103 11.2792 491.103 18.7732C491.103 22.22 489.836 25.1108 487.279 27.468C484.877 29.6917 482.031 30.8036 478.762 30.8036C478.183 30.8036 477.628 30.7591 477.116 30.6924L480.051 33.8056C481.741 35.5846 483.053 36.7632 484.01 37.3858C485.722 38.4977 487.323 39.0759 488.857 39.0759ZM470.289 25.8669C472.09 26.2894 473.714 26.4895 475.181 26.4895C476.649 26.4895 477.939 26.3561 479.095 26.0893C480.252 25.8224 481.274 25.3777 482.164 24.7995C484.143 23.532 485.122 21.6418 485.122 19.129C485.122 16.883 484.277 15.2152 482.564 14.1256C481.119 13.2138 479.184 12.7691 476.716 12.7691H470.267V25.8669H470.289Z" fill="white"/>
<path d="M500.577 9.05547C500.577 8.63296 500.71 8.27717 500.977 7.98808C501.244 7.67676 501.555 7.54333 501.933 7.54333H505.291C505.647 7.54333 505.958 7.699 506.225 7.98808C506.47 8.2994 506.603 8.6552 506.603 9.05547V42.6784C506.603 43.1009 506.47 43.4567 506.203 43.7458C505.936 44.0571 505.625 44.1905 505.247 44.1905H501.889C501.533 44.1905 501.222 44.0348 500.955 43.7458C500.688 43.4344 500.577 43.0786 500.577 42.6784V9.05547Z" fill="white"/>
<path d="M536.49 7.52108C538.113 7.52108 538.936 8.21044 538.936 9.61139V10.7455C538.936 11.4571 538.825 12.0797 538.58 12.569C538.336 13.0804 538.069 13.5696 537.735 14.0589L523.259 36.3852L521.502 38.6089C521.302 38.898 521.191 39.0981 521.191 39.1871C521.191 39.276 521.28 39.3205 521.458 39.3205C521.635 39.3205 521.858 39.2983 522.125 39.2538L522.992 39.0759C523.815 38.9425 524.46 38.8535 524.904 38.8535H537.735C538.336 38.8535 538.803 38.9425 539.159 39.1426C539.492 39.3427 539.67 39.7652 539.67 40.4324V42.923C539.67 43.5456 539.336 43.9459 538.692 44.1238C538.514 44.1682 538.358 44.1905 538.202 44.1905H517.121C516.21 44.1905 515.52 43.8124 515.009 43.0341C514.831 42.7895 514.72 42.4337 514.631 41.989C514.564 41.5442 514.52 41.0328 514.52 40.4546C514.52 39.6985 514.786 38.8758 515.342 37.9863L529.841 15.4821L531.753 12.947C531.842 12.8358 531.887 12.7469 531.887 12.6579C531.887 12.569 531.776 12.5467 531.576 12.5467L528.084 12.7913H516.966C516.254 12.7913 515.809 12.7024 515.609 12.5022C515.231 12.1909 515.031 11.6795 515.031 10.9679V8.69966C515.031 8.23267 515.164 7.92135 515.409 7.74345C515.654 7.56555 516.054 7.49884 516.61 7.49884H536.49V7.52108Z" fill="white"/>
<path d="M546.141 35.162C545.452 33.7389 544.94 32.2045 544.584 30.5811C544.229 28.9578 544.051 27.0454 544.051 24.8439C544.051 22.6424 544.473 20.3964 545.341 18.106C546.186 15.8155 547.409 13.8587 548.965 12.1908C552.279 8.67735 556.548 6.92059 561.796 6.92059C567.378 6.92059 571.759 8.72182 574.939 12.302C577.963 15.7044 579.453 20.1296 579.453 25.6C579.453 31.0259 577.785 35.5623 574.471 39.2092C572.915 40.9215 571.025 42.3002 568.845 43.2787C566.666 44.2571 564.442 44.7686 562.196 44.7686C559.951 44.7686 558.038 44.524 556.459 44.057C554.88 43.59 553.435 42.9229 552.145 42.0779C550.855 41.2328 549.699 40.2099 548.698 39.0313C547.675 37.8972 546.83 36.5852 546.141 35.162ZM550.522 25.4443C550.522 27.29 550.744 29.0245 551.189 30.6701C551.634 32.3157 552.301 33.7833 553.213 35.0731C555.214 37.8972 558.06 39.2982 561.707 39.2982C565.376 39.2982 568.201 37.9417 570.202 35.251C572.048 32.7604 572.959 29.536 572.959 25.5777C572.959 21.8419 572.025 18.7731 570.157 16.3492C568.089 13.7252 565.287 12.391 561.73 12.391C558.305 12.391 555.57 13.614 553.546 16.0824C551.545 18.5063 550.522 21.6195 550.522 25.4443Z" fill="white"/>
<path d="M585.012 10.5009C585.012 8.52174 585.879 7.54329 587.591 7.54329H588.57C589.215 7.54329 589.682 7.63224 589.926 7.78791C590.415 8.07699 590.86 8.52174 591.26 9.14438L606.671 31.8265C607.271 32.6937 607.716 33.4721 608.05 34.2059L609.028 36.274C609.05 36.2962 609.073 36.3184 609.117 36.3184C609.162 36.3184 609.161 36.1183 609.139 35.6958C609.117 35.2733 609.028 34.6729 608.895 33.8946C608.761 33.094 608.695 32.3157 608.695 31.5374V8.98872C608.695 8.56621 608.828 8.23265 609.073 7.94357C609.317 7.65448 609.629 7.52106 609.962 7.52106H613.12C613.453 7.52106 613.742 7.65448 613.987 7.94357C614.232 8.23265 614.365 8.56621 614.365 8.98872V41.8333C614.365 42.4782 614.165 42.9674 613.765 43.3232C613.098 43.9236 612.497 44.2349 611.941 44.2349H610.474C609.673 44.2349 609.095 44.1015 608.717 43.8569C608.183 43.4344 607.494 42.6561 606.715 41.522C597.598 28.2018 592.728 20.9969 592.061 19.9295L590.082 16.5939C590.06 16.5494 590.015 16.5272 589.948 16.5272C589.882 16.5272 589.882 16.6384 589.926 16.883C589.971 17.1276 590.037 17.5279 590.126 18.0838C590.215 18.6397 590.304 19.2846 590.371 19.9517C590.527 21.5528 590.616 23.0205 590.616 24.3992V42.745C590.616 43.1453 590.482 43.4789 590.238 43.7679C589.993 44.057 589.682 44.1905 589.348 44.1905H586.19C585.857 44.1905 585.568 44.057 585.323 43.7679C585.078 43.4789 584.945 43.1453 584.945 42.745V10.5009H585.012Z" fill="white"/>
<path d="M28.5217 6.65374L27.988 7.12072L27.4543 6.65374C24.052 3.67393 16.2911 0.227142 5.59498 0.382803L2.68188 0.405041V43.7456C4.17179 43.7901 7.37397 43.9458 9.41981 44.2793C20.8943 46.1918 26.2535 50.8838 27.988 52.7518C29.7225 50.8838 35.0817 46.1918 46.5562 44.2793C48.602 43.9458 51.8042 43.7901 53.2941 43.7456V0.405041L50.381 0.382803C39.6626 0.227142 31.9018 3.65169 28.5217 6.65374ZM47.4679 38.2975L46.7563 38.3864C38.8621 39.3204 32.8802 41.4107 28.4772 44.7908L27.988 45.1688L27.4988 44.7908C23.0735 41.4107 17.1139 39.3204 9.21967 38.3864L8.50807 38.2975L8.2857 6.32018L9.13072 6.36465C20.5385 6.92059 26.1645 12.3465 27.988 14.5702C29.8115 12.3687 35.4598 6.92059 46.8453 6.36465L47.6903 6.32018L47.4679 38.2975Z" fill="white"/>
<path opacity="0.7" d="M40.1521 15.3263L34.0591 25.6444L40.1521 35.9626V15.3263Z" fill="white"/>
<path d="M40.152 15.3263H32.0576L27.9437 22.2866L23.852 15.3263H15.6909L21.8507 25.5555L27.9659 35.9403L34.0367 25.6667L40.1298 15.3485L40.152 15.3263Z" fill="white"/>
<path opacity="0.7" d="M15.6909 15.3263V35.9848L21.8507 25.5555L15.6909 15.3263Z" fill="white"/>
<path d="M319.564 153.42H320.787V189H319.564V153.42Z" fill="white"/>
</svg>
