<svg width="693" height="212" viewBox="0 0 693 212" fill="none" xmlns="http://www.w3.org/2000/svg">
<path d="M44.6401 18.9L38.1001 29.2" stroke="#D3C7C4" stroke-opacity="0.855" stroke-width="2"/>
<path d="M24.41 28.94L17.76 18.03" stroke="#D3C7C4" stroke-opacity="0.855" stroke-width="2"/>
<path d="M31.6199 7.84997C39.8999 2.48997 49.0199 0.183306 58.9799 0.929973C59.3199 0.95664 59.4899 1.13997 59.4899 1.47997L59.5199 48.55C59.5199 48.9433 59.3232 49.1566 58.9299 49.19C48.3299 50 39.8199 51.92 31.5899 58.91C31.3299 59.13 31.0766 59.12 30.8299 58.88C23.8899 52.22 13.2699 49.46 3.77992 49.29C3.45326 49.2833 3.28992 49.1166 3.28992 48.79L3.16992 1.69997C3.16992 1.46128 3.26474 1.23236 3.43353 1.06358C3.60231 0.894794 3.83123 0.799972 4.06992 0.799972C13.5799 0.829972 22.7899 1.90997 30.6299 7.80997C30.9499 8.05664 31.2799 8.06997 31.6199 7.84997ZM31.1699 16.4C25.3566 10.76 18.3566 7.82331 10.1699 7.58997C9.72326 7.57664 9.49992 7.79331 9.49992 8.23997V42.78C9.49992 43.1333 9.67992 43.3233 10.0399 43.35C17.6399 43.8366 24.5799 46.1866 30.8599 50.4C31.1533 50.5933 31.4466 50.5966 31.7399 50.41C37.9799 46.3166 44.8399 43.98 52.3199 43.4C52.5373 43.3848 52.7409 43.2885 52.8894 43.1307C53.0379 42.973 53.1203 42.7654 53.1199 42.55L53.3699 7.83997C53.3699 7.65997 53.2799 7.56997 53.0999 7.56997C44.6733 7.71664 37.4833 10.66 31.5299 16.4C31.4815 16.4464 31.417 16.4724 31.3499 16.4724C31.2828 16.4724 31.2183 16.4464 31.1699 16.4Z" fill="#FEFEFF"/>
<path d="M490.586 50.4725C487.973 50.3173 485.419 49.6131 483.068 48.4002C480.718 47.1872 478.618 45.4892 476.888 43.4032C475.158 41.3172 473.832 38.884 472.986 36.2425C472.139 33.6009 471.789 30.8029 471.955 28.008C472.291 22.3636 474.708 17.0748 478.676 13.3052C482.645 9.53567 487.838 7.59405 493.114 7.90752C495.727 8.06274 498.281 8.76693 500.632 9.97988C502.982 11.1928 505.082 12.8908 506.812 14.9768C508.542 17.0628 509.868 19.4961 510.714 22.1376C511.561 24.7791 511.911 27.5772 511.745 30.372C511.41 36.0165 508.992 41.3052 505.024 45.0748C501.056 48.8444 495.862 50.786 490.586 50.4725ZM491.992 44.4394C495.35 44.4101 498.556 42.7838 500.905 39.9183C503.255 37.0527 504.555 33.1827 504.52 29.1595C504.484 25.1363 503.117 21.2896 500.718 18.4655C498.319 15.6414 495.085 14.0713 491.728 14.1006C488.37 14.1299 485.164 15.7562 482.815 18.6218C480.466 21.4873 479.165 25.3573 479.201 29.3805C479.236 33.4037 480.603 37.2504 483.002 40.0745C485.401 42.8986 488.635 44.4687 491.992 44.4394Z" fill="#FEFEFF"/>
<path d="M626.241 50.4579C620.963 50.1259 616.043 47.5656 612.561 43.3405C609.08 39.1153 607.324 33.5713 607.679 27.928C607.855 25.1337 608.544 22.3992 609.706 19.8806C610.869 17.3619 612.482 15.1085 614.455 13.2489C616.427 11.3893 618.719 9.96005 621.201 9.04264C623.683 8.12523 626.305 7.73768 628.919 7.9021C634.197 8.23416 639.117 10.7944 642.598 15.0196C646.08 19.2447 647.836 24.7888 647.481 30.432C647.305 33.2263 646.616 35.9608 645.454 38.4794C644.291 40.9981 642.678 43.2515 640.705 45.1111C638.733 46.9707 636.441 48.4 633.959 49.3174C631.477 50.2348 628.855 50.6223 626.241 50.4579ZM627.706 44.4596C629.367 44.448 631.009 44.0444 632.539 43.2719C634.068 42.4993 635.455 41.3729 636.619 39.957C637.784 38.5411 638.704 36.8635 639.327 35.0198C639.95 33.1761 640.264 31.2025 640.25 29.2117C640.222 25.1911 638.862 21.3445 636.47 18.5181C634.078 15.6917 630.849 14.117 627.494 14.1404C625.833 14.152 624.191 14.5556 622.661 15.3281C621.132 16.1007 619.745 17.2271 618.58 18.643C617.416 20.0589 616.496 21.7366 615.873 23.5802C615.25 25.4239 614.936 27.3975 614.95 29.3883C614.978 33.4089 616.338 37.2555 618.73 40.0819C621.122 42.9083 624.351 44.483 627.706 44.4596Z" fill="#FEFEFF"/>
<path d="M83.47 12.44C88.99 8.01001 98.26 6.98001 103.07 13.26C103.141 13.3543 103.231 13.4322 103.335 13.4887C103.438 13.5451 103.553 13.5786 103.671 13.5872C103.79 13.5957 103.909 13.5789 104.02 13.538C104.132 13.4971 104.234 13.433 104.32 13.35C113.5 4.25001 129.15 8.69001 129.7 22.71C130.047 31.3967 130.127 40.09 129.94 48.79C129.933 49.0967 129.777 49.25 129.47 49.25H120.51C120.17 49.25 120 49.08 120 48.74C120.013 41.4733 120.007 34.2133 119.98 26.96C119.967 24.0667 119.647 22.0233 119.02 20.83C116.98 16.97 110.38 16.75 107.88 20.46C105.42 24.13 106.74 43.41 106.76 48.72C106.76 48.8606 106.704 48.9954 106.605 49.0948C106.505 49.1942 106.371 49.25 106.23 49.25H97.01C96.6767 49.25 96.51 49.0833 96.51 48.75C96.49 43.5 97.82 23.83 95.28 20.36C90.86 14.32 83.26 18.81 83.25 25.76C83.25 33.4 83.2567 41.05 83.27 48.71C83.2767 49.0433 83.1133 49.2133 82.78 49.22L73.78 49.32C73.4267 49.32 73.25 49.1433 73.25 48.79V9.87001C73.25 9.45001 73.46 9.24001 73.88 9.24001L82.37 9.28001C82.8967 9.28001 83.1267 9.54001 83.06 10.06L82.79 12.06C82.7795 12.1431 82.794 12.2274 82.8317 12.3021C82.8695 12.3769 82.9287 12.4386 83.0018 12.4795C83.0749 12.5203 83.1585 12.5384 83.2419 12.5313C83.3254 12.5243 83.4048 12.4925 83.47 12.44Z" fill="#FEFEFF"/>
<path d="M141.59 19.27C139.99 17.9367 138.46 16.4467 137 14.8C136.773 14.5533 136.763 14.3 136.97 14.04C141.55 8.25 151.31 7.98 158.1 9.65C168.8 12.28 168.01 20.32 168.2 30.8C168.313 36.7867 168.313 42.7867 168.2 48.8C168.193 49.1 168.04 49.25 167.74 49.25H158.69C158.621 49.2495 158.552 49.2339 158.489 49.2044C158.426 49.1748 158.37 49.1318 158.326 49.0786C158.281 49.0253 158.248 48.963 158.23 48.8959C158.212 48.8288 158.209 48.7586 158.22 48.69L158.54 46.8C158.553 46.7301 158.545 46.6578 158.516 46.5928C158.487 46.5278 158.439 46.4731 158.378 46.4362C158.317 46.3993 158.246 46.3818 158.175 46.386C158.104 46.3903 158.036 46.4161 157.98 46.46C147.97 53.92 131.47 48.24 135.54 33.67C138.08 24.59 149.52 25.2 157.51 25.57C157.857 25.59 158.053 25.4267 158.1 25.08C159.33 15.65 147.9 15.47 143.23 20.21C142.983 20.4567 142.71 20.4867 142.41 20.3C142.25 20.2 142.127 20.0533 142.04 19.86C141.933 19.6333 141.783 19.4367 141.59 19.27ZM146.44 40.56C148.84 42.26 153.95 41.89 156.2 39.84C158.08 38.14 158.693 35.7567 158.04 32.69C157.973 32.3767 157.783 32.2333 157.47 32.26C154.85 32.4467 152.237 32.54 149.63 32.54C145.13 32.54 142.42 37.73 146.44 40.56Z" fill="#FEFEFF"/>
<path d="M247.462 34.0537C247.48 36.0825 247.098 38.095 246.338 39.9762C245.578 41.8574 244.454 43.5705 243.032 45.0176C241.61 46.4647 239.917 47.6176 238.049 48.4104C236.182 49.2031 234.176 49.6203 232.147 49.638L229.568 49.6605C225.47 49.6962 221.526 48.1028 218.604 45.2308C215.681 42.3587 214.019 38.4433 213.983 34.3459L213.898 24.5463C213.88 22.5174 214.262 20.505 215.022 18.6238C215.782 16.7426 216.905 15.0295 218.327 13.5824C219.75 12.1352 221.443 10.9824 223.31 10.1896C225.178 9.39684 227.184 8.9797 229.212 8.962L231.792 8.93949C235.89 8.90374 239.834 10.4972 242.756 13.3692C245.679 16.2412 247.341 20.1567 247.377 24.2541L247.462 34.0537ZM237.539 24.3319C237.54 23.4954 237.377 22.6668 237.058 21.8934C236.739 21.12 236.271 20.4169 235.681 19.8244C235.09 19.2318 234.389 18.7614 233.617 18.4399C232.844 18.1185 232.016 17.9523 231.18 17.9508L230.32 17.9493C228.63 17.9463 227.009 18.6146 225.812 19.8071C224.616 20.9996 223.942 22.6187 223.939 24.3081L223.921 34.2481C223.92 35.0846 224.083 35.9132 224.402 36.6866C224.721 37.46 225.189 38.1631 225.779 38.7556C226.37 39.3482 227.071 39.8186 227.843 40.1401C228.616 40.4615 229.444 40.6277 230.28 40.6292L231.14 40.6307C232.83 40.6336 234.451 39.9654 235.648 38.7729C236.844 37.5803 237.518 35.9613 237.521 34.2719L237.539 24.3319Z" fill="#FEFEFF"/>
<path d="M262.9 12.59C268.58 7.94002 276.12 7.17002 281.66 12.31C281.887 12.5234 281.89 12.7367 281.67 12.95L274.8 19.82C274.547 20.08 274.287 20.0867 274.02 19.84C270.76 16.81 265.61 17.25 263.66 21.08C263.06 22.26 262.76 24.2534 262.76 27.06C262.753 34.2867 262.75 41.5134 262.75 48.74C262.75 49.08 262.58 49.25 262.24 49.25H253.25C252.917 49.25 252.75 49.0834 252.75 48.75V9.75002C252.75 9.41668 252.917 9.25002 253.25 9.25002H262.04C262.107 9.24928 262.174 9.26322 262.235 9.29091C262.296 9.31861 262.351 9.35941 262.396 9.41057C262.44 9.46173 262.473 9.52207 262.493 9.58752C262.513 9.65297 262.519 9.72202 262.51 9.79002L262.19 12.19C262.179 12.2768 262.194 12.3648 262.233 12.443C262.273 12.5211 262.334 12.5858 262.411 12.6287C262.487 12.6716 262.574 12.6909 262.661 12.684C262.748 12.6771 262.831 12.6444 262.9 12.59Z" fill="#FEFEFF"/>
<path d="M306.48 46.47C300.45 51.02 291.2 51.3 286.14 45.33C282.22 40.71 282.43 32.92 287.09 28.82C291.73 24.73 300.08 25.35 305.95 25.53C306.283 25.5433 306.477 25.3867 306.53 25.06C307.99 15.58 296.3 15.81 291.68 20.22C291.46 20.4333 291.24 20.4333 291.02 20.22L285.41 14.83C285.343 14.7646 285.289 14.6865 285.252 14.6002C285.215 14.5138 285.195 14.421 285.194 14.3271C285.193 14.2331 285.211 14.1399 285.246 14.0529C285.282 13.9658 285.334 13.8867 285.4 13.82C291.44 7.72998 302.4 7.59998 309.42 10.58C315.58 13.18 316.49 18.56 316.5 25.19C316.513 33.0433 316.51 40.8966 316.49 48.75C316.49 49.0833 316.323 49.25 315.99 49.25H307.34C307.256 49.2496 307.174 49.2311 307.098 49.1959C307.023 49.1606 306.955 49.1094 306.901 49.0458C306.847 48.9822 306.807 48.9076 306.785 48.8272C306.762 48.7468 306.757 48.6625 306.77 48.58L307.05 46.82C307.15 46.2266 306.96 46.11 306.48 46.47ZM296.59 32.59C292.17 33.88 291.65 39.51 295.93 41.12C301.94 43.38 307.91 39.95 306.37 32.79C306.31 32.5033 306.133 32.3533 305.84 32.34C301.1 32.0933 298.017 32.1766 296.59 32.59Z" fill="#FEFEFF"/>
<path d="M332.45 12.13C332.44 12.2048 332.453 12.2808 332.486 12.3484C332.519 12.416 332.572 12.4721 332.638 12.5097C332.703 12.5472 332.778 12.5644 332.853 12.5591C332.929 12.5539 333 12.5263 333.06 12.48C340.047 7.17335 346.71 7.46669 353.05 13.36C353.31 13.6067 353.57 13.6067 353.83 13.36C360.7 6.88002 373.35 7.00002 377.74 15.71C378.92 18.0434 379.553 21.9934 379.64 27.56C379.747 34.5934 379.677 41.6234 379.43 48.65C379.417 49.05 379.21 49.25 378.81 49.25H370.01C369.663 49.25 369.49 49.0767 369.49 48.73C369.51 41.1234 369.503 33.52 369.47 25.92C369.463 23.6534 369.16 21.9734 368.56 20.88C366.31 16.8 359.46 16.87 357.3 20.7C356.593 21.9534 356.243 24.05 356.25 26.99C356.263 34.2434 356.26 41.4934 356.24 48.74C356.24 49.0534 356.083 49.2134 355.77 49.22L346.73 49.32C346.43 49.32 346.28 49.1733 346.28 48.88C346.227 40.9067 346.213 32.9534 346.24 25.02C346.28 15.38 332.82 14.77 332.77 26.6C332.75 33.9867 332.743 41.3834 332.75 48.79C332.75 49.1434 332.577 49.3167 332.23 49.31L323.36 49.22C323.197 49.2174 323.042 49.152 322.928 49.0379C322.814 48.9237 322.75 48.7701 322.75 48.61V10.29C322.75 10.0168 322.859 9.75486 323.052 9.5617C323.245 9.36854 323.507 9.26002 323.78 9.26002L331.91 9.25002C332.025 9.25056 332.139 9.27548 332.244 9.32309C332.349 9.3707 332.443 9.43992 332.519 9.52609C332.594 9.61226 332.651 9.71341 332.684 9.82274C332.717 9.93207 332.726 10.0471 332.71 10.16L332.45 12.13Z" fill="#FEFEFF"/>
<path d="M407.52 46.44C399.07 52.6 384.24 50.39 384.52 37.46C384.81 24.46 397.52 25.3 406.96 25.53C407.253 25.5433 407.43 25.4033 407.49 25.11C409.33 15.73 397.6 15.84 392.85 20.15C392.597 20.3833 392.34 20.3833 392.08 20.15L386.39 14.81C385.99 14.43 386 14.06 386.42 13.7C396.44 5.23999 418.16 6.28999 417.66 24.01C417.433 32.21 417.413 40.4167 417.6 48.63C417.607 49.0433 417.403 49.25 416.99 49.25H408.3C408.213 49.25 408.127 49.2309 408.049 49.194C407.97 49.1571 407.901 49.1033 407.845 49.0364C407.79 48.9696 407.75 48.8913 407.728 48.8072C407.707 48.7231 407.704 48.6353 407.72 48.55L408.05 46.78C408.157 46.22 407.98 46.1067 407.52 46.44ZM394.24 36.73C393.97 44.03 409.95 43.89 407.35 32.72C407.277 32.42 407.087 32.28 406.78 32.3C403.18 32.56 394.44 31.05 394.24 36.73Z" fill="#FEFEFF"/>
<path d="M438.47 26.2C438.47 26.2796 438.502 26.3559 438.558 26.4121C438.614 26.4684 438.69 26.5 438.77 26.5H458C458.333 26.5 458.5 26.3333 458.5 26V10.22C458.5 10.0183 458.56 9.82071 458.672 9.65184C458.783 9.48296 458.943 9.3502 459.13 9.27C460.617 8.63667 462.173 8.53 463.8 8.95C464.221 9.05873 464.594 9.30442 464.86 9.6484C465.126 9.99237 465.271 10.4151 465.27 10.85C465.27 22.8433 465.2 34.9 465.06 47.02C465.01 51.39 458.1 50.73 458.42 46.84C458.8 42.35 458.54 37.42 458.46 32.88C458.453 32.6 458.31 32.46 458.03 32.46L439.16 32.5C438.793 32.5 438.603 32.6833 438.59 33.05C438.383 40.01 438.357 44.6567 438.51 46.99C438.74 50.61 436.06 49.75 433.74 49.75C433.212 49.75 432.706 49.5403 432.333 49.1671C431.96 48.794 431.75 48.2878 431.75 47.76V10.35C431.75 10.1601 431.803 9.97404 431.902 9.81187C432 9.64969 432.142 9.51763 432.31 9.43C434.15 8.47667 436.053 8.41334 438.02 9.24C438.162 9.29918 438.283 9.39999 438.368 9.52984C438.454 9.65968 438.499 9.81279 438.5 9.97L438.47 26.2Z" fill="#FEFEFF"/>
<path d="M533.84 35.25C537.74 40.11 542.39 45.11 549.2 43.57C549.371 43.5318 549.55 43.5591 549.7 43.6464C549.851 43.7336 549.961 43.8744 550.01 44.04L550.84 46.92C550.94 47.28 550.867 47.5967 550.62 47.87C542.52 56.87 530.3 40.48 526.16 34.92C526.09 34.8261 525.991 34.7572 525.879 34.7232C525.767 34.6892 525.647 34.6919 525.536 34.731C525.426 34.77 525.331 34.8434 525.265 34.9404C525.199 35.0374 525.166 35.1529 525.17 35.27L525.52 48.39C525.524 48.5776 525.49 48.7641 525.42 48.9379C525.35 49.1117 525.245 49.2691 525.112 49.4004C524.978 49.5317 524.82 49.634 524.646 49.701C524.472 49.768 524.286 49.7983 524.1 49.79L519.95 49.64C519.627 49.6271 519.322 49.4908 519.098 49.2596C518.875 49.0285 518.75 48.7204 518.75 48.4V10.76C518.749 10.2878 518.93 9.83322 519.255 9.48927C519.581 9.14532 520.026 8.93809 520.5 8.91003C529 8.38003 546.46 6.61003 548.49 18.56C550.07 27.85 543.43 34.77 534.04 34.83C533.68 34.83 533.613 34.97 533.84 35.25ZM525.33 15.52L525.23 28.9C525.229 29.0269 525.253 29.1528 525.3 29.2705C525.348 29.3881 525.418 29.4951 525.508 29.5853C525.597 29.6755 525.703 29.7471 525.82 29.796C525.937 29.8449 526.063 29.87 526.19 29.87L532.47 29.91C534.923 29.9259 537.281 29.2366 539.025 27.9935C540.768 26.7505 541.756 25.0552 541.77 23.28L541.79 21.38C541.797 20.4993 541.564 19.6254 541.105 18.8083C540.645 17.9913 539.967 17.247 539.111 16.6183C538.255 15.9895 537.236 15.4884 536.114 15.1438C534.991 14.7993 533.787 14.6179 532.57 14.61L526.29 14.57C526.037 14.57 525.794 14.6698 525.615 14.8477C525.435 15.0255 525.333 15.2672 525.33 15.52Z" fill="#FEFEFF"/>
<path d="M564.19 8.83002H560.87C559.981 8.83002 559.26 9.55084 559.26 10.44V48.14C559.26 49.0292 559.981 49.75 560.87 49.75H564.19C565.079 49.75 565.8 49.0292 565.8 48.14V10.44C565.8 9.55084 565.079 8.83002 564.19 8.83002Z" fill="#FEFEFF"/>
<path d="M593.52 14.66L576.25 14.79C575.763 14.7967 575.52 14.5534 575.52 14.06V9.52003C575.52 9.42416 575.539 9.32924 575.576 9.24067C575.612 9.1521 575.666 9.07162 575.734 9.00384C575.802 8.93605 575.882 8.88228 575.971 8.8456C576.059 8.80891 576.154 8.79003 576.25 8.79003C583.943 8.71003 591.607 8.70669 599.24 8.78002C602.93 8.82002 602.88 12.62 601.24 15.24C595.173 24.9267 588.94 34.5 582.54 43.96C582.52 43.9934 582.527 44.01 582.56 44.01L601.52 43.64C601.681 43.6374 601.84 43.6665 601.989 43.7256C602.138 43.7847 602.274 43.8727 602.389 43.9843C602.503 44.096 602.594 44.2292 602.656 44.3761C602.718 44.5231 602.75 44.6807 602.75 44.84V48.76C602.75 48.8887 602.725 49.0162 602.675 49.1351C602.626 49.254 602.554 49.362 602.463 49.453C602.372 49.544 602.264 49.6162 602.145 49.6654C602.026 49.7147 601.899 49.74 601.77 49.74C593.743 49.76 585.653 49.76 577.5 49.74C574.2 49.73 574.41 45.13 575.68 43.14C581.653 33.74 587.667 24.3667 593.72 15.02C593.873 14.78 593.807 14.66 593.52 14.66Z" fill="#FEFEFF"/>
<path d="M680.63 40.17C679.58 30.03 680.23 19.88 680.29 9.62002C680.29 9.42283 680.369 9.23357 680.509 9.0932C680.649 8.95283 680.84 8.87265 681.04 8.87002L685.49 8.84002C685.977 8.83336 686.22 9.07336 686.22 9.56002L686.32 47.74C686.321 48.1013 686.208 48.4538 685.998 48.7479C685.788 49.042 685.492 49.2631 685.15 49.38C680.56 50.96 679.38 48.74 676.84 45.16C670.907 36.7667 665.163 28.2334 659.61 19.56C659.594 19.5351 659.571 19.5162 659.544 19.5062C659.516 19.4963 659.486 19.4959 659.458 19.5052C659.431 19.5144 659.407 19.5328 659.391 19.5572C659.375 19.5817 659.367 19.6109 659.37 19.64C659.95 28.2534 660.053 36.9 659.68 45.58C659.65 46.44 660.07 48.15 659.44 49.23C659.24 49.5767 658.94 49.75 658.54 49.75H655.23C654.774 49.75 654.336 49.5688 654.014 49.2462C653.691 48.9237 653.51 48.4862 653.51 48.03C653.497 36.31 653.493 24.6334 653.5 13C653.5 11.8734 653.657 10.8767 653.97 10.01C654.09 9.67669 654.313 9.44002 654.64 9.30002C659.1 7.34002 660.14 10.08 662.62 13.62C668.7 22.3 674.64 31.17 680.44 40.23C680.449 40.2531 680.467 40.2718 680.49 40.2824C680.513 40.293 680.539 40.2947 680.562 40.2871C680.586 40.2796 680.606 40.2634 680.619 40.2417C680.631 40.22 680.635 40.1944 680.63 40.17Z" fill="#FEFEFF"/>
<path d="M185.45 11.96C185.403 12.0534 185.389 12.1604 185.413 12.2626C185.436 12.3647 185.494 12.4556 185.577 12.5196C185.66 12.5835 185.762 12.6166 185.867 12.613C185.971 12.6094 186.072 12.5695 186.15 12.5C192.69 6.73999 203.82 7.83999 207.72 15.94C208.68 17.94 209.18 21.6033 209.22 26.93C209.28 34.2033 209.28 41.4833 209.22 48.77C209.22 49.09 209.06 49.25 208.74 49.25H199.77C199.64 49.25 199.515 49.1984 199.424 49.1065C199.332 49.0146 199.28 48.89 199.28 48.76C199.22 40.8933 199.213 33.06 199.26 25.26C199.32 15.53 186.24 14.88 185.92 25.5C185.693 33.2 185.67 40.9067 185.85 48.62C185.857 49.04 185.65 49.25 185.23 49.25H176.25C175.917 49.25 175.75 49.0833 175.75 48.75V9.74999C175.75 9.6191 175.802 9.49342 175.896 9.39993C175.989 9.30645 176.117 9.25261 176.25 9.24999C178.623 9.24332 181.05 9.23999 183.53 9.23999C184.443 9.23999 185.077 9.42999 185.43 9.80999C185.91 10.33 185.917 11.0467 185.45 11.96Z" fill="#FEFEFF"/>
<path d="M44.64 18.9L38.1 29.2L31.57 40.05C31.3567 40.4033 31.1467 40.4033 30.94 40.05L24.41 28.94L17.76 18.03C20.2133 17.3566 23.0833 17.23 26.37 17.65C26.6367 17.6833 26.84 17.8166 26.98 18.05L30.85 24.59C30.8969 24.6678 30.963 24.7324 31.042 24.7773C31.121 24.8222 31.2099 24.8458 31.3 24.8458C31.39 24.8458 31.4781 24.8222 31.5553 24.7773C31.6325 24.7324 31.6962 24.6678 31.74 24.59L35.65 17.96C35.83 17.6533 36.1 17.5 36.46 17.5H44.5C44.8467 17.5 44.9933 17.67 44.94 18.01C44.8667 18.49 44.7667 18.7866 44.64 18.9Z" fill="#FEFEFF"/>
<path d="M17.76 18.03L24.41 28.94L18.08 39.64C17.74 40.2134 17.5734 40.1667 17.58 39.5L17.76 18.03Z" fill="#977871" fill-opacity="0.706"/>
<path d="M44.6401 18.9L45.0101 38.92C45.0091 39.0574 44.9633 39.1907 44.8795 39.2996C44.7958 39.4084 44.6788 39.487 44.5463 39.5232C44.4138 39.5595 44.2731 39.5514 44.1456 39.5003C44.0181 39.4492 43.9108 39.3578 43.8401 39.24L38.1001 29.2L44.6401 18.9Z" fill="#977871" fill-opacity="0.706"/>
<path d="M459.58 101.945C459.607 109.642 456.469 117.034 450.856 122.496C445.243 127.958 437.616 131.042 429.651 131.07C421.687 131.098 414.038 128.067 408.387 122.644C402.737 117.222 399.547 109.851 399.52 102.155C399.493 94.4583 402.631 87.066 408.244 81.604C413.857 76.1421 421.484 73.058 429.449 73.0302C437.413 73.0024 445.062 76.0332 450.713 81.4558C456.363 86.8784 459.553 94.2487 459.58 101.945ZM454.95 102.05C454.95 98.7079 454.292 95.3985 453.013 92.3107C451.734 89.223 449.859 86.4174 447.496 84.0542C445.133 81.6909 442.327 79.8163 439.239 78.5373C436.152 77.2583 432.842 76.6 429.5 76.6C426.158 76.6 422.848 77.2583 419.761 78.5373C416.673 79.8163 413.867 81.6909 411.504 84.0542C409.141 86.4174 407.266 89.223 405.987 92.3107C404.708 95.3985 404.05 98.7079 404.05 102.05C404.05 108.8 406.731 115.273 411.504 120.046C416.277 124.819 422.75 127.5 429.5 127.5C436.25 127.5 442.723 124.819 447.496 120.046C452.269 115.273 454.95 108.8 454.95 102.05Z" fill="#FEFEFF"/>
<path d="M525.58 128.58C526.54 129.067 527.477 129.5 528.39 129.88C528.461 129.906 528.521 129.957 528.558 130.023C528.595 130.089 528.607 130.166 528.593 130.241C528.579 130.315 528.538 130.382 528.479 130.43C528.42 130.477 528.346 130.502 528.27 130.5H497.72C497.377 130.499 497.043 130.396 496.759 130.204C496.475 130.013 496.255 129.742 496.125 129.425C495.995 129.108 495.963 128.759 496.031 128.424C496.1 128.088 496.266 127.781 496.51 127.54C505.117 119.067 513.293 110.883 521.04 102.99C524.127 99.85 526.107 97.4167 526.98 95.69C530.48 88.82 528.73 79.91 520.25 77.76C511.63 75.5867 504.18 77.4367 497.9 83.31C497.653 83.5433 497.41 83.54 497.17 83.3L495.21 81.33C494.97 81.09 494.967 80.85 495.2 80.61C507.92 67.61 540.88 70.76 531.09 96.8C530.463 98.4733 528.527 100.967 525.28 104.28C518.06 111.653 510.777 118.86 503.43 125.9C502.67 126.627 502.813 126.99 503.86 126.99C509.813 127.01 516.027 127.01 522.5 126.99C523.81 126.99 524.73 128.15 525.58 128.58Z" fill="#FEFEFF"/>
<path d="M549.15 90.15C552.64 77.78 564.12 70.27 576.33 74.25C596.52 80.85 597.43 115.87 582.08 127.16C574.25 132.93 561.82 131.87 555.04 124.65C546.96 116.05 546.04 101.14 549.15 90.15ZM574.94 77.72C548.68 69.42 543.73 119.34 564.8 126.42C568.467 127.653 572.063 127.597 575.59 126.25C592.76 119.71 592.88 83.4 574.94 77.72Z" fill="#FEFEFF"/>
<path d="M611.28 127.01L643.15 126.98C643.55 126.98 643.75 127.18 643.75 127.58V129.72C643.75 130.24 643.49 130.5 642.97 130.5H605.73C605.357 130.502 604.992 130.392 604.682 130.184C604.373 129.976 604.133 129.68 603.994 129.334C603.854 128.988 603.823 128.608 603.902 128.243C603.982 127.879 604.169 127.547 604.44 127.29C612.833 119.237 620.903 111.263 628.65 103.37C633.74 98.19 637.4 93.34 636.49 86.52C635.917 82.26 633.353 79.4534 628.8 78.1C620.027 75.5067 612.397 77.2067 605.91 83.2C605.583 83.5 605.257 83.5 604.93 83.2L603.08 81.47C602.713 81.13 602.713 80.7867 603.08 80.44C606.6 77.0267 611.147 74.79 616.72 73.73C638.01 69.68 649.6 88.06 633.48 104C625.98 111.42 618.49 118.873 611.01 126.36C610.956 126.413 610.92 126.481 610.905 126.555C610.89 126.629 610.897 126.706 610.926 126.776C610.955 126.846 611.004 126.905 611.067 126.947C611.13 126.989 611.204 127.011 611.28 127.01Z" fill="#FEFEFF"/>
<path d="M8.91 103.76L8.69 126.49C8.69 126.625 8.74373 126.755 8.83938 126.851C8.93502 126.946 9.06474 127 9.2 127H43.74C43.8753 127 44.005 127.054 44.1006 127.149C44.1963 127.245 44.25 127.375 44.25 127.51V130C44.25 130.135 44.1963 130.265 44.1006 130.361C44.005 130.456 43.8753 130.51 43.74 130.51H5.01C4.94303 130.51 4.87671 130.497 4.81483 130.471C4.75296 130.446 4.69673 130.408 4.64938 130.361C4.60202 130.313 4.56445 130.257 4.53882 130.195C4.51319 130.133 4.5 130.067 4.5 130V74.01C4.5 73.943 4.51319 73.8767 4.53882 73.8148C4.56445 73.753 4.60202 73.6967 4.64938 73.6494C4.69673 73.602 4.75296 73.5644 4.81483 73.5388C4.87671 73.5132 4.94303 73.5 5.01 73.5H42.51C42.5824 73.5007 42.6539 73.5169 42.7196 73.5474C42.7853 73.5779 42.8438 73.6221 42.8911 73.677C42.9384 73.7318 42.9735 73.7962 42.994 73.8657C43.0145 73.9352 43.0199 74.0082 43.01 74.08L42.64 76.81C42.623 76.9328 42.5618 77.0452 42.468 77.1262C42.3741 77.2072 42.254 77.2512 42.13 77.25H9.26C9.12474 77.25 8.99502 77.3037 8.89938 77.3994C8.80373 77.495 8.75 77.6247 8.75 77.76V99.24C8.75 99.3753 8.80373 99.505 8.89938 99.6006C8.99502 99.6963 9.12474 99.75 9.26 99.75H38.74C38.8753 99.75 39.005 99.8037 39.1006 99.8994C39.1963 99.995 39.25 100.125 39.25 100.26V102.74C39.25 102.875 39.1963 103.005 39.1006 103.101C39.005 103.196 38.8753 103.25 38.74 103.25H9.42C9.28474 103.25 9.15502 103.304 9.05937 103.399C8.96373 103.495 8.91 103.625 8.91 103.76Z" fill="#FEFEFF"/>
<path d="M63.3999 74.21C63.3999 74.0455 63.4652 73.8878 63.5815 73.7716C63.6978 73.6553 63.8555 73.59 64.0199 73.59L87.8799 73.51C91.6597 73.4963 95.4051 74.1968 98.9021 75.5714C102.399 76.9461 105.579 78.968 108.261 81.5216C110.943 84.0753 113.074 87.1107 114.532 90.4546C115.99 93.7984 116.747 97.3851 116.76 101.01V102.85C116.785 110.169 113.778 117.199 108.4 122.394C103.021 127.589 95.7121 130.522 88.0799 130.55L64.2199 130.63C64.1385 130.63 64.0579 130.614 63.9827 130.583C63.9074 130.552 63.8391 130.506 63.7815 130.448C63.7239 130.391 63.6783 130.322 63.6471 130.247C63.616 130.172 63.5999 130.091 63.5999 130.01L63.3999 74.21ZM67.7099 78.35L67.6299 125.91C67.6299 126.064 67.6602 126.216 67.719 126.358C67.7778 126.5 67.864 126.629 67.9726 126.737C68.0812 126.846 68.2102 126.932 68.3522 126.991C68.4941 127.05 68.6463 127.08 68.7999 127.08L86.9699 127.11C93.7422 127.121 100.241 124.599 105.038 120.099C109.835 115.598 112.537 109.487 112.55 103.11V101.31C112.556 98.1511 111.902 95.0218 110.623 92.1009C109.345 89.1801 107.468 86.5248 105.1 84.2868C102.732 82.0488 99.9195 80.272 96.8224 79.0577C93.7252 77.8434 90.4045 77.2156 87.0499 77.21L68.8799 77.18C68.5696 77.18 68.272 77.3032 68.0526 77.5226C67.8332 77.7421 67.7099 78.0397 67.7099 78.35Z" fill="#FEFEFF"/>
<path d="M138.71 104.25C138.77 119.9 146.54 130.73 163.46 126.34C174.76 123.4 176.53 113.89 176.51 103.75C176.503 94.21 176.493 84.39 176.48 74.29C176.48 73.7633 176.743 73.5 177.27 73.5H180.03C180.125 73.5 180.218 73.5186 180.306 73.5548C180.393 73.591 180.472 73.644 180.539 73.7109C180.606 73.7777 180.659 73.8571 180.695 73.9445C180.731 74.0318 180.75 74.1254 180.75 74.22C180.75 84.5 180.74 94.76 180.72 105C180.69 118.51 175.82 129.31 160.74 130.73C144.98 132.22 135.01 123.82 134.73 107.68C134.543 96.5267 134.463 85.37 134.49 74.21C134.49 73.7367 134.723 73.5 135.19 73.5H138.26C138.64 73.5 138.83 73.6933 138.83 74.08C138.717 84.1467 138.677 94.2033 138.71 104.25Z" fill="#FEFEFF"/>
<path d="M234.69 99.75H264.31C264.427 99.75 264.539 99.7964 264.621 99.8789C264.704 99.9614 264.75 100.073 264.75 100.19V102.81C264.75 102.927 264.704 103.039 264.621 103.121C264.539 103.204 264.427 103.25 264.31 103.25H234.69C234.573 103.25 234.461 103.296 234.379 103.379C234.296 103.461 234.25 103.573 234.25 103.69V126.57C234.25 126.687 234.296 126.799 234.379 126.881C234.461 126.964 234.573 127.01 234.69 127.01L269.06 126.98C269.177 126.98 269.289 127.026 269.371 127.109C269.454 127.191 269.5 127.303 269.5 127.42V130.11C269.5 130.227 269.454 130.339 269.371 130.421C269.289 130.504 269.177 130.55 269.06 130.55L230.45 130.47C230.333 130.47 230.221 130.424 230.139 130.341C230.056 130.259 230.01 130.147 230.01 130.03L229.99 73.94C229.99 73.8233 230.036 73.7114 230.119 73.6289C230.201 73.5464 230.313 73.5 230.43 73.5H267.81C267.927 73.5 268.039 73.5464 268.121 73.6289C268.204 73.7114 268.25 73.8233 268.25 73.94V76.81C268.25 76.9267 268.204 77.0386 268.121 77.1211C268.039 77.2036 267.927 77.25 267.81 77.25H234.69C234.573 77.25 234.461 77.2964 234.379 77.3789C234.296 77.4614 234.25 77.5733 234.25 77.69V99.31C234.25 99.4267 234.296 99.5386 234.379 99.6211C234.461 99.7036 234.573 99.75 234.69 99.75Z" fill="#FEFEFF"/>
<path d="M303.7 104.61L284.52 130.42C284.489 130.463 284.448 130.498 284.402 130.522C284.355 130.546 284.303 130.559 284.25 130.56L279.98 130.61C279.918 130.609 279.857 130.591 279.804 130.558C279.751 130.525 279.709 130.478 279.681 130.422C279.653 130.366 279.641 130.304 279.646 130.242C279.651 130.18 279.673 130.12 279.71 130.07L301.25 101.41C301.292 101.352 301.315 101.282 301.315 101.21C301.315 101.138 301.292 101.068 301.25 101.01L281.28 74.04C281.243 73.9897 281.221 73.9302 281.216 73.8681C281.211 73.806 281.223 73.7437 281.251 73.6879C281.279 73.6322 281.321 73.5852 281.374 73.5521C281.427 73.5189 281.488 73.5009 281.55 73.5H285.7C285.753 73.5008 285.805 73.5139 285.852 73.5382C285.898 73.5625 285.939 73.5973 285.97 73.64L303.86 97.68C303.892 97.7215 303.933 97.7551 303.98 97.7782C304.026 97.8014 304.078 97.8134 304.13 97.8134C304.182 97.8134 304.234 97.8014 304.281 97.7782C304.327 97.7551 304.368 97.7215 304.4 97.68L322.26 73.64C322.291 73.5973 322.332 73.5625 322.379 73.5382C322.425 73.5139 322.477 73.5008 322.53 73.5H326.47C326.533 73.4991 326.595 73.5158 326.65 73.5482C326.704 73.5806 326.748 73.6274 326.777 73.6835C326.806 73.7396 326.819 73.8026 326.814 73.8656C326.809 73.9286 326.787 73.989 326.75 74.04L306.8 100.92C306.758 100.978 306.735 101.048 306.735 101.12C306.735 101.192 306.758 101.262 306.8 101.32L328.35 130.12C328.391 130.172 328.416 130.234 328.422 130.3C328.428 130.365 328.415 130.431 328.384 130.489C328.353 130.548 328.306 130.596 328.249 130.628C328.191 130.66 328.126 130.675 328.06 130.67L323.68 130.41C323.631 130.406 323.583 130.392 323.54 130.368C323.496 130.343 323.459 130.31 323.43 130.27L304.24 104.61C304.208 104.569 304.167 104.535 304.121 104.512C304.074 104.489 304.022 104.477 303.97 104.477C303.918 104.477 303.866 104.489 303.82 104.512C303.773 104.535 303.732 104.569 303.7 104.61Z" fill="#FEFEFF"/>
<path d="M342.57 73.84C342.57 73.7525 342.605 73.6686 342.667 73.6067C342.729 73.5448 342.813 73.51 342.9 73.51C356.88 73.48 383.27 69.39 386.07 89.49C387.99 103.32 378.1 111.32 365.18 111.57C359.253 111.683 353.32 111.757 347.38 111.79C347.067 111.79 346.907 111.947 346.9 112.26L346.7 124.1C346.7 124.171 346.683 124.242 346.651 124.306C346.619 124.369 346.572 124.425 346.515 124.468C346.458 124.51 346.391 124.539 346.321 124.552C346.251 124.564 346.179 124.56 346.11 124.54L343.14 123.64C342.753 123.52 342.56 123.26 342.56 122.86L342.57 73.84ZM346.59 78.22L346.69 107C346.69 107.276 346.8 107.54 346.995 107.735C347.19 107.93 347.454 108.04 347.73 108.04L365.3 107.98C367.5 107.972 369.677 107.592 371.707 106.861C373.737 106.129 375.579 105.061 377.13 103.718C378.681 102.374 379.909 100.781 380.745 99.0295C381.58 97.278 382.007 95.4025 382 93.51V91.47C381.986 87.6486 380.209 83.9899 377.058 81.2988C373.907 78.6077 369.642 77.1046 365.2 77.12L347.63 77.18C347.354 77.18 347.09 77.2896 346.895 77.4846C346.7 77.6797 346.59 77.9442 346.59 78.22Z" fill="#FEFEFF"/>
<path d="M674.02 98.51C684.22 97.88 693.49 103.9 692.8 115.18C691.61 134.87 664.15 134.06 653.04 124.03C652.912 123.915 652.829 123.759 652.806 123.589C652.782 123.419 652.819 123.246 652.91 123.1L654.22 121.02C654.48 120.613 654.797 120.56 655.17 120.86C662.743 126.92 671.017 128.707 679.99 126.22C687.06 124.26 690.24 116.91 687.83 110.26C685.11 102.79 676.81 102.03 669.84 102C669.473 101.999 669.113 101.894 668.802 101.699C668.49 101.504 668.24 101.226 668.08 100.896C667.919 100.567 667.855 100.199 667.894 99.8358C667.932 99.4722 668.073 99.1271 668.3 98.84L684.79 77.78C684.832 77.7244 684.857 77.6582 684.864 77.5891C684.871 77.5199 684.858 77.4505 684.828 77.3888C684.798 77.3272 684.751 77.2759 684.693 77.2407C684.635 77.2055 684.568 77.188 684.5 77.19L655.52 77.28C655.007 77.28 654.75 77.0267 654.75 76.52V74.25C654.75 74.0511 654.829 73.8603 654.97 73.7197C655.11 73.579 655.301 73.5 655.5 73.5H689.18C689.532 73.501 689.878 73.6006 690.177 73.7875C690.476 73.9744 690.716 74.2411 690.87 74.5571C691.025 74.8731 691.087 75.2257 691.05 75.5745C691.012 75.9234 690.877 76.2545 690.66 76.53L673.79 98.08C673.76 98.1211 673.742 98.1699 673.738 98.2208C673.734 98.2717 673.745 98.3226 673.769 98.3676C673.793 98.4127 673.83 98.4499 673.874 98.4751C673.918 98.5003 673.969 98.5124 674.02 98.51Z" fill="#FEFEFF"/>
<path d="M690.98 148.49H0.780022C0.636428 148.49 0.52002 148.606 0.52002 148.75V152.49C0.52002 152.634 0.636428 152.75 0.780022 152.75H690.98C691.124 152.75 691.24 152.634 691.24 152.49V148.75C691.24 148.606 691.124 148.49 690.98 148.49Z" fill="#FEFEFF"/>
<path d="M357.76 171.28H357.74C357.337 171.28 357.01 171.607 357.01 172.01V210.49C357.01 210.893 357.337 211.22 357.74 211.22H357.76C358.163 211.22 358.49 210.893 358.49 210.49V172.01C358.49 171.607 358.163 171.28 357.76 171.28Z" fill="#FEFEFF"/>
<path d="M460.064 189.351C460.119 191.228 459.792 193.098 459.1 194.854C458.408 196.611 457.365 198.219 456.031 199.587C454.696 200.955 453.097 202.056 451.323 202.828C449.55 203.599 447.637 204.026 445.694 204.084C441.771 204.2 437.963 202.806 435.109 200.208C432.256 197.609 430.589 194.02 430.477 190.229C430.421 188.352 430.748 186.482 431.44 184.726C432.132 182.969 433.175 181.361 434.51 179.993C435.844 178.625 437.443 177.524 439.217 176.752C440.99 175.981 442.903 175.554 444.846 175.496C448.769 175.38 452.577 176.774 455.431 179.372C458.285 181.971 459.951 185.56 460.064 189.351ZM456.24 189.79C456.24 186.881 455.084 184.09 453.027 182.033C450.97 179.976 448.179 178.82 445.27 178.82C442.361 178.82 439.57 179.976 437.513 182.033C435.456 184.09 434.3 186.881 434.3 189.79C434.3 192.699 435.456 195.49 437.513 197.547C439.57 199.604 442.361 200.76 445.27 200.76C448.179 200.76 450.97 199.604 453.027 197.547C455.084 195.49 456.24 192.699 456.24 189.79Z" fill="#FEFEFF"/>
<path d="M565.74 204.06C568.76 206.633 571.98 206.777 575.4 204.49C575.78 204.237 576.103 204.293 576.37 204.66L577.29 205.93C577.399 206.084 577.445 206.273 577.417 206.458C577.389 206.644 577.29 206.809 577.14 206.92C570.76 211.78 565.87 208.93 561.09 204.22C560.844 203.98 560.547 203.847 560.2 203.82C547.47 202.74 541.79 187.33 551.79 179.08C559.59 172.64 572.06 175.24 575.56 185.11C578.3 192.84 573.76 200.87 565.89 203.33C565.397 203.483 565.347 203.727 565.74 204.06ZM572.42 189.65C572.42 186.762 571.273 183.992 569.231 181.95C567.188 179.907 564.418 178.76 561.53 178.76C558.642 178.76 555.872 179.907 553.83 181.95C551.787 183.992 550.64 186.762 550.64 189.65C550.64 192.538 551.787 195.308 553.83 197.35C555.872 199.393 558.642 200.54 561.53 200.54C564.418 200.54 567.188 199.393 569.231 197.35C571.273 195.308 572.42 192.538 572.42 189.65Z" fill="#FEFEFF"/>
<path d="M400.06 176.31C400.06 176.156 400.121 176.009 400.23 175.9C400.339 175.791 400.486 175.73 400.64 175.73L412.26 175.79C414.146 175.8 416.012 176.153 417.751 176.83C419.49 177.507 421.068 178.494 422.395 179.735C423.722 180.975 424.772 182.445 425.485 184.061C426.198 185.676 426.56 187.406 426.55 189.15V190.59C426.53 194.111 424.999 197.48 422.293 199.955C419.587 202.431 415.928 203.81 412.12 203.79L400.5 203.73C400.346 203.73 400.199 203.669 400.09 203.56C399.981 203.451 399.92 203.304 399.92 203.15L400.06 176.31ZM403.7 179.78L403.74 199.82C403.74 200.016 403.818 200.204 403.957 200.343C404.095 200.482 404.284 200.56 404.48 200.56L411.52 200.54C414.506 200.534 417.368 199.465 419.475 197.567C421.583 195.669 422.765 193.098 422.76 190.42V189.1C422.758 187.773 422.464 186.46 421.896 185.236C421.328 184.011 420.496 182.899 419.449 181.963C418.401 181.027 417.158 180.286 415.791 179.781C414.424 179.276 412.959 179.017 411.48 179.02L404.44 179.04C404.244 179.04 404.055 179.118 403.917 179.257C403.778 179.396 403.7 179.584 403.7 179.78Z" fill="#FEFEFF"/>
<path d="M470.46 188.25H485.79C485.912 188.25 486.029 188.202 486.115 188.115C486.202 188.029 486.25 187.912 486.25 187.79V176.43C486.25 176.311 486.296 176.197 486.378 176.112C486.459 176.026 486.571 175.975 486.69 175.97L489.5 175.83C489.562 175.827 489.624 175.837 489.682 175.859C489.74 175.881 489.793 175.914 489.838 175.957C489.883 176 489.919 176.052 489.943 176.109C489.967 176.166 489.98 176.228 489.98 176.29L490.03 203.29C490.03 203.412 489.981 203.529 489.895 203.615C489.809 203.702 489.692 203.75 489.57 203.75H486.71C486.588 203.75 486.471 203.702 486.385 203.615C486.298 203.529 486.25 203.412 486.25 203.29V191.71C486.25 191.588 486.202 191.471 486.115 191.385C486.029 191.298 485.912 191.25 485.79 191.25H470.46C470.338 191.25 470.221 191.298 470.135 191.385C470.048 191.471 470 191.588 470 191.71V203.29C470 203.35 469.988 203.41 469.965 203.466C469.942 203.522 469.908 203.573 469.865 203.615C469.823 203.658 469.772 203.692 469.716 203.715C469.66 203.738 469.6 203.75 469.54 203.75H466.73C466.608 203.75 466.491 203.702 466.405 203.615C466.318 203.529 466.27 203.412 466.27 203.29L466.21 176.46C466.21 176.338 466.258 176.221 466.345 176.135C466.431 176.048 466.548 176 466.67 176H469.54C469.6 176 469.66 176.012 469.716 176.035C469.772 176.058 469.823 176.092 469.865 176.135C469.908 176.177 469.942 176.228 469.965 176.284C469.988 176.34 470 176.4 470 176.46V187.79C470 187.912 470.048 188.029 470.135 188.115C470.221 188.202 470.338 188.25 470.46 188.25Z" fill="#FEFEFF"/>
<path d="M506.82 177.05C507.031 176.578 507.373 176.177 507.806 175.896C508.24 175.614 508.745 175.463 509.262 175.462C509.779 175.461 510.285 175.61 510.719 175.89C511.153 176.169 511.498 176.569 511.71 177.04L523.47 203.01C523.507 203.089 523.523 203.176 523.518 203.263C523.512 203.351 523.485 203.435 523.438 203.509C523.391 203.583 523.326 203.643 523.25 203.685C523.173 203.728 523.087 203.75 523 203.75H520.29C520.138 203.75 519.989 203.706 519.859 203.623C519.73 203.539 519.626 203.421 519.56 203.28L516.8 197.25C516.647 196.917 516.387 196.75 516.02 196.75H502.76C502.507 196.751 502.259 196.824 502.048 196.96C501.837 197.097 501.671 197.291 501.57 197.52L499.03 203.24C498.961 203.392 498.85 203.52 498.71 203.611C498.57 203.701 498.407 203.75 498.24 203.75H495.55C495.043 203.75 494.893 203.52 495.1 203.06L506.82 177.05ZM503.37 193.32C503.35 193.367 503.343 193.417 503.347 193.468C503.352 193.518 503.369 193.567 503.396 193.609C503.424 193.652 503.461 193.687 503.506 193.711C503.55 193.736 503.6 193.749 503.65 193.75H514.85C514.901 193.749 514.95 193.736 514.995 193.711C515.039 193.687 515.076 193.652 515.104 193.609C515.132 193.567 515.149 193.518 515.153 193.468C515.158 193.417 515.15 193.367 515.13 193.32L509.53 180.42C509.505 180.367 509.465 180.322 509.416 180.291C509.366 180.26 509.309 180.243 509.25 180.243C509.191 180.243 509.134 180.26 509.085 180.291C509.035 180.322 508.995 180.367 508.97 180.42L503.37 193.32Z" fill="#FEFEFF"/>
<path d="M589.64 177.23C589.86 176.749 590.213 176.341 590.658 176.056C591.103 175.77 591.621 175.618 592.15 175.618C592.679 175.618 593.197 175.77 593.642 176.056C594.087 176.341 594.44 176.749 594.66 177.23L606.41 203.07C606.61 203.523 606.463 203.75 605.97 203.75H603.26C603.069 203.75 602.883 203.695 602.723 203.592C602.563 203.489 602.437 203.343 602.36 203.17L599.73 197.35C599.55 196.95 599.24 196.75 598.8 196.75H585.45C585.243 196.75 585.041 196.81 584.868 196.921C584.694 197.033 584.556 197.192 584.47 197.38C583.35 199.87 582.56 205.31 578.2 203.48C577.953 203.38 577.883 203.207 577.99 202.96L589.64 177.23ZM586.21 193.29C586.188 193.338 586.179 193.392 586.183 193.445C586.187 193.498 586.205 193.549 586.233 193.593C586.262 193.638 586.302 193.675 586.348 193.7C586.395 193.726 586.447 193.74 586.5 193.74L597.7 193.76C597.753 193.761 597.805 193.748 597.851 193.724C597.898 193.699 597.938 193.664 597.968 193.62C597.997 193.577 598.016 193.527 598.022 193.474C598.027 193.422 598.02 193.369 598 193.32L592.42 180.49C592.396 180.432 592.354 180.382 592.302 180.347C592.25 180.313 592.188 180.294 592.125 180.294C592.062 180.294 592 180.313 591.948 180.347C591.895 180.382 591.854 180.432 591.83 180.49L586.21 193.29Z" fill="#FEFEFF"/>
<path d="M614.24 179H605.76C605.625 179 605.495 178.946 605.399 178.851C605.304 178.755 605.25 178.625 605.25 178.49V176.27C605.25 176.135 605.304 176.005 605.399 175.909C605.495 175.814 605.625 175.76 605.76 175.76L627.75 175.91C627.884 175.913 628.011 175.968 628.104 176.063C628.198 176.158 628.25 176.286 628.25 176.42L628.23 178.5C628.227 178.634 628.173 178.761 628.077 178.854C627.982 178.948 627.854 179 627.72 179H619.24C619.105 179 618.975 179.054 618.879 179.149C618.784 179.245 618.73 179.375 618.73 179.51L618.72 203.24C618.72 203.375 618.666 203.505 618.571 203.601C618.475 203.696 618.345 203.75 618.21 203.75H615.26C615.125 203.75 614.995 203.696 614.899 203.601C614.804 203.505 614.75 203.375 614.75 203.24V179.51C614.75 179.375 614.696 179.245 614.601 179.149C614.505 179.054 614.375 179 614.24 179Z" fill="#FEFEFF"/>
<path d="M639.24 176.99C639.449 176.53 639.786 176.14 640.21 175.866C640.635 175.592 641.13 175.447 641.635 175.447C642.14 175.447 642.635 175.592 643.059 175.866C643.484 176.14 643.821 176.53 644.03 176.99L655.88 203.12C656.073 203.54 655.937 203.75 655.47 203.75H652.6C652.267 203.75 652.033 203.6 651.9 203.3L649.17 197.22C649.03 196.907 648.787 196.75 648.44 196.75H634.78C634.427 196.75 634.18 196.91 634.04 197.23L631.42 203.16C631.247 203.553 630.947 203.75 630.52 203.75H628.03C627.43 203.75 627.253 203.477 627.5 202.93L639.24 176.99ZM635.67 193.29C635.648 193.337 635.638 193.389 635.642 193.441C635.645 193.493 635.662 193.543 635.69 193.586C635.718 193.63 635.756 193.666 635.802 193.691C635.847 193.716 635.898 193.73 635.95 193.73L647.2 193.77C647.252 193.77 647.303 193.756 647.348 193.731C647.394 193.706 647.432 193.67 647.46 193.626C647.488 193.583 647.504 193.533 647.508 193.481C647.511 193.429 647.502 193.377 647.48 193.33L641.9 180.4C641.875 180.347 641.835 180.302 641.786 180.271C641.736 180.24 641.679 180.223 641.62 180.223C641.561 180.223 641.504 180.24 641.454 180.271C641.405 180.302 641.365 180.347 641.34 180.4L635.67 193.29Z" fill="#FEFEFF"/>
<path d="M661.18 175.76C668.98 175.55 683.72 174.08 682.82 186.47C682.567 189.997 680.677 192.567 677.15 194.18C676.843 194.32 676.787 194.53 676.98 194.81L682.96 203.14C683.003 203.197 683.028 203.264 683.034 203.334C683.039 203.405 683.024 203.476 682.991 203.539C682.958 203.602 682.907 203.656 682.845 203.693C682.783 203.73 682.712 203.75 682.64 203.75H679.79C679.383 203.75 679.06 203.583 678.82 203.25L673.44 195.54C673.366 195.435 673.269 195.35 673.157 195.29C673.046 195.231 672.923 195.2 672.8 195.2L665.32 195.04C665.194 195.037 665.069 195.06 664.952 195.107C664.835 195.155 664.728 195.225 664.639 195.315C664.549 195.404 664.478 195.511 664.431 195.629C664.383 195.746 664.359 195.873 664.36 196L664.41 203.17C664.417 203.557 664.223 203.75 663.83 203.75H661.13C660.71 203.75 660.5 203.543 660.5 203.13V176.46C660.5 176.007 660.727 175.773 661.18 175.76ZM664.24 179.71V191.21C664.24 191.396 664.314 191.574 664.445 191.705C664.576 191.836 664.754 191.91 664.94 191.91H671.89C672.826 191.91 673.753 191.754 674.619 191.452C675.484 191.149 676.27 190.706 676.932 190.147C677.594 189.588 678.119 188.924 678.477 188.194C678.836 187.463 679.02 186.681 679.02 185.89V185.03C679.02 183.433 678.269 181.902 676.932 180.773C675.595 179.644 673.781 179.01 671.89 179.01H664.94C664.754 179.01 664.576 179.084 664.445 179.215C664.314 179.346 664.24 179.524 664.24 179.71Z" fill="#FEFEFF"/>
<path d="M31.6356 190.636C31.6806 192.477 31.351 194.309 30.6656 196.027C29.9802 197.745 28.9524 199.316 27.6409 200.651C26.3295 201.985 24.76 203.056 23.0222 203.804C21.2843 204.551 19.4121 204.959 17.5124 205.006C13.6759 205.1 9.96042 203.713 7.18334 201.151C4.40627 198.588 2.79509 195.061 2.70425 191.343C2.65927 189.503 2.9889 187.671 3.67432 185.953C4.35974 184.235 5.38752 182.664 6.69898 181.329C8.01044 179.995 9.5799 178.924 11.3177 178.176C13.0556 177.429 14.9278 177.021 16.8274 176.974C20.664 176.88 24.3795 178.267 27.1565 180.829C29.9336 183.392 31.5448 186.919 31.6356 190.636ZM29.6341 192.04C29.9128 188.79 28.8647 185.56 26.7205 183.061C24.5763 180.562 21.5116 178.999 18.2005 178.715C14.8895 178.431 11.6035 179.45 9.0652 181.548C6.52694 183.645 4.94441 186.649 4.66575 189.9C4.38711 193.15 5.43519 196.38 7.5794 198.879C9.72362 201.378 12.7883 202.941 16.0994 203.225C19.4104 203.509 22.6964 202.49 25.2347 200.392C27.773 198.295 29.3555 195.291 29.6341 192.04Z" fill="#FEFEFF"/>
<path d="M38.1701 190.89C38.3601 202.23 50.2801 206.56 58.8101 200.27C59.2501 199.943 59.6668 200.107 60.0601 200.76C60.1308 200.878 60.1586 201.017 60.1385 201.152C60.1184 201.287 60.0517 201.41 59.9501 201.5C52.0701 208.56 39.1001 204.39 36.5201 194.5C32.9201 180.65 48.9401 172.39 59.7901 180.14C60.0768 180.347 60.1634 180.62 60.0501 180.96C59.9234 181.333 59.7301 181.563 59.4701 181.65C59.2701 181.717 59.0268 181.65 58.7401 181.45C50.4601 175.77 37.9701 179.64 38.1701 190.89Z" fill="#FEFEFF"/>
<path d="M71.5 178.75H62.73C62.5911 178.75 62.4559 178.707 62.3444 178.626C62.2328 178.545 62.1506 178.431 62.11 178.3C61.87 177.54 62.25 177.153 63.25 177.14C70.05 177.033 76.7533 176.983 83.36 176.99C83.4925 176.989 83.6233 177.02 83.7421 177.078C83.8608 177.137 83.9641 177.223 84.0438 177.329C84.1235 177.435 84.1773 177.558 84.2009 177.688C84.2246 177.819 84.2174 177.953 84.18 178.08C84.0266 178.58 83.6333 178.817 83 178.79C80.22 178.683 77.4366 178.687 74.65 178.8C74.2033 178.813 73.98 179.043 73.98 179.49L74.04 204.42C74.0394 204.513 74.0179 204.605 73.977 204.688C73.9362 204.772 73.8771 204.845 73.8042 204.903C73.7312 204.96 73.6462 205.001 73.5554 205.021C73.4647 205.041 73.3705 205.041 73.28 205.02L72.5 204.84C72.1666 204.767 72 204.56 72 204.22V179.25C72 178.917 71.8333 178.75 71.5 178.75Z" fill="#FEFEFF"/>
<path d="M115.095 190.333C115.178 192.171 114.887 194.008 114.237 195.739C113.587 197.47 112.592 199.061 111.308 200.422C110.024 201.783 108.476 202.886 106.753 203.669C105.03 204.452 103.165 204.899 101.265 204.986C97.4291 205.16 93.6829 203.852 90.8509 201.351C88.019 198.849 86.3334 195.359 86.1648 191.647C86.0814 189.809 86.3729 187.972 87.0227 186.241C87.6725 184.51 88.668 182.919 89.9522 181.558C91.2364 180.198 92.7842 179.094 94.5072 178.311C96.2303 177.528 98.0948 177.081 99.9944 176.994C103.831 176.82 107.577 178.128 110.409 180.629C113.241 183.131 114.926 186.621 115.095 190.333ZM113.085 191.909C113.329 188.658 112.248 185.442 110.08 182.968C107.911 180.494 104.833 178.964 101.521 178.715C99.8819 178.591 98.2346 178.786 96.6736 179.288C95.1125 179.79 93.6683 180.59 92.4234 181.64C91.1786 182.691 90.1573 183.973 89.4181 185.413C88.6789 186.853 88.2361 188.422 88.1151 190.031C87.8708 193.282 88.9517 196.498 91.1203 198.972C93.2888 201.447 96.3673 202.976 99.6784 203.225C101.318 203.349 102.965 203.154 104.526 202.652C106.087 202.15 107.532 201.351 108.776 200.3C110.021 199.249 111.043 197.967 111.782 196.527C112.521 195.088 112.964 193.518 113.085 191.909Z" fill="#FEFEFF"/>
<path d="M139.57 190.49C139.513 190.533 139.47 190.591 139.444 190.657C139.419 190.724 139.413 190.796 139.426 190.866C139.44 190.935 139.472 191 139.521 191.052C139.569 191.104 139.631 191.141 139.7 191.16C142.587 191.867 144.263 193.517 144.73 196.11C146.75 207.27 129.3 205.13 123.35 204.91C122.617 204.883 122.25 204.503 122.25 203.77V177.73C122.25 177.317 122.457 177.103 122.87 177.09C128.54 176.89 138.65 175.88 141.65 179.81C144.637 183.71 143.943 187.27 139.57 190.49ZM124.15 179.29L124.24 189.65C124.24 189.788 124.295 189.92 124.392 190.018C124.49 190.115 124.622 190.17 124.76 190.17L134.79 190.08C136.52 190.064 138.173 189.498 139.388 188.506C140.603 187.515 141.28 186.178 141.27 184.79V183.87C141.265 183.181 141.091 182.5 140.758 181.866C140.424 181.232 139.938 180.658 139.327 180.176C138.716 179.694 137.991 179.313 137.196 179.057C136.4 178.8 135.549 178.672 134.69 178.68L124.66 178.77C124.524 178.773 124.394 178.829 124.299 178.926C124.203 179.023 124.15 179.154 124.15 179.29ZM124.01 192.75L124.05 202.13C124.05 202.401 124.157 202.66 124.349 202.851C124.54 203.043 124.799 203.15 125.07 203.15L135.59 203.11C137.498 203.103 139.325 202.58 140.672 201.655C142.018 200.731 142.773 199.481 142.77 198.18V196.58C142.769 195.935 142.581 195.296 142.217 194.701C141.854 194.106 141.321 193.566 140.651 193.111C139.98 192.657 139.184 192.298 138.309 192.054C137.434 191.81 136.496 191.686 135.55 191.69L125.03 191.73C124.759 191.73 124.5 191.837 124.309 192.029C124.117 192.22 124.01 192.48 124.01 192.75Z" fill="#FEFEFF"/>
<path d="M152.03 178.23C152.03 177.41 152.443 177 153.27 177H169.74C169.94 177 170.133 177.075 170.28 177.21C170.88 177.783 170.887 178.253 170.3 178.62C170.133 178.727 169.92 178.777 169.66 178.77C164.553 178.697 159.443 178.703 154.33 178.79C154.063 178.797 153.93 178.933 153.93 179.2L153.96 189.38C153.96 189.74 154.14 189.923 154.5 189.93C158.88 190.05 163.21 190.113 167.49 190.12C167.997 190.12 168.383 190.2 168.65 190.36C168.804 190.446 168.925 190.581 168.993 190.743C169.062 190.905 169.074 191.086 169.028 191.256C168.982 191.426 168.881 191.576 168.74 191.682C168.599 191.788 168.426 191.843 168.25 191.84L154.71 191.73C154.495 191.73 154.289 191.815 154.137 191.967C153.985 192.119 153.9 192.325 153.9 192.54L153.98 202.18C153.983 202.43 154.084 202.669 154.262 202.845C154.44 203.021 154.68 203.12 154.93 203.12H170.61C171.357 203.12 171.573 203.457 171.26 204.13L171.06 204.55C170.997 204.684 170.898 204.798 170.774 204.878C170.65 204.957 170.507 205 170.36 205H152.99C152.858 205 152.727 204.974 152.605 204.923C152.483 204.872 152.372 204.798 152.279 204.704C152.186 204.61 152.113 204.498 152.063 204.376C152.014 204.253 151.989 204.122 151.99 203.99L152.03 178.23Z" fill="#FEFEFF"/>
<path d="M191.31 196H181.38C180.96 196 180.75 196.207 180.75 196.62V204.02C180.75 204.261 180.662 204.494 180.504 204.674C180.345 204.855 180.127 204.971 179.89 205C179.163 205.093 178.797 204.677 178.79 203.75C178.69 195.037 178.753 186.327 178.98 177.62C178.985 177.456 179.054 177.301 179.171 177.187C179.289 177.073 179.446 177.01 179.61 177.01C186.77 176.92 201.33 175.29 199.86 187.84C199.467 191.22 197.517 193.697 194.01 195.27C193.65 195.43 193.587 195.667 193.82 195.98L199.77 204.03C200.11 204.49 200.01 204.81 199.47 204.99C199.09 205.123 198.733 204.997 198.4 204.61C196.113 202.03 194.02 199.307 192.12 196.44C191.927 196.147 191.657 196 191.31 196ZM180.55 179.67L180.57 193.37C180.573 193.607 180.669 193.833 180.837 194C181.006 194.166 181.233 194.26 181.47 194.26L190.26 194.25C191.279 194.249 192.287 194.056 193.227 193.684C194.168 193.312 195.022 192.767 195.741 192.08C196.459 191.394 197.029 190.58 197.417 189.684C197.804 188.788 198.003 187.829 198 186.86V186.1C197.995 184.147 197.175 182.276 195.72 180.898C194.265 179.52 192.294 178.747 190.24 178.75L181.45 178.76C181.331 178.76 181.213 178.784 181.103 178.829C180.993 178.875 180.894 178.942 180.81 179.027C180.726 179.112 180.66 179.212 180.616 179.322C180.571 179.433 180.549 179.551 180.55 179.67Z" fill="#FEFEFF"/>
<path d="M218.66 203.15C223.18 202.91 227.98 203.013 233.06 203.46C233.553 203.507 233.683 203.803 233.45 204.35C233.37 204.542 233.234 204.707 233.058 204.822C232.882 204.938 232.673 205 232.46 205H215.3C215.128 205.002 214.959 204.953 214.814 204.858C214.67 204.764 214.557 204.629 214.49 204.471C214.422 204.312 214.403 204.137 214.435 203.968C214.467 203.799 214.549 203.643 214.67 203.52C218.517 199.513 222.38 195.533 226.26 191.58C237.08 180.55 221.85 174.64 215.83 181.33C215.343 181.87 214.937 181.743 214.61 180.95C214.544 180.784 214.534 180.6 214.583 180.427C214.632 180.253 214.736 180.1 214.88 179.99C220.91 175.34 235.3 176.17 231.65 187.04C230.05 191.81 222.07 198.4 218.21 202.11C217.43 202.857 217.58 203.203 218.66 203.15Z" fill="#FEFEFF"/>
<path d="M239.73 192.9C246.73 183.43 262.32 190.39 256.03 200.96C255.163 202.413 253.873 203.447 252.16 204.06C239.65 208.52 235.06 195.33 237.71 185.77C239.87 178 248.04 175.06 255.06 178.2C255.347 178.327 255.477 178.55 255.45 178.87C255.377 179.657 254.993 179.927 254.3 179.68C244.64 176.26 237.17 183.21 239.24 192.79C239.327 193.197 239.49 193.233 239.73 192.9ZM255.529 196.718C255.553 194.978 254.765 193.298 253.336 192.048C251.907 190.798 249.956 190.079 247.912 190.051C246.899 190.036 245.894 190.192 244.954 190.509C244.014 190.825 243.158 191.297 242.433 191.896C241.709 192.495 241.131 193.21 240.733 194C240.334 194.791 240.123 195.641 240.111 196.502C240.086 198.242 240.875 199.922 242.304 201.172C243.733 202.422 245.684 203.141 247.728 203.169C248.741 203.184 249.746 203.028 250.686 202.711C251.625 202.395 252.482 201.923 253.206 201.324C253.931 200.725 254.509 200.01 254.907 199.22C255.306 198.429 255.517 197.579 255.529 196.718Z" fill="#FEFEFF"/>
<path d="M278.75 203.15L293.71 203.28C293.903 203.28 294.06 203.36 294.18 203.52L294.51 203.97C294.582 204.069 294.626 204.186 294.636 204.308C294.645 204.43 294.621 204.553 294.565 204.662C294.508 204.771 294.423 204.862 294.318 204.925C294.213 204.989 294.093 205.021 293.97 205.02L275.56 204.95C275.427 204.951 275.296 204.911 275.185 204.837C275.074 204.763 274.988 204.657 274.937 204.533C274.887 204.41 274.874 204.274 274.902 204.143C274.929 204.013 274.994 203.893 275.09 203.8C279.503 199.407 283.88 194.98 288.22 190.52C291.52 187.13 292.5 180.82 286.94 179.19C282.933 178.017 279.333 178.843 276.14 181.67C276.059 181.742 275.962 181.793 275.857 181.819C275.752 181.845 275.642 181.846 275.537 181.82C275.432 181.794 275.334 181.744 275.253 181.672C275.172 181.601 275.109 181.511 275.07 181.41C274.843 180.823 275.017 180.307 275.59 179.86C279.81 176.58 287.63 175.47 291.32 180.02C297.38 187.49 283.22 198.29 278.54 202.59C278.491 202.633 278.457 202.69 278.441 202.752C278.425 202.815 278.429 202.882 278.452 202.942C278.475 203.003 278.515 203.055 278.569 203.093C278.622 203.13 278.685 203.15 278.75 203.15Z" fill="#FEFEFF"/>
<path d="M303.19 189.9C300.563 188.573 299.28 186.62 299.34 184.04C299.51 176.96 308.41 176.06 313.57 177.96C319.61 180.19 320.09 187.45 313.9 189.99C313.831 190.015 313.773 190.062 313.733 190.123C313.693 190.184 313.674 190.257 313.678 190.33C313.683 190.403 313.711 190.472 313.758 190.528C313.805 190.584 313.869 190.623 313.94 190.64C318.89 191.95 321.12 197.61 317.69 201.64C314.61 205.28 308.24 205.53 303.98 204.25C296.96 202.13 296.19 193.62 303.16 190.75C303.242 190.715 303.312 190.657 303.363 190.584C303.413 190.51 303.442 190.424 303.445 190.334C303.448 190.245 303.426 190.157 303.38 190.08C303.335 190.003 303.269 189.941 303.19 189.9ZM316.42 184.187C316.423 183.466 316.227 182.751 315.845 182.084C315.463 181.416 314.902 180.809 314.193 180.297C313.484 179.785 312.642 179.377 311.715 179.098C310.788 178.819 309.794 178.673 308.789 178.67C307.785 178.666 306.789 178.805 305.86 179.078C304.931 179.35 304.086 179.752 303.374 180.259C302.662 180.766 302.096 181.37 301.71 182.034C301.323 182.699 301.123 183.412 301.12 184.133C301.118 184.854 301.313 185.569 301.695 186.236C302.077 186.904 302.638 187.511 303.347 188.023C304.056 188.535 304.898 188.943 305.825 189.222C306.752 189.501 307.746 189.646 308.751 189.65C309.755 189.653 310.751 189.515 311.68 189.242C312.609 188.97 313.454 188.568 314.166 188.061C314.878 187.554 315.444 186.95 315.83 186.286C316.217 185.621 316.418 184.908 316.42 184.187ZM317.44 197.205C317.441 196.407 317.218 195.616 316.783 194.877C316.347 194.139 315.708 193.467 314.902 192.901C314.096 192.335 313.139 191.886 312.085 191.579C311.032 191.271 309.902 191.112 308.761 191.11C306.456 191.106 304.244 191.743 302.613 192.88C300.981 194.017 300.063 195.562 300.06 197.175C300.059 197.973 300.282 198.764 300.717 199.503C301.153 200.241 301.792 200.912 302.598 201.478C303.404 202.044 304.361 202.494 305.415 202.801C306.468 203.109 307.598 203.268 308.739 203.27C311.044 203.274 313.256 202.637 314.887 201.5C316.519 200.363 317.437 198.818 317.44 197.205Z" fill="#FEFEFF"/>
<path d="M271.17 193.74H262.43C261.966 193.74 261.59 194.116 261.59 194.58V194.64C261.59 195.104 261.966 195.48 262.43 195.48H271.17C271.634 195.48 272.01 195.104 272.01 194.64V194.58C272.01 194.116 271.634 193.74 271.17 193.74Z" fill="#FEFEFF"/>
<path d="M528.41 203.59C522.85 198.86 534.54 195.77 532.09 202.78C531.337 204.947 530.577 207.11 529.81 209.27C529.697 209.603 529.463 209.767 529.11 209.76L527.9 209.73C527.42 209.717 527.25 209.48 527.39 209.02L528.72 204.64C528.776 204.453 528.777 204.254 528.722 204.067C528.667 203.88 528.558 203.715 528.41 203.59Z" fill="#FEFEFF"/>
</svg>
