<svg width="37" height="37" viewBox="0 0 37 37" fill="none" xmlns="http://www.w3.org/2000/svg">
<path d="M18.5 0C28.7104 0 37 8.28957 37 18.5C37 28.7104 28.7104 37 18.5 37C8.2896 37 0 28.7104 0 18.5C0 8.28957 8.2896 0 18.5 0Z" fill="white"/>
<path d="M15 27C12.2386 27 10 24.7614 10 22V15C10 12.2386 12.2386 10 15 10H22C24.7614 10 27 12.2386 27 15V22C27 24.7614 24.7614 27 22 27H15Z" stroke="#ED396C" stroke-width="1.3"/>
<path d="M21.9 17.9645C22.1152 19.4155 21.3756 20.8408 20.0654 21.5003C18.7552 22.1597 17.1698 21.9046 16.1326 20.8674C15.0955 19.8303 14.8404 18.2449 15.4998 16.9347C16.1593 15.6245 17.5846 14.8849 19.0355 15.1C20.5171 15.3197 21.6803 16.483 21.9 17.9645Z" stroke="#ED396C" stroke-width="1.3"/>
<path d="M23.1748 13.825H23.1833" stroke="#ED396C" stroke-width="2"/>
</svg>
