<svg height="170.50092938131274" overflow="visible" viewBox="0 0 176.04327253425424  170.50092938131274" width="176.04327253425424" xmlns="http://www.w3.org/2000/svg"><g><defs><path id="path-162822933049693509" d="M123.3732056099672 107.25685709932948 C123.3732056099672 80.40046982644031 137.26076769665255 61.9569335428094 137.26076769665255 49.01409602217465 C137.26076769665255 36.07125850154 129.83253302760966 8.891309027048726 70.40669443123977 8.891309027048726 C10.980855834871125 8.891309027048726 2.260767696652969 45.45481900442301 2.260767696652969 59.69193484113028 C2.260765371294167 126.34752865814603 123.3732056099672 154.821775474678 123.3732056099672 107.25685709932948 Z"></path></defs> <path d="M152.82325204471738 93.69014918502307 C140.4412901931488 69.85839394002096 144.26152918826062 47.08924407935683 138.29431852797472 35.604060579677025 C132.32710786768882 24.118877079996764 113.20432106701526 3.4247390522791648 60.47116577448094 30.82263360232173 C7.738010481947754 58.22052815236384 16.857367340554788 94.68650585061278 23.421296560641053 107.32020287648447 C54.152420446827705 166.46888174415562 174.7527468353686 135.89819010473866 152.82325204471738 93.69014918502307 Z" style="stroke-width: 0; stroke-linecap: butt; stroke-linejoin: miter; fill: rgb(242, 242, 242);"></path></g><g><defs><path id="path-162822933049593507" d="M24.14166957933384 10.528095474877892 C24.14166957933384 10.528095474877892 24.14166957933384 4.097961213322724 24.14166957933384 4.097961213322724 C24.14166957933384 4.097961213322724 47.28333903801872 4.097961213322724 47.28333903801872 4.097961213322724 C47.28333903801872 4.097961213322724 47.28333903801872 10.528095474877892 47.28333903801872 10.528095474877892 C47.28333903801872 10.528095474877892 24.14166957933384 10.528095474877892 24.14166957933384 10.528095474877892 Z"></path></defs> <path d="M67.65832498119687 62.98818995550346 C67.65832498119687 62.98818995550346 67.65832498119687 56.55805569394852 67.65832498119687 56.55805569394852 C67.65832498119687 56.55805569394852 90.79999443988174 56.55805569394852 90.79999443988174 56.55805569394852 C90.79999443988174 56.55805569394852 90.79999443988174 62.98818995550346 90.79999443988174 62.98818995550346 C90.79999443988174 62.98818995550346 67.65832498119687 62.98818995550346 67.65832498119687 62.98818995550346 Z" style="stroke-width: 0; stroke-linecap: butt; stroke-linejoin: miter; fill: rgb(237, 57, 108);"></path></g><g><defs><path id="path-162822933049593505" d="M54.37500656028738 42.48719542511983 C54.37500656028738 38.61392443097217 57.51647561132291 35.474017901506635 61.39167407350761 35.474017901506635 C65.2668725356923 35.474017901506635 68.40834158672783 38.61392443097217 68.40834158672783 42.48719542511983 C68.40834158672783 46.36046641926749 65.2668725356923 49.50037294873302 61.39167407350761 49.50037294873302 C57.51647561132291 49.50037294873302 54.37500656028738 46.36046641926749 54.37500656028738 42.48719542511983 Z"></path></defs> <path d="M97.8916619621508 94.9472899057464 C97.8916619621508 91.07401891159861 101.03313101318633 87.93411238213321 104.90832947537103 87.93411238213321 C108.78352793755573 87.93411238213321 111.92499698859126 91.07401891159861 111.92499698859126 94.9472899057464 C111.92499698859126 98.82056089989419 108.78352793755573 101.9604674293596 104.90832947537103 101.9604674293596 C101.03313101318633 101.9604674293596 97.8916619621508 98.82056089989419 97.8916619621508 94.9472899057464 Z" style="stroke-width: 0; stroke-linecap: butt; stroke-linejoin: miter; fill: rgb(255, 191, 0);"></path></g><g><defs><path id="path-162822933040893287" d="M34.957386079518564 25.45201567477923 C34.20640555475099 24.913595235519132 33.145969184400904 24.979376205253224 32.47730749496854 25.605859864652306 C31.808645805536187 26.232343524051384 31.738436130159997 27.225889390901898 32.313105740674494 27.92949935499784 C32.313105740674494 27.92949935499784 35.66252750321031 30.78686386618331 35.66252750321031 30.78686386618331 C36.40556314556073 31.4808921795546 37.60784353868469 31.4808921795546 38.350879181035104 30.78686386618331 C38.350879181035104 30.78686386618331 49.897569993987545 20.001551578298276 49.897569993987545 20.001551578298276 C50.25465194087259 19.66970999798382 50.4546955414326 19.217509529718374 50.4528688651448 18.746293180320844 C50.44915750482736 18.03191043028523 49.988833954041404 17.389188217801316 49.284658169525166 17.115190531642448 C48.58048238500892 16.84119284548358 47.76961922804985 16.989291095802535 47.226846851755035 17.491034782343416 C47.226846851755035 17.491034782343416 37.019924743816944 27.087154903723512 37.019924743816944 27.087154903723512 C37.019924743816944 27.087154903723512 34.957386079518564 25.45201567477923 34.957386079518564 25.45201567477923 Z"></path></defs> <path d="M76.50449481334783 78.02627798740195 C75.75351428858028 77.48785754814162 74.69307791823019 77.5536385178757 74.0244162287978 78.18012217727482 C73.35575453936542 78.80660583667395 73.28554486398923 79.80015170352453 73.86021447450378 80.50376166762044 C73.86021447450378 80.50376166762044 77.20963623703972 83.36112617880599 77.20963623703972 83.36112617880599 C77.9526718793901 84.05515449217728 79.15495227251392 84.05515449217728 79.8979879148643 83.36112617880599 C79.8979879148643 83.36112617880599 91.44467872781695 72.57581389092093 91.44467872781695 72.57581389092093 C91.801760674702 72.2439723106063 92.00180427526186 71.79177184234095 91.99997759897417 71.32055549294319 C91.99626623865663 70.6061727429078 91.53594268787072 69.96345053042387 90.83176690335438 69.6894528442649 C90.12759111883827 69.41545515810594 89.31672796187911 69.56355340842492 88.7739555855843 70.0652970949659 C88.7739555855843 70.0652970949659 78.5670334776463 79.66141721634585 78.5670334776463 79.66141721634585 C78.5670334776463 79.66141721634585 76.50449481334783 78.02627798740195 76.50449481334783 78.02627798740195 Z" style="stroke-width: 0; stroke-linecap: butt; stroke-linejoin: miter; fill: rgb(96, 96, 96);"></path></g><g><defs><path id="path-162822933040793285" d="M37.25790997431307 36.592433956828735 C37.25790997431307 36.592433956828735 37.25790997431307 36.592433956828735 37.25790997431307 36.592433956828735 C43.19568921719054 36.57881520696834 48.00559532082973 32.072309712789504 48.02013095340846 26.50907537833903 C48.06838305666656 25.84734622986405 47.718948727914274 25.215592579639676 47.11407249942824 24.870982928571596 C46.5091962709422 24.52637327750352 45.74974475132769 24.52637327750352 45.144868522841655 24.870982928571596 C44.53999229435561 25.215592579639676 44.19055796560333 25.84734622986405 44.23881006886143 26.50907537833903 C44.21945394791818 30.11110653687952 41.102484633862005 33.02408814725192 37.25790997431307 33.033115736248014 C37.25790997431307 33.033115736248014 37.25790997431307 33.033115736248014 37.25790997431307 33.033115736248014 C33.50136250647691 32.90799326762675 30.525026209997836 30.018502238083588 30.52502620999783 26.496687959937937 C30.52502620999783 22.974873681792293 33.50136250647691 20.085382652249134 37.25790997431307 19.960260183627863 C37.25790997431307 19.960260183627863 37.25790997431307 19.960260183627863 37.25790997431307 19.960260183627863 C38.251402632874495 19.960564399013858 39.2336134973585 20.157560816140776 40.140175543653115 20.538339709012202 C41.05734740271244 20.836267059180674 42.06610161940515 20.4333473887623 42.47173797523333 19.60705996718156 C42.8773743310615 18.780772545600822 42.547424372022945 17.80095762688225 41.70911521136726 17.342385761530206 C37.69593580011571 15.620418021928828 32.96758705143039 16.36682906434581 29.778194846504412 19.22578548093698 C26.588802641578443 22.08474189752815 25.583974965370423 26.47752367751868 27.242739104458867 30.309978374250875 C28.901503243547314 34.142433070983074 32.88808632819721 36.638781728710775 37.3019813132938 36.60895051469686 C37.3019813132938 36.60895051469686 37.25790997431307 36.592433956828735 37.25790997431307 36.592433956828735 Z"></path></defs> <path d="M78.80501870814248 89.16669626945077 C78.80501870814248 89.16669626945077 78.80501870814248 89.16669626945077 78.80501870814248 89.16669626945077 C84.74279795101995 89.15307751959062 89.5527040546591 84.64657202541139 89.5672396872377 79.08333769096089 C89.61549179049587 78.42160854248596 89.26605746174357 77.7898548922617 88.66118123325748 77.44524524119379 C88.05630500477162 77.10063559012542 87.29685348515693 77.10063559012542 86.69197725667107 77.44524524119379 C86.08710102818497 77.7898548922617 85.73766669943268 78.42160854248596 85.78591880269084 79.08333769096089 C85.76656268174759 82.68536884950163 82.64959336769141 85.59835045987393 78.80501870814248 85.60737804887003 C78.80501870814248 85.60737804887003 78.80501870814248 85.60737804887003 78.80501870814248 85.60737804887003 C75.04847124030618 85.48225558024888 72.07213494382711 82.59276455070585 72.07213494382711 79.07095027255991 C72.07213494382711 75.54913599441443 75.04847124030618 72.6596449648714 78.80501870814248 72.53452249624979 C78.80501870814248 72.53452249624979 78.80501870814248 72.53452249624979 78.80501870814248 72.53452249624979 C79.79851136670379 72.53482671163601 80.78072223118772 72.7318231287627 81.68728427748249 73.1126020216343 C82.60445613654167 73.41052937180257 83.61321035323442 73.00760970138435 84.01884670906259 72.18132227980368 C84.42448306489075 71.35503485822301 84.09453310585229 70.3752199395044 83.25622394519667 69.91664807415236 C79.24304453394495 68.19468033455087 74.51469578525973 68.94109137696796 71.32530358033375 71.80004779355886 C68.13591137540777 74.65900421015021 67.13108369919962 79.05178599014062 68.78984783828821 82.884240686873 C70.44861197737657 86.71669538360493 74.43519506202654 89.21304404133298 78.84909004712301 89.18321282731904 C78.84909004712301 89.18321282731904 78.80501870814248 89.16669626945077 78.80501870814248 89.16669626945077 Z" style="stroke-width: 0; stroke-linecap: butt; stroke-linejoin: miter; fill: rgb(96, 96, 96);"></path></g><g><defs><path id="path-162822933040793283" d="M49.89756999398774 40.63899063451939 C49.547816489751355 40.30331019945386 49.06729526322289 40.11547391646709 48.566615556769555 40.118719061673474 C48.566615556769555 40.118719061673474 48.566615556769555 40.118719061673474 48.566615556769555 40.118719061673474 C48.06532410485702 40.11664763726944 47.583578432539326 40.30075418311425 47.22684685175522 40.63073235558532 C47.22684685175522 40.63073235558532 37.01992474381708 50.22685247696543 37.01992474381708 50.22685247696543 C37.01992474381708 50.22685247696543 35.01027168629558 48.57519669015302 35.01027168629558 48.57519669015302 C34.658239074234665 48.24267558437369 34.179203675462375 48.05542011311275 33.6793172490774 48.054925117307114 C33.6793172490774 48.054925117307114 33.6793172490774 48.054925117307114 33.6793172490774 48.054925117307114 C33.18069895553689 48.05323168805806 32.70184243261091 48.23744603736889 32.34836281185922 48.566938411218956 C31.63181241156262 49.256323524500424 31.63181241156262 50.35503697815611 32.34836281185922 51.044422091437575 C32.34836281185922 51.044422091437575 35.697784574395044 53.90178660262305 35.697784574395044 53.90178660262305 C36.05351150895561 54.237154292771244 36.53731476865937 54.42573768747015 37.04196041330745 54.42573768747015 C37.54660605795552 54.42573768747015 38.03040931765929 54.237154292771244 38.38613625221985 53.90178660262305 C38.38613625221985 53.90178660262305 49.89756999398774 43.141249151540194 49.89756999398774 43.141249151540194 C50.618808947548274 42.45365543257387 50.618808947548274 41.3513591902879 49.89756999398774 40.663765471321575 C49.89756999398774 40.663765471321575 49.89756999398774 40.63899063451939 49.89756999398774 40.63899063451939 Z"></path></defs> <path d="M91.44467872781695 93.21325294714097 C91.09492522358062 92.8775725120754 90.61440399705214 92.6897362290888 90.11372429059895 92.69298137429496 C90.11372429059895 92.69298137429496 90.11372429059895 92.69298137429496 90.11372429059895 92.69298137429496 C89.61243283868623 92.69090994989119 89.1306871663686 92.87501649573596 88.77395558558453 93.20499466820684 C88.77395558558453 93.20499466820684 78.5670334776463 102.80111478958725 78.5670334776463 102.80111478958725 C78.5670334776463 102.80111478958725 76.55738042012479 101.14945900277462 76.55738042012479 101.14945900277462 C76.20534780806395 100.81693789699511 75.72631240929161 100.62968242573425 75.22642598290679 100.6291874299286 C75.22642598290679 100.6291874299286 75.22642598290679 100.6291874299286 75.22642598290679 100.6291874299286 C74.72780768936616 100.62749400067969 74.24895116644018 100.81170834999057 73.89547154568857 101.14120072384048 C73.17892114539188 101.83058583712182 73.17892114539188 102.92929929077764 73.89547154568857 103.61868440405897 C73.89547154568857 103.61868440405897 77.24489330822428 106.47604891524452 77.24489330822428 106.47604891524452 C77.60062024278488 106.81141660539288 78.08442350248868 107.00000000009186 78.58906914713668 107.00000000009186 C79.09371479178492 107.00000000009186 79.57751805148871 106.81141660539288 79.93324498604909 106.47604891524452 C79.93324498604909 106.47604891524452 91.44467872781695 95.71551146416186 91.44467872781695 95.71551146416186 C92.16591768137766 95.02791774519528 92.16591768137766 93.92562150290951 91.44467872781695 93.23802778394338 C91.44467872781695 93.23802778394338 91.44467872781695 93.21325294714097 91.44467872781695 93.21325294714097 Z" style="stroke-width: 0; stroke-linecap: butt; stroke-linejoin: miter; fill: rgb(96, 96, 96);"></path></g><g><defs><path id="path-162822933049493502" d="M43.60833859463359 48.70909995022579 C42.85544179914838 48.713647037117425 42.24622111275281 49.322564705896745 42.24167176308001 50.07508702133335 C42.238257466159915 53.180953395541295 40.18905595270579 55.91372596967794 37.20746879168918 56.78859553795786 C34.22588163067256 57.66346510623778 31.02392373642449 56.47150932392655 29.341328814893345 53.860358709280526 C27.658733893362204 51.249208094634504 27.897312327478193 47.84241583620402 29.927436259208083 45.491009185722305 C31.957560190937972 43.13960253524059 35.29442792263855 42.40510678591066 38.12500459974177 43.6865987070681 C38.815360620320995 44.00170448272026 39.63057557002559 43.69778241365679 39.945838152756764 43.00776976624331 C40.261100735487936 42.317757118829824 39.95702742472856 41.50294764532837 39.266671404149335 41.18784186967622 C35.31795826204944 39.39560965129636 30.659887383878473 40.4180718846779 27.825887678606605 43.699132398653056 C24.99188797333474 46.98019291262822 24.659600630018424 51.7353132529691 27.00974989774273 55.378281305062735 C29.359899165467027 59.02124935715637 33.830537934188726 60.68099050588433 37.990177762776675 59.45480569028991 C42.149817591364624 58.228620874695494 45.00384183457096 54.40970466882774 45.000005429203405 50.07508702133335 C44.99781338479227 49.709137022310955 44.84968506964468 49.359173606546264 44.588450145055205 49.10275912525895 C44.32721522046573 48.846344643971634 43.974450286536765 48.704657554567 43.60833859463359 48.70909995022579 Z"></path></defs> <path d="M87.12499399649676 101.16919443085226 C86.37209720101157 101.17374151774402 85.7628765146161 101.78265918652323 85.75832716494313 102.53518150195987 C85.7549128680231 105.6410478761677 83.70571135456896 108.37382045030472 80.72412419355248 109.24869001858451 C77.74253703253578 110.1235595868643 74.54057913828763 108.9316038045531 72.85798421675656 106.32045318990731 C71.1753892952255 103.70930257526106 71.41396772934138 100.30251031683065 73.44409166107118 97.9511036663489 C75.47421559280122 95.59969701586715 78.81108332450174 94.86520126653704 81.64166000160492 96.14669318769484 C82.33201602218412 96.46179896334706 83.14723097188869 96.15787689428316 83.46249355461998 95.4678642468698 C83.77775613735105 94.77785159945643 83.4736828265917 93.96304212595487 82.7833268060125 93.64793635030264 C78.83461366391259 91.85570413192318 74.17654278574162 92.87816636530442 71.34254308046991 96.15922687927969 C68.50854337519797 99.44028739325495 68.17625603188173 104.19540773359586 70.52640529960593 107.83837578568955 C72.87655456733034 111.48134383778279 77.34719333605187 113.14108498651103 81.50683316463994 111.91490017091655 C85.66647299322779 110.68871535532207 88.52049723643415 106.86979914945414 88.51666083106659 102.53518150195987 C88.51446878665558 102.16923150293769 88.3663404715079 101.81926808717299 88.10510554691848 101.56285360588572 C87.84387062232884 101.306439124598 87.4911056883999 101.16475203519349 87.12499399649676 101.16919443085226 Z" style="stroke-width: 0; stroke-linecap: butt; stroke-linejoin: miter; fill: rgb(96, 96, 96);"></path></g><g><defs><path id="path-162822933049393500" d="M56.67154,44.41957c3.13509,-3.65843 2.95865,-9.12255 -0.40586,-12.56875c-1.30716,-1.32343 -2.97677,-2.22524 -4.79579,-2.59038v-21.35604c-0.00454,-2.5479 -2.05499,-4.61354 -4.58872,-4.6227h-7.81077v-1.49925c-0.00456,-0.98576 -0.80053,-1.78246 -1.78082,-1.78245h-23.11755c-0.98029,-0.00001 -1.77626,0.79668 -1.78082,1.78245v1.49925h-7.80248c-2.53373,0.00916 -4.58418,2.0748 -4.58872,4.6227v54.48123c0.00456,2.54655 2.05633,4.60979 4.58872,4.61437h31.55781c0.4796,-0.00206 0.93811,-0.19856 1.27174,-0.54503c0.33363,-0.34647 0.51419,-0.81362 0.5008,-1.29572v-9.94505c0.01364,-4.17578 3.37658,-7.55752 7.52915,-7.57123h8.46511c4.15257,0.01371 7.51551,3.39545 7.52915,7.57123v9.85343c-0.04534,0.66741 0.28303,1.30459 0.85144,1.65216c0.56841,0.34757 1.28208,0.34757 1.85049,0c0.56841,-0.34757 0.89678,-0.98475 0.85144,-1.65216v-9.85343c-0.01129,-5.08294 -3.43157,-9.51822 -8.32431,-10.79463zM15.95285,6.57173v-2.99851h19.5559v2.99851zM14.17203,10.14495h23.11755c0.97843,-0.00451 1.77177,-0.79858 1.78082,-1.78245v-1.49925h7.80248c0.56994,0.00453 1.03086,0.46803 1.03536,1.04115v21.35604c-4.85455,0.95636 -8.09317,5.59516 -7.33864,10.51144c0.2687,1.71234 1.00574,3.31577 2.1287,4.63103c-4.88992,1.29288 -8.2945,5.74358 -8.28289,10.82795v8.19592h-29.81841c-0.57181,0 -1.03536,-0.46614 -1.03536,-1.04115v-54.48123c0,-0.57501 0.46355,-1.04115 1.03536,-1.04115h7.80248v1.49925c0.00453,0.98252 0.79548,1.77789 1.77254,1.78245zM55.35456,38.36425c0.00335,2.30841 -1.37689,4.3914 -3.49677,5.27712c-2.11988,0.88573 -4.56163,0.39965 -6.18604,-1.23146c-1.62441,-1.6311 -2.11135,-4.08579 -1.23365,-6.21881c0.87771,-2.13302 2.94709,-3.52402 5.24268,-3.52402c3.13031,0 5.66921,2.54936 5.67378,5.69717z"></path></defs><path d="M56.67154,44.41957c3.13509,-3.65843 2.95865,-9.12255 -0.40586,-12.56875c-1.30716,-1.32343 -2.97677,-2.22524 -4.79579,-2.59038v-21.35604c-0.00454,-2.5479 -2.05499,-4.61354 -4.58872,-4.6227h-7.81077v-1.49925c-0.00456,-0.98576 -0.80053,-1.78246 -1.78082,-1.78245h-23.11755c-0.98029,-0.00001 -1.77626,0.79668 -1.78082,1.78245v1.49925h-7.80248c-2.53373,0.00916 -4.58418,2.0748 -4.58872,4.6227v54.48123c0.00456,2.54655 2.05633,4.60979 4.58872,4.61437h31.55781c0.4796,-0.00206 0.93811,-0.19856 1.27174,-0.54503c0.33363,-0.34647 0.51419,-0.81362 0.5008,-1.29572v-9.94505c0.01364,-4.17578 3.37658,-7.55752 7.52915,-7.57123h8.46511c4.15257,0.01371 7.51551,3.39545 7.52915,7.57123v9.85343c-0.04534,0.66741 0.28303,1.30459 0.85144,1.65216c0.56841,0.34757 1.28208,0.34757 1.85049,0c0.56841,-0.34757 0.89678,-0.98475 0.85144,-1.65216v-9.85343c-0.01129,-5.08294 -3.43157,-9.51822 -8.32431,-10.79463zM15.95285,6.57173v-2.99851h19.5559v2.99851zM14.17203,10.14495h23.11755c0.97843,-0.00451 1.77177,-0.79858 1.78082,-1.78245v-1.49925h7.80248c0.56994,0.00453 1.03086,0.46803 1.03536,1.04115v21.35604c-4.85455,0.95636 -8.09317,5.59516 -7.33864,10.51144c0.2687,1.71234 1.00574,3.31577 2.1287,4.63103c-4.88992,1.29288 -8.2945,5.74358 -8.28289,10.82795v8.19592h-29.81841c-0.57181,0 -1.03536,-0.46614 -1.03536,-1.04115v-54.48123c0,-0.57501 0.46355,-1.04115 1.03536,-1.04115h7.80248v1.49925c0.00453,0.98252 0.79548,1.77789 1.77254,1.78245zM55.35456,38.36425c0.00335,2.30841 -1.37689,4.3914 -3.49677,5.27712c-2.11988,0.88573 -4.56163,0.39965 -6.18604,-1.23146c-1.62441,-1.6311 -2.11135,-4.08579 -1.23365,-6.21881c0.87771,-2.13302 2.94709,-3.52402 5.24268,-3.52402c3.13031,0 5.66921,2.54936 5.67378,5.69717z" style="stroke-width: 0; stroke-linecap: butt; stroke-linejoin: miter; fill: rgb(96, 96, 96);" transform="translate(53.99999000000014, 56.00000000009368) rotate(0)"></path></g></svg>