<svg width="37" height="37" viewBox="0 0 37 37" fill="none" xmlns="http://www.w3.org/2000/svg">
<path d="M18.5 0C28.71 0 37 8.28957 37 18.5C37 28.7104 28.71 37 18.5 37C8.29 37 0 28.7104 0 18.5C0 8.28957 8.29 0 18.5 0Z" fill="white"/>
<path d="M18.5 9C14.364 9 11 12.363 11 16.4968C11 16.989 11.192 17.4517 11.54 17.7996C11.888 18.1476 12.351 18.3393 12.843 18.3393C13.859 18.3393 14.686 17.5129 14.687 16.4968C14.687 15.4786 15.083 14.5214 15.803 13.8015C16.524 13.0814 17.481 12.685 18.5 12.685C20.603 12.685 22.313 14.3949 22.313 16.4968C22.313 18.4299 20.867 20.0316 18.998 20.2764L19.679 16.8568C19.775 16.374 19.677 15.8828 19.404 15.4735C19.13 15.0643 18.714 14.786 18.231 14.69C18.112 14.6664 17.99 14.6544 17.87 14.6544C16.994 14.6544 16.234 15.2782 16.063 16.1376L13.942 26.7978C13.846 27.2805 13.944 27.7717 14.217 28.1809C14.491 28.5902 14.907 28.8683 15.39 28.9643C15.509 28.988 15.631 29 15.751 29C16.627 29 17.387 28.3761 17.558 27.5167L18.259 23.9937H18.5C22.636 23.9937 26 20.6306 26 16.4968C26 12.363 22.636 9 18.5 9ZM18.5 22.8219H17.777C17.498 22.8219 17.257 23.0193 17.203 23.2935L16.408 27.2883C16.346 27.6011 16.069 27.8281 15.751 27.8281C15.707 27.8281 15.663 27.8237 15.619 27.815C15.443 27.7801 15.292 27.6789 15.192 27.53C15.092 27.381 15.057 27.2022 15.092 27.0264L17.213 16.3662C17.275 16.0534 17.552 15.8263 17.87 15.8263C17.914 15.8263 17.958 15.8308 18.002 15.8394C18.178 15.8744 18.329 15.9756 18.429 16.1246C18.529 16.2734 18.564 16.4522 18.529 16.628L17.703 20.7806C17.669 20.9527 17.713 21.1311 17.825 21.2666C17.936 21.4022 18.102 21.4808 18.278 21.4808H18.5C21.249 21.4808 23.486 19.2451 23.486 16.497C23.486 13.7488 21.249 11.5131 18.5 11.5131C17.168 11.5131 15.916 12.0315 14.974 12.9728C14.033 13.9143 13.514 15.1658 13.514 16.4968C13.514 16.8665 13.213 17.1674 12.843 17.1674C12.664 17.1674 12.496 17.0977 12.369 16.971C12.242 16.8444 12.172 16.6761 12.172 16.4968C12.172 13.0092 15.011 10.1719 18.5 10.1719C21.989 10.1719 24.828 13.0093 24.828 16.497C24.828 19.9845 21.989 22.8219 18.5 22.8219ZM19 23.3219C18 22.3219 18 22.3219 18 22.3219L19 23.3219Z" fill="#ED396C"/>
</svg>
