<svg height="63" overflow="visible" viewBox="0 0 51.80950651954572  63" width="51.80950651954572" xmlns="http://www.w3.org/2000/svg"><g><defs><path id="path-162823468101714682" d="M40.21052627287823 34.28702808912979 C40.21052627287823 25.701789534681687 44.7368428048349 19.805904984996452 44.7368428048349 15.668440531678762 C44.7368428048349 11.530976078361125 42.315788542332015 2.8423037053680282 22.94736707388556 2.8423037053680282 C3.5789456054394746 2.8423037053680282 0.7368428048350417 14.53063886206963 0.7368428048350417 19.081848022984232 C0.7368420469403203 40.38978375137448 40.21052627287823 49.49220691403637 40.21052627287823 34.28702808912979 Z"></path></defs> <path d="M8.654394407544714 43.490199098377786 C16.709964077658583 46.45905718301623 20.67685644895562 52.744974847544256 24.559058783805312 54.17574985912182 C28.441261118655007 55.60652487069933 37.43110708187896 56.339464775946055 44.128893555557056 38.16598391694731 C50.826680029235035 19.992503057948966 40.842286728819204 13.283805905207544 36.57186579100926 11.709953993397676 C16.578529851923122 4.341464118799365 -5.612696319609881 38.23210198244982 8.654394407544714 43.490199098377786 Z" style="stroke-width: 0; stroke-linecap: butt; stroke-linejoin: miter; fill: rgb(242, 242, 242);"></path></g><g><defs><path id="path-162823468101614680" d="M24.02857,62.97532v0c-0.14444,-0.0015 -0.28593,-0.04123 -0.41015,-0.11516c-4.5471,-2.56585 -9.64127,-4.00152 -14.85565,-4.18673c-0.45304,0 -0.8203,-0.36826 -0.8203,-0.82254v-6.16905h-7.07099c-0.23128,0.00222 -0.45374,-0.08893 -0.61728,-0.25292c-0.16355,-0.16399 -0.25445,-0.38706 -0.25223,-0.61897c-0.08265,-6.38882 2.45266,-12.53179 7.01357,-16.99366c2.00509,-2.0534 4.36466,-3.72549 6.96435,-4.93524c-1.9001,-2.36764 -2.91562,-5.3265 -2.87105,-8.36523c-0.01348,-1.98982 0.4182,-3.95735 1.26326,-5.75778l-7.38271,-3.6274c-0.30545,-0.13356 -0.49997,-0.43914 -0.49218,-0.77319c-0.01609,-0.34627 0.17393,-0.66921 0.48398,-0.82254l19.28527,-9.44275c0.23662,-0.12292 0.51805,-0.12292 0.75468,0l19.30168,9.4592v0c0.18171,0.0963 0.32396,0.25349 0.40195,0.44417l0.04102,0.11516c0.00847,0.07654 0.00847,0.15378 0,0.23031v9.54968c-0.04342,0.44665 -0.41787,0.78731 -0.86542,0.78731c-0.44755,0 -0.822,-0.34065 -0.86542,-0.78731v-8.22539l-6.18507,3.08452c0.83447,1.80311 1.25761,3.77007 1.23865,5.75778c0.05248,3.22838 -1.09693,6.36047 -3.22378,8.78472c2.25405,1.17678 4.30831,2.70363 6.08663,4.52397c4.58578,4.45773 7.13501,10.61461 7.04638,17.01834c0.00494,0.46456 -0.35751,0.8498 -0.8203,0.87189h-7.04638v6.12792c0.0002,0.23132 -0.09127,0.45324 -0.25429,0.6169c-0.16329,0.16751 -0.39006,0.25727 -0.62343,0.24676h-0.25429c-4.1015,0 -8.97409,1.41477 -14.60136,4.20318c-0.11604,0.06284 -0.24547,0.0967 -0.37734,0.0987zM24.88989,43.32486v17.40493c5.10227,-2.38536 9.63854,-3.6603 13.54317,-3.77546v-16.96076c-4.15072,-0.71561 -8.69519,0.40304 -13.54317,3.33128zM9.62409,56.97079c4.72201,0.28194 9.33399,1.54522 13.54317,3.70965v-17.37203c-3.98677,-2.66254 -8.78318,-3.82778 -13.54317,-3.29016zM40.13108,49.9463h6.10304c-0.15353,-5.64603 -2.50978,-11.00636 -6.56241,-14.92909c-1.77504,-1.80991 -3.84442,-3.30359 -6.11944,-4.41704c-2.45887,2.25868 -5.68922,3.48367 -9.02331,3.42176c-3.51616,0.05498 -6.90565,-1.3152 -9.40065,-3.80013c-2.61638,1.12696 -4.98778,2.75598 -6.98076,4.7954c-4.02473,3.93536 -6.35368,9.29387 -6.48858,14.92909h6.15226v-10.69301c-0.00212,-0.424 0.31754,-0.78014 0.73827,-0.82254c5.37519,-0.81829 10.86228,0.38584 15.40525,3.38064c5.48781,-3.29016 10.66391,-4.44171 15.43806,-3.37241c0.38436,0.08939 0.66052,0.42709 0.67265,0.82254v10.69301zM16.00603,28.56028c0.09074,0.07583 0.17573,0.15831 0.25429,0.24676c2.1784,2.26222 5.19881,3.51124 8.33426,3.44644c3.05154,0.06346 5.99667,-1.12493 8.15379,-3.29016c0.0444,-0.06155 0.09378,-0.11932 0.14765,-0.17273c2.2642,-2.16983 3.51698,-5.19246 3.45347,-8.33232c0.01651,-1.72545 -0.34765,-3.43322 -1.06639,-5.00104l-10.26196,5.05862c-0.23845,0.11517 -0.51623,0.11517 -0.75468,0l-10.34399,-5.05039c-0.73352,1.57801 -1.10359,3.30128 -1.0828,5.04217c-0.06449,3.0159 1.0858,5.9306 3.19097,8.08556zM13.89786,13.50781v0l10.72133,5.23135l10.66391,-5.19022l6.67725,-3.29016l-17.31655,-8.44748l-17.32475,8.49683zM43.92907,27.49098c-0.46329,0.00495 -0.84748,-0.35848 -0.86952,-0.82254v-3.06807c0.04342,-0.44665 0.41787,-0.78731 0.86542,-0.78731c0.44755,0 0.822,0.34065 0.86542,0.78731v3.09275c0.01144,0.22807 -0.0722,0.45065 -0.23088,0.61445c-0.15869,0.1638 -0.37814,0.25408 -0.60583,0.24922z"></path></defs><path d="M24.02857,62.97532v0c-0.14444,-0.0015 -0.28593,-0.04123 -0.41015,-0.11516c-4.5471,-2.56585 -9.64127,-4.00152 -14.85565,-4.18673c-0.45304,0 -0.8203,-0.36826 -0.8203,-0.82254v-6.16905h-7.07099c-0.23128,0.00222 -0.45374,-0.08893 -0.61728,-0.25292c-0.16355,-0.16399 -0.25445,-0.38706 -0.25223,-0.61897c-0.08265,-6.38882 2.45266,-12.53179 7.01357,-16.99366c2.00509,-2.0534 4.36466,-3.72549 6.96435,-4.93524c-1.9001,-2.36764 -2.91562,-5.3265 -2.87105,-8.36523c-0.01348,-1.98982 0.4182,-3.95735 1.26326,-5.75778l-7.38271,-3.6274c-0.30545,-0.13356 -0.49997,-0.43914 -0.49218,-0.77319c-0.01609,-0.34627 0.17393,-0.66921 0.48398,-0.82254l19.28527,-9.44275c0.23662,-0.12292 0.51805,-0.12292 0.75468,0l19.30168,9.4592v0c0.18171,0.0963 0.32396,0.25349 0.40195,0.44417l0.04102,0.11516c0.00847,0.07654 0.00847,0.15378 0,0.23031v9.54968c-0.04342,0.44665 -0.41787,0.78731 -0.86542,0.78731c-0.44755,0 -0.822,-0.34065 -0.86542,-0.78731v-8.22539l-6.18507,3.08452c0.83447,1.80311 1.25761,3.77007 1.23865,5.75778c0.05248,3.22838 -1.09693,6.36047 -3.22378,8.78472c2.25405,1.17678 4.30831,2.70363 6.08663,4.52397c4.58578,4.45773 7.13501,10.61461 7.04638,17.01834c0.00494,0.46456 -0.35751,0.8498 -0.8203,0.87189h-7.04638v6.12792c0.0002,0.23132 -0.09127,0.45324 -0.25429,0.6169c-0.16329,0.16751 -0.39006,0.25727 -0.62343,0.24676h-0.25429c-4.1015,0 -8.97409,1.41477 -14.60136,4.20318c-0.11604,0.06284 -0.24547,0.0967 -0.37734,0.0987zM24.88989,43.32486v17.40493c5.10227,-2.38536 9.63854,-3.6603 13.54317,-3.77546v-16.96076c-4.15072,-0.71561 -8.69519,0.40304 -13.54317,3.33128zM9.62409,56.97079c4.72201,0.28194 9.33399,1.54522 13.54317,3.70965v-17.37203c-3.98677,-2.66254 -8.78318,-3.82778 -13.54317,-3.29016zM40.13108,49.9463h6.10304c-0.15353,-5.64603 -2.50978,-11.00636 -6.56241,-14.92909c-1.77504,-1.80991 -3.84442,-3.30359 -6.11944,-4.41704c-2.45887,2.25868 -5.68922,3.48367 -9.02331,3.42176c-3.51616,0.05498 -6.90565,-1.3152 -9.40065,-3.80013c-2.61638,1.12696 -4.98778,2.75598 -6.98076,4.7954c-4.02473,3.93536 -6.35368,9.29387 -6.48858,14.92909h6.15226v-10.69301c-0.00212,-0.424 0.31754,-0.78014 0.73827,-0.82254c5.37519,-0.81829 10.86228,0.38584 15.40525,3.38064c5.48781,-3.29016 10.66391,-4.44171 15.43806,-3.37241c0.38436,0.08939 0.66052,0.42709 0.67265,0.82254v10.69301zM16.00603,28.56028c0.09074,0.07583 0.17573,0.15831 0.25429,0.24676c2.1784,2.26222 5.19881,3.51124 8.33426,3.44644c3.05154,0.06346 5.99667,-1.12493 8.15379,-3.29016c0.0444,-0.06155 0.09378,-0.11932 0.14765,-0.17273c2.2642,-2.16983 3.51698,-5.19246 3.45347,-8.33232c0.01651,-1.72545 -0.34765,-3.43322 -1.06639,-5.00104l-10.26196,5.05862c-0.23845,0.11517 -0.51623,0.11517 -0.75468,0l-10.34399,-5.05039c-0.73352,1.57801 -1.10359,3.30128 -1.0828,5.04217c-0.06449,3.0159 1.0858,5.9306 3.19097,8.08556zM13.89786,13.50781v0l10.72133,5.23135l10.66391,-5.19022l6.67725,-3.29016l-17.31655,-8.44748l-17.32475,8.49683zM43.92907,27.49098c-0.46329,0.00495 -0.84748,-0.35848 -0.86952,-0.82254v-3.06807c0.04342,-0.44665 0.41787,-0.78731 0.86542,-0.78731c0.44755,0 0.822,0.34065 0.86542,0.78731v3.09275c0.01144,0.22807 -0.0722,0.45065 -0.23088,0.61445c-0.15869,0.1638 -0.37814,0.25408 -0.60583,0.24922z" style="stroke-width: 0; stroke-linecap: butt; stroke-linejoin: miter; fill: rgb(237, 57, 108);" transform="translate(2.0801366162728527, 0.0000299999999811007) rotate(0)"></path></g></svg>