<svg width="38" height="38" viewBox="0 0 38 38" fill="none" xmlns="http://www.w3.org/2000/svg">
<g clip-path="url(#clip0_445_1602)">
<path d="M19 0C29.4864 0 38 8.51361 38 19C38 29.4864 29.4864 38 19 38C8.51361 38 0 29.4864 0 19C0 8.51361 8.51361 0 19 0Z" fill="#ED396C" fill-opacity="0.2"/>
<path d="M23.683 21.9074C23.0949 21.3268 22.3607 21.3268 21.7764 21.9074C21.3307 22.3493 20.8849 22.7913 20.4467 23.2408C20.3268 23.3644 20.2257 23.3906 20.0796 23.3082C19.7912 23.1509 19.484 23.0236 19.2068 22.8513C17.9146 22.0385 16.8321 20.9934 15.8731 19.8173C15.3974 19.233 14.9742 18.6075 14.6783 17.9033C14.6183 17.761 14.6296 17.6673 14.7457 17.5512C15.1914 17.1204 15.6259 16.6785 16.0642 16.2365C16.6747 15.6222 16.6747 14.903 16.0604 14.285C15.7121 13.9329 15.3637 13.5883 15.0154 13.2362C14.6558 12.8767 14.2999 12.5133 13.9366 12.1575C13.3485 11.5844 12.6144 11.5844 12.03 12.1612C11.5805 12.6032 11.1498 13.0564 10.6928 13.4909C10.2695 13.8917 10.056 14.3824 10.0111 14.9555C9.93992 15.8881 10.1684 16.7684 10.4905 17.6261C11.1498 19.4015 12.1536 20.9784 13.371 22.4243C15.0154 24.3795 16.9781 25.9264 19.2743 27.0426C20.3081 27.5445 21.3794 27.9303 22.5443 27.994C23.3459 28.039 24.0426 27.8367 24.6007 27.2112C24.9827 26.7842 25.4135 26.3946 25.818 25.9864C26.4174 25.3796 26.4211 24.6454 25.8255 24.0461C25.1138 23.3307 24.3984 22.619 23.683 21.9074Z" fill="#ED396C"/>
<path d="M25.0381 12.9141C23.4424 11.3185 21.4235 10.3109 19.1948 10L19 11.3896C20.9253 11.6593 22.6708 12.532 24.0492 13.9067C25.3565 15.2139 26.2143 16.8657 26.5252 18.6824L27.9073 18.4464C27.544 16.3413 26.5514 14.4311 25.0381 12.9141Z" fill="#ED396C"/>
<path d="M22.9695 18.9221L24.3517 18.6861C24.1345 17.4164 23.5351 16.2665 22.6249 15.3525C21.6623 14.3899 20.4449 13.7831 19.104 13.5958L18.9092 14.9855C19.9467 15.1315 20.8907 15.5997 21.6361 16.3451C22.3403 17.0493 22.801 17.9408 22.9695 18.9221Z" fill="#ED396C"/>
</g>
<defs>
<clipPath id="clip0_445_1602">
<rect width="38" height="38" fill="white"/>
</clipPath>
</defs>
</svg>
