<svg height="56" overflow="visible" viewBox="0 0 51.80950651954572  56" width="51.80950651954572" xmlns="http://www.w3.org/2000/svg"><g><defs><path id="path-162823468102014689" d="M40.21052627287823 34.28702808912979 C40.21052627287823 25.701789534681687 44.7368428048349 19.805904984996452 44.7368428048349 15.668440531678762 C44.7368428048349 11.530976078361125 42.315788542332015 2.8423037053680282 22.94736707388556 2.8423037053680282 C3.5789456054394746 2.8423037053680282 0.7368428048350417 14.53063886206963 0.7368428048350417 19.081848022984232 C0.7368420469403203 40.38978375137448 40.21052627287823 49.49220691403637 40.21052627287823 34.28702808912979 Z"></path></defs> <path d="M8.6543944075446 40.49019909837784 C16.709964077658583 43.459057183016284 20.67685644895562 49.74497484754431 24.559058783805312 51.17574985912188 C28.44126111865512 52.60652487069939 37.43110708187896 53.33946477594611 44.128893555557056 35.16598391694737 C50.826680029235035 16.992503057949023 40.842286728819204 10.2838059052076 36.57186579100926 8.709953993397733 C16.578529851923122 1.341464118799422 -5.612696319609881 35.232101982449876 8.6543944075446 40.49019909837784 Z" style="stroke-width: 0; stroke-linecap: butt; stroke-linejoin: miter; fill: rgb(242, 242, 242);"></path></g><g><defs><path id="path-162823468099014629" d="M26.40300658178039 20.173690572204976 C26.40300658178039 20.238845810225822 26.353747241142738 20.30400104824667 26.32090768071764 20.361011881514912 C26.355872219652188 20.303821883244385 26.386075326184756 20.24389749419578 26.41121647188666 20.18183497695758 C26.41121647188666 20.18183497695758 26.40300658178039 20.173690572204976 26.40300658178039 20.173690572204976 Z"></path></defs> <path d="M14.46295092845969 7.768835055068394 C14.46295092845969 7.8339902930892436 14.413691587822086 7.8991455311100935 14.38085202739694 7.95615636437833 C14.4158165663315 7.8989663661078 14.446019672864054 7.839041977059196 14.471160818565977 7.776979459821007 C14.471160818565977 7.776979459821007 14.46295092845969 7.768835055068394 14.46295092845969 7.768835055068394 Z" style="stroke-width: 0; stroke-linecap: butt; stroke-linejoin: miter; fill: rgb(237, 57, 108);"></path></g><g><defs><path id="path-162823468098914627" d="M38.660372510450294 39.29675293132378 C38.972348334488764 39.29675293132378 39.27611426842094 39.29675293132378 39.57988020235313 39.29675293132378 C39.57988020235313 39.29675293132378 39.57988020235313 39.174586860034694 39.57988020235313 39.174586860034694 C39.27611426842094 39.174586860034694 38.97234833448876 39.23159769330294 38.660372510450294 39.23159769330294 C37.953040120670245 39.22728897764203 37.24729406204844 39.16463261507507 36.550430753137555 39.044276383993 C36.550430753137555 39.044276383993 36.550430753137555 39.16644245528209 36.550430753137555 39.16644245528209 C37.249452986660586 39.26233134402464 37.954759046657976 39.305891204440115 38.660372510450294 39.29675293132378 Z"></path></defs> <path d="M26.720316857128637 26.89189741418687 C27.032292681167064 26.89189741418687 27.33605861509932 26.89189741418687 27.63982454903146 26.89189741418687 C27.63982454903146 26.89189741418687 27.63982454903146 26.769731342897785 27.63982454903146 26.769731342897785 C27.33605861509932 26.769731342897785 27.032292681167064 26.82674217616602 26.720316857128637 26.82674217616602 C26.012984467348588 26.822433460505124 25.30723840872679 26.759777097938127 24.610375099815883 26.639420866856085 C24.610375099815883 26.639420866856085 24.610375099815883 26.76158693814517 24.610375099815883 26.76158693814517 C25.309397333338893 26.857475826887708 26.014703393336276 26.901035687303192 26.720316857128637 26.89189741418687 Z" style="stroke-width: 0; stroke-linecap: butt; stroke-linejoin: miter; fill: rgb(237, 57, 108);"></path></g><g><defs><path id="path-162823468098914625" d="M21.928616473860686 55.06432053236787 C21.928616473860686 55.06432053236787 15.771198894154388 55.06432053236787 15.771198894154388 55.06432053236787 C15.906210093363866 49.484582461160876 18.23711376049986 44.17883621131167 22.26522196821796 40.28222590638833 C24.257672857572448 38.26028952969312 26.63161533064384 36.64692988336176 29.251838448658038 35.534037935619146 C30.830324400757046 37.07572949104052 32.77618398742144 38.196390527628076 34.90845273188155 38.79179983666147 C34.90845273188155 38.79179983666147 34.90845273188155 38.64520055111456 34.90845273188155 38.64520055111456 C29.129844215087886 36.998086929598806 25.14625385366889 31.75778011595569 25.13868350541423 25.793329851502595 C25.13868350541423 25.353531994861882 25.13868350541423 24.930022947726382 25.204362626264434 24.50651390059088 C25.154539506303138 24.971816219729615 25.129874507614556 25.439431871232063 25.130473615307956 25.90735151803908 C25.08434076999861 28.922725891420598 26.103874685135104 31.858960475324746 28.012145042610502 34.20649996094439 C25.41026874558629 35.40433049141698 23.04872070515252 37.05995691728711 21.041948342382973 39.09314281250788 C16.470965844123608 43.51695139985163 13.932994253069367 49.60955800806019 14.022492301517795 55.9439162456493 C14.020277065520888 56.17354611034665 14.111252154981061 56.394410740252034 14.274938048697297 56.55679101008027 C14.43862394241353 56.71917127990849 14.661264441623269 56.80942071581773 14.892740652782951 56.80722314942551 C14.892740652782951 56.80722314942551 32.954498886588084 56.80722314942551 32.954498886588084 56.80722314942551 C32.954498886588084 56.80722314942551 33.135116468926135 55.088753746625684 33.135116468926135 55.088753746625684 C33.135116468926135 55.088753746625684 21.928616473860686 55.06432053236787 21.928616473860686 55.06432053236787 Z"></path></defs> <path d="M9.988560820539988 42.65946501523172 C9.988560820539988 42.65946501523172 3.8311432408337396 42.65946501523172 3.8311432408337396 42.65946501523172 C3.9661544400431694 37.079726944024685 6.2970581071791685 31.773980694175464 10.325166314897274 27.87737038925212 C12.317617204251746 25.85543401255694 14.691559677323198 24.242074366225552 17.31178279533742 23.12918241848297 C18.89026874743638 24.67087397390435 20.83612833410075 25.791535010491884 22.968397078560884 26.3869443195253 C22.968397078560884 26.3869443195253 22.968397078560884 26.24034503397837 22.968397078560884 26.24034503397837 C17.189788561767273 24.593231412462615 13.20619820034824 19.352924598819527 13.198627852093523 13.388474334366435 C13.198627852093523 12.948676477725712 13.198627852093523 12.525167430590216 13.264306972943814 12.10165838345472 C13.21448385298254 12.566960702593406 13.18981885429389 13.034576354095861 13.19041796198735 13.502496000902909 C13.144285116677906 16.517870374284428 14.163819031814455 19.454104958188566 16.072089389289886 21.801644443808186 C13.47021309226568 22.999474974280815 11.10866505183185 24.655101400150897 9.10189268906231 26.68828729537171 C4.530910190802956 31.112095882715437 1.9929385997487543 37.20470249092398 2.082436648197131 43.53906072851311 C2.080221412200217 43.768690593210465 2.171196501660461 43.98955522311587 2.334882395376667 44.15193549294406 C2.498568289092873 44.31431576277231 2.721208788302647 44.40456519868155 2.952684999462349 44.40236763228933 C2.952684999462349 44.40236763228933 21.014443233267457 44.40236763228933 21.014443233267457 44.40236763228933 C21.014443233267457 44.40236763228933 21.19506081560553 42.6838982294895 21.19506081560553 42.6838982294895 C21.19506081560553 42.6838982294895 9.988560820539988 42.65946501523172 9.988560820539988 42.65946501523172 Z" style="stroke-width: 0; stroke-linecap: butt; stroke-linejoin: miter; fill: rgb(237, 57, 108);"></path></g><g><defs><path id="path-162823468098814623" d="M55.006263712042866 39.09314281250791 C53.223025585774806 37.30125760291365 51.16745690152892 35.797986121304504 48.914525253186774 34.63815341283252 C48.914525253186774 34.63815341283252 48.824216462017745 34.58114257956428 48.824216462017745 34.58114257956428 C46.849003144293974 36.84715666800398 44.162449606824865 38.387707653229754 41.19722855328821 38.95468793171361 C41.19722855328821 38.95468793171361 41.19722855328821 39.09314281250791 41.19722855328821 39.09314281250791 C43.608199852266864 38.66746253701717 45.84676039004651 37.568411390522385 47.65020217682041 35.92496936374424 C49.92713328830211 37.027449449519075 51.99824729975446 38.50642661823868 53.7747801961016 40.29851471589356 C57.830811244518216 44.18261776052608 60.18903840994744 49.49017009339565 60.34269228112164 55.08060934187311 C60.34269228112164 55.08060934187311 42.90488569539343 55.08060934187311 42.90488569539343 55.08060934187311 C42.90488569539343 55.08060934187311 43.093713167837755 56.79907874467293 43.093713167837755 56.79907874467293 C43.093713167837755 56.79907874467293 61.19652085217426 56.79907874467293 61.19652085217426 56.79907874467293 C61.65970324017911 56.777199695237165 62.02245091084183 56.395754189441035 62.01750986280176 55.93577184089671 C62.114679242998726 49.60396216101811 59.578707390769004 43.51197334546098 55.006263712042866 39.09314281250791 Z"></path></defs> <path d="M43.06620805872194 26.68828729537165 C41.282969932453966 24.896402085777424 39.227401248208025 23.393130604168277 36.97446959986587 22.233297895696296 C36.97446959986587 22.233297895696296 36.884160808696834 22.17628706242806 36.884160808696834 22.17628706242806 C34.908947490973105 24.442301150867763 32.222393953504024 25.982852136093527 29.257172899967372 26.549832414577395 C29.257172899967372 26.549832414577395 29.257172899967372 26.68828729537165 29.257172899967372 26.68828729537165 C31.668144198946038 26.26260701988093 33.9067047367256 25.163555873386144 35.710146523499475 23.520113846608012 C37.98707763498123 24.622593932382813 40.058191646433556 26.101571101102422 41.83472454278069 27.89365919875729 C45.890755591197376 31.777762243389816 48.24898275662656 37.08531457625941 48.4026366278008 42.67575382473689 C48.4026366278008 42.67575382473689 30.96483004207255 42.67575382473689 30.96483004207255 42.67575382473689 C30.96483004207255 42.67575382473689 31.153657514516908 44.39422322753671 31.153657514516908 44.39422322753671 C31.153657514516908 44.39422322753671 49.256465198853334 44.39422322753671 49.256465198853334 44.39422322753671 C49.71964758685817 44.372344178100946 50.08239525752094 43.99089867230481 50.077454209480834 43.53091632376049 C50.17462358967782 37.19910664388186 47.63865173744807 31.10711782832476 43.06620805872194 26.68828729537165 Z" style="stroke-width: 0; stroke-linecap: butt; stroke-linejoin: miter; fill: rgb(237, 57, 108);"></path></g><g><defs><path id="path-162823468098814621" d="M38.643952730236634 14.366729983596619 C43.21130786949639 14.35088353749237 47.35473849384385 17.019291174254036 49.19915069720003 21.164375079201925 C51.04356290055621 25.309458984149817 50.23893522072663 30.144590047647476 47.149398880337586 33.48164793796242 C47.149398880337586 33.48164793796242 48.79137690159259 34.556709365306375 48.79137690159259 34.556709365306375 C52.2545700345908 30.608641711798466 53.07794072825364 25.01931585616275 50.898441560551 20.253223622546955 C48.71894239284835 15.487131388931166 43.937161943537326 12.420273166391684 38.66152243142881 12.404913469556487 C33.38588291932028 12.38955377272129 28.586038736021003 15.42851569013837 26.378376911461718 20.18183497695716 C26.378376911461718 20.18183497695716 28.020354932716725 21.248751999548514 28.020354932716725 21.248751999548514 C29.848787634986383 17.047924821543333 34.03155456694441 14.338306605382064 38.643952730236634 14.366729983596619 Z"></path></defs> <path d="M26.70389707691595 1.961874466460472 C31.271252216175753 1.946028020356266 35.41468284052314 4.614435657117895 37.25909504387937 8.759519562065805 C39.1035072472356 12.904603467013715 38.29887956740595 17.739734530511328 35.209343227016916 21.07679242082628 C35.209343227016916 21.07679242082628 36.851321248271915 22.151853848170276 36.851321248271915 22.151853848170276 C40.3145143812701 18.203786194662314 41.137885074933024 12.614460339026607 38.95838590723031 7.848368105410827 C36.77888673952771 3.082275871795048 31.99710629021672 0.015417649255539345 26.72146677810815 0.00005795242037720527 C21.445827265999583 -0.015301744414841778 16.645983082700354 3.02366017300227 14.438321258141059 7.776979459821007 C14.438321258141059 7.776979459821007 16.08029927939606 8.84389648241239 16.08029927939606 8.84389648241239 C17.90873198166571 4.64306930440722 22.09149891362381 1.9334510882459313 26.70389707691595 1.961874466460472 Z" style="stroke-width: 0; stroke-linecap: butt; stroke-linejoin: miter; fill: rgb(237, 57, 108);"></path></g><g><defs><path id="path-162823468098714619" d="M41.049450531375264 37.3665290049555 C43.22806192177258 36.951321017701495 45.23043044076881 35.89569298799074 46.796373605767805 34.336810436986134 C46.84081045863112 34.27586711779417 46.89023726141539 34.218662470390456 46.94415162768076 34.16577793718141 C46.94415162768076 34.16577793718141 46.041063715990504 34.53227615104867 46.041063715990504 34.53227615104867 C44.22330361409903 36.054003262768425 41.97442326441065 36.97881993990884 39.604509872670846 37.179207695645566 C39.604509872670846 37.179207695645566 39.43210218043908 37.25250733841902 39.43210218043908 37.25250733841902 C39.43210218043908 37.25250733841902 41.049450531375264 37.25250733841902 41.049450531375264 37.25250733841902 C41.049450531375264 37.25250733841902 41.049450531375264 37.3665290049555 41.049450531375264 37.3665290049555 Z"></path></defs> <path d="M29.10939487805456 24.96167348781927 C31.28800626845191 24.54646550056526 33.29037478744817 23.4908374708545 34.85631795244717 21.931954919849886 C34.9007548053105 21.871011600657937 34.95018160809468 21.813806953254243 35.0040959743601 21.760922420045176 C35.0040959743601 21.760922420045176 34.10100806266985 22.127420633912436 34.10100806266985 22.127420633912436 C32.28324796077834 23.649147745632206 30.034367611090033 24.573964422772576 27.664454219350205 24.774352178509332 C27.664454219350205 24.774352178509332 27.49204652711842 24.847651821282795 27.49204652711842 24.847651821282795 C27.49204652711842 24.847651821282795 29.10939487805456 24.847651821282795 29.10939487805456 24.847651821282795 C29.10939487805456 24.847651821282795 29.10939487805456 24.96167348781927 29.10939487805456 24.96167348781927 Z" style="stroke-width: 0; stroke-linecap: butt; stroke-linejoin: miter; fill: rgb(237, 57, 108);"></path></g><g><defs><path id="path-162823468098714617" d="M39.56346042214031 39.13386483626893 C39.56346042214031 39.13386483626893 39.56346042214031 38.88138828893816 39.56346042214031 38.88138828893816 C39.56346042214031 38.88138828893816 36.550430753137306 38.88138828893816 36.550430753137306 38.88138828893816 C36.550430753137306 38.88138828893816 36.550430753137306 39.00355436022724 36.550430753137306 39.00355436022724 C37.2472940620482 39.123910591309304 37.95304012067 39.18656695387626 38.66037251045005 39.19087566953716 C38.95592855427595 39.190875669537164 39.25969448820814 39.158298050526746 39.56346042214031 39.13386483626893 Z"></path></defs> <path d="M27.623404768818887 26.72900931913472 C27.623404768818887 26.72900931913472 27.623404768818887 26.47653277180399 27.623404768818887 26.47653277180399 C27.623404768818887 26.47653277180399 24.610375099815883 26.47653277180399 24.610375099815883 26.47653277180399 C24.610375099815883 26.47653277180399 24.610375099815883 26.598698843093075 24.610375099815883 26.598698843093075 C25.30723840872679 26.719055074175117 26.012984467348588 26.781711436742057 26.720316857128637 26.786020152402955 C27.01587290095449 26.786020152402955 27.319638834886746 26.75344253339256 27.623404768818887 26.72900931913472 Z" style="stroke-width: 0; stroke-linecap: butt; stroke-linejoin: miter; fill: rgb(237, 57, 108);"></path></g><g><defs><path id="path-162823468098614615" d="M34.916662621987676 38.65334495586711 C34.916662621987676 38.65334495586711 35.072650534006904 37.252507338418916 35.072650534006904 37.252507338418916 C35.072650534006904 37.252507338418916 39.45673185075777 37.252507338418916 39.45673185075777 37.252507338418916 C39.45673185075777 37.252507338418916 39.62913954298954 37.17920769564546 39.62913954298954 37.17920769564546 C39.301921756873114 37.214663291506476 38.973106774610905 37.23369117118086 38.643952730236535 37.2362185289137 C32.30728759500843 37.20944972802203 27.17709061776516 32.120173245340645 27.150106581451503 25.834051875265583 C27.1496579030478 24.266929130355717 27.476726388956248 22.716732989510515 28.110663723885683 21.281329618558946 C28.110663723885683 21.281329618558946 26.46868570263068 20.214412595967584 26.46868570263068 20.214412595967584 C26.443544556928767 20.276475113205784 26.413341450396207 20.336399502254384 26.378376911461654 20.39358950052491 C26.288068120292632 20.605344024092663 26.20596921922988 20.817098547660414 26.12387031816713 21.028853071228166 C26.041771417104382 21.240607594795918 25.918623065510253 21.533806165889725 25.836524164447503 21.79442711797311 C25.836524164447503 21.900304379756985 25.779054933703577 22.01432604629347 25.746215373278478 22.12834771282995 C25.647696692003176 22.45412390293418 25.55738790083415 22.78804449779102 25.483498889877676 23.130109497400465 C25.483498889877676 23.130109497400465 25.483498889877676 23.284853187699976 25.483498889877676 23.284853187699976 C25.401399988814926 23.692073425330264 25.343930758071 24.09929366296055 25.29467141743335 24.54723592435387 C25.245412076795702 24.995178185747193 25.22899229658315 25.361676399614453 25.22899229658315 25.83405187526559 C25.24049232197291 31.763795287448456 29.182243386242646 36.979751285779436 34.916662621987676 38.65334495586711 Z"></path></defs> <path d="M22.97660696866717 26.248489438730985 C22.97660696866717 26.248489438730985 23.132594880686383 24.847651821282795 23.132594880686383 24.847651821282795 C23.132594880686383 24.847651821282795 27.516676197437278 24.847651821282795 27.516676197437278 24.847651821282795 C27.516676197437278 24.847651821282795 27.68908388966895 24.774352178509332 27.68908388966895 24.774352178509332 C27.36186610355253 24.80980777437037 27.033051121290328 24.828835654044724 26.70389707691595 24.83136301177757 C20.36723194168792 24.80459421088591 15.23703496444466 19.715317728204525 15.210050928130954 13.429196358129445 C15.209602249727254 11.862073613219593 15.536670735635653 10.311877472374363 16.170608070565095 8.876474101422843 C16.170608070565095 8.876474101422843 14.528630049310095 7.80955707883146 14.528630049310095 7.80955707883146 C14.503488903608172 7.87161959606965 14.473285797075619 7.931543985118253 14.438321258141059 7.988733983388784 C14.348012466972136 8.20048850695656 14.265913565909386 8.41224303052428 14.183814664846636 8.623997554092057 C14.101715763783886 8.835752077659777 13.978567412189705 9.128950648753573 13.896468511126955 9.389571600836973 C13.896468511126955 9.495448862620833 13.838999280383064 9.609470529157363 13.806159719957918 9.723492195693836 C13.707641038682596 10.04926838579803 13.61733224751356 10.383188980654893 13.543443236557096 10.725253980264313 C13.543443236557096 10.725253980264313 13.543443236557096 10.879997670563853 13.543443236557096 10.879997670563853 C13.461344335494346 11.287217908194123 13.403875104750455 11.69443814582445 13.35461576411285 12.142380407217729 C13.305356423475132 12.590322668611066 13.28893664326256 12.956820882478326 13.28893664326256 13.429196358129445 C13.30043666865231 19.358939770312304 17.242187732922048 24.57489576864333 22.97660696866717 26.248489438730985 Z" style="stroke-width: 0; stroke-linecap: butt; stroke-linejoin: miter; fill: rgb(237, 57, 108);"></path></g><g><defs><path id="path-162823468098614613" d="M46.06569338630968 34.53227615104857 C46.06569338630968 34.53227615104857 46.968781297999946 34.1657779371813 46.968781297999946 34.1657779371813 C46.91486693173458 34.21866247039036 46.86544012895031 34.27586711779408 46.821003276087 34.33681043698603 C45.24841329284079 35.89999298756421 43.23685257653751 36.955941555021425 41.049450531375584 37.36652900495539 C41.049450531375584 37.36652900495539 41.22185822360736 38.9302547174557 41.22185822360736 38.9302547174557 C44.18707927714403 38.363274438971864 46.87363281461316 36.82272345374609 48.84884613233695 34.556709365306396 C48.84884613233695 34.556709365306396 47.20686811108193 33.48164793796243 47.20686811108193 33.48164793796243 C46.85415971021875 33.86033180957196 46.472645526242374 34.211574749567944 46.06569338630968 34.53227615104857 Z"></path></defs> <path d="M34.125637732988594 22.127420633912493 C34.125637732988594 22.127420633912493 35.02872564467884 21.760922420045233 35.02872564467884 21.760922420045233 C34.974811278413426 21.8138069532543 34.925384475629244 21.871011600657994 34.880947622765916 21.931954919849943 C33.30835763951973 23.49513747042812 31.296796923216448 24.55108603788534 29.109394878054445 24.961673487819326 C29.109394878054445 24.961673487819326 29.28180257028623 26.52539920031961 29.28180257028623 26.52539920031961 C32.247023623822884 25.9584189218358 34.93357716129208 24.417867936610037 36.908790479015806 22.151853848170333 C36.908790479015806 22.151853848170333 35.26681245776081 21.076792420826337 35.26681245776081 21.076792420826337 C34.9141040568976 21.45547629243589 34.53258987292122 21.806719232431874 34.125637732988594 22.127420633912493 Z" style="stroke-width: 0; stroke-linecap: butt; stroke-linejoin: miter; fill: rgb(237, 57, 108);"></path></g><g><defs><path id="path-162823468098514611" d="M25.212572516370518 24.514658305343005 C25.26183185700817 24.083004853454902 25.31930108775209 23.65949580631941 25.40139998881484 23.25227556868913 C25.31930108775209 23.65949580631941 25.26183185700817 24.083004853454902 25.212572516370518 24.514658305343005 Z"></path></defs> <path d="M13.272516863049987 12.109802788207332 C13.321776203687591 11.678149336319223 13.379245434431596 11.254640289183726 13.461344335494346 10.847420051553456 C13.379245434431596 11.254640289183726 13.321776203687591 11.678149336319223 13.272516863049987 12.109802788207332 Z" style="stroke-width: 0; stroke-linecap: butt; stroke-linejoin: miter; fill: rgb(237, 57, 108);"></path></g><g><defs><path id="path-162823468098414609" d="M41.254697784032686 55.06432053236794 C41.254697784032686 55.06432053236794 42.896675805287714 55.06432053236794 42.896675805287714 55.06432053236794 C42.896675805287714 55.06432053236794 41.20543844339504 39.09314281250793 41.20543844339504 39.09314281250793 C40.66244378597115 39.18698281800627 40.11403370391085 39.24682674993448 39.56346042214 39.27231971706526 C39.56346042214 39.27231971706526 41.254697784032686 55.06432053236794 41.254697784032686 55.06432053236794 Z"></path></defs> <path d="M29.31464213071149 42.65946501523172 C29.31464213071149 42.65946501523172 30.95662015196649 42.65946501523172 30.95662015196649 42.65946501523172 C30.95662015196649 42.65946501523172 29.265382790073772 26.68828729537171 29.265382790073772 26.68828729537171 C28.72238813264994 26.782127300870002 28.173978050589653 26.841971232798244 27.623404768818773 26.86746419992903 C27.623404768818773 26.86746419992903 29.31464213071149 42.65946501523172 29.31464213071149 42.65946501523172 Z" style="stroke-width: 0; stroke-linecap: butt; stroke-linejoin: miter; fill: rgb(237, 57, 108);"></path></g><g><defs><path id="path-162823468098414607" d="M34.908452731882186 38.799944241414 C34.908452731882186 38.799944241414 33.176165919458114 55.08875374662559 33.176165919458114 55.08875374662559 C33.176165919458114 55.08875374662559 34.818143940713156 55.08875374662559 34.818143940713156 55.08875374662559 C34.818143940713156 55.08875374662559 36.51759119271212 39.09314281250781 36.51759119271212 39.09314281250781 C35.975413751287306 39.0298411391509 35.43791794527653 38.9319048793899 34.908452731882186 38.799944241414 Z"></path></defs> <path d="M22.96839707856077 26.39508872427791 C22.96839707856077 26.39508872427791 21.23611026613662 42.6838982294895 21.23611026613662 42.6838982294895 C21.23611026613662 42.6838982294895 22.878088287391734 42.6838982294895 22.878088287391734 42.6838982294895 C22.878088287391734 42.6838982294895 24.577535539390624 26.688287295371765 24.577535539390624 26.688287295371765 C24.035358097965855 26.624985622014833 23.49786229195513 26.52704936225382 22.96839707856077 26.39508872427791 Z" style="stroke-width: 0; stroke-linecap: butt; stroke-linejoin: miter; fill: rgb(237, 57, 108);"></path></g><g><defs><path id="path-162823468098314605" d="M41.960748333171985 61.685721596236235 C41.960748333171985 61.685721596236235 38.04463075247877 65.9778229008595 38.04463075247877 65.9778229008595 C38.04463075247877 65.9778229008595 34.12030328167928 61.685721596236235 34.12030328167928 61.685721596236235 C34.12030328167928 61.685721596236235 34.64573624848088 56.78278993516755 34.64573624848088 56.78278993516755 C34.64573624848088 56.78278993516755 32.99554833711959 56.78278993516755 32.99554833711959 56.78278993516755 C32.99554833711959 56.78278993516755 32.41264613957405 62.23954111941344 32.41264613957405 62.23954111941344 C32.41264613957405 62.23954111941344 38.04463075247877 68.40485551713601 38.04463075247877 68.40485551713601 C38.04463075247877 68.40485551713601 43.6684054752772 62.23954111941344 43.6684054752772 62.23954111941344 C43.6684054752772 62.23954111941344 43.09371316783795 56.78278993516755 43.09371316783795 56.78278993516755 C43.09371316783795 56.78278993516755 41.443525256476654 56.78278993516755 41.443525256476654 56.78278993516755 C41.443525256476654 56.78278993516755 41.960748333171985 61.685721596236235 41.960748333171985 61.685721596236235 Z"></path></defs> <path d="M30.02069267985121 49.280866079100235 C30.02069267985121 49.280866079100235 26.104575099157955 53.572967383723494 26.104575099157955 53.572967383723494 C26.104575099157955 53.572967383723494 22.18024762835853 49.280866079100235 22.18024762835853 49.280866079100235 C22.18024762835853 49.280866079100235 22.70568059516006 44.37793441803154 22.70568059516006 44.37793441803154 C22.70568059516006 44.37793441803154 21.055492683798775 44.37793441803154 21.055492683798775 44.37793441803154 C21.055492683798775 44.37793441803154 20.47259048625324 49.83468560227743 20.47259048625324 49.83468560227743 C20.47259048625324 49.83468560227743 26.104575099157955 56 26.104575099157955 56 C26.104575099157955 56 31.728349821956385 49.83468560227743 31.728349821956385 49.83468560227743 C31.728349821956385 49.83468560227743 31.153657514517135 44.37793441803154 31.153657514517135 44.37793441803154 C31.153657514517135 44.37793441803154 29.50346960315585 44.37793441803154 29.50346960315585 44.37793441803154 C29.50346960315585 44.37793441803154 30.02069267985121 49.280866079100235 30.02069267985121 49.280866079100235 Z" style="stroke-width: 0; stroke-linecap: butt; stroke-linejoin: miter; fill: rgb(237, 57, 108);"></path></g><g><defs><path id="path-162823468098314603" d="M41.25469778403029 55.0643205323679 C41.25469778403029 55.0643205323679 41.443525256474615 56.78278993516773 41.443525256474615 56.78278993516773 C41.443525256474615 56.78278993516773 43.09371316783582 56.78278993516773 43.09371316783582 56.78278993516773 C43.09371316783582 56.78278993516773 42.90488569539151 55.0643205323679 42.90488569539151 55.0643205323679 C42.90488569539151 55.0643205323679 41.25469778403029 55.0643205323679 41.25469778403029 55.0643205323679 Z"></path></defs> <path d="M29.31464213071149 42.65946501523172 C29.31464213071149 42.65946501523172 29.503469603155736 44.37793441803154 29.503469603155736 44.37793441803154 C29.503469603155736 44.37793441803154 31.153657514517022 44.37793441803154 31.153657514517022 44.37793441803154 C31.153657514517022 44.37793441803154 30.964830042072663 42.65946501523172 30.964830042072663 42.65946501523172 C30.964830042072663 42.65946501523172 29.31464213071149 42.65946501523172 29.31464213071149 42.65946501523172 Z" style="stroke-width: 0; stroke-linecap: butt; stroke-linejoin: miter; fill: rgb(237, 57, 108);"></path></g><g><defs><path id="path-162823468098214601" d="M36.53401097292374 39.00355436022997 C35.979003033534035 38.925608594293564 35.4302908490658 38.80857647522662 34.89203295166874 38.65334495586791 C34.89203295166874 38.65334495586791 34.89203295166874 38.79994424141482 34.89203295166874 38.79994424141482 C35.431533633557514 38.94427281573327 35.98005301542781 39.053101650291886 36.53401097292374 39.125720431519056 C36.53401097292374 39.125720431519056 36.53401097292374 39.00355436022997 36.53401097292374 39.00355436022997 Z"></path></defs> <path d="M24.59395531960331 26.598698843093075 C24.038947380213585 26.520753077156655 23.490235195745413 26.403720958089707 22.95197729834831 26.248489438730985 C22.95197729834831 26.248489438730985 22.95197729834831 26.39508872427791 22.95197729834831 26.39508872427791 C23.49147798023705 26.539417298596334 24.039997362107442 26.64824613315494 24.59395531960331 26.720864914382105 C24.59395531960331 26.720864914382105 24.59395531960331 26.598698843093075 24.59395531960331 26.598698843093075 Z" style="stroke-width: 0; stroke-linecap: butt; stroke-linejoin: miter; fill: rgb(237, 57, 108);"></path></g><g><defs><path id="path-162823468098114599" d="M39.57988020235176 39.256030907560756 C40.1304534841226 39.230537940429976 40.67886356618289 39.17069400850177 41.22185822360676 39.076854003003426 C41.22185822360676 39.076854003003426 41.22185822360676 38.930254717456506 41.22185822360676 38.930254717456506 C40.679905565582665 39.03551571401675 40.131276126543035 39.10354738302957 39.57988020235176 39.133864836271655 C39.57988020235176 39.133864836271655 39.57988020235176 39.256030907560756 39.57988020235176 39.256030907560756 Z"></path></defs> <path d="M27.639824549031346 26.85117539042392 C28.190397830802112 26.82568242329313 28.738807912862512 26.76583849136489 29.281802570286345 26.67199848586654 C29.281802570286345 26.67199848586654 29.281802570286345 26.52539920031961 29.281802570286345 26.52539920031961 C28.73984991226223 26.630660196879887 28.191220473222643 26.698691865892727 27.639824549031346 26.729009319134775 C27.639824549031346 26.729009319134775 27.639824549031346 26.85117539042392 27.639824549031346 26.85117539042392 Z" style="stroke-width: 0; stroke-linecap: butt; stroke-linejoin: miter; fill: rgb(237, 57, 108);"></path></g><g><defs><path id="path-162823468098114597" d="M34.82635383081913 55.0643205323679 C34.82635383081913 55.0643205323679 33.17616591945782 55.0643205323679 33.17616591945782 55.0643205323679 C33.17616591945782 55.0643205323679 32.99554833711977 56.78278993516773 32.99554833711977 56.78278993516773 C32.99554833711977 56.78278993516773 34.64573624848108 56.78278993516773 34.64573624848108 56.78278993516773 C34.64573624848108 56.78278993516773 34.82635383081913 55.0643205323679 34.82635383081913 55.0643205323679 Z"></path></defs> <path d="M22.886298177498134 42.65946501523172 C22.886298177498134 42.65946501523172 21.236110266136848 42.65946501523172 21.236110266136848 42.65946501523172 C21.236110266136848 42.65946501523172 21.055492683798775 44.37793441803154 21.055492683798775 44.37793441803154 C21.055492683798775 44.37793441803154 22.70568059516006 44.37793441803154 22.70568059516006 44.37793441803154 C22.70568059516006 44.37793441803154 22.886298177498134 42.65946501523172 22.886298177498134 42.65946501523172 Z" style="stroke-width: 0; stroke-linecap: butt; stroke-linejoin: miter; fill: rgb(237, 57, 108);"></path></g><g><defs><path id="path-162823468098014595" d="M41.04945053137501 37.36652900495617 C41.04945053137501 37.36652900495617 41.04945053137501 37.25250733841968 41.04945053137501 37.25250733841968 C41.04945053137501 37.25250733841968 39.48957141118276 37.25250733841968 39.48957141118276 37.25250733841968 C39.48957141118276 37.25250733841968 38.66858240055526 37.578283528523926 38.66858240055526 37.578283528523926 C39.46709564016175 37.580824543154364 40.26412754020837 37.50993648846628 41.04945053137501 37.36652900495617 Z"></path></defs> <path d="M29.10939487805456 24.961673487819326 C29.10939487805456 24.961673487819326 29.10939487805456 24.847651821282795 29.10939487805456 24.847651821282795 C29.10939487805456 24.847651821282795 27.54951575786231 24.847651821282795 27.54951575786231 24.847651821282795 C27.54951575786231 24.847651821282795 26.72852674723481 25.173428011387045 26.72852674723481 25.173428011387045 C27.527039986841373 25.17596902601747 28.324071886887964 25.105080971329414 29.10939487805456 24.961673487819326 Z" style="stroke-width: 0; stroke-linecap: butt; stroke-linejoin: miter; fill: rgb(237, 57, 108);"></path></g><g><defs><path id="path-162823468098014593" d="M38.66037251044924 37.57828352852392 C38.66037251044924 37.57828352852392 39.48136152107675 37.25250733841968 39.48136152107675 37.25250733841968 C39.48136152107675 37.25250733841968 35.07265053400704 37.25250733841968 35.07265053400704 37.25250733841968 C35.07265053400704 37.25250733841968 34.91666262198782 38.65334495586791 34.91666262198782 38.65334495586791 C35.45492051938488 38.80857647522662 36.00363270385312 38.925608594293564 36.558640643242825 39.00355436022996 C36.558640643242825 39.00355436022996 36.558640643242825 38.881388288940876 36.558640643242825 38.881388288940876 C36.558640643242825 38.881388288940876 39.54704064192695 38.881388288940876 39.54704064192695 38.881388288940876 C39.54704064192695 38.881388288940876 39.54704064192695 39.13386483627166 39.54704064192695 39.13386483627166 C40.098436566118224 39.10354738302957 40.64706600515786 39.03551571401675 41.18901866318196 38.93025471745651 C41.18901866318196 38.93025471745651 41.04945053137528 37.36652900495616 41.04945053137528 37.36652900495616 C40.26143121977625 37.5104386572617 39.461627387288246 37.58132879898697 38.66037251044924 37.57828352852392 Z"></path></defs> <path d="M26.720316857128523 25.173428011387045 C26.720316857128523 25.173428011387045 27.541305867756023 24.847651821282795 27.541305867756023 24.847651821282795 C27.541305867756023 24.847651821282795 23.13259488068627 24.847651821282795 23.13259488068627 24.847651821282795 C23.13259488068627 24.847651821282795 22.976606968667056 26.248489438731042 22.976606968667056 26.248489438731042 C23.51486486606416 26.403720958089764 24.06357705053233 26.520753077156712 24.618584989922056 26.598698843093075 C24.618584989922056 26.598698843093075 24.618584989922056 26.47653277180399 24.618584989922056 26.47653277180399 C24.618584989922056 26.47653277180399 27.6069849886062 26.47653277180399 27.6069849886062 26.47653277180399 C27.6069849886062 26.47653277180399 27.6069849886062 26.729009319134775 27.6069849886062 26.729009319134775 C28.158380912797497 26.698691865892727 28.707010351837084 26.630660196879887 29.2489630098612 26.52539920031967 C29.2489630098612 26.52539920031967 29.10939487805456 24.961673487819326 29.10939487805456 24.961673487819326 C28.32137556645546 25.10558314012485 27.52157173396745 25.17647328185012 26.720316857128523 25.173428011387045 Z" style="stroke-width: 0; stroke-linecap: butt; stroke-linejoin: miter; fill: rgb(237, 57, 108);"></path></g></svg>