<svg height="170.50092938131274" overflow="visible" viewBox="0 0 176.04327253425424  170.50092938131274" width="176.04327253425424" xmlns="http://www.w3.org/2000/svg"><g><defs><path id="path-162822933050793532" d="M123.3732056099672 107.25685709932948 C123.3732056099672 80.40046982644031 137.26076769665255 61.9569335428094 137.26076769665255 49.01409602217465 C137.26076769665255 36.07125850154 129.83253302760966 8.891309027048726 70.40669443123977 8.891309027048726 C10.980855834871125 8.891309027048726 2.260767696652969 45.45481900442301 2.260767696652969 59.69193484113028 C2.260765371294167 126.34752865814603 123.3732056099672 154.821775474678 123.3732056099672 107.25685709932948 Z"></path></defs> <path d="M152.82325204471732 93.69014918502307 C140.44129019314875 69.85839394002096 144.26152918826085 47.08924407935683 138.2943185279749 35.604060579677025 C132.327107867689 24.118877079996764 113.20432106701548 3.4247390522791648 60.47116577448111 30.82263360232173 C7.738010481947811 58.22052815236384 16.857367340554845 94.68650585061278 23.421296560641224 107.32020287648447 C54.152420446827705 166.46888174415562 174.75274683536873 135.89819010473866 152.82325204471732 93.69014918502307 Z" style="stroke-width: 0; stroke-linecap: butt; stroke-linejoin: miter; fill: rgb(242, 242, 242);"></path></g><g><defs><path id="path-162822933041993325" d="M9.516570309233883 37.478125000000155 C9.516570309233883 37.478125000000155 18.683144162261268 29.96575000000012 18.683144162261268 29.96575000000012 C18.683144162261268 29.96575000000012 21.391450073382995 24.605750000000096 21.391450073382995 24.605750000000096 C21.391450073382995 24.605750000000096 26.09973573425615 27.955750000000112 26.09973573425615 27.955750000000112 C26.09973573425615 27.955750000000112 35.86630351220896 29.882000000000122 35.86630351220896 29.882000000000122 C35.86630351220896 29.882000000000122 33.33299582919048 24.287500000000097 33.33299582919048 24.287500000000097 C33.33299582919048 24.287500000000097 27.391389322637277 20.937500000000085 27.391389322637277 20.937500000000085 C27.391389322637277 20.937500000000085 22.69143691072142 18.994500000000077 22.69143691072142 18.994500000000077 C22.69143691072142 18.994500000000077 14.18318972532055 20.937500000000085 14.18318972532055 20.937500000000085 C14.18318972532055 20.937500000000085 9.516570309233883 25.962500000000105 9.516570309233883 25.962500000000105 C9.516570309233883 25.962500000000105 9.516570309233883 31.381125000000125 9.516570309233883 31.381125000000125 C9.516570309233883 31.381125000000125 9.516570309233883 37.478125000000155 9.516570309233883 37.478125000000155 Z"></path></defs> <path d="M56.51738031917694 86.5314928046264 C56.51738031917694 86.5314928046264 65.68395417220432 79.0191178046266 65.68395417220432 79.0191178046266 C65.68395417220432 79.0191178046266 68.39226008332605 73.65911780462648 68.39226008332605 73.65911780462648 C68.39226008332605 73.65911780462648 73.10054574419922 77.00911780462638 73.10054574419922 77.00911780462638 C73.10054574419922 77.00911780462638 82.86711352215201 78.93536780462637 82.86711352215201 78.93536780462637 C82.86711352215201 78.93536780462637 80.33380583913356 73.34086780462621 80.33380583913356 73.34086780462621 C80.33380583913356 73.34086780462621 74.39219933258033 69.9908678046263 74.39219933258033 69.9908678046263 C74.39219933258033 69.9908678046263 69.6922469206645 68.04786780462655 69.6922469206645 68.04786780462655 C69.6922469206645 68.04786780462655 61.183999735263626 69.9908678046263 61.183999735263626 69.9908678046263 C61.183999735263626 69.9908678046263 56.51738031917694 75.0158678046264 56.51738031917694 75.0158678046264 C56.51738031917694 75.0158678046264 56.51738031917694 80.43449280462664 56.51738031917694 80.43449280462664 C56.51738031917694 80.43449280462664 56.51738031917694 86.5314928046264 56.51738031917694 86.5314928046264 Z" style="stroke-width: 0; stroke-linecap: butt; stroke-linejoin: miter; fill: rgb(255, 191, 0);"></path></g><g><defs><path id="path-162822933041893323" d="M15,31c-8.28427,0 -15,-6.93959 -15,-15.5c0,-8.56041 6.71573,-15.5 15,-15.5c8.28427,0 15,6.93959 15,15.5c0,8.56041 -6.71573,15.5 -15,15.5zM15,3.44444c-6.44332,0 -11.66667,5.39746 -11.66667,12.05556c0,6.6581 5.22334,12.05556 11.66667,12.05556c6.44332,0 11.66667,-5.39746 11.66667,-12.05556c0,-6.6581 -5.22334,-12.05556 -11.66667,-12.05556z"></path></defs><path d="M15,31c-8.28427,0 -15,-6.93959 -15,-15.5c0,-8.56041 6.71573,-15.5 15,-15.5c8.28427,0 15,6.93959 15,15.5c0,8.56041 -6.71573,15.5 -15,15.5zM15,3.44444c-6.44332,0 -11.66667,5.39746 -11.66667,12.05556c0,6.6581 5.22334,12.05556 11.66667,12.05556c6.44332,0 11.66667,-5.39746 11.66667,-12.05556c0,-6.6581 -5.22334,-12.05556 -11.66667,-12.05556z" style="stroke-width: 0; stroke-linecap: butt; stroke-linejoin: miter; fill: rgb(96, 96, 96);" transform="translate(54, 66.24086780462676) rotate(0)"></path></g><g><defs><path id="path-162822933041893321" d="M41.66624478648805 71.18749999999977 C41.66624478648805 71.18749999999977 1.666649791459522 71.18749999999977 1.666649791459522 71.18749999999977 C0.746184528327756 71.18749999999977 0 70.43757695596636 0 69.51249999999978 C0 69.51249999999978 0 63.3652499999998 0 63.3652499999998 C0.04825752006813678 54.08922646004097 5.897418895388374 45.84663025096734 14.60818542214271 42.779499999999864 C14.60818542214271 42.779499999999864 15.716507533463291 45.93687499999986 15.716507533463291 45.93687499999986 C8.336710890928693 48.52974745495802 3.3782095538344032 55.508441593505715 3.333299582919044 63.3652499999998 C3.333299582919044 63.3652499999998 3.333299582919044 67.83749999999979 3.333299582919044 67.83749999999979 C3.333299582919044 67.83749999999979 39.99959499502853 67.83749999999979 39.99959499502853 67.83749999999979 C39.99959499502853 67.83749999999979 39.99959499502853 62.8124999999998 39.99959499502853 62.8124999999998 C39.93313531746413 55.10994091638977 34.983564629709214 48.30894060817461 27.699719534057255 45.911749999999856 C27.699719534057255 45.911749999999856 28.76637540059135 42.712499999999864 28.76637540059135 42.712499999999864 C37.41206274057154 45.574750262197796 43.27464764187576 53.66439440308454 43.33289457794757 62.8124999999998 C43.33289457794757 62.8124999999998 43.33289457794757 69.51249999999978 43.33289457794757 69.51249999999978 C43.33289457794757 70.43757695596636 42.58671004961982 71.18749999999977 41.66624478648805 71.18749999999977 Z"></path></defs> <path d="M88.6670547964311 120.24086780462767 C88.6670547964311 120.24086780462767 48.66745980140257 120.24086780462767 48.66745980140257 120.24086780462767 C47.746994538270826 120.24086780462767 47.00081000994305 119.49094476059418 47.00081000994305 118.56586780462749 C47.00081000994305 118.56586780462749 47.00081000994305 112.4186178046275 47.00081000994305 112.4186178046275 C47.0490675300112 103.14259426466879 52.89822890533145 94.899998055595 61.60899543208575 91.83286780462731 C61.60899543208575 91.83286780462731 62.71731754340635 94.99024280462754 62.71731754340635 94.99024280462754 C55.337520900871766 97.58311525958561 50.37901956377743 104.56180939813339 50.33410959286209 112.4186178046275 C50.33410959286209 112.4186178046275 50.33410959286209 116.8908678046273 50.33410959286209 116.8908678046273 C50.33410959286209 116.8908678046273 87.00040500497158 116.8908678046273 87.00040500497158 116.8908678046273 C87.00040500497158 116.8908678046273 87.00040500497158 111.86586780462767 87.00040500497158 111.86586780462767 C86.93394532740717 104.16330872101753 81.98437463965229 97.36230841280212 74.70052954400029 94.96511780462743 C74.70052954400029 94.96511780462743 75.76718541053441 91.7658678046273 75.76718541053441 91.7658678046273 C84.41287275051457 94.62811806682566 90.27545765181878 102.71776220771244 90.33370458789062 111.86586780462767 C90.33370458789062 111.86586780462767 90.33370458789062 118.56586780462749 90.33370458789062 118.56586780462749 C90.33370458789062 119.49094476059418 89.58752005956285 120.24086780462767 88.6670547964311 120.24086780462767 Z" style="stroke-width: 0; stroke-linecap: butt; stroke-linejoin: miter; fill: rgb(96, 96, 96);"></path></g><g><defs><path id="path-162822933041793319" d="M2.0934,20c-0.74908,-0.00348 -1.4009,-0.52626 -1.58442,-1.27078c-0.32846,-1.23167 -0.49955,-2.50185 -0.50898,-3.77869c0.09594,-7.48413 5.50943,-13.77456 12.74114,-14.80509c7.23171,-1.03053 14.11357,3.50779 16.19707,10.68136c0.12346,0.44825 0.06022,0.9289 -0.17468,1.32759c-0.2349,0.39869 -0.62046,0.67977 -1.06494,0.77636c-4.29531,0.94311 -8.7765,-0.14816 -12.1992,-2.97077c-2.01597,5.83933 -7.30993,9.82116 -13.34852,10.04003zM14.77696,3.16843c-6.34751,0 -11.49319,5.27503 -11.49319,11.7821c0.00312,0.50431 0.04153,1.00775 0.11493,1.50643c4.99328,-0.78989 8.88669,-4.84963 9.57219,-9.98112c0.0916,-0.65712 0.55138,-1.19768 1.17395,-1.38019c0.62137,-0.18337 1.28987,0.02419 1.70756,0.53019c2.25396,2.83603 5.67815,4.4197 9.24381,4.27522c-1.89244,-4.0901 -5.90345,-6.70701 -10.31924,-6.73263z"></path></defs><path d="M2.0934,20c-0.74908,-0.00348 -1.4009,-0.52626 -1.58442,-1.27078c-0.32846,-1.23167 -0.49955,-2.50185 -0.50898,-3.77869c0.09594,-7.48413 5.50943,-13.77456 12.74114,-14.80509c7.23171,-1.03053 14.11357,3.50779 16.19707,10.68136c0.12346,0.44825 0.06022,0.9289 -0.17468,1.32759c-0.2349,0.39869 -0.62046,0.67977 -1.06494,0.77636c-4.29531,0.94311 -8.7765,-0.14816 -12.1992,-2.97077c-2.01597,5.83933 -7.30993,9.82116 -13.34852,10.04003zM14.77696,3.16843c-6.34751,0 -11.49319,5.27503 -11.49319,11.7821c0.00312,0.50431 0.04153,1.00775 0.11493,1.50643c4.99328,-0.78989 8.88669,-4.84963 9.57219,-9.98112c0.0916,-0.65712 0.55138,-1.19768 1.17395,-1.38019c0.62137,-0.18337 1.28987,0.02419 1.70756,0.53019c2.25396,2.83603 5.67815,4.4197 9.24381,4.27522c-1.89244,-4.0901 -5.90345,-6.70701 -10.31924,-6.73263z" style="stroke-width: 0; stroke-linecap: butt; stroke-linejoin: miter; fill: rgb(96, 96, 96);" transform="translate(54, 66.24086780462676) rotate(0)"></path></g><g><defs><path id="path-162822933041693317" d="M1.6666497914595293 48.29862499999975 C1.1525463942387966 48.29887143020339 0.6671017036289517 48.060654789457516 0.3511345545188285 47.653077470784126 C0.03516740540870537 47.245500152110736 -0.07595591137603738 46.714182398078535 0.04999949374378588 46.21324999999976 C1.0999888623632894 42.02574999999979 2.958303379840665 36.93374999999981 8.07491823962142 34.48824999999982 C8.07491823962142 34.48824999999982 9.516570309233913 37.50324999999981 9.516570309233913 37.50324999999981 C6.516600684606761 38.952124999999796 4.941616631677506 41.81637499999979 3.983293001588277 44.65549999999977 C6.974423543467489 44.30922249262959 9.768570275368418 42.98168182158935 11.93321250685023 40.87837499999979 C11.93321250685023 40.87837499999979 14.166523227406 43.307124999999786 14.166523227406 43.307124999999786 C10.399894698707463 46.80787499999976 7.19159385014787 47.737499999999756 1.8499812685200776 48.27349999999976 C1.8499812685200776 48.27349999999976 1.6666497914595293 48.29862499999975 1.6666497914595293 48.29862499999975 Z"></path></defs> <path d="M48.66762181323281 97.35199280462712 C48.153518416012105 97.35223923483045 47.66807372540222 97.11402259408487 47.3521065762921 96.70644527541117 C47.03613942718198 96.29886795673792 46.92501611039728 95.76755020270593 47.05097151551706 95.266617804627 C48.100960884136555 91.079117804627 49.95927540161398 85.9871178046269 55.075890261394704 83.5416178046271 C55.075890261394704 83.5416178046271 56.517542331007235 86.55661780462697 56.517542331007235 86.55661780462697 C53.517572706380065 88.00549280462701 51.9425886534508 90.8697428046271 50.98426502336156 93.70886780462706 C53.975395565240774 93.3625902972567 56.7695422971417 92.03504962621673 58.93418452862352 89.93174280462699 C58.93418452862352 89.93174280462699 61.1674952491793 92.36049280462703 61.1674952491793 92.36049280462703 C57.400866720480735 95.86124280462718 54.19256587192115 96.79086780462694 48.850953290293376 97.326867804627 C48.850953290293376 97.326867804627 48.66762181323281 97.35199280462712 48.66762181323281 97.35199280462712 Z" style="stroke-width: 0; stroke-linecap: butt; stroke-linejoin: miter; fill: rgb(96, 96, 96);"></path></g><g><defs><path id="path-162822933041693315" d="M78.33254019859757 61.13750000000005 C78.33254019859757 61.13750000000005 39.999594995028545 61.13750000000005 39.999594995028545 61.13750000000005 C39.999594995028545 61.13750000000005 39.999594995028545 57.787500000000044 39.999594995028545 57.787500000000044 C39.999594995028545 57.787500000000044 76.66589040713804 57.787500000000044 76.66589040713804 57.787500000000044 C76.66589040713804 57.787500000000044 76.66589040713804 7.537500000000006 76.66589040713804 7.537500000000006 C76.66589040713804 7.537500000000006 19.999797497514272 7.537500000000006 19.999797497514272 7.537500000000006 C19.999797497514272 7.537500000000006 19.999797497514272 20.937500000000018 19.999797497514272 20.937500000000018 C19.999797497514272 20.937500000000018 16.666497914595226 20.937500000000018 16.666497914595226 20.937500000000018 C16.666497914595226 20.937500000000018 16.666497914595226 5.862500000000005 16.666497914595226 5.862500000000005 C16.666497914595226 4.937423044033426 17.412682442922982 4.1875000000000036 18.33314770605475 4.1875000000000036 C18.33314770605475 4.1875000000000036 78.33254019859757 4.1875000000000036 78.33254019859757 4.1875000000000036 C79.25300546172933 4.1875000000000036 79.99918999005709 4.937423044033426 79.99918999005709 5.862500000000005 C79.99918999005709 5.862500000000005 79.99918999005709 59.46250000000005 79.99918999005709 59.46250000000005 C79.99918999005709 60.38757695596664 79.25300546172933 61.13750000000005 78.33254019859757 61.13750000000005 Z"></path></defs> <path d="M125.33335020854076 110.19086780462703 C125.33335020854076 110.19086780462703 87.0004050049717 110.19086780462703 87.0004050049717 110.19086780462703 C87.0004050049717 110.19086780462703 87.0004050049717 106.84086780462667 87.0004050049717 106.84086780462667 C87.0004050049717 106.84086780462667 123.66670041708119 106.84086780462667 123.66670041708119 106.84086780462667 C123.66670041708119 106.84086780462667 123.66670041708119 56.59086780462667 123.66670041708119 56.59086780462667 C123.66670041708119 56.59086780462667 67.00060750745746 56.59086780462667 67.00060750745746 56.59086780462667 C67.00060750745746 56.59086780462667 67.00060750745746 69.99086780462676 67.00060750745746 69.99086780462676 C67.00060750745746 69.99086780462676 63.66730792453836 69.99086780462676 63.66730792453836 69.99086780462676 C63.66730792453836 69.99086780462676 63.66730792453836 54.91586780462694 63.66730792453836 54.91586780462694 C63.66730792453836 53.990790848660254 64.41349245286614 53.24086780462676 65.33395771599794 53.24086780462676 C65.33395771599794 53.24086780462676 125.33335020854076 53.24086780462676 125.33335020854076 53.24086780462676 C126.25381547167251 53.24086780462676 127.00000000000023 53.990790848660254 127.00000000000023 54.91586780462694 C127.00000000000023 54.91586780462694 127.00000000000023 108.51586780462685 127.00000000000023 108.51586780462685 C127.00000000000023 109.44094476059354 126.25381547167251 110.19086780462703 125.33335020854076 110.19086780462703 Z" style="stroke-width: 0; stroke-linecap: butt; stroke-linejoin: miter; fill: rgb(96, 96, 96);"></path></g><g><defs><path id="path-162822933041593313" d="M63.33269207546175 17.587500000000716 C63.33269207546175 17.587500000000716 43.33289457794751 17.587500000000716 43.33289457794751 17.587500000000716 C42.412429314815746 17.587500000000716 41.666244786487994 16.837576955967265 41.666244786487994 15.912500000000648 C41.666244786487994 14.987423044034031 42.412429314815746 14.23750000000058 43.33289457794751 14.23750000000058 C43.33289457794751 14.23750000000058 63.33269207546175 14.23750000000058 63.33269207546175 14.23750000000058 C64.25315733859352 14.23750000000058 64.99934186692127 14.987423044034031 64.99934186692127 15.912500000000648 C64.99934186692127 16.837576955967265 64.25315733859352 17.587500000000716 63.33269207546175 17.587500000000716 Z"></path></defs> <path d="M110.33350208540463 66.64086780462685 C110.33350208540463 66.64086780462685 90.3337045878904 66.64086780462685 90.3337045878904 66.64086780462685 C89.41323932475865 66.64086780462685 88.66705479643088 65.89094476059336 88.66705479643088 64.96586780462712 C88.66705479643088 64.04079084866044 89.41323932475865 63.29086780462694 90.3337045878904 63.29086780462694 C90.3337045878904 63.29086780462694 110.33350208540463 63.29086780462694 110.33350208540463 63.29086780462694 C111.25396734853643 63.29086780462694 112.00015187686415 64.04079084866044 112.00015187686415 64.96586780462712 C112.00015187686415 65.89094476059336 111.25396734853643 66.64086780462685 110.33350208540463 66.64086780462685 Z" style="stroke-width: 0; stroke-linecap: butt; stroke-linejoin: miter; fill: rgb(96, 96, 96);"></path></g><g><defs><path id="path-162822933041593311" d="M69.99929124129996 27.637500000001125 C69.99929124129996 27.637500000001125 43.33289457794759 27.637500000001125 43.33289457794759 27.637500000001125 C42.412429314815824 27.637500000001125 41.66624478648807 26.887576955967674 41.66624478648807 25.962500000001057 C41.66624478648807 25.03742304403444 42.412429314815824 24.28750000000099 43.33289457794759 24.28750000000099 C43.33289457794759 24.28750000000099 69.99929124129996 24.28750000000099 69.99929124129996 24.28750000000099 C70.91975650443173 24.28750000000099 71.66594103275948 25.03742304403444 71.66594103275948 25.962500000001057 C71.66594103275948 26.887576955967674 70.91975650443173 27.637500000001125 69.99929124129996 27.637500000001125 Z"></path></defs> <path d="M117.00010125124277 76.69086780462658 C117.00010125124277 76.69086780462658 90.3337045878904 76.69086780462658 90.3337045878904 76.69086780462658 C89.41323932475865 76.69086780462658 88.66705479643088 75.94094476059308 88.66705479643088 75.0158678046264 C88.66705479643088 74.09079084865971 89.41323932475865 73.34086780462621 90.3337045878904 73.34086780462621 C90.3337045878904 73.34086780462621 117.00010125124277 73.34086780462621 117.00010125124277 73.34086780462621 C117.92056651437457 73.34086780462621 118.66675104270229 74.09079084865971 118.66675104270229 75.0158678046264 C118.66675104270229 75.94094476059308 117.92056651437457 76.69086780462658 117.00010125124277 76.69086780462658 Z" style="stroke-width: 0; stroke-linecap: butt; stroke-linejoin: miter; fill: rgb(237, 57, 108);"></path></g><g><defs><path id="path-162822933041493309" d="M69.99929124129996 37.68749999999898 C69.99929124129996 37.68749999999898 43.33289457794759 37.68749999999898 43.33289457794759 37.68749999999898 C42.412429314815824 37.68749999999898 41.66624478648807 36.937576955965575 41.66624478648807 36.01249999999902 C41.66624478648807 35.08742304403247 42.412429314815824 34.33749999999907 43.33289457794759 34.33749999999907 C43.33289457794759 34.33749999999907 69.99929124129996 34.33749999999907 69.99929124129996 34.33749999999907 C70.91975650443173 34.33749999999907 71.66594103275948 35.08742304403247 71.66594103275948 36.01249999999902 C71.66594103275948 36.937576955965575 70.91975650443173 37.68749999999898 69.99929124129996 37.68749999999898 Z"></path></defs> <path d="M117.00010125124277 86.74086780462721 C117.00010125124277 86.74086780462721 90.3337045878904 86.74086780462721 90.3337045878904 86.74086780462721 C89.41323932475865 86.74086780462721 88.66705479643088 85.99094476059372 88.66705479643088 85.06586780462703 C88.66705479643088 84.1407908486608 89.41323932475865 83.3908678046273 90.3337045878904 83.3908678046273 C90.3337045878904 83.3908678046273 117.00010125124277 83.3908678046273 117.00010125124277 83.3908678046273 C117.92056651437457 83.3908678046273 118.66675104270229 84.1407908486608 118.66675104270229 85.06586780462703 C118.66675104270229 85.99094476059372 117.92056651437457 86.74086780462721 117.00010125124277 86.74086780462721 Z" style="stroke-width: 0; stroke-linecap: butt; stroke-linejoin: miter; fill: rgb(96, 96, 96);"></path></g><g><defs><path id="path-162822933041393307" d="M38.61627566811726 52.47775000000088 C37.94069260628596 52.478292255054974 37.33161385145704 52.068902411750926 37.074110114129006 51.44118960532174 C36.81660637680097 50.81347679889254 36.96162322280925 50.09163023310478 37.441287565138296 49.61350000000083 C37.441287565138296 49.61350000000083 46.86619213584192 40.14137500000067 46.86619213584192 40.14137500000067 C47.51742130950765 39.48688305365431 48.573272417091424 39.48688305365431 49.22450159075715 40.14137500000067 C49.875730764422876 40.79586694634704 49.875730764422876 41.85700805365435 49.22450159075715 42.511500000000716 C49.22450159075715 42.511500000000716 39.79959702005352 51.98362500000088 39.79959702005352 51.98362500000088 C39.4864365385303 52.30023299566159 39.06047499104075 52.47810373999395 38.61627566811726 52.47775000000088 Z"></path></defs> <path d="M85.61708567805994 101.53111780462723 C84.9415026162286 101.53166005968114 84.33242386139972 101.12227021637727 84.07492012407164 100.4945574099479 C83.81741638674362 99.86684460351898 83.96243323275189 99.14499803773106 84.44209757508094 98.66686780462715 C84.44209757508094 98.66686780462715 93.86700214578457 89.19474280462691 93.86700214578457 89.19474280462691 C94.51823131945031 88.54025085828061 95.57408242703406 88.54025085828061 96.2253116006998 89.19474280462691 C96.87654077436554 89.84923475097321 96.87654077436554 90.91037585828053 96.2253116006998 91.56486780462683 C96.2253116006998 91.56486780462683 86.80040702999617 101.03699280462706 86.80040702999617 101.03699280462706 C86.48724654847297 101.35360080028795 86.06128500098339 101.53147154462022 85.61708567805994 101.53111780462723 Z" style="stroke-width: 0; stroke-linecap: butt; stroke-linejoin: miter; fill: rgb(96, 96, 96);"></path></g></svg>