<svg height="56" overflow="visible" viewBox="0 0 51.80950651954572  56" width="51.80950651954572" xmlns="http://www.w3.org/2000/svg"><g><defs><path id="path-162823468102414696" d="M40.21052627287823 34.28702808912979 C40.21052627287823 25.701789534681687 44.7368428048349 19.805904984996452 44.7368428048349 15.668440531678762 C44.7368428048349 11.530976078361125 42.315788542332015 2.8423037053680282 22.94736707388556 2.8423037053680282 C3.5789456054394746 2.8423037053680282 0.7368428048350417 14.53063886206963 0.7368428048350417 19.081848022984232 C0.7368420469403203 40.38978375137448 40.21052627287823 49.49220691403637 40.21052627287823 34.28702808912979 Z"></path></defs> <path d="M8.6543944075446 40.49019909837784 C16.709964077658583 43.459057183016284 20.67685644895556 49.74497484754443 24.559058783805312 51.17574985912199 C28.441261118655007 52.6065248706995 37.43110708187896 53.33946477594617 44.128893555557056 35.16598391694748 C50.826680029235035 16.99250305794908 40.842286728819204 10.2838059052076 36.57186579100926 8.709953993397733 C16.578529851923122 1.341464118799479 -5.6126963196098245 35.232101982449876 8.6543944075446 40.49019909837784 Z" style="stroke-width: 0; stroke-linecap: butt; stroke-linejoin: miter; fill: rgb(242, 242, 242);"></path></g><g><defs><path id="path-162823468097014564" d="M40.95862,15.94843c-1.78204,-1.80405 -3.83624,-3.31753 -6.08766,-4.48524l-0.09025,-0.0574c-3.68044,4.26771 -9.63154,5.79188 -14.91207,3.81922c-5.28052,-1.97266 -8.77223,-7.02441 -8.7494,-12.6585c0.00092,-0.86174 0.0861,-1.72133 0.25434,-2.56651c-0.17179,0.88351 -0.2597,1.78127 -0.26254,2.6813c-0.0465,3.03204 0.9693,5.98488 2.87154,8.3473c-2.60013,1.20596 -4.9601,2.87283 -6.96553,4.91983c-4.56792,4.45385 -7.10419,10.58783 -7.01476,16.9652c-0.00221,0.23119 0.0887,0.45355 0.25228,0.61704c0.16358,0.16348 0.38607,0.25435 0.61739,0.25213h7.03116v6.10878c0.0207,0.44401 0.37618,0.79929 0.82044,0.81997c5.21526,0.18463 10.31029,1.61582 14.85816,4.17365c0.12424,0.0737 0.26575,0.1133 0.41022,0.1148v0c0.13189,-0.002 0.26134,-0.03575 0.3774,-0.0984c5.62821,-2.7797 10.54264,-4.19005 14.60382,-4.19005h0.34458c0.23341,0.01048 0.46022,-0.079 0.62353,-0.24599c0.16305,-0.16316 0.25454,-0.38438 0.25434,-0.61498v-6.09238h6.98194c0.46287,-0.02203 0.82538,-0.40606 0.82044,-0.86917c0.08398,-6.37401 -2.4621,-12.50128 -7.03937,-16.9406zM23.16329,42.72868c-4.2066,-2.1586 -8.81688,-3.41802 -13.53725,-3.69807v-16.8668c4.75794,-0.53183 9.55119,0.62951 13.53725,3.27988zM38.43166,39.01421c-3.89709,0.1148 -8.44232,1.38575 -13.53725,3.76367v-17.35058c4.8488,-2.9191 9.39403,-4.03426 13.53725,-3.27988zM40.13818,32.02806v0v-10.65962c-0.01213,-0.39422 -0.28833,-0.73086 -0.67276,-0.81997c-4.75855,-1.06596 -9.95193,0.0656 -15.44067,3.36188c-4.54374,-2.98545 -10.03175,-4.18581 -15.40785,-3.37008c-0.4208,0.04226 -0.74051,0.39729 -0.7384,0.81997v10.65962h-6.15329c0.13492,-5.61763 2.46426,-10.9594 6.48967,-14.88247c1.99112,-2.03567 4.36347,-3.65998 6.98194,-4.78043c2.49646,2.47559 5.88583,3.84121 9.40223,3.78827c3.33465,0.06172 6.56555,-1.15945 9.02483,-3.41108c2.27541,1.10997 4.34513,2.59899 6.12048,4.40324c4.05332,3.91048 6.40996,9.25407 6.56351,14.88247z"></path></defs><path d="M40.95862,15.94843c-1.78204,-1.80405 -3.83624,-3.31753 -6.08766,-4.48524l-0.09025,-0.0574c-3.68044,4.26771 -9.63154,5.79188 -14.91207,3.81922c-5.28052,-1.97266 -8.77223,-7.02441 -8.7494,-12.6585c0.00092,-0.86174 0.0861,-1.72133 0.25434,-2.56651c-0.17179,0.88351 -0.2597,1.78127 -0.26254,2.6813c-0.0465,3.03204 0.9693,5.98488 2.87154,8.3473c-2.60013,1.20596 -4.9601,2.87283 -6.96553,4.91983c-4.56792,4.45385 -7.10419,10.58783 -7.01476,16.9652c-0.00221,0.23119 0.0887,0.45355 0.25228,0.61704c0.16358,0.16348 0.38607,0.25435 0.61739,0.25213h7.03116v6.10878c0.0207,0.44401 0.37618,0.79929 0.82044,0.81997c5.21526,0.18463 10.31029,1.61582 14.85816,4.17365c0.12424,0.0737 0.26575,0.1133 0.41022,0.1148v0c0.13189,-0.002 0.26134,-0.03575 0.3774,-0.0984c5.62821,-2.7797 10.54264,-4.19005 14.60382,-4.19005h0.34458c0.23341,0.01048 0.46022,-0.079 0.62353,-0.24599c0.16305,-0.16316 0.25454,-0.38438 0.25434,-0.61498v-6.09238h6.98194c0.46287,-0.02203 0.82538,-0.40606 0.82044,-0.86917c0.08398,-6.37401 -2.4621,-12.50128 -7.03937,-16.9406zM23.16329,42.72868c-4.2066,-2.1586 -8.81688,-3.41802 -13.53725,-3.69807v-16.8668c4.75794,-0.53183 9.55119,0.62951 13.53725,3.27988zM38.43166,39.01421c-3.89709,0.1148 -8.44232,1.38575 -13.53725,3.76367v-17.35058c4.8488,-2.9191 9.39403,-4.03426 13.53725,-3.27988zM40.13818,32.02806v0v-10.65962c-0.01213,-0.39422 -0.28833,-0.73086 -0.67276,-0.81997c-4.75855,-1.06596 -9.95193,0.0656 -15.44067,3.36188c-4.54374,-2.98545 -10.03175,-4.18581 -15.40785,-3.37008c-0.4208,0.04226 -0.74051,0.39729 -0.7384,0.81997v10.65962h-6.15329c0.13492,-5.61763 2.46426,-10.9594 6.48967,-14.88247c1.99112,-2.03567 4.36347,-3.65998 6.98194,-4.78043c2.49646,2.47559 5.88583,3.84121 9.40223,3.78827c3.33465,0.06172 6.56555,-1.15945 9.02483,-3.41108c2.27541,1.10997 4.34513,2.59899 6.12048,4.40324c4.05332,3.91048 6.40996,9.25407 6.56351,14.88247z" style="stroke-width: 0; stroke-linecap: butt; stroke-linejoin: miter; fill: rgb(237, 57, 108);" transform="translate(2.080149913506773, 11) rotate(0)"></path></g><g><defs><path id="path-162823468096914562" d="M38.618077554952954 16.174117647058743 C43.18237448959178 16.158094358880913 47.323030760227816 18.85628070668942 49.166207984093404 23.047622632402156 C51.009385207958985 27.238964558114883 50.20529628984458 32.12805438294643 47.11782863779368 35.5023529411763 C47.11782863779368 35.5023529411763 48.75870722521467 36.589411764705716 48.75870722521467 36.589411764705716 C52.219581477171296 32.59728473877376 53.04240085919245 26.945583510909064 50.8643610381407 22.126302970719642 C48.68632121708898 17.307022430530232 43.9077425470617 14.205938895646234 38.63563549184396 14.19040778872829 C33.363528436626225 14.174876681810346 28.566898127705795 17.24775259631483 26.360714506918175 22.05411764705872 C26.360714506918175 22.05411764705872 28.001593094339164 23.132941176470474 28.001593094339164 23.132941176470474 C29.828801516654956 18.885233897775965 34.008767756140074 16.14537707159323 38.618077554952954 16.174117647058743 Z"></path></defs> <path d="M26.68741081160863 1.9837684574842456 C31.25170774624746 1.967745169306454 35.392364016883505 4.665931517114927 37.23554124074906 8.857273442827704 C39.07871846461467 13.048615368540425 38.27462954650025 17.937705193371926 35.18716189444933 21.31200375160182 C35.18716189444933 21.31200375160182 36.828040481870346 22.39906257513121 36.828040481870346 22.39906257513121 C40.28891473382697 18.40693554919926 41.11173411584815 12.75523432133457 38.933694294796396 7.935953781145145 C36.75565447374464 3.1166732409557767 31.977075803717412 0.015589706071750697 26.704968748499653 0.000058599153817340266 C21.432861693281893 -0.015472507764116017 16.63623138436145 3.0574034067403772 14.430047763573839 7.863768457484241 C14.430047763573839 7.863768457484241 16.070926350994853 8.94259198689599 16.070926350994853 8.94259198689599 C17.89813477331063 4.694884708201471 22.07810101279574 1.955027882018726 26.68741081160863 1.9837684574842456 Z" style="stroke-width: 0; stroke-linecap: butt; stroke-linejoin: miter; fill: rgb(237, 57, 108);"></path></g><g><defs><path id="path-162823468099314640" d="M25.384391747403974 25.158823529411453 C25.384391747403974 25.158823529411453 25.384391747403974 25.002352941176163 25.384391747403974 25.002352941176163"></path></defs> <path d="M13.453725004058356 10.968474339837144 C13.453725004058356 10.968474339837144 13.453725004058356 10.812003751601878 13.453725004058356 10.812003751601878" style="stroke-width: 0; stroke-linecap: butt; stroke-linejoin: miter; fill: rgb(237, 57, 108);"></path></g><g><defs><path id="path-162823468099314638" d="M25.671545500200875 23.98941176470559 C25.671545500200875 23.874117647058526 25.72897625076061 23.758823529411465 25.761793822509027 23.65176470588205 C25.72897625076061 23.75882352941147 25.70436307194929 23.88235294117618 25.671545500200875 23.98941176470559 Z"></path></defs> <path d="M13.740878756857 9.799062575131359 C13.740878756857 9.683768457484291 13.798309507416775 9.568474339837223 13.831127079165185 9.461415516307795 C13.798309507416775 9.568474339837223 13.77369632860541 9.69200375160193 13.740878756857 9.799062575131359 Z" style="stroke-width: 0; stroke-linecap: butt; stroke-linejoin: miter; fill: rgb(237, 57, 108);"></path></g><g><defs><path id="path-162823468099214636" d="M26.048947575307693 22.877647058823246 C26.13099150467875 22.663529411764433 26.213035434049793 22.449411764705605 26.303283756357942 22.235294117646788 C26.254057398735313 22.449411764705605 26.13099150467875 22.663529411764433 26.048947575307693 22.877647058823246 Z"></path></defs> <path d="M14.11828083196383 8.687297869248937 C14.200324761334912 8.473180222190138 14.282368690705937 8.259062575131281 14.372617013014064 8.044944928072482 C14.32339065539145 8.259062575131281 14.200324761334912 8.473180222190138 14.11828083196383 8.687297869248937 Z" style="stroke-width: 0; stroke-linecap: butt; stroke-linejoin: miter; fill: rgb(237, 57, 108);"></path></g><g><defs><path id="path-162823468099114634" d="M38.63448634082764 39.644705882352305 C41.68654081711483 39.70824664661168 44.63216573466118 38.51841993639858 46.78965292031003 36.350588235293536 C46.83406001919439 36.288964805061774 46.88345372683452 36.23112176918918 46.93733199317794 36.17764705882294 C46.93733199317794 36.17764705882294 46.03484877009638 36.548235294117056 46.03484877009638 36.548235294117056 C44.218305802010754 38.08694447084356 41.97093125514864 39.022081853194244 39.60260470740603 39.2247058823523 C39.60260470740603 39.2247058823523 38.63448634082764 39.644705882352305 38.63448634082764 39.644705882352305 Z"></path></defs> <path d="M26.703819597482777 25.454356692778276 C29.755874073769974 25.517897457037634 32.70149899131627 24.32807074682455 34.85898617696512 22.160239045719493 C34.90339327584951 22.098615615487745 34.95278698348966 22.04077257961518 35.00666524983308 21.98729786924889 C35.00666524983308 21.98729786924889 34.104182026751516 22.357886104543013 34.104182026751516 22.357886104543013 C32.28763905866589 23.896595281269526 30.04026451180374 24.831732663620244 27.671937964061158 25.03435669277826 C27.671937964061158 25.03435669277826 26.703819597482777 25.454356692778276 26.703819597482777 25.454356692778276 Z" style="stroke-width: 0; stroke-linecap: butt; stroke-linejoin: miter; fill: rgb(237, 57, 108);"></path></g><g><defs><path id="path-162823468099114632" d="M38.61807755495308 41.275294117646965 C42.52722841275139 41.27490050909219 46.24197470278235 39.56389108701252 48.79152479696324 36.589411764705794 C48.79152479696324 36.589411764705794 47.15064620954225 35.50235294117639 47.15064620954225 35.50235294117639 C46.81653453001629 35.88306787992174 46.454532235049214 36.238175314733446 46.067666341844394 36.56470588235284 C46.067666341844394 36.56470588235284 46.97014956492593 36.194117647058725 46.97014956492593 36.194117647058725 C46.91627129858253 36.24759235742497 46.866877590942394 36.305435393297564 46.82247049205804 36.367058823529305 C44.6649833064092 38.53489052463439 41.71935838886289 39.72471723484752 38.66730391257571 39.661176470588146 C38.66730391257571 39.661176470588146 39.635422279154106 39.25764705882344 39.635422279154106 39.25764705882344 C39.308423591162295 39.29349832959168 38.97982877647356 39.31273855528203 38.6508951267015 39.31529411764696 C32.318472888731634 39.28822658414193 27.1917109831269 34.14215514564966 27.164745014754548 27.785882352941105 C27.164296636776438 26.201270939975913 27.49114612452853 24.63377502742109 28.124658988395833 23.182352941176408 C28.124658988395833 23.182352941176408 26.483780400974833 22.103529411764647 26.483780400974833 22.103529411764647 C26.458656089253566 22.166284529991625 26.428473206083783 22.22687765909386 26.393532078666684 22.28470588235288 C26.30328375635853 22.498823529411705 26.221239826987475 22.71294117647053 26.139195897616432 22.927058823529354 C26.057151968245382 23.141176470588174 25.934086074188805 23.437647058823472 25.852042144817744 23.701176470588177 C25.852042144817744 23.808235294117583 25.79461139425802 23.92352941176464 25.7617938225096 24.038823529411705 C25.66334110726434 24.36823529411758 25.573092784956184 24.705882352941106 25.49925324852224 25.05176470588229 C25.49925324852224 25.05176470588229 25.49925324852224 25.20823529411759 25.49925324852224 25.20823529411759 C25.331019443424942 26.057082508124772 25.245835835046705 26.9204015871855 25.244917067471995 27.78588235294111 C25.28485295729961 35.19357889389699 31.23846078412279 41.198940718184815 38.61807755495308 41.275294117646965 Z"></path></defs> <path d="M26.687410811608572 27.084944928072446 C30.596561669406924 27.084551319517686 34.31130795943784 25.373541897437974 36.860858053618756 22.399062575131268 C36.860858053618756 22.399062575131268 35.21997946619774 21.31200375160188 35.21997946619774 21.31200375160188 C34.88586778667178 21.692718690347192 34.523865491704726 22.047826125158906 34.136999598499926 22.374356692778292 C34.136999598499926 22.374356692778292 35.03948282158143 22.00376845748417 35.03948282158143 22.00376845748417 C34.98560455523807 22.05724316785046 34.93621084759792 22.115086203723024 34.89180374871353 22.176709633954772 C32.73431656306468 24.34454133505983 29.788691645518384 25.53436804527297 26.736637169231244 25.470827281013612 C26.736637169231244 25.470827281013612 27.704755535809625 25.067297869248932 27.704755535809625 25.067297869248932 C27.377756847817807 25.103149140017138 27.04916203312905 25.122389365707477 26.72022838335704 25.12494492807241 C20.387806145387117 25.097877394567377 15.261044239782393 19.951805956075134 15.234078271410056 13.595533163366554 C15.233629893431953 12.010921750401394 15.560479381184052 10.443425837846576 16.193992245051334 8.992003751601885 C16.193992245051334 8.992003751601885 14.55311365763032 7.913180222190135 14.55311365763032 7.913180222190135 C14.527989345909077 7.975935340417095 14.497806462739277 8.03652846951934 14.462865335322192 8.09435669277832 C14.372617013014064 8.308474339837176 14.290573083642983 8.522591986895975 14.208529154271957 8.736709633954831 C14.126485224900875 8.95082728101363 14.003419330844338 9.24729786924894 13.921375401473256 9.510827281013633 C13.921375401473256 9.61788610454306 13.863944650913538 9.733180222190128 13.831127079165128 9.848474339837196 C13.732674363919841 10.177886104543063 13.642426041611714 10.51553316336657 13.568586505177734 10.861415516307773 C13.568586505177734 10.861415516307773 13.568586505177734 11.017886104543038 13.568586505177734 11.017886104543038 C13.400352700080475 11.866733318550246 13.315169091702217 12.730052397610962 13.3142503241275 13.595533163366554 C13.354186213955131 21.00322970432245 19.307794040778276 27.008591528610282 26.687410811608572 27.084944928072446 Z" style="stroke-width: 0; stroke-linecap: butt; stroke-linejoin: miter; fill: rgb(237, 57, 108);"></path></g></svg>