<svg width="55" height="55" viewBox="0 0 55 55" fill="none" xmlns="http://www.w3.org/2000/svg">
<path d="M50.0452 34.298C39.5727 59.8134 26.0428 61.292 9.45555 38.7338C-7.13172 16.1756 -1.89549 3.4179 25.1642 0.460706C52.224 -2.49649 60.5176 8.78261 50.0452 34.298Z" fill="#FFEBF1"/>
<path d="M32.1328 13.2334C33.9386 13.2334 34.8414 13.2334 35.4899 13.6946C35.7707 13.8943 36.0118 14.1509 36.1994 14.4497C36.6328 15.14 36.6328 16.101 36.6328 18.0229V31.0229C36.6328 33.6032 36.6328 34.8933 35.8796 35.6949C35.1265 36.4966 33.9143 36.4966 31.49 36.4966H23.7757C21.3513 36.4966 20.1391 36.4966 19.386 35.6949C18.6328 34.8933 18.6328 33.6032 18.6328 31.0229V18.0229C18.6328 16.101 18.6328 15.14 19.0662 14.4497C19.2538 14.1509 19.4949 13.8943 19.7756 13.6946C20.4242 13.2334 21.3271 13.2334 23.1328 13.2334" stroke="#ED396C" stroke-width="2"/>
<path d="M23.7754 13.2339C23.7754 11.7224 24.9267 10.4971 26.3468 10.4971H28.9182C30.3384 10.4971 31.4897 11.7224 31.4897 13.2339C31.4897 14.7454 30.3384 15.9708 28.9182 15.9708H26.3468C24.9267 15.9708 23.7754 14.7454 23.7754 13.2339Z" stroke="#ED396C" stroke-width="2"/>
<path d="M23.7754 22.8125H31.4897" stroke="#ED396C" stroke-width="2"/>
<path d="M23.7754 28.2861H28.9182" stroke="#ED396C" stroke-width="2"/>
</svg>
