<svg width="53" height="56" viewBox="0 0 53 56" fill="none" xmlns="http://www.w3.org/2000/svg">
<g clip-path="url(#clip0_1033_1598)">
<path d="M35.1838 48.8463C11.5294 63.03 -0.197658 56.1221 0.00251972 28.1227C0.202698 0.123198 12.0299 -6.96866 35.4841 6.84708C58.9383 20.6628 58.8382 34.6626 35.1838 48.8463Z" fill="#FFEBF1"/>
<path d="M19.0977 21.3667C19.0977 18.4027 21.5161 16 24.4993 16C27.4826 16 29.901 18.4027 29.901 21.3667C29.901 24.3306 27.4826 26.7333 24.4993 26.7333C21.5161 26.7333 19.0977 24.3306 19.0977 21.3667Z" stroke="#ED396C" stroke-width="2"/>
<path d="M13.4638 35.0866C14.451 31.4917 18.195 29.7998 21.9458 29.7998H27.0542C30.805 29.7998 34.549 31.4917 35.5363 35.0866C35.7386 35.8238 35.9003 36.6215 35.992 37.4688C36.0831 38.3109 35.3841 38.9998 34.5317 38.9998H14.4683C13.6159 38.9998 12.9169 38.3109 13.008 37.4688C13.0996 36.6215 13.2613 35.8238 13.4638 35.0866Z" stroke="#ED396C" stroke-width="2"/>
</g>
<defs>
<clipPath id="clip0_1033_1598">
<rect width="53" height="56" fill="white"/>
</clipPath>
</defs>
</svg>
