<svg width="20" height="20" viewBox="0 0 20 20" fill="none" xmlns="http://www.w3.org/2000/svg">
<g clip-path="url(#clip0_1212_1617)">
<path d="M17.2999 3.58207L16.3999 2.68656V0L13.6 2.88559L13.4 5.17414L10.5 8.05973C10.3 8.05973 10.2 8.05973 9.99998 8.05973C8.89998 8.05973 8 8.95523 8 10.0498C8 11.1443 8.89998 12.0398 9.99998 12.0398C11.1 12.0398 12 11.1443 12 10.0498C12 9.85078 12 9.75125 11.9 9.55227L14.8 6.66668L17.1 6.46766L20 3.58207H17.2999Z" fill="#ED396C"/>
<path d="M15.4 7.56266H15.3L13.9 9.0552C14 9.35371 14 9.75172 14 10.0502C14 12.2393 12.2 14.0304 9.99995 14.0304C7.79995 14.0304 5.99995 12.2393 5.99995 10.0502C5.99995 7.86117 7.79999 6.07012 9.99999 6.07012C10.4 6.07012 10.7 6.16961 11 6.16961L12.5 4.67707V4.57758C11.7 4.27906 10.9 4.08008 9.99999 4.08008C6.69999 4.08008 4 6.76664 4 10.0502C4 13.3338 6.69999 16.0204 9.99999 16.0204C13.3 16.0204 16 13.3338 16 10.0502C16 9.15469 15.8 8.35867 15.4 7.56266Z" fill="#ED396C"/>
<path d="M19.0999 5.97027L17.5999 7.36332C17.8 8.15934 17.9999 9.05488 17.9999 10.0499C17.9999 14.428 14.4 18.0101 9.99996 18.0101C5.59996 18.0101 1.99998 14.428 1.99998 10.0499C1.99998 5.6718 5.59996 2.08969 9.99996 2.08969C10.8999 2.08969 11.8 2.28871 12.6999 2.58719V2.4877L14.1999 0.995156C12.9 0.398125 11.5 0.0996094 9.99996 0.0996094C4.49996 0.0996094 0 4.57723 0 10.0499C0 15.5225 4.49996 20.0001 9.99996 20.0001C15.5 20.0001 19.9999 15.5225 19.9999 10.0499C19.9999 8.55734 19.7 7.1643 19.0999 5.97027Z" fill="#ED396C"/>
</g>
<defs>
<clipPath id="clip0_1212_1617">
<rect width="20" height="20" fill="white"/>
</clipPath>
</defs>
</svg>
