<svg height="52" overflow="visible" viewBox="0 0 66  52" width="66" xmlns="http://www.w3.org/2000/svg"><g><defs><path id="path-16280442136315085" d="M15.24183,0c4.45752,0 8.19608,1.76771 11.07189,5.15581c2.87582,3.3881 4.31373,7.66006 4.31373,12.81586c0,7.95467 -2.44444,14.87819 -7.18954,20.77054c-4.7451,5.89235 -11.50327,10.16431 -19.84314,12.66855l-1.5817,0.44193l-2.01307,-9.28045l1.15033,-0.44193c4.16993,-1.76771 7.62091,-3.97734 10.20915,-6.62889c2.30065,-2.35694 3.59477,-4.41926 3.73856,-5.89235c-0.14379,-0.14731 -1.00654,-0.88385 -3.88235,-1.91501c-1.00654,-0.29462 -1.72549,-0.58924 -2.30065,-0.88385c-2.30065,-0.88385 -4.16993,-2.35694 -5.46405,-4.41926c-1.29412,-2.06232 -1.86928,-4.56657 -1.86928,-7.36544c0,-4.41926 1.29412,-8.10198 3.73856,-10.90085c2.58824,-2.65156 5.89542,-4.12465 9.92157,-4.12465zM50.61438,0c4.45752,0 8.05229,1.76771 11.07189,5.15581c2.87582,3.3881 4.31373,7.66006 4.31373,12.81586c0,7.95467 -2.44444,14.87819 -7.18954,20.77054c-4.7451,5.89235 -11.35948,10.16431 -19.84314,12.66855l-1.5817,0.58924l-2.01307,-9.42776l1.15033,-0.44193c4.16993,-1.76771 7.62091,-3.97734 10.20915,-6.62889c2.30065,-2.35694 3.59477,-4.41926 3.73856,-6.03966c-0.14379,-0.14731 -1.00654,-0.88385 -3.73856,-1.76771c-1.00654,-0.29462 -1.86928,-0.58924 -2.44444,-0.88385c-2.30065,-0.88385 -4.02614,-2.35694 -5.32026,-4.41926c-1.29412,-2.06232 -1.86928,-4.56657 -1.86928,-7.36544c0,-4.41926 1.29412,-8.10198 3.73856,-10.90085c2.44444,-2.65156 5.75163,-4.12465 9.77778,-4.12465z"></path></defs><path d="M15.24183,0c4.45752,0 8.19608,1.76771 11.07189,5.15581c2.87582,3.3881 4.31373,7.66006 4.31373,12.81586c0,7.95467 -2.44444,14.87819 -7.18954,20.77054c-4.7451,5.89235 -11.50327,10.16431 -19.84314,12.66855l-1.5817,0.44193l-2.01307,-9.28045l1.15033,-0.44193c4.16993,-1.76771 7.62091,-3.97734 10.20915,-6.62889c2.30065,-2.35694 3.59477,-4.41926 3.73856,-5.89235c-0.14379,-0.14731 -1.00654,-0.88385 -3.88235,-1.91501c-1.00654,-0.29462 -1.72549,-0.58924 -2.30065,-0.88385c-2.30065,-0.88385 -4.16993,-2.35694 -5.46405,-4.41926c-1.29412,-2.06232 -1.86928,-4.56657 -1.86928,-7.36544c0,-4.41926 1.29412,-8.10198 3.73856,-10.90085c2.58824,-2.65156 5.89542,-4.12465 9.92157,-4.12465zM50.61438,0c4.45752,0 8.05229,1.76771 11.07189,5.15581c2.87582,3.3881 4.31373,7.66006 4.31373,12.81586c0,7.95467 -2.44444,14.87819 -7.18954,20.77054c-4.7451,5.89235 -11.35948,10.16431 -19.84314,12.66855l-1.5817,0.58924l-2.01307,-9.42776l1.15033,-0.44193c4.16993,-1.76771 7.62091,-3.97734 10.20915,-6.62889c2.30065,-2.35694 3.59477,-4.41926 3.73856,-6.03966c-0.14379,-0.14731 -1.00654,-0.88385 -3.73856,-1.76771c-1.00654,-0.29462 -1.86928,-0.58924 -2.44444,-0.88385c-2.30065,-0.88385 -4.02614,-2.35694 -5.32026,-4.41926c-1.29412,-2.06232 -1.86928,-4.56657 -1.86928,-7.36544c0,-4.41926 1.29412,-8.10198 3.73856,-10.90085c2.44444,-2.65156 5.75163,-4.12465 9.77778,-4.12465z" style="stroke-width: 0; stroke-linecap: butt; stroke-linejoin: miter; fill: rgb(237, 57, 108);" transform="translate(66, 52) rotate(180)"></path></g></svg>