<svg width="9" height="13" viewBox="0 0 9 13" fill="none" xmlns="http://www.w3.org/2000/svg">
<g clip-path="url(#clip0_4056_4565)">
<path d="M3.85714 1.44448H0.642857C0.288 1.44448 0 1.12092 0 0.722242C0 0.323565 0.288 0 0.642857 0H8.35714C8.712 0 9 0.323565 9 0.722242C9 1.12092 8.712 1.44448 8.35714 1.44448H6.42857C6.7095 1.86411 6.91071 2.35523 7.00714 2.88897H8.35714C8.712 2.88897 9 3.21253 9 3.61121C9 4.00989 8.712 4.33345 8.35714 4.33345H7.00714C6.7095 5.98161 5.41221 7.22242 3.85714 7.22242H3.48043L7.52593 11.7675C7.77664 12.0492 7.77664 12.5071 7.52593 12.7887C7.27521 13.0704 6.86764 13.0704 6.61693 12.7887L1.47407 7.01081C1.29021 6.80424 1.23493 6.49368 1.33457 6.22356C1.43421 5.95417 1.66886 5.77794 1.92857 5.77794H3.85714C4.69671 5.77794 5.41157 5.17487 5.67579 4.33345H0.642857C0.288 4.33345 0 4.00989 0 3.61121C0 3.21253 0.288 2.88897 0.642857 2.88897H5.67579C5.41157 2.04756 4.69671 1.44448 3.85714 1.44448Z" fill="#606060"/>
</g>
<defs>
<clipPath id="clip0_4056_4565">
<rect width="9" height="13" fill="white"/>
</clipPath>
</defs>
</svg>
