<svg width="20" height="20" viewBox="0 0 20 20" fill="none" xmlns="http://www.w3.org/2000/svg">
<path d="M5.77344 5.2C5.77344 2.8804 7.66611 1 10.0008 1C12.3356 1 14.2283 2.8804 14.2283 5.2C14.2283 7.5196 12.3356 9.4 10.0008 9.4C7.66611 9.4 5.77344 7.5196 5.77344 5.2Z" stroke="#ED396C" stroke-width="2"/>
<path d="M1.36294 15.9373C2.13559 13.1239 5.06567 11.7998 8.00102 11.7998H11.9989C14.9343 11.7998 17.8644 13.1239 18.6371 15.9373C18.7954 16.5142 18.922 17.1385 18.9937 17.8016C19.065 18.4606 18.518 18.9998 17.8509 18.9998H2.14908C1.48201 18.9998 0.934994 18.4606 1.00626 17.8016C1.07798 17.1385 1.20451 16.5142 1.36294 15.9373Z" stroke="#ED396C" stroke-width="2"/>
</svg>
