<svg height="61.5460451326926" overflow="visible" viewBox="0 0 61.48611582930789  61.5460451326926" width="61.48611582930789" xmlns="http://www.w3.org/2000/svg"><g><defs><path id="path-16280840077241091624" d="M42.03827746709996 36.04533722190582 C42.03827746709996 27.019830023639756 46.770335659600114 20.821592420124496 46.770335659600114 16.47195030253413 C46.770335659600114 12.122308184943769 44.2392334760744 2.988062869745876 23.990429213607644 2.988062869745876 C3.7416249511412714 2.988062869745876 0.7703356596002713 15.275799829355266 0.7703356596002713 20.060404331855242 C0.7703348672557893 42.46105471298348 42.03827746709996 52.030268807063905 42.03827746709996 36.04533722190582 Z"></path></defs> <path d="M8.98134501676384 34.99566259213725 C15.41720238129767 41.3233414848537 16.519415050945327 49.04316346192718 19.62103312521367 52.09264733177952 C22.72265119948179 55.1421312016314 31.010573440311532 59.74118117653052 45.206776326169575 45.30227894390737 C59.40297921202716 30.863376711284673 52.72404621175224 20.12983612020207 49.31226763273662 16.775405144147953 C33.33893975818489 1.0705672236335886 -2.417099126482981 23.788811611801066 8.98134501676384 34.99566259213725 Z" style="stroke-width: 0; stroke-linecap: butt; stroke-linejoin: miter; fill: rgb(255, 255, 255);"></path></g><g><defs><path id="path-16280840076141091322" d="M12.68181818181825 16.909090909090086 C12.68181818181825 14.574432648441844 14.57443264844263 12.681818181817567 16.90909090909101 12.681818181817567 C19.24374916973937 12.681818181817567 21.13636363636375 14.574432648441844 21.13636363636375 16.909090909090086 C21.13636363636375 19.243749169738322 19.24374916973937 21.136363636362606 16.90909090909101 21.136363636362606 C14.57443264844263 21.136363636362606 12.68181818181825 19.243749169738322 12.68181818181825 16.909090909090086 Z"></path></defs> <path d="M26.758843102034916 32.24462663452459 C26.758843102034916 29.90996837387638 28.65145756865934 28.017353907252073 30.986115829307664 28.017353907252073 C33.32077408995599 28.017353907252073 35.21338855658041 29.90996837387638 35.21338855658041 32.24462663452459 C35.21338855658041 34.579284895172805 33.32077408995599 36.471899361797114 30.986115829307664 36.471899361797114 C28.65145756865934 36.471899361797114 26.758843102034916 34.579284895172805 26.758843102034916 32.24462663452459 Z" style="stroke: rgb(255, 191, 0); stroke-width: 3; stroke-linecap: butt; stroke-linejoin: miter; fill: none;"></path></g><g><defs><path id="path-16280840076141091320" d="M27.33636363636362 21.136363636363626 C26.952602720051516 22.005899643951988 27.136743536483163 23.02146414669629 27.80136363636362 23.700909090909075 C27.80136363636362 23.700909090909075 27.885909090909077 23.78545454545454 27.885909090909077 23.78545454545454 C28.41509893944843 24.314055997400935 28.71244421353533 25.03134666444807 28.71244421353533 25.77931818181817 C28.71244421353533 26.527289699188277 28.415098939448438 27.24458036623541 27.885909090909077 27.773181818181815 C27.357307638962673 28.302371666721168 26.64001697191554 28.599716940808083 25.892045454545432 28.599716940808083 C25.144073937175342 28.599716940808083 24.42678327012819 28.302371666721168 23.898181818181794 27.773181818181815 C23.898181818181794 27.773181818181815 23.81363636363635 27.68863636363635 23.81363636363635 27.68863636363635 C23.13419141942356 27.02401626375591 22.118626916679254 26.839875447324243 21.249090909090906 27.223636363636345 C20.397336870361645 27.58868712734433 19.843695912143144 28.424684974254273 19.83999999999998 29.351363636363637 C19.83999999999998 29.351363636363637 19.83999999999998 29.590909090909086 19.83999999999998 29.590909090909086 C19.83999999999998 31.147347931341297 18.5782570222504 32.409090909090885 17.02181818181817 32.409090909090885 C15.465379341385928 32.409090909090885 14.203636363636354 31.147347931341297 14.203636363636354 29.590909090909086 C14.203636363636354 29.590909090909086 14.203636363636354 29.464090909090903 14.203636363636354 29.464090909090903 C14.181311578447888 28.509672522407723 13.57781931245547 27.665900928288707 12.681818181818182 27.336363636363615 C11.812282174229813 26.95260272005151 10.796717671485512 27.13674353648316 10.11727272727272 27.80136363636362 C10.11727272727272 27.80136363636362 10.032727272727268 27.88590909090908 10.032727272727268 27.88590909090908 C9.504125820780875 28.415098939448434 8.786835153733733 28.712444213535317 8.038863636363633 28.712444213535317 C7.290892118993535 28.712444213535317 6.573601451946389 28.415098939448434 6.044999999999997 27.88590909090908 C5.5158101514606495 27.357307638962673 5.218464877373731 26.640016971915543 5.218464877373731 25.892045454545425 C5.21846487737373 25.144073937175342 5.515810151460649 24.426783270128183 6.044999999999997 23.898181818181794 C6.044999999999997 23.898181818181794 6.129545454545454 23.813636363636345 6.129545454545454 23.813636363636345 C6.794165554425909 23.13419141942355 6.978306370857565 22.118626916679258 6.59454545454545 21.2490909090909 C6.229494690837481 20.397336870361645 5.393496843927534 19.843695912143144 4.466818181818179 19.83999999999998 C4.466818181818179 19.83999999999998 4.227272727272727 19.83999999999998 4.227272727272727 19.83999999999998 C2.67083388684049 19.83999999999998 1.4090909090909085 18.5782570222504 1.4090909090909085 17.02181818181817 C1.4090909090909085 15.465379341385924 2.6708338868404895 14.203636363636353 4.227272727272727 14.203636363636353 C4.227272727272727 14.203636363636353 4.354090909090907 14.203636363636353 4.354090909090907 14.203636363636353 C5.308509295774083 14.18131157844789 6.152280889893109 13.577819312455471 6.481818181818181 12.68181818181818 C6.8655790981302935 11.812282174229809 6.681438281698631 10.796717671485512 6.016818181818178 10.11727272727272 C6.016818181818178 10.11727272727272 5.932272727272724 10.032727272727268 5.932272727272724 10.032727272727268 C5.403082878733381 9.504125820780875 5.1057376046464595 8.786835153733735 5.1057376046464595 8.038863636363631 C5.1057376046464595 7.290892118993535 5.403082878733381 6.573601451946388 5.932272727272724 6.044999999999996 C6.4608741792191156 5.515810151460655 7.178164846266262 5.218464877373735 7.926136363636357 5.218464877373735 C8.674107881006464 5.218464877373735 9.391398548053607 5.515810151460655 9.919999999999993 6.044999999999996 C9.919999999999993 6.044999999999996 10.004545454545452 6.129545454545454 10.004545454545452 6.129545454545454 C10.683990398758235 6.794165554425909 11.699554901502546 6.978306370857563 12.569090909090905 6.59454545454545 C12.569090909090905 6.59454545454545 12.681818181818182 6.59454545454545 12.681818181818182 6.59454545454545 C13.533572220547425 6.229494690837481 14.087213178765932 5.393496843927534 14.090909090909083 4.466818181818179 C14.090909090909083 4.466818181818179 14.090909090909083 4.227272727272726 14.090909090909083 4.227272727272726 C14.090909090909083 2.67083388684049 15.352652068658672 1.4090909090909085 16.909090909090907 1.4090909090909085 C18.465529749523146 1.4090909090909085 19.727272727272712 2.6708338868404895 19.727272727272712 4.227272727272726 C19.727272727272712 4.227272727272726 19.727272727272712 4.354090909090906 19.727272727272712 4.354090909090906 C19.730968639415877 5.280769571200259 20.284609597634386 6.116767418110208 21.136363636363633 6.481818181818181 C22.005899643951988 6.8655790981302935 23.021464146696292 6.6814382816986315 23.70090909090908 6.016818181818177 C23.70090909090908 6.016818181818177 23.785454545454545 5.932272727272726 23.785454545454545 5.932272727272726 C24.31405599740093 5.403082878733379 25.03134666444807 5.105737604646458 25.779318181818173 5.105737604646458 C26.527289699188273 5.105737604646458 27.24458036623541 5.403082878733378 27.77318181818182 5.932272727272726 C28.302371666721157 6.4608741792191156 28.599716940808072 7.17816484626626 28.599716940808072 7.926136363636357 C28.599716940808072 8.67410788100646 28.302371666721157 9.391398548053603 27.77318181818182 9.919999999999995 C27.77318181818182 9.919999999999995 27.68863636363635 10.004545454545454 27.68863636363635 10.004545454545454 C27.02401626375591 10.683990398758239 26.83987544732424 11.699554901502545 27.22363636363636 12.569090909090903 C27.22363636363636 12.569090909090903 27.22363636363636 12.68181818181818 27.22363636363636 12.68181818181818 C27.588687127344336 13.533572220547427 28.424684974254276 14.087213178765934 29.35136363636364 14.09090909090908 C29.35136363636364 14.09090909090908 29.59090909090909 14.09090909090908 29.59090909090909 14.09090909090908 C31.147347931341304 14.09090909090908 32.40909090909089 15.352652068658674 32.40909090909089 16.909090909090903 C32.40909090909089 18.465529749523146 31.147347931341304 19.727272727272716 29.59090909090909 19.727272727272716 C29.59090909090909 19.727272727272716 29.464090909090906 19.727272727272716 29.464090909090906 19.727272727272716 C28.53741224698153 19.73096863941588 27.701414400071613 20.284609597634393 27.33636363636362 21.136363636363626 Z"></path></defs> <path d="M41.413388556580685 36.471899361797114 C41.02962764026847 37.341435369385636 41.21376845670022 38.35699987213002 41.8783885565806 39.03644481634274 C41.8783885565806 39.03644481634274 41.962934011126094 39.12099027088834 41.962934011126094 39.12099027088834 C42.49212385966541 39.64959172283443 42.78946913375239 40.36688238988154 42.78946913375239 41.11485390725193 C42.78946913375239 41.86282542462186 42.49212385966541 42.58011609166897 41.962934011126094 43.10871754361551 C41.434332559179666 43.63790739215483 40.717041892132556 43.93525266624147 39.969070374762396 43.93525266624147 C39.22109885739235 43.93525266624147 38.50380819034524 43.63790739215483 37.97520673839881 43.10871754361551 C37.97520673839881 43.10871754361551 37.89066128385332 43.02417208906991 37.89066128385332 43.02417208906991 C37.2112163396406 42.35955198918964 36.19565183689622 42.17541117275778 35.32611582930792 42.55917208906976 C34.474361790578655 42.9242228527778 33.92072083236019 43.760220699688034 33.917024920217045 44.68689936179726 C33.917024920217045 44.68689936179726 33.917024920217045 44.92644481634261 33.917024920217045 44.92644481634261 C33.917024920217045 46.4828836567749 32.65528194246747 47.74462663452459 31.098843102035175 47.74462663452459 C29.542404261602996 47.74462663452459 28.28066128385342 46.4828836567749 28.28066128385342 44.92644481634261 C28.28066128385342 44.92644481634261 28.28066128385342 44.79962663452443 28.28066128385342 44.79962663452443 C28.258336498664903 43.84520824784113 27.65484423267253 43.00143665372252 26.758843102035144 42.67189936179739 C25.88930709444685 42.28813844548495 24.87374259170258 42.47227926191681 24.194297647489748 43.13689936179708 C24.194297647489748 43.13689936179708 24.109752192944256 43.22144481634268 24.109752192944256 43.22144481634268 C23.58115074099794 43.750634664882 22.86386007395072 44.04797993896909 22.11588855658067 44.04797993896909 C21.36791703921051 44.04797993896909 20.6506263721634 43.750634664882 20.122024920216973 43.22144481634268 C19.592835071677655 42.69284336439614 19.29548979759079 41.97555269734903 19.29548979759079 41.2275811799791 C19.29548979759079 40.479609662609164 19.592835071677655 39.7623189955616 20.122024920216973 39.23371754361551 C20.122024920216973 39.23371754361551 20.206570374762464 39.14917208906991 20.206570374762464 39.14917208906991 C20.871190474642958 38.46972714485719 21.055331291074594 37.454162642112806 20.671570374762496 36.584626634524284 C20.306519611054455 35.73287259579547 19.470521764144564 35.17923163757678 18.543843102035225 35.17553572543375 C18.543843102035225 35.17553572543375 18.30429764748976 35.17553572543375 18.30429764748976 35.17553572543375 C16.74785880705747 35.17553572543375 15.486115829307892 33.913792747684056 15.486115829307892 32.35735390725176 C15.486115829307892 30.80091506681947 16.74785880705747 29.53917208906978 18.30429764748976 29.53917208906978 C18.30429764748976 29.53917208906978 18.43111582930794 29.53917208906978 18.43111582930794 29.53917208906978 C19.38553421599113 29.516847303881605 20.229305810110077 28.913355037889232 20.558843102035212 28.017353907251618 C20.94260401834731 27.14781789966355 20.758463201915674 26.132253396919168 20.09384310203518 25.45280845270645 C20.09384310203518 25.45280845270645 20.00929764748969 25.368262998160844 20.00929764748969 25.368262998160844 C19.48010779895037 24.839661546214302 19.182762524863506 24.122370879167192 19.182762524863506 23.37439936179726 C19.182762524863506 22.626427844427326 19.48010779895037 21.909137177379762 20.00929764748969 21.380535725433674 C20.537899099436117 20.851345876894356 21.255189766483227 20.554000602807264 22.003161283853387 20.554000602807264 C22.751132801223434 20.554000602807264 23.468423468270657 20.851345876894356 23.997024920216973 21.380535725433674 C23.997024920216973 21.380535725433674 24.081570374762464 21.46508117997928 24.081570374762464 21.46508117997928 C24.761015318975296 22.129701279859546 25.776579821719565 22.313842096290955 26.646115829307973 21.93008117997897 C26.646115829307973 21.93008117997897 26.758843102035144 21.93008117997897 26.758843102035144 21.93008117997897 C27.610597140764412 21.56503041627093 28.16423809898299 20.729032569361152 28.167934011126135 19.802353907251927 C28.167934011126135 19.802353907251927 28.167934011126135 19.562808452706122 28.167934011126135 19.562808452706122 C28.167934011126135 18.006369612274284 29.429676988875713 16.744626634524593 30.98611582930789 16.744626634524593 C32.542554669740184 16.744626634524593 33.80429764748976 18.006369612274284 33.80429764748976 19.562808452706122 C33.80429764748976 19.562808452706122 33.80429764748976 19.689626634524302 33.80429764748976 19.689626634524302 C33.807993559632905 20.616305296633982 34.36163451785137 21.45230314354376 35.21338855658064 21.8173539072518 C36.08292456416905 22.201114823563785 37.09848906691332 22.016974007132376 37.777934011126035 21.352353907251654 C37.777934011126035 21.352353907251654 37.86247946567153 21.267808452706504 37.86247946567153 21.267808452706504 C38.391080917617955 20.738618604167186 39.108371584665065 20.441273330080094 39.856343102035225 20.441273330080094 C40.60431461940527 20.441273330080094 41.32160528645238 20.738618604167186 41.85020673839881 21.267808452706504 C42.37939658693813 21.79640990465259 42.67674186102511 22.5137005716997 42.67674186102511 23.26167208907009 C42.67674186102511 24.009643606440022 42.37939658693813 24.72693427348713 41.85020673839881 25.255535725433674 C41.85020673839881 25.255535725433674 41.76566128385332 25.34008117997928 41.76566128385332 25.34008117997928 C41.10104118397294 26.019526124191998 40.9169003675413 27.035090626935926 41.3006612838534 27.904626634524448 C41.3006612838534 27.904626634524448 41.3006612838534 28.017353907251618 41.3006612838534 28.017353907251618 C41.66571204756133 28.869107945980886 42.50170989447133 29.42274890419958 43.42838855658067 29.42644481634261 C43.42838855658067 29.42644481634261 43.667934011126135 29.42644481634261 43.667934011126135 29.42644481634261 C45.224372851558314 29.42644481634261 46.48611582930789 30.6881877940923 46.48611582930789 32.24462663452459 C46.48611582930789 33.801065474956886 45.224372851558314 35.06280845270612 43.667934011126135 35.06280845270612 C43.667934011126135 35.06280845270612 43.541115829307955 35.06280845270612 43.541115829307955 35.06280845270612 C42.6144371671985 35.06650436484961 41.77843932028861 35.620145323067845 41.413388556580685 36.471899361797114 Z" style="stroke: rgb(255, 191, 0); stroke-width: 3; stroke-linecap: butt; stroke-linejoin: miter; fill: none;"></path></g></svg>