<svg width="23" height="23" viewBox="0 0 23 23" fill="none" xmlns="http://www.w3.org/2000/svg">
<path d="M8.75137 17.0526H10.4014V13.1714L13.8664 15.1964L14.6914 13.762L11.2264 11.7089L14.6914 9.65574L13.8664 8.22136L10.4014 10.2464V6.36511H8.75137V10.2464L5.28637 8.22136L4.46137 9.65574L7.92637 11.7089L4.46137 13.762L5.28637 15.1964L8.75137 13.1714V17.0526ZM2.42637 20.7089C1.98637 20.7089 1.60137 20.5401 1.27137 20.2026C0.941367 19.8651 0.776367 19.4714 0.776367 19.0214V4.39636C0.776367 3.94636 0.941367 3.55261 1.27137 3.21511C1.60137 2.87761 1.98637 2.70886 2.42637 2.70886H16.7264C17.1664 2.70886 17.5514 2.87761 17.8814 3.21511C18.2114 3.55261 18.3764 3.94636 18.3764 4.39636V10.4432L22.7764 5.94324V17.4745L18.3764 12.9745V19.0214C18.3764 19.4714 18.2114 19.8651 17.8814 20.2026C17.5514 20.5401 17.1664 20.7089 16.7264 20.7089H2.42637ZM2.42637 19.0214H16.7264V4.39636H2.42637V19.0214Z" fill="#ED396C"/>
<rect x="3.77637" y="5.09888" width="11" height="13" fill="white"/>
<circle cx="9.77637" cy="12.0989" r="4" fill="#ED396C"/>
</svg>
