<svg width="25" height="25" viewBox="0 0 25 25" fill="none" xmlns="http://www.w3.org/2000/svg">
<path d="M10.0781 16.901L16.875 12.5L10.0781 8.09896V16.901ZM4.6875 21.875C4.27083 21.875 3.90625 21.7188 3.59375 21.4062C3.28125 21.0938 3.125 20.7292 3.125 20.3125V4.6875C3.125 4.27083 3.28125 3.90625 3.59375 3.59375C3.90625 3.28125 4.27083 3.125 4.6875 3.125H20.3125C20.7292 3.125 21.0938 3.28125 21.4062 3.59375C21.7188 3.90625 21.875 4.27083 21.875 4.6875V20.3125C21.875 20.7292 21.7188 21.0938 21.4062 21.4062C21.0938 21.7188 20.7292 21.875 20.3125 21.875H4.6875ZM4.6875 20.3125H20.3125V4.6875H4.6875V20.3125Z" fill="#ED396C"/>
</svg>
