<svg width="18" height="18" viewBox="0 0 18 18" fill="none" xmlns="http://www.w3.org/2000/svg">
<path d="M17.0062 0H0.99375C0.44475 0 0 0.44475 0 0.99375V17.007C0 17.5553 0.44475 18 0.99375 18H9.615V11.0295H7.269V8.313H9.615V6.30975C9.615 3.98475 11.0348 2.71875 13.1093 2.71875C14.103 2.71875 14.9565 2.793 15.2055 2.826V5.256L13.767 5.25675C12.639 5.25675 12.4208 5.793 12.4208 6.579V8.31375H15.111L14.7607 11.0302H12.4208V18H17.0078C17.5553 18 18 17.5552 18 17.0062V0.99375C18 0.44475 17.5552 0 17.0062 0V0Z" fill="#3B5998"/>
</svg>
