<svg width="18" height="18" viewBox="0 0 18 18" fill="none" xmlns="http://www.w3.org/2000/svg">
<g clip-path="url(#clip0_1_2)">
<path d="M1 3.88406V14.1394C1 15.7127 2.28734 17 3.86125 17H14.1394C15.7127 17 17 15.7127 17 14.1395V3.86109C17 2.28734 15.7127 1 14.1394 1H3.86125C2.28734 1 1 2.28734 1 3.86109" fill="#EC1C24"/>
<path d="M12.9484 11.8498H5.12016V13.2919H12.9484V11.8498Z" fill="white"/>
<g opacity="0.7">
<mask id="mask0_1_2" style="mask-type:luminance" maskUnits="userSpaceOnUse" x="10" y="4" width="4" height="8">
<path d="M13.0172 4.43344H10.8884V11.1631H13.0172V4.43344Z" fill="white"/>
</mask>
<g mask="url(#mask0_1_2)">
<mask id="mask1_1_2" style="mask-type:luminance" maskUnits="userSpaceOnUse" x="10" y="4" width="3" height="8">
<path d="M12.8798 4.43344H10.957V11.0258H12.8798V4.43344Z" fill="white"/>
</mask>
<g mask="url(#mask1_1_2)">
<path d="M12.8798 4.47766L10.9388 7.75891L12.8798 11.0402V4.47766Z" fill="white"/>
</g>
</g>
</g>
<path d="M12.9048 4.50218H10.3263L9.01594 6.71671L7.70625 4.50218H5.10625L7.06828 7.75749L9.02313 11.063L10.957 7.79437V7.7939L12.8988 4.51265L12.9048 4.50218Z" fill="white"/>
<g opacity="0.7">
<mask id="mask2_1_2" style="mask-type:luminance" maskUnits="userSpaceOnUse" x="5" y="4" width="3" height="8">
<path d="M7.18031 4.43344H5.05156V11.1631H7.18031V4.43344Z" fill="white"/>
</mask>
<g mask="url(#mask2_1_2)">
<mask id="mask3_1_2" style="mask-type:luminance" maskUnits="userSpaceOnUse" x="5" y="4" width="3" height="8">
<path d="M7.11156 4.43344H5.12016V11.0258H7.11156V4.43344Z" fill="white"/>
</mask>
<g mask="url(#mask3_1_2)">
<path d="M5.12016 4.47766V11.0502L7.08219 7.73313L5.12016 4.47766Z" fill="white"/>
</g>
</g>
</g>
</g>
<defs>
<clipPath id="clip0_1_2">
<rect width="16" height="16" fill="white" transform="translate(1 1)"/>
</clipPath>
</defs>
</svg>
