<svg height="61.5460451326926" overflow="visible" viewBox="0 0 61.48611582930789  61.5460451326926" width="61.48611582930789" xmlns="http://www.w3.org/2000/svg"><g><defs><path id="path-16280840077251091626" d="M42.03827746709996 36.04533722190582 C42.03827746709996 27.019830023639756 46.770335659600114 20.821592420124496 46.770335659600114 16.47195030253413 C46.770335659600114 12.122308184943769 44.2392334760744 2.988062869745876 23.990429213607644 2.988062869745876 C3.7416249511412714 2.988062869745876 0.7703356596002713 15.275799829355266 0.7703356596002713 20.060404331855242 C0.7703348672557893 42.46105471298348 42.03827746709996 52.030268807063905 42.03827746709996 36.04533722190582 Z"></path></defs> <path d="M8.98134501676384 34.99566259213725 C15.41720238129767 41.3233414848537 16.519415050945327 49.04316346192718 19.62103312521367 52.09264733177952 C22.72265119948179 55.1421312016314 31.010573440311532 59.74118117653052 45.206776326169575 45.30227894390737 C59.40297921202716 30.863376711284673 52.72404621175224 20.12983612020207 49.31226763273662 16.775405144147953 C33.33893975818489 1.0705672236335886 -2.417099126482981 23.788811611801066 8.98134501676384 34.99566259213725 Z" style="stroke-width: 0; stroke-linecap: butt; stroke-linejoin: miter; fill: rgb(255, 255, 255);"></path></g><g><defs><path id="path-16280840076161091330" d="M28.000000000000128 17.400000000000002 C28.000000000000128 17.400000000000002 28.000000000000128 31.89999999999999 28.000000000000128 31.89999999999999 C28.000000000000128 31.89999999999999 5.600000000000026 31.89999999999999 5.600000000000026 31.89999999999999 C5.600000000000026 31.89999999999999 5.600000000000026 17.400000000000002 5.600000000000026 17.400000000000002"></path></defs> <path d="M42.64730347307568 31.688359105436575 C42.64730347307568 31.688359105436575 42.64730347307568 46.188359105436575 42.64730347307568 46.188359105436575 C42.64730347307568 46.188359105436575 20.24730347307559 46.188359105436575 20.24730347307559 46.188359105436575 C20.24730347307559 46.188359105436575 20.24730347307559 31.688359105436575 20.24730347307559 31.688359105436575" style="stroke: rgb(255, 191, 0); stroke-width: 3; stroke-linecap: butt; stroke-linejoin: miter; fill: none;"></path></g><g><defs><path id="path-16280840076161091328" d="M2.8 17.400000000000002 C2.8 17.400000000000002 2.8 10.15 2.8 10.15 C2.8 10.15 30.8 10.15 30.8 10.15 C30.8 10.15 30.8 17.400000000000002 30.8 17.400000000000002 C30.8 17.400000000000002 2.8 17.400000000000002 2.8 17.400000000000002 Z"></path></defs> <path d="M17.447303473075408 31.688359105436575 C17.447303473075408 31.688359105436575 17.447303473075408 24.438359105436575 17.447303473075408 24.438359105436575 C17.447303473075408 24.438359105436575 45.44730347307541 24.438359105436575 45.44730347307541 24.438359105436575 C45.44730347307541 24.438359105436575 45.44730347307541 31.688359105436575 45.44730347307541 31.688359105436575 C45.44730347307541 31.688359105436575 17.447303473075408 31.688359105436575 17.447303473075408 31.688359105436575 Z" style="stroke: rgb(255, 191, 0); stroke-width: 3; stroke-linecap: butt; stroke-linejoin: miter; fill: none;"></path></g><g><defs><path id="path-16280840076151091326" d="M16.799999999999933 10.15 C16.799999999999933 10.15 10.499999999999954 10.15 10.499999999999954 10.15 C8.567003375592186 10.15 6.99999999999997 8.527032218136629 6.99999999999997 6.525000000000002 C6.99999999999997 4.5229677818633744 8.567003375592186 2.9000000000000004 10.499999999999954 2.9000000000000004 C15.399999999999933 2.9000000000000004 16.799999999999933 10.15 16.799999999999933 10.15 Z"></path></defs> <path d="M31.44730347307518 24.438359105436575 C31.44730347307518 24.438359105436575 25.147303473075226 24.438359105436575 25.147303473075226 24.438359105436575 C23.214306848667434 24.438359105436575 21.647303473075226 22.815391323573294 21.647303473075226 20.813359105436575 C21.647303473075226 18.811326887299856 23.214306848667434 17.188359105436575 25.147303473075226 17.188359105436575 C30.047303473075203 17.188359105436575 31.44730347307518 24.438359105436575 31.44730347307518 24.438359105436575 Z" style="stroke: rgb(255, 191, 0); stroke-width: 3; stroke-linecap: butt; stroke-linejoin: miter; fill: none;"></path></g><g><defs><path id="path-16280840076151091324" d="M16.799999999999933 10.15 C16.799999999999933 10.15 23.0999999999999 10.15 23.0999999999999 10.15 C25.03299662440767 10.15 26.599999999999884 8.527032218136629 26.599999999999884 6.525000000000002 C26.599999999999884 4.5229677818633744 25.03299662440767 2.900000000000001 23.0999999999999 2.9000000000000004 C18.199999999999914 2.9000000000000004 16.799999999999933 10.15 16.799999999999933 10.15 Z"></path></defs> <path d="M31.447303473075408 24.438359105436575 C31.447303473075408 24.438359105436575 37.74730347307536 24.438359105436575 37.74730347307536 24.438359105436575 C39.680300097483155 24.438359105436575 41.24730347307536 22.815391323573294 41.24730347307536 20.813359105436575 C41.24730347307536 18.811326887299856 39.680300097483155 17.188359105436575 37.74730347307536 17.188359105436575 C32.847303473075385 17.188359105436575 31.447303473075408 24.438359105436575 31.447303473075408 24.438359105436575 Z" style="stroke: rgb(255, 191, 0); stroke-width: 3; stroke-linecap: butt; stroke-linejoin: miter; fill: none;"></path></g></svg>