<svg width="20" height="20" viewBox="0 0 20 20" fill="none" xmlns="http://www.w3.org/2000/svg">
<path d="M1 10C1 5.02944 5.02944 1 10 1C14.9706 1 19 5.02944 19 10C19 14.9706 14.9706 19 10 19C5.02944 19 1 14.9706 1 10Z" stroke="#ED396C" stroke-width="2"/>
<path d="M9.5 16C9.5 15.7239 9.72386 15.5 10 15.5C10.2761 15.5 10.5 15.7239 10.5 16C10.5 16.2761 10.2761 16.5 10 16.5C9.72386 16.5 9.5 16.2761 9.5 16Z" fill="#ED396C"/>
<path d="M10 14V13.1432C10 12.429 10.357 11.762 10.9512 11.3659L11.5497 10.9669C12.4558 10.3628 13 9.34591 13 8.25694V8C13 6.34315 11.6569 5 10 5C8.34315 5 7 6.34315 7 8" stroke="#ED396C" stroke-width="2"/>
</svg>
