<svg height="61.54604513269305" overflow="visible" viewBox="0 0 61.48611582930789  61.54604513269305" width="61.48611582930789" xmlns="http://www.w3.org/2000/svg"><g><defs><path id="path-1628229353260102975" d="M42.03827746709996 36.04533722190582 C42.03827746709996 27.019830023639756 46.770335659600114 20.821592420124496 46.770335659600114 16.47195030253413 C46.770335659600114 12.122308184943769 44.2392334760744 2.988062869745876 23.990429213607644 2.988062869745876 C3.7416249511412714 2.988062869745876 0.7703356596002713 15.275799829355266 0.7703356596002713 20.060404331855242 C0.7703348672557893 42.46105471298348 42.03827746709996 52.030268807063905 42.03827746709996 36.04533722190582 Z"></path></defs> <path d="M8.981345016763726 34.99566259213725 C15.417202381297557 41.3233414848537 16.519415050945213 49.04316346192718 19.621033125213444 52.09264733177929 C22.72265119948179 55.1421312016314 31.010573440311646 59.741181176530745 45.206776326169575 45.302278943907595 C59.402979212027276 30.863376711284673 52.72404621175224 20.12983612020207 49.31226763273651 16.775405144147726 C33.338939758185006 1.070567223633816 -2.4170991264832082 23.78881161180084 8.981345016763726 34.99566259213725 Z" style="stroke-width: 0; stroke-linecap: butt; stroke-linejoin: miter; fill: rgb(242, 242, 242);"></path></g><g><defs><path id="path-1628229353235102949" d="M4.800000000000001 30.33333333333325 C3.6954305004000005 30.33333333333325 2.8 29.43790283293325 2.8 28.33333333333325 C2.8 28.33333333333325 2.8 12.111111111111086 2.8 12.111111111111086 C2.8 11.006541611511086 3.6954305004000005 10.111111111111086 4.800000000000001 10.111111111111086 C4.800000000000001 10.111111111111086 28.799999999999994 10.111111111111086 28.799999999999994 10.111111111111086 C29.904569499599994 10.111111111111086 30.799999999999994 11.006541611511086 30.799999999999994 12.111111111111086 C30.799999999999994 12.111111111111086 30.799999999999994 28.33333333333325 30.799999999999994 28.33333333333325 C30.799999999999994 29.43790283293325 29.904569499599994 30.33333333333325 28.799999999999994 30.33333333333325 C28.799999999999994 30.33333333333325 4.800000000000001 30.33333333333325 4.800000000000001 30.33333333333325 Z"></path></defs> <path d="M19.48611582930789 43.74462663452414 C18.38154632970789 43.74462663452414 17.48611582930789 42.849196134124135 17.48611582930789 41.74462663452414 C17.48611582930789 41.74462663452414 17.48611582930789 25.522404412301967 17.48611582930789 25.522404412301967 C17.48611582930789 24.417834912701966 18.38154632970789 23.522404412301967 19.48611582930789 23.522404412301967 C19.48611582930789 23.522404412301967 43.48611582930789 23.522404412301967 43.48611582930789 23.522404412301967 C44.59068532890789 23.522404412301967 45.48611582930789 24.417834912701966 45.48611582930789 25.522404412301967 C45.48611582930789 25.522404412301967 45.48611582930789 41.74462663452414 45.48611582930789 41.74462663452414 C45.48611582930789 42.849196134124135 44.59068532890789 43.74462663452414 43.48611582930789 43.74462663452414 C43.48611582930789 43.74462663452414 19.48611582930789 43.74462663452414 19.48611582930789 43.74462663452414 Z" style="stroke: rgb(255, 191, 0); stroke-width: 3; stroke-linecap: butt; stroke-linejoin: miter; fill: none;"></path></g><g><defs><path id="path-1628229353232102947" d="M22.399999999999643 30.333333333333343 C22.399999999999643 30.333333333333343 22.399999999999643 7.222222222222221 22.399999999999643 7.222222222222221 C22.399999999999643 5.6267329449332655 21.14639729952588 4.333333333333334 19.59999999999968 4.333333333333334 C19.59999999999968 4.333333333333334 13.999999999999776 4.333333333333334 13.999999999999776 4.333333333333334 C12.453602700473578 4.333333333333334 11.199999999999822 5.626732944933263 11.199999999999822 7.222222222222221 C11.199999999999822 7.222222222222221 11.199999999999822 30.333333333333343 11.199999999999822 30.333333333333343"></path></defs> <path d="M37.0861158293078 43.74462663452459 C37.0861158293078 43.74462663452459 37.0861158293078 20.633515523413507 37.0861158293078 20.633515523413507 C37.0861158293078 19.038026246124673 35.83251312883408 17.744626634524593 34.286115829307846 17.744626634524593 C34.286115829307846 17.744626634524593 28.686115829307937 17.744626634524593 28.686115829307937 17.744626634524593 C27.139718529781703 17.744626634524593 25.886115829307982 19.038026246124673 25.886115829307982 20.633515523413507 C25.886115829307982 20.633515523413507 25.886115829307982 43.74462663452459 25.886115829307982 43.74462663452459" style="stroke: rgb(255, 191, 0); stroke-width: 3; stroke-linecap: butt; stroke-linejoin: miter; fill: none;"></path></g></svg>