<svg width="24" height="24" viewBox="0 0 24 24" fill="none" xmlns="http://www.w3.org/2000/svg">
<g clip-path="url(#clip0_162_13168)">
<mask id="mask0_162_13168" style="mask-type:alpha" maskUnits="userSpaceOnUse" x="0" y="0" width="24" height="24">
<circle cx="12" cy="12" r="12" fill="#D9D9D9"/>
</mask>
<g mask="url(#mask0_162_13168)">
<path d="M23.5 12C23.5 18.3513 18.3513 23.5 12 23.5C5.64873 23.5 0.5 18.3513 0.5 12C0.5 5.64873 5.64873 0.5 12 0.5C18.3513 0.5 23.5 5.64873 23.5 12Z" fill="#F8F9FA" stroke="#E5E8EA"/>
<path d="M13.3335 2.6665H36.0002V5.33317H13.3335V2.6665Z" fill="#0038A8"/>
<path d="M13.3335 7.99976H36.0002V10.6664H13.3335V7.99976Z" fill="#0038A8"/>
<path d="M0 13.3333H36V15.9999H0V13.3333Z" fill="#0038A8"/>
<path d="M0 18.6665H36V21.3332H0V18.6665Z" fill="#0038A8"/>
<path d="M7.32791 8.51318L7.70875 9.08187C6.14383 10.2144 7.09923 10.8841 5.99023 11.2466C6.67999 10.5734 5.89906 10.4696 6.48021 9.0666" fill="#FCD116"/>
<path fill-rule="evenodd" clip-rule="evenodd" d="M7.33849 8.46045L7.76082 9.09108L7.73117 9.11254C7.34289 9.39352 7.11276 9.64448 6.96798 9.86749C6.82335 10.0903 6.76264 10.287 6.71534 10.4628C6.71008 10.4823 6.70496 10.5017 6.6999 10.5209C6.65985 10.6727 6.62271 10.8135 6.53793 10.9362C6.44086 11.0766 6.28435 11.1903 6.00219 11.2826L5.84717 11.3332L5.96389 11.2193C6.13358 11.0537 6.20901 10.9268 6.23949 10.8096C6.27023 10.6915 6.25679 10.5789 6.23847 10.435L6.23784 10.4301C6.21976 10.2882 6.19838 10.1205 6.21784 9.90102C6.23752 9.67908 6.29878 9.40576 6.44531 9.05199L6.45984 9.01693L6.52996 9.04598L6.51544 9.08104C6.3714 9.42878 6.31235 9.69457 6.29345 9.90773C6.27472 10.119 6.29524 10.28 6.31328 10.4216L6.31377 10.4254C6.33181 10.567 6.34796 10.6942 6.31296 10.8287C6.28634 10.9311 6.23097 11.0351 6.12997 11.1536C6.30596 11.0773 6.40822 10.9904 6.47549 10.893C6.55221 10.782 6.58587 10.6548 6.62658 10.5011C6.63159 10.4821 6.63672 10.4628 6.64204 10.443C6.69012 10.2644 6.7533 10.0588 6.90432 9.82615C7.05138 9.59962 7.28055 9.3493 7.65709 9.07261L7.27542 8.50269L7.33849 8.46045Z" fill="#7B3F00"/>
<path d="M6.61009 7.99941L6.47727 8.67083C4.5699 8.36506 4.77193 9.51418 3.73142 8.98633C4.69513 8.99808 4.23812 8.36393 5.64113 7.78278" fill="#FCD116"/>
<path fill-rule="evenodd" clip-rule="evenodd" d="M6.65428 7.96958L6.50699 8.71416L6.47084 8.70836C5.9976 8.6325 5.65742 8.64722 5.39736 8.70254C5.13755 8.75781 4.9555 8.85401 4.7978 8.94481C4.78026 8.95491 4.76294 8.96499 4.74578 8.97499C4.61011 9.05402 4.4843 9.12731 4.3376 9.15411C4.16963 9.18481 3.97855 9.15453 3.71382 9.02023L3.56833 8.94642L3.73146 8.94841C3.96841 8.9513 4.11295 8.91441 4.21952 8.85221C4.32697 8.78951 4.3999 8.69906 4.49133 8.58339L4.49584 8.5777C4.58573 8.46395 4.69168 8.3299 4.86167 8.18852C5.03451 8.04476 5.27241 7.89429 5.62618 7.74775L5.66126 7.73322L5.69032 7.80337L5.65524 7.8179C5.30751 7.96194 5.0764 8.10867 4.91022 8.24689C4.74637 8.38318 4.64451 8.51205 4.55473 8.62563L4.5509 8.63048C4.46075 8.74453 4.37955 8.84674 4.25779 8.91779C4.16508 8.9719 4.05118 9.0068 3.89529 9.01932C4.07372 9.08985 4.20753 9.1007 4.32395 9.07942C4.45672 9.05516 4.57041 8.98907 4.70793 8.90913C4.72487 8.89928 4.74217 8.88922 4.75991 8.87901C4.92019 8.78673 5.11029 8.68597 5.38156 8.62827C5.64574 8.57208 5.98478 8.55712 6.44668 8.62772L6.5798 7.95485L6.65428 7.96958Z" fill="#7B3F00"/>
<path d="M6.60944 7.99963L6.30894 7.94548L6.31203 7.9579C5.51032 8.15438 5.075 8.48673 4.73404 8.73933C4.56348 8.86559 4.41633 8.97298 4.25673 9.03114C4.15104 9.07032 4.03759 9.08399 3.92561 9.07104C4.75324 9.36504 4.69843 8.38616 6.47666 8.67117L6.60944 7.99963Z" fill="#7B3F00"/>
<path fill-rule="evenodd" clip-rule="evenodd" d="M6.63023 7.98555L6.49082 8.69066L6.47437 8.68802C6.03133 8.61701 5.70335 8.62487 5.4478 8.67154C5.19239 8.71819 5.00848 8.80376 4.85345 8.88939C4.81314 8.91165 4.77454 8.93409 4.73698 8.95592C4.63099 9.01751 4.53332 9.07427 4.42917 9.10871C4.2862 9.15598 4.1305 9.16179 3.92027 9.08711L3.77696 9.03621L3.92804 9.05368C4.03731 9.06631 4.14802 9.05297 4.25117 9.01474L4.25126 9.0147C4.40808 8.95756 4.5532 8.85183 4.7242 8.72524M6.63023 7.98555L6.61294 7.98243ZM6.58952 8.01331L6.33259 7.96701L6.33342 7.97035L6.31658 7.97448C5.53708 8.1655 5.10586 8.48526 4.76889 8.73512C4.7608 8.74112 4.75276 8.74708 4.74477 8.753C4.57466 8.87893 4.42549 8.98797 4.26313 9.04715C4.19698 9.07166 4.12787 9.08642 4.05795 9.09117C4.19951 9.12228 4.31279 9.1108 4.41832 9.07591C4.51879 9.04268 4.61198 8.98854 4.71684 8.92761C4.75496 8.90546 4.79463 8.88241 4.83675 8.85915C4.99375 8.77243 5.18129 8.6851 5.44159 8.63755C5.69854 8.59062 6.02558 8.58261 6.46338 8.6513L6.58952 8.01331ZM6.29153 7.94508L6.28618 7.92355L6.61294 7.98243M6.29153 7.94508C5.51585 8.13823 5.08391 8.45852 4.74844 8.70727C4.74031 8.7133 4.73223 8.7193 4.7242 8.72524" fill="#7B3F00"/>
<path fill-rule="evenodd" clip-rule="evenodd" d="M4.71296 8.66075C5.05153 8.40967 5.49702 8.07931 6.29462 7.88408L6.31268 7.95783C5.52997 8.14941 5.09445 8.47238 4.75788 8.72197C4.75014 8.72771 4.74245 8.73341 4.7348 8.73908C4.56544 8.86456 4.41613 8.97316 4.25758 9.03104C4.0964 9.08988 3.92728 9.09596 3.71879 9.02219L3.74412 8.9506C3.93689 9.01882 4.08782 9.01218 4.23154 8.95971C4.3779 8.90628 4.51832 8.80497 4.6896 8.67807C4.69733 8.67234 4.70511 8.66657 4.71296 8.66075Z" fill="#7B3F00"/>
<path d="M7.58875 7.38823L7.05184 6.85132L4.63574 10.3412L8.12566 7.92514L7.58875 7.38823L4.63574 10.3412Z" fill="#FCD116"/>
<path fill-rule="evenodd" clip-rule="evenodd" d="M7.04616 6.79248L8.18429 7.93062L4.48535 10.4914L7.04616 6.79248ZM7.0568 6.91047L4.90617 10.0169L7.53471 7.38839L7.0568 6.91047ZM7.58839 7.44206L4.95984 10.0706L8.0663 7.91998L7.58839 7.44206Z" fill="#7B3F00"/>
<path d="M6.46298 7.12795L5.89429 7.5088C4.76179 5.94388 4.0921 6.89928 3.72959 5.79028C4.40273 6.48004 4.51299 5.70039 5.91601 6.28154" fill="#FCD116"/>
<path fill-rule="evenodd" clip-rule="evenodd" d="M6.51596 7.13816L5.88531 7.5605L5.86384 7.53085C5.58286 7.14257 5.3319 6.91244 5.1089 6.76767C4.8861 6.62303 4.68935 6.56233 4.51363 6.51502C4.49409 6.50976 4.47471 6.50465 4.45551 6.49958C4.30369 6.45953 4.16291 6.42239 4.04022 6.33762C3.89974 6.24054 3.78604 6.08403 3.69381 5.80187L3.64312 5.6468L3.75707 5.76355C3.92263 5.93321 4.04995 6.00874 4.16776 6.03935C4.28652 6.07022 4.40004 6.05692 4.54467 6.03876L4.54998 6.03809C4.69258 6.02018 4.861 5.99902 5.08082 6.01858C5.30335 6.03838 5.57707 6.09972 5.93085 6.24626L5.96592 6.26078L5.93686 6.33094L5.90179 6.31641C5.55406 6.17237 5.28786 6.11323 5.07409 6.09421C4.86242 6.07538 4.70068 6.09569 4.55834 6.11357L4.55413 6.1141C4.41169 6.13199 4.28373 6.14795 4.14866 6.11284C4.04588 6.08613 3.94147 6.0307 3.82281 5.92961C3.8991 6.10562 3.98603 6.20788 4.08339 6.27515C4.19442 6.35187 4.32155 6.38553 4.47531 6.42624C4.49425 6.43125 4.5136 6.43638 4.53337 6.4417C4.71196 6.48978 4.91762 6.55296 5.15024 6.70398C5.37678 6.85104 5.6271 7.08021 5.90378 7.45675L6.4737 7.07507L6.51596 7.13816Z" fill="#7B3F00"/>
<path d="M6.46332 7.12781L6.28912 6.87704L6.28253 6.888C5.5767 6.46003 5.03388 6.38723 4.61417 6.32475C4.40428 6.29342 4.2243 6.2653 4.07032 6.19358C3.96788 6.14655 3.87799 6.07599 3.80797 5.98766C4.1853 6.78076 4.83872 6.04984 5.89458 7.50877L6.46332 7.12781Z" fill="#7B3F00"/>
<path fill-rule="evenodd" clip-rule="evenodd" d="M6.48793 7.13252L5.89076 7.53253L5.881 7.51903C5.61793 7.15554 5.38046 6.92918 5.16675 6.78148C4.95317 6.63387 4.76261 6.56433 4.59245 6.51526C4.5482 6.5025 4.50504 6.49107 4.46304 6.47994C4.34454 6.44855 4.23535 6.41962 4.13735 6.37033C4.00283 6.30266 3.88862 6.19667 3.79277 5.99521L3.72744 5.85788L3.82191 5.97706C3.89024 6.06326 3.97796 6.13212 4.07793 6.17802L4.07802 6.17806C4.22932 6.24853 4.40669 6.27639 4.61712 6.3078M6.48793 7.13252L6.47791 7.11809ZM6.43951 7.12337L6.29057 6.90895L6.2888 6.9119L6.27398 6.90291C5.58771 6.4868 5.05669 6.40797 4.64173 6.34638C4.63177 6.3449 4.62187 6.34343 4.61203 6.34197C4.40271 6.31073 4.22012 6.28235 4.06347 6.20939C3.99937 6.17995 3.94006 6.14152 3.88726 6.09543C3.96536 6.21753 4.05358 6.28952 4.15287 6.33946C4.24741 6.38701 4.35159 6.41462 4.46882 6.44568C4.51144 6.45698 4.55578 6.46873 4.60202 6.48206C4.77436 6.53176 4.96872 6.60262 5.1864 6.75306C5.40128 6.90157 5.6382 7.12715 5.89919 7.4853L6.43951 7.12337ZM6.27705 6.86441L6.28849 6.84539L6.47791 7.11809M6.27705 6.86441C5.59198 6.4525 5.06008 6.37355 4.64697 6.31223C4.63695 6.31074 4.627 6.30927 4.61712 6.3078" fill="#7B3F00"/>
<path fill-rule="evenodd" clip-rule="evenodd" d="M4.65399 6.25407C5.07094 6.31594 5.61955 6.39735 6.32159 6.82329L6.2822 6.88821C5.59328 6.47022 5.05694 6.39063 4.64247 6.32912C4.63293 6.32771 4.62346 6.3263 4.61405 6.3249C4.40556 6.29388 4.22319 6.26509 4.07016 6.19391C3.91458 6.12154 3.79069 6.00626 3.69543 5.80666L3.76396 5.77396C3.85203 5.9585 3.96345 6.06053 4.10218 6.12506C4.24345 6.19077 4.41438 6.21842 4.62523 6.2498C4.63474 6.25122 4.64433 6.25264 4.65399 6.25407Z" fill="#7B3F00"/>
<path d="M7.58838 7.38821V6.62891L3.41219 7.38821L7.58838 8.14752V7.38821H3.41219Z" fill="#FCD116"/>
<path fill-rule="evenodd" clip-rule="evenodd" d="M7.62646 6.5835V8.19309L3.20008 7.38829L7.62646 6.5835ZM7.55053 6.67448L3.83336 7.35033H7.55053V6.67448ZM7.55053 7.42626H3.83335L7.55053 8.10211V7.42626Z" fill="#7B3F00"/>
<path d="M7.58838 7.38818H3.41219L7.58838 8.14749" fill="#7B3F00"/>
<path d="M6.97638 6.40817L6.30496 6.27534C6.61072 4.36798 5.4616 4.57 5.98946 3.52949C5.97771 4.4932 6.6444 4.11325 7.22555 5.51627" fill="#FCD116"/>
<path fill-rule="evenodd" clip-rule="evenodd" d="M7.00669 6.45284L6.26212 6.30555L6.26791 6.2694C6.34378 5.79616 6.32905 5.45598 6.27373 5.19592C6.21847 4.93611 6.12226 4.75406 6.03146 4.59636C6.02137 4.57882 6.01128 4.5615 6.00128 4.54434C5.92225 4.40867 5.84897 4.28286 5.82216 4.13616C5.79146 3.96819 5.82174 3.77712 5.95604 3.51238L6.02985 3.36689L6.02786 3.53002C6.02498 3.76654 6.06374 3.91619 6.12928 4.03036C6.1954 4.14554 6.29056 4.22826 6.4101 4.3292C6.41374 4.33227 6.4174 4.33536 6.42107 4.33846C6.65986 4.54 6.97169 4.80318 7.26107 5.50181L7.2756 5.53688L7.20545 5.56594L7.19092 5.53087C6.90856 4.84919 6.60724 4.59492 6.37337 4.39756C6.36926 4.39409 6.36518 4.39065 6.36111 4.38722C6.2428 4.28731 6.13717 4.19663 6.06343 4.06816C6.00705 3.96994 5.97033 3.85172 5.95719 3.69326C5.88644 3.87199 5.87555 4.00596 5.89685 4.12251C5.92111 4.25528 5.98721 4.36897 6.06715 4.50649C6.07699 4.52343 6.08705 4.54073 6.09727 4.55847C6.18955 4.71875 6.2903 4.90885 6.348 5.18012C6.4042 5.4443 6.41916 5.78335 6.34855 6.24525L7.02143 6.37836L7.00669 6.45284Z" fill="#7B3F00"/>
<path d="M6.97668 6.40827L7.03083 6.10777L7.01842 6.11086C6.82194 5.30914 6.48958 4.87383 6.23699 4.53287C6.11073 4.36231 6.00334 4.21516 5.94518 4.05556C5.906 3.94987 5.89233 3.83641 5.90528 3.72444C5.61128 4.55206 6.59016 4.49726 6.30515 6.27549L6.97668 6.40827Z" fill="#7B3F00"/>
<path fill-rule="evenodd" clip-rule="evenodd" d="M6.99028 6.42857L6.28517 6.28916L6.28781 6.27271C6.35882 5.82967 6.35096 5.50169 6.30429 5.24614C6.25764 4.99073 6.17207 4.80682 6.08644 4.65179C6.06418 4.61148 6.04174 4.57288 6.01991 4.53532C5.95832 4.42933 5.90156 4.33166 5.86712 4.22751C5.81985 4.08454 5.81404 3.92883 5.88872 3.71861L5.93962 3.5753L5.92215 3.72638C5.90952 3.83565 5.92286 3.94636 5.96109 4.04951L5.96113 4.0496C6.01827 4.20642 6.124 4.35154 6.25059 4.52254M6.99028 6.42857L6.9934 6.41128ZM6.96252 6.38786L7.00882 6.13093L7.00548 6.13176L7.00135 6.11492C6.81033 5.33542 6.49057 4.9042 6.24071 4.56723C6.23471 4.55914 6.22875 4.5511 6.22283 4.54311C6.0969 4.373 5.98786 4.22383 5.92868 4.06147C5.90417 3.99532 5.88941 3.92621 5.88466 3.85629C5.85355 3.99785 5.86503 4.11113 5.89993 4.21666C5.93315 4.31713 5.98729 4.41032 6.04822 4.51518C6.07037 4.5533 6.09342 4.59297 6.11668 4.63509C6.2034 4.79209 6.29073 4.97963 6.33828 5.23993C6.38521 5.49688 6.39322 5.82392 6.32453 6.26172L6.96252 6.38786ZM7.03075 6.08987L7.05228 6.08452L6.9934 6.41128M7.03075 6.08987C6.8376 5.31419 6.51731 4.88225 6.26856 4.54678C6.26253 4.53865 6.25653 4.53057 6.25059 4.52254" fill="#7B3F00"/>
<path fill-rule="evenodd" clip-rule="evenodd" d="M6.31557 4.51105C6.56665 4.84963 6.89701 5.29511 7.09224 6.09272L7.01849 6.11077C6.8269 5.32807 6.50393 4.89254 6.25435 4.55598C6.24861 4.54823 6.2429 4.54054 6.23724 4.5329C6.11176 4.36354 6.00316 4.21422 5.94528 4.05568C5.88643 3.8945 5.88035 3.72538 5.95413 3.51689L6.02571 3.54222C5.9575 3.73498 5.96413 3.88592 6.0166 4.02964C6.07003 4.17599 6.17134 4.31642 6.29825 4.48769C6.30398 4.49542 6.30975 4.50321 6.31557 4.51105Z" fill="#7B3F00"/>
<path d="M7.5876 7.38799L8.12451 6.85107L4.63459 4.43498L7.05069 7.9249L7.5876 7.38799L4.63459 4.43498Z" fill="#FCD116"/>
<path fill-rule="evenodd" clip-rule="evenodd" d="M8.18506 6.84595L7.0469 7.9841L4.48605 4.2851L8.18506 6.84595ZM8.06703 6.85659L4.96069 4.70605L7.58914 7.33449L8.06703 6.85659ZM7.53544 7.38818L4.907 4.75974L7.05755 7.86608L7.53544 7.38818Z" fill="#7B3F00"/>
<path d="M7.58838 7.38818L4.63537 4.43517L7.05147 7.92509" fill="#7B3F00"/>
<path d="M7.84797 6.26314L7.46713 5.69446C9.03205 4.56196 8.07664 3.89226 9.18564 3.52975C8.49589 4.20289 9.27283 4.3139 8.69168 5.71692" fill="#FCD116"/>
<path fill-rule="evenodd" clip-rule="evenodd" d="M7.83776 6.31588L7.41542 5.68523L7.44508 5.66376C7.83335 5.38278 8.06348 5.13182 8.20826 4.90882C8.35289 4.68602 8.41359 4.48926 8.4609 4.31355C8.46616 4.29401 8.47128 4.27463 8.47634 4.25543C8.51639 4.10361 8.55353 3.96283 8.63831 3.84014C8.73538 3.69966 8.8919 3.58596 9.17406 3.49373L9.32913 3.44304L9.21237 3.55699C9.04271 3.72256 8.96699 3.84995 8.93613 3.96786C8.90502 4.08671 8.918 4.20035 8.93582 4.34506L8.93654 4.35088C8.9541 4.49345 8.97484 4.66181 8.95506 4.88141C8.935 5.10399 8.8735 5.37774 8.72696 5.73151L8.71243 5.76658L8.64228 5.73753L8.65681 5.70245C8.80085 5.35471 8.86016 5.08845 8.87943 4.87459C8.89849 4.66309 8.87857 4.50139 8.86104 4.35907L8.86046 4.35433C8.84291 4.21177 8.82731 4.08375 8.86267 3.94863C8.88958 3.84583 8.94515 3.7414 9.04627 3.62275C8.87029 3.69903 8.76804 3.78596 8.70077 3.88331C8.62405 3.99434 8.59039 4.12147 8.54968 4.27523C8.54467 4.29417 8.53955 4.31352 8.53422 4.33329C8.48614 4.51188 8.42296 4.71754 8.27194 4.95016C8.12488 5.1767 7.89572 5.42702 7.51918 5.7037L7.90085 6.27362L7.83776 6.31588Z" fill="#7B3F00"/>
<path d="M7.84827 6.26312L8.09904 6.08893L8.08807 6.08233C8.51604 5.37651 8.58884 4.83368 8.65133 4.41398C8.68265 4.20409 8.71077 4.0241 8.78249 3.87012C8.82953 3.76768 8.90008 3.67779 8.98842 3.60777C8.19531 3.9851 8.92624 4.63853 7.4673 5.69439L7.84827 6.26312Z" fill="#7B3F00"/>
<path fill-rule="evenodd" clip-rule="evenodd" d="M7.8438 6.28725L7.44379 5.69008L7.45729 5.68031C7.82077 5.41725 8.04714 5.17978 8.19483 4.96607C8.34245 4.75248 8.41198 4.56193 8.46106 4.39176C8.47382 4.34752 8.48525 4.30435 8.49638 4.26236C8.52777 4.14386 8.5567 4.03467 8.60599 3.93667C8.67366 3.80215 8.77965 3.68794 8.98111 3.59209L9.11844 3.52675L8.99926 3.62123C8.91305 3.68956 8.8442 3.77728 8.7983 3.87725L8.79826 3.87734C8.72779 4.02863 8.69993 4.20601 8.66852 4.41644M7.8438 6.28725L7.85823 6.27723ZM7.85295 6.23883L8.06737 6.08989L8.06442 6.08812L8.07341 6.07329C8.48952 5.38703 8.56834 4.856 8.62994 4.44105C8.63142 4.43108 8.63289 4.42118 8.63435 4.41135C8.66559 4.20203 8.69397 4.01944 8.76692 3.86279C8.79636 3.79868 8.8348 3.73937 8.88089 3.68658C8.75878 3.76468 8.6868 3.8529 8.63686 3.95219C8.58931 4.04673 8.5617 4.15091 8.53063 4.26813C8.51934 4.31075 8.50759 4.3551 8.49425 4.40133C8.44455 4.57367 8.3737 4.76803 8.22326 4.98571C8.07475 5.20059 7.84917 5.43751 7.49102 5.69851L7.85295 6.23883ZM8.11191 6.07637L8.13093 6.08781L7.85823 6.27723M8.11191 6.07637C8.52382 5.3913 8.60277 4.8594 8.66409 4.44629C8.66557 4.43627 8.66705 4.42632 8.66852 4.41644" fill="#7B3F00"/>
<path fill-rule="evenodd" clip-rule="evenodd" d="M8.72249 4.45404C8.66062 4.87099 8.57922 5.4196 8.15327 6.12164L8.08836 6.08225C8.50634 5.39333 8.58593 4.85699 8.64744 4.44252C8.64885 4.43298 8.65026 4.42351 8.65166 4.4141C8.68268 4.20561 8.71148 4.02324 8.78266 3.87021C8.85502 3.71463 8.97031 3.59074 9.1699 3.49548L9.20261 3.56401C9.01806 3.65208 8.91603 3.7635 8.8515 3.90223C8.7858 4.0435 8.75814 4.21443 8.72676 4.42528C8.72535 4.43479 8.72392 4.44438 8.72249 4.45404Z" fill="#7B3F00"/>
<path d="M7.58786 7.38818H8.34717L7.58786 3.212L6.82855 7.38818H7.58786V3.212Z" fill="#FCD116"/>
<path fill-rule="evenodd" clip-rule="evenodd" d="M8.39355 7.42603H6.78396L7.58876 2.99964L8.39355 7.42603ZM8.30257 7.35009L7.62672 3.63292V7.35009H8.30257ZM7.55079 7.35009V3.63292L6.87494 7.35009H7.55079Z" fill="#7B3F00"/>
<path d="M7.58887 7.38818V3.212L6.82956 7.38818" fill="#7B3F00"/>
<path d="M8.56715 6.77695L8.69998 6.10553C10.6073 6.4113 10.4053 5.26218 11.4458 5.79003C10.4821 5.77828 10.9115 6.41561 9.50844 6.99676" fill="#FCD116"/>
<path fill-rule="evenodd" clip-rule="evenodd" d="M8.52345 6.80678L8.67075 6.0622L8.70689 6.068C9.18013 6.14386 9.52032 6.12914 9.78037 6.07382C10.0402 6.01855 10.2222 5.92235 10.3799 5.83155C10.3975 5.82145 10.4148 5.81137 10.432 5.80137C10.5676 5.72234 10.6934 5.64905 10.8401 5.62224C11.0081 5.59155 11.1992 5.62183 11.4639 5.75613L11.6094 5.82993L11.4463 5.82795C11.2094 5.82506 11.063 5.86212 10.9536 5.92479C10.8434 5.98797 10.767 6.07909 10.6722 6.19504C10.6698 6.19792 10.6675 6.20081 10.6651 6.20371C10.5724 6.31713 10.4635 6.45035 10.2925 6.59068C10.1172 6.73463 9.87763 6.88526 9.52388 7.03178L9.48881 7.04631L9.45975 6.97616L9.49482 6.96163C9.84258 6.81759 10.0755 6.67062 10.2444 6.53199C10.4094 6.39649 10.5143 6.26818 10.6069 6.15487C10.6091 6.15223 10.6112 6.1496 10.6134 6.14698C10.7071 6.03242 10.7917 5.93009 10.9159 5.85892C11.0105 5.80468 11.1258 5.76962 11.2825 5.75705C11.104 5.68651 10.9702 5.67566 10.8538 5.69694C10.721 5.7212 10.6073 5.78729 10.4698 5.86723C10.4529 5.87708 10.4356 5.88714 10.4178 5.89735C10.2575 5.98963 10.0674 6.09039 9.79617 6.14809C9.53199 6.20428 9.19295 6.21924 8.73105 6.14864L8.59794 6.82151L8.52345 6.80678Z" fill="#7B3F00"/>
<path d="M8.56732 6.77673L8.86782 6.83088L8.86473 6.81846C9.66644 6.62199 10.1018 6.28963 10.4427 6.03704C10.6133 5.91078 10.7604 5.80339 10.92 5.74523C11.0257 5.70605 11.1392 5.69238 11.2511 5.70533C10.4235 5.41133 10.4783 6.39021 8.7001 6.1052L8.56732 6.77673Z" fill="#7B3F00"/>
<path fill-rule="evenodd" clip-rule="evenodd" d="M8.5475 6.79058L8.68692 6.08547L8.70337 6.0881C9.14641 6.15911 9.47438 6.15126 9.72994 6.10458C9.98535 6.05793 10.1693 5.97236 10.3243 5.88673C10.3646 5.86447 10.4032 5.84203 10.4408 5.82021C10.5467 5.75861 10.6444 5.70186 10.7486 5.66742C10.8915 5.62014 11.0472 5.61433 11.2575 5.68901L11.4008 5.73992L11.2497 5.72245C11.1404 5.70981 11.0297 5.72315 10.9266 5.76139L10.9265 5.76142C10.7697 5.81857 10.6245 5.92429 10.4535 6.05088M8.5475 6.79058L8.56479 6.79369ZM8.58821 6.76281L8.84514 6.80911L8.84431 6.80577L8.86115 6.80165C9.64065 6.61062 10.0719 6.29086 10.4088 6.041C10.4169 6.035 10.425 6.02904 10.433 6.02312C10.6031 5.8972 10.7522 5.78815 10.9146 5.72897C10.9807 5.70446 11.0499 5.6897 11.1198 5.68496C10.9782 5.65384 10.8649 5.66532 10.7594 5.70022C10.6589 5.73344 10.5658 5.78759 10.4609 5.84851C10.4228 5.87066 10.3831 5.89371 10.341 5.91698C10.184 6.00369 9.99645 6.09103 9.73614 6.13857C9.47919 6.1855 9.15215 6.19352 8.71435 6.12482L8.58821 6.76281ZM8.8862 6.83105L8.89156 6.85258L8.56479 6.79369M8.8862 6.83105C9.66188 6.63789 10.0938 6.31761 10.4293 6.06885C10.4374 6.06282 10.4455 6.05683 10.4535 6.05088" fill="#7B3F00"/>
<path fill-rule="evenodd" clip-rule="evenodd" d="M10.4653 6.11561C10.1267 6.3667 9.6812 6.69706 8.8836 6.89229L8.86555 6.81853C9.64825 6.62695 10.0838 6.30398 10.4203 6.0544C10.4281 6.04866 10.4358 6.04295 10.4434 6.03729C10.6128 5.9118 10.7621 5.80321 10.9206 5.74533C11.0818 5.68648 11.2509 5.6804 11.4594 5.75418L11.4341 5.82576C11.2413 5.75755 11.0904 5.76418 10.9467 5.81665C10.8003 5.87008 10.6599 5.97139 10.4886 6.0983C10.4809 6.10403 10.4731 6.1098 10.4653 6.11561Z" fill="#7B3F00"/>
<path d="M7.59004 7.38789L8.12695 7.9248L10.5431 4.43488L7.05313 6.85098L7.59004 7.38789L10.5431 4.43488Z" fill="#FCD116"/>
<path fill-rule="evenodd" clip-rule="evenodd" d="M8.13135 7.98389L6.99319 6.84573L10.6922 4.28488L8.13135 7.98389ZM8.12071 7.86586L10.2712 4.75952L7.64281 7.38796L8.12071 7.86586ZM7.58912 7.33427L10.2176 4.70583L7.11122 6.85637L7.58912 7.33427Z" fill="#7B3F00"/>
<path d="M7.58838 7.38794L10.5414 4.43493L7.05147 6.85103" fill="#7B3F00"/>
<path d="M8.7124 7.64915L9.28108 7.26831C10.4136 8.83323 11.0833 7.87783 11.4458 8.98683C10.7726 8.29707 10.6463 9.0689 9.24327 8.48775" fill="#FCD116"/>
<path fill-rule="evenodd" clip-rule="evenodd" d="M8.65991 7.6387L9.29055 7.21636L9.31202 7.24602C9.593 7.63429 9.84396 7.86442 10.067 8.0092C10.2898 8.15383 10.4865 8.21454 10.6622 8.26184C10.6818 8.2671 10.7012 8.27222 10.7204 8.27728C10.8722 8.31733 11.013 8.35447 11.1356 8.43925C11.2761 8.53632 11.3898 8.69284 11.4821 8.975L11.5327 9.13007L11.4188 9.01331C11.2533 8.84372 11.1249 8.76762 11.0055 8.73626C10.8851 8.70465 10.7694 8.71706 10.6228 8.73423L10.6156 8.73508C10.4715 8.75197 10.3017 8.77188 10.0814 8.75168C9.85739 8.73114 9.5827 8.66933 9.22893 8.52279L9.19385 8.50826L9.22291 8.43811L9.25798 8.45264C9.60571 8.59667 9.87295 8.65632 10.0883 8.67606C10.3006 8.69553 10.4639 8.6764 10.6079 8.65953L10.614 8.65882C10.7585 8.64189 10.8883 8.627 11.0248 8.66282C11.1287 8.6901 11.234 8.74596 11.3531 8.84735C11.2768 8.67129 11.1898 8.569 11.0925 8.50172C10.9814 8.42499 10.8543 8.39133 10.7005 8.35062C10.6816 8.34561 10.6623 8.34049 10.6425 8.33516C10.4639 8.28708 10.2582 8.2239 10.0256 8.07288C9.79908 7.92582 9.54876 7.69666 9.27208 7.32012L8.70216 7.70179L8.65991 7.6387Z" fill="#7B3F00"/>
<path d="M8.71246 7.64905L8.88666 7.89982L8.89325 7.88885C9.59908 8.31682 10.1419 8.38962 10.5616 8.45211C10.7715 8.48343 10.9515 8.51155 11.1055 8.58328C11.2079 8.63031 11.2978 8.70086 11.3678 8.7892C10.9905 7.99609 10.3371 8.72702 9.2812 7.26809L8.71246 7.64905Z" fill="#7B3F00"/>
<path fill-rule="evenodd" clip-rule="evenodd" d="M8.68834 7.64434L9.28551 7.24433L9.29527 7.25782C9.55834 7.62131 9.79581 7.84767 10.0095 7.99537C10.2231 8.14299 10.4137 8.21252 10.5838 8.2616C10.6281 8.27436 10.6712 8.28579 10.7132 8.29691C10.8317 8.32831 10.9409 8.35724 11.0389 8.40653C11.1734 8.47419 11.2876 8.58019 11.3835 8.78164L11.4488 8.91898L11.3544 8.7998C11.286 8.71359 11.1983 8.64474 11.0983 8.59884L11.0982 8.5988C10.947 8.52832 10.7696 8.50047 10.5591 8.46906M8.68834 7.64434L8.69836 7.65877ZM8.73676 7.65349L8.8857 7.86791L8.88747 7.86496L8.90229 7.87395C9.58856 8.29006 10.1196 8.36888 10.5345 8.43047C10.5445 8.43195 10.5544 8.43342 10.5642 8.43489C10.7736 8.46613 10.9561 8.4945 11.1128 8.56746C11.1769 8.5969 11.2362 8.63534 11.289 8.68142C11.2109 8.55932 11.1227 8.48734 11.0234 8.43739C10.9289 8.38984 10.8247 8.36224 10.7075 8.33117C10.6648 8.31988 10.6205 8.30812 10.5743 8.29479C10.4019 8.24509 10.2076 8.17424 9.98987 8.02379C9.77499 7.87529 9.53807 7.6497 9.27708 7.29156L8.73676 7.65349ZM8.89922 7.91245L8.88778 7.93146L8.69836 7.65877M8.89922 7.91245C9.58428 8.32436 10.1162 8.40331 10.5293 8.46462C10.5393 8.46611 10.5493 8.46759 10.5591 8.46906" fill="#7B3F00"/>
<path fill-rule="evenodd" clip-rule="evenodd" d="M10.5218 8.52303C10.1048 8.46116 9.55623 8.37975 8.85419 7.95381L8.89358 7.88889C9.5825 8.30688 10.1188 8.38647 10.5333 8.44798C10.5428 8.44939 10.5523 8.4508 10.5617 8.4522C10.7702 8.48322 10.9526 8.51201 11.1056 8.58319C11.2612 8.65556 11.3851 8.77084 11.4803 8.97044L11.4118 9.00314C11.3237 8.8186 11.2123 8.71657 11.0736 8.65204C10.9323 8.58633 10.7614 8.55867 10.5506 8.5273C10.541 8.52588 10.5315 8.52446 10.5218 8.52303Z" fill="#7B3F00"/>
<path d="M7.58838 7.3884V8.14771L11.7646 7.3884L7.58838 6.62909V7.3884H11.7646Z" fill="#FCD116"/>
<path fill-rule="evenodd" clip-rule="evenodd" d="M7.55078 8.19312V6.58352L11.9772 7.38832L7.55078 8.19312ZM7.62671 8.10213L11.3439 7.42628H7.62671V8.10213ZM7.62671 7.35035H11.3439L7.62671 6.6745V7.35035Z" fill="#7B3F00"/>
<path d="M7.58838 7.38818H11.7646L7.58838 6.62888" fill="#7B3F00"/>
<path d="M8.1998 8.36742L8.87121 8.50024C8.56545 10.4076 9.71457 10.2056 9.18672 11.2461C9.19847 10.2824 8.56396 10.7287 7.98281 9.3257" fill="#FCD116"/>
<path fill-rule="evenodd" clip-rule="evenodd" d="M8.16948 8.32274L8.91405 8.47004L8.90826 8.50618C8.8324 8.97942 8.84712 9.31961 8.90244 9.57966C8.9577 9.83948 9.05391 10.0215 9.14471 10.1792C9.1548 10.1968 9.16489 10.2141 9.17489 10.2312C9.25392 10.3669 9.32721 10.4927 9.35401 10.6394C9.38471 10.8074 9.35443 10.9985 9.22013 11.2632L9.14632 11.4087L9.14831 11.2456C9.1512 11.0086 9.11429 10.8634 9.05199 10.7557C8.98918 10.6472 8.89857 10.5729 8.78291 10.4802C8.78061 10.4783 8.77831 10.4765 8.776 10.4746C8.6625 10.3837 8.52891 10.2766 8.38805 10.1063C8.2443 9.93246 8.09383 9.69393 7.94729 9.34016L7.93276 9.30509L8.00291 9.27603L8.01744 9.31111C8.16148 9.65885 8.30826 9.89066 8.44656 10.0579C8.58243 10.2222 8.71096 10.3252 8.82431 10.4161L8.83041 10.4209C8.94455 10.5125 9.04669 10.595 9.1177 10.7177C9.17179 10.8111 9.2067 10.9256 9.21922 11.0817C9.28975 10.9033 9.30059 10.7695 9.27932 10.6531C9.25506 10.5203 9.18897 10.4066 9.10903 10.2691C9.09918 10.2522 9.08912 10.2349 9.0789 10.2171C8.98662 10.0568 8.88587 9.86673 8.82817 9.59546C8.77198 9.33128 8.75702 8.99224 8.82762 8.53034L8.15474 8.39723L8.16948 8.32274Z" fill="#7B3F00"/>
<path d="M8.1991 8.36737L8.14495 8.66786L8.15737 8.66478C8.35384 9.46649 8.6862 9.9018 8.93879 10.2428C9.06505 10.4133 9.17244 10.5605 9.2306 10.7201C9.26978 10.8258 9.28345 10.9392 9.2705 11.0512C9.5645 10.2236 8.58562 10.2784 8.87063 8.50014L8.1991 8.36737Z" fill="#7B3F00"/>
<path fill-rule="evenodd" clip-rule="evenodd" d="M8.18501 8.34682L8.89012 8.48623L8.88748 8.50268C8.81647 8.94572 8.82433 9.2737 8.871 9.52925C8.91765 9.78466 9.00323 9.96857 9.08885 10.1236C9.11112 10.1639 9.13355 10.2025 9.15538 10.2401C9.21697 10.3461 9.27373 10.4437 9.30817 10.5479C9.35544 10.6908 9.36126 10.8466 9.28658 11.0568L9.23567 11.2001L9.25314 11.049C9.26578 10.9397 9.25243 10.829 9.2142 10.7259L9.21417 10.7258C9.15702 10.569 9.05129 10.4239 8.92471 10.2528M8.18501 8.34682L8.18189 8.36411ZM8.21278 8.38753L8.16648 8.64446L8.16981 8.64363L8.17394 8.66047C8.36497 9.43997 8.68472 9.87119 8.93458 10.2082C8.94059 10.2163 8.94655 10.2243 8.95247 10.2323C9.07839 10.4024 9.18743 10.5516 9.24661 10.7139C9.27113 10.7801 9.28589 10.8492 9.29063 10.9191C9.32174 10.7775 9.31026 10.6643 9.27537 10.5587C9.24215 10.4583 9.188 10.3651 9.12708 10.2602C9.10492 10.2221 9.08188 10.1824 9.05861 10.1403C8.97189 9.9833 8.88456 9.79576 8.83702 9.53546C8.79009 9.27851 8.78207 8.95147 8.85076 8.51367L8.21278 8.38753ZM8.14454 8.68552L8.12301 8.69088L8.18189 8.36411M8.14454 8.68552C8.33769 9.4612 8.65798 9.89314 8.90673 10.2286C8.91277 10.2367 8.91876 10.2448 8.92471 10.2528" fill="#7B3F00"/>
<path fill-rule="evenodd" clip-rule="evenodd" d="M8.86022 10.2646C8.60914 9.92601 8.27877 9.48052 8.08354 8.68292L8.1573 8.66486C8.34888 9.44757 8.67185 9.88309 8.92143 10.2197C8.92717 10.2274 8.93288 10.2351 8.93854 10.2427C9.06403 10.4121 9.17262 10.5614 9.2305 10.72C9.28935 10.8811 9.29543 11.0503 9.22165 11.2587L9.15007 11.2334C9.21828 11.0407 9.21165 10.8897 9.15918 10.746C9.10575 10.5996 9.00444 10.4592 8.87753 10.2879C8.8718 10.2802 8.86603 10.2724 8.86022 10.2646Z" fill="#7B3F00"/>
<path d="M7.58867 7.38789L7.05176 7.9248L10.5417 10.3409L8.12558 6.85098L7.58867 7.38789L10.5417 10.3409Z" fill="#FCD116"/>
<path fill-rule="evenodd" clip-rule="evenodd" d="M6.99316 7.93042L8.13132 6.79226L10.6922 10.4913L6.99316 7.93042ZM7.11119 7.91978L10.2175 10.0703L7.58909 7.44188L7.11119 7.91978ZM7.64278 7.38819L10.2712 10.0166L8.12068 6.91029L7.64278 7.38819Z" fill="#7B3F00"/>
<path d="M7.58887 7.38818L10.5419 10.3412L8.12578 6.85127" fill="#7B3F00"/>
<path d="M7.32863 8.51318L7.07786 8.68737L7.08882 8.69397C6.66085 9.3998 6.58805 9.94262 6.52557 10.3623C6.49424 10.5722 6.46613 10.7522 6.3944 10.9062C6.34737 11.0086 6.27681 11.0985 6.18848 11.1685C6.98158 10.7912 6.25066 10.1378 7.70959 9.08192L7.32863 8.51318Z" fill="#7B3F00"/>
<path fill-rule="evenodd" clip-rule="evenodd" d="M7.33319 8.48901L7.73319 9.08617L7.7197 9.09594C7.35621 9.359 7.12985 9.59647 6.98215 9.81018C6.83454 10.0238 6.765 10.2143 6.71593 10.3845C6.70317 10.4287 6.69173 10.4719 6.68061 10.5139C6.64922 10.6324 6.62029 10.7416 6.57099 10.8396C6.50333 10.9741 6.39734 11.0883 6.19588 11.1842L6.05859 11.2495L6.17774 11.155C6.26394 11.0867 6.33279 10.999 6.37869 10.899L6.37873 10.8989C6.44921 10.7476 6.47707 10.5702 6.50848 10.3598C6.50995 10.3499 6.51142 10.34 6.51291 10.33C6.57423 9.91686 6.65318 9.38495 7.06509 8.69988L7.04608 8.68845L7.33319 8.48901ZM7.10961 8.68637L7.11256 8.68814L7.10358 8.70296C6.68746 9.38922 6.60864 9.92025 6.54705 10.3352C6.54557 10.3452 6.5441 10.3551 6.54264 10.3649C6.51139 10.5742 6.48302 10.7568 6.41006 10.9135C6.38062 10.9776 6.34217 11.0369 6.29607 11.0897C6.4182 11.0116 6.49019 10.9234 6.54014 10.8241C6.58769 10.7295 6.6153 10.6254 6.64636 10.5081C6.65766 10.4655 6.66941 10.4212 6.68274 10.3749C6.73244 10.2026 6.8033 10.0082 6.95374 9.79054C7.10225 9.57566 7.32783 9.33874 7.68598 9.07774L7.32404 8.53742L7.10961 8.68637Z" fill="#7B3F00"/>
<path fill-rule="evenodd" clip-rule="evenodd" d="M6.45473 10.3224C6.5166 9.90543 6.598 9.35682 7.02395 8.65479L7.08884 8.69416C6.67086 9.38308 6.59127 9.91942 6.52976 10.3339C6.52835 10.3434 6.52694 10.3529 6.52554 10.3623C6.49452 10.5708 6.46572 10.7532 6.39454 10.9062C6.32218 11.0618 6.2069 11.1857 6.0073 11.2809L5.97461 11.2124C6.15915 11.1243 6.26119 11.0129 6.32572 10.8742C6.39142 10.7329 6.41908 10.562 6.45046 10.3511C6.45187 10.3416 6.4533 10.332 6.45473 10.3224Z" fill="#7B3F00"/>
<path d="M7.58938 7.38818H6.83008L7.58938 11.5644L8.34869 7.38818H7.58938V11.5644Z" fill="#FCD116"/>
<path fill-rule="evenodd" clip-rule="evenodd" d="M6.78418 7.35034H8.39375L7.58896 11.7767L6.78418 7.35034ZM6.87513 7.42625L7.55101 11.1436V7.42625H6.87513ZM7.62692 7.42625V11.1436L8.30279 7.42625H7.62692Z" fill="#7B3F00"/>
<path d="M7.58887 7.38843V11.5646L8.34817 7.38843" fill="#7B3F00"/>
<path d="M7.58875 7.38818L4.63574 10.3412L8.12566 7.92509" fill="#7B3F00"/>
<path d="M7.58883 8.78044C8.35763 8.78044 8.98088 8.15719 8.98088 7.38839C8.98088 6.61958 8.35763 5.99634 7.58883 5.99634C6.82002 5.99634 6.19678 6.61958 6.19678 7.38839C6.19678 8.15719 6.82002 8.78044 7.58883 8.78044Z" fill="#FCD116"/>
<path fill-rule="evenodd" clip-rule="evenodd" d="M7.58918 6.03416C6.84134 6.03416 6.23509 6.64041 6.23509 7.38825C6.23509 8.1361 6.84134 8.74235 7.58918 8.74235C8.33703 8.74235 8.94328 8.1361 8.94328 7.38825C8.94328 6.64041 8.33703 6.03416 7.58918 6.03416ZM6.15918 7.38825C6.15918 6.59848 6.79941 5.95825 7.58918 5.95825C8.37895 5.95825 9.01919 6.59848 9.01919 7.38825C9.01919 8.17802 8.37895 8.81826 7.58918 8.81826C6.79941 8.81826 6.15918 8.17802 6.15918 7.38825Z" fill="#7B3F00"/>
<path d="M8.61449 6.83124C8.5259 6.93248 8.47528 6.75531 8.1589 6.75531C7.84253 6.75531 7.79191 6.94514 7.74129 6.90717C7.69066 6.86921 8.00704 6.64141 8.10828 6.62876C8.20952 6.6161 8.50059 6.71734 8.61449 6.83124ZM8.24749 6.94514C8.33608 7.02107 8.26014 7.18558 8.17156 7.18558C8.08297 7.18558 7.91846 7.03372 7.99439 6.93248" fill="#7B3F00"/>
<path d="M7.83008 7.05925C7.84273 6.90739 7.96928 6.88208 8.17177 6.88208C8.37425 6.88208 8.46283 7.03394 8.53876 7.07191C8.45018 7.07191 8.37425 6.94536 8.17177 6.94536C7.96928 6.94536 7.96928 6.94536 7.83008 7.07191M7.86804 7.09722C7.91866 7.02129 7.98194 7.17315 8.12115 7.17315C8.26035 7.17315 8.33628 7.13518 8.42487 7.07191C8.51345 7.00863 8.29832 7.22377 8.15911 7.22377C8.0199 7.22377 7.83008 7.14784 7.86804 7.09722Z" fill="#7B3F00"/>
<path d="M6.88031 6.93262C6.81704 6.95793 6.7158 7.08446 6.88031 7.17305C6.75376 7.08446 6.855 6.95793 6.88031 6.93262Z" fill="#7B3F00"/>
<path d="M8.29883 6.93262C8.32414 6.95793 8.42538 7.08446 8.29883 7.17305C8.46334 7.08446 8.3621 6.95793 8.29883 6.93262Z" fill="#7B3F00"/>
<path d="M7.38665 7.47681C7.27275 7.50212 7.3107 7.66664 7.20946 7.67929C7.10822 7.69195 7.05762 7.80584 7.07027 7.79318C7.13355 7.74256 7.27276 7.70459 7.374 7.70459C7.47524 7.70459 7.50055 7.76789 7.58914 7.76789C7.67772 7.76789 7.70303 7.70459 7.80427 7.70459C7.90551 7.70459 8.04473 7.74256 8.108 7.79318C8.12066 7.80584 8.07006 7.69195 7.96882 7.67929C7.86757 7.66664 7.90552 7.50212 7.79162 7.47681C7.79162 7.52743 7.82956 7.51477 7.84221 7.5907C7.84221 7.65397 7.72834 7.65397 7.70303 7.5907C7.72834 7.69194 7.65241 7.69194 7.58914 7.69194C7.52586 7.69194 7.44993 7.69194 7.47525 7.5907C7.44993 7.65397 7.33606 7.65397 7.33606 7.5907C7.34871 7.51477 7.38665 7.52743 7.38665 7.47681Z" fill="#7B3F00"/>
<path d="M6.99465 7.90698C6.89341 7.98291 6.86812 8.02088 6.85547 8.10947C6.88582 8.05635 6.90073 8.03452 6.92378 8.00328C6.91768 8.00066 6.91243 7.99825 6.90612 7.99558C6.91349 7.99645 6.92009 7.99761 6.92718 7.9986C6.94249 7.97793 6.95608 7.96002 6.99465 7.90698Z" fill="#7B3F00"/>
<path d="M6.92836 7.99878C6.928 7.99928 6.92711 8.00048 6.92676 8.00097C6.94258 8.00464 6.95936 8.00636 6.97696 8.00642C6.9615 8.00369 6.94525 8.00114 6.92836 7.99878Z" fill="#7B3F00"/>
<path d="M6.97559 8.00624C7.0545 8.02017 7.11646 8.03833 7.17326 8.0567C7.24409 8.05145 7.34179 8.03352 7.58927 8.03352C7.83675 8.03352 7.93446 8.05146 8.00529 8.0567C8.06208 8.03833 8.12404 8.02017 8.20296 8.00624C8.06351 8.00673 7.87764 7.90698 7.79176 7.90698C7.69052 7.90698 7.6652 7.93228 7.58927 7.93228C7.51334 7.93228 7.48803 7.90698 7.38679 7.90698C7.30091 7.90698 7.11504 8.00674 6.97559 8.00624Z" fill="#7B3F00"/>
<path d="M8.20361 8.00642C8.22121 8.00635 8.238 8.00464 8.25382 8.00097C8.25346 8.00047 8.25258 7.99928 8.25221 7.99878C8.23532 8.00114 8.21907 8.00369 8.20361 8.00642Z" fill="#7B3F00"/>
<path d="M8.25156 7.9986C8.25865 7.99761 8.26525 7.9965 8.27261 7.99558C8.2663 7.99825 8.26106 8.00066 8.25496 8.00328C8.27801 8.03452 8.29291 8.05635 8.32327 8.10947C8.31061 8.02088 8.28532 7.98291 8.18408 7.90698C8.22265 7.96002 8.23625 7.97793 8.25156 7.9986Z" fill="#7B3F00"/>
<path d="M8.25522 8.00331C8.25508 8.00306 8.25472 8.00257 8.25457 8.00244C8.1225 8.05333 8.076 8.06197 8.00554 8.05675C7.88555 8.09557 7.78664 8.13482 7.58952 8.13482C7.3924 8.13482 7.29349 8.09557 7.17351 8.05675C7.10305 8.06197 7.05655 8.05333 6.92447 8.00244C6.92434 8.00269 6.92398 8.00319 6.92383 8.00331C7.32139 8.17442 7.27792 8.23604 7.58952 8.23604C7.90111 8.23604 7.85766 8.17442 8.25522 8.00331Z" fill="#7B3F00"/>
<path d="M6.92504 8.00241C6.9253 8.00204 6.92593 8.00116 6.92619 8.00081C6.91959 7.99928 6.91295 7.99788 6.90674 7.99561C6.91396 7.99844 6.91829 7.99982 6.92504 8.00241Z" fill="#7B3F00"/>
<path d="M8.25408 8.00241C8.26083 7.99982 8.26516 7.99844 8.27238 7.99561C8.26617 7.99787 8.25953 7.99927 8.25293 8.0008C8.25319 8.00117 8.25382 8.00206 8.25408 8.00241Z" fill="#7B3F00"/>
<path d="M6.5652 6.83124C6.65379 6.93248 6.70441 6.75531 7.02078 6.75531C7.33716 6.75531 7.38778 6.94514 7.4384 6.90717C7.48902 6.86921 7.17265 6.64141 7.0714 6.62876C6.97016 6.6161 6.6791 6.71734 6.5652 6.83124ZM6.9322 6.94514C6.84361 7.02107 6.91954 7.18558 7.00813 7.18558C7.09671 7.18558 7.26123 7.03372 7.1853 6.93248" fill="#7B3F00"/>
<path d="M7.34912 7.05901C7.33647 6.90715 7.20991 6.88184 7.00743 6.88184C6.80495 6.88184 6.71637 7.0337 6.64043 7.07166C6.72902 7.07166 6.80495 6.94511 7.00743 6.94511C7.20991 6.94511 7.20991 6.94511 7.34912 7.07166M7.31116 7.09697C7.26054 7.02104 7.19726 7.1729 7.05805 7.1729C6.91885 7.1729 6.84292 7.13494 6.75433 7.07166C6.66575 7.00839 6.88088 7.22352 7.02009 7.22352C7.15929 7.22352 7.34912 7.14759 7.31116 7.09697Z" fill="#7B3F00"/>
<path d="M7.58948 8.34985C7.5262 8.34985 7.36168 8.38782 7.58948 8.38782C7.81727 8.38782 7.65275 8.34985 7.58948 8.34985Z" fill="#7B3F00"/>
</g>
</g>
<defs>
<clipPath id="clip0_162_13168">
<rect width="24" height="24" fill="white"/>
</clipPath>
</defs>
</svg>
