<svg width="37" height="37" viewBox="0 0 37 37" fill="none" xmlns="http://www.w3.org/2000/svg">
<path d="M18.5 0C28.71 0 37 8.28957 37 18.5C37 28.7104 28.71 37 18.5 37C8.29 37 0 28.7104 0 18.5C0 8.28957 8.29 0 18.5 0Z" fill="white"/>
<path d="M22.8998 14.0526C25.7158 14.0526 27.9998 16.3148 27.9998 19.1052V25H24.5998V19.1052C24.5998 18.1751 23.8388 17.421 22.8998 17.421C21.9608 17.421 21.1998 18.1751 21.1998 19.1052V25H17.7998V19.1052C17.7998 16.3148 20.0828 14.0526 22.8998 14.0526Z" stroke="#ED396C" stroke-width="1.3"/>
<path d="M11 25V14.8948H14.4V25H11Z" stroke="#ED396C" stroke-width="1.3"/>
<path d="M11 10.6842C11 9.75405 11.761 9 12.7 9C13.639 9 14.4 9.75405 14.4 10.6842C14.4 11.6144 13.639 12.3684 12.7 12.3684C11.761 12.3684 11 11.6144 11 10.6842Z" stroke="#ED396C" stroke-width="1.3"/>
</svg>
