<svg width="175" height="100" viewBox="0 0 175 100" fill="none" xmlns="http://www.w3.org/2000/svg">
<g clip-path="url(#clip0_10_25)">
<path d="M150.128 78.1122H1.01164C0.453216 78.1122 0 77.6589 0 77.1005C0 76.5421 0.453216 76.0889 1.01164 76.0889H150.128C150.686 76.0889 151.14 76.5421 151.14 77.1005C151.14 77.6589 150.686 78.1122 150.128 78.1122Z" fill="black"/>
<path d="M35.5502 63.3534L35.3155 64.8354C35.8001 64.5714 36.2695 64.5127 36.8117 64.5127C39.0859 64.5127 40.4061 66.3316 40.4061 68.1657C40.4061 70.19 38.8218 72.097 36.2401 72.097C34.142 72.097 32.4849 70.9235 32.1035 68.972H34.8906C35.184 69.3979 35.6392 69.6468 36.1673 69.6468C36.9594 69.6468 37.6342 69.0165 37.6342 68.2092C37.6342 67.402 36.9746 66.7859 36.1521 66.7859C35.4622 66.7859 35.0079 67.0934 34.7287 67.7247L32.4839 67.1673L33.4227 61.0205H39.4228V63.3534H35.5502Z" fill="#E21E26"/>
<path d="M44.0723 67.3137V65.2894H44.2635C45.5402 65.2894 45.9064 64.9222 45.9064 64.2039C45.9064 63.6314 45.613 63.25 45.1285 63.25C44.6004 63.25 44.307 63.5433 44.2918 64.1888H41.5634C41.5634 62.1645 43.1183 60.8149 45.2751 60.8149C47.1528 60.8149 48.6783 62.0036 48.6783 63.778C48.6783 64.8484 48.1644 65.5676 47.2408 66.0522C48.5903 66.5216 49.2802 67.4311 49.2802 68.6784C49.2802 70.6147 47.3733 72.0816 45.261 72.0816C43.6029 72.0816 41.3884 71.2602 41.2711 68.6339H44.0733C44.2352 69.2945 44.6459 69.6456 45.3348 69.6456C46.0834 69.6456 46.5083 69.1762 46.5083 68.4276C46.5083 67.6789 46.0824 67.3127 44.7329 67.3127H44.0723V67.3137Z" fill="#E21E26"/>
<path d="M56.3061 71.8764V63.4565H54.1644V61.0215H61.2055V63.4565H59.078V71.8764H56.3051H56.3061Z" fill="black"/>
<path d="M62.3203 71.8764V61.0215H65.0932V71.8764H62.3203Z" fill="black"/>
<path d="M75.9624 71.8764L76.0504 63.7499L76.021 63.7206L73.7034 71.8764H71.8692L69.5222 63.6467L69.6102 71.8764H67.0579V61.0215H70.6229L72.7797 68.1657H72.8091L74.9365 61.0215H78.5157V71.8764H75.9634H75.9624Z" fill="black"/>
<path d="M80.4803 71.8764V61.0215H86.5097V63.4565H83.1359V65.1439H86.4076V67.579H83.1359V69.4424H86.5097V71.8774H80.4803V71.8764Z" fill="black"/>
<path d="M100.239 71.8764L98.61 64.8495H98.5806L96.9519 71.8764H94.443L91.6407 61.0215H94.4572L95.9099 68.0777H95.9392L97.5376 61.0215H99.6651L101.235 68.107H101.265L102.746 61.0215H105.548L102.673 71.8764H100.238H100.239Z" fill="black"/>
<path d="M106.781 71.8764V61.0215H109.554V71.8764H106.781Z" fill="black"/>
<path d="M118.267 71.8764L114.101 65.2461L114.174 71.8764H111.519V61.0215H113.91L118.135 67.8865L118.017 61.0215H120.673V71.8764H118.267Z" fill="black"/>
<path d="M129.4 71.8764L125.234 65.2461L125.307 71.8764H122.652V61.0215H125.043L129.268 67.8865L129.151 61.0215H131.806V71.8764H129.4Z" fill="black"/>
<path d="M133.786 71.8764V61.0215H139.815V63.4565H136.441V65.1439H139.713V67.579H136.441V69.4424H139.815V71.8774H133.786V71.8764Z" fill="black"/>
<path d="M146.724 71.8764L144.215 68.3701H144.186V71.8764H141.53V61.0215H145.08C146.21 61.0215 147.075 61.1682 147.647 61.418C148.821 61.9461 149.642 63.2218 149.642 64.7625C149.642 66.4793 148.616 67.8875 146.943 68.1809L149.892 71.8774H146.724V71.8764ZM145.212 66.4783C146.313 66.4783 146.988 65.9644 146.988 64.9234C146.988 63.9846 146.284 63.4565 145.242 63.4565H144.186V66.4783H145.212Z" fill="black"/>
<path d="M75.7924 57.3268H28.2694V0H75.7924" fill="#E11F26"/>
<path d="M70.7069 26.4533H63.16V36.0518C63.16 37.0371 62.7493 37.4468 61.9298 37.4468C61.1104 37.4468 60.6997 37.0371 60.6997 36.0518V11.1957C60.6997 10.3753 61.1094 9.88258 61.9298 9.88258C62.7503 9.88258 63.16 10.3742 63.16 11.1957V19.8918H70.7069V11.5245C70.7069 7.42226 68.6563 4.46826 62.2576 4.46826C55.859 4.46826 52.7421 6.92959 52.7421 11.5245V35.724C52.7421 40.3998 55.86 42.8622 62.2576 42.8622C68.6552 42.8622 70.7069 39.9082 70.7069 35.724V26.4533ZM51.1012 11.6874C51.1012 7.09348 48.8867 4.63215 43.6363 4.63215H33.4632V42.6973H41.4208V28.0123H43.6363C48.8867 28.0123 51.1012 25.5509 51.1012 20.957V11.6863V11.6874ZM41.4208 22.516V10.1294C43.2256 10.1294 43.9641 10.6211 43.9641 12.262V20.3834C43.9641 22.0243 43.2256 22.516 41.4208 22.516Z" fill="white"/>
<path d="M35.2467 49.7062H34.7955V52.3011H33.5016V45.4998H35.1233C36.3625 45.4998 37.0535 46.0754 37.0535 47.5808C37.0535 49.166 36.407 49.7062 35.2467 49.7062ZM34.9988 46.4032H34.7955V48.7492H35.0777C35.4763 48.7492 35.7161 48.4214 35.7161 47.5899C35.7161 46.7583 35.5036 46.4032 34.9988 46.4032ZM39.4551 52.4245C37.9063 52.4245 37.445 51.5828 37.445 49.0143C37.445 46.4457 37.8709 45.3926 39.4035 45.3926C40.9362 45.3926 41.1395 46.3759 41.1395 47.4735C41.1395 47.686 41.1213 47.8893 41.1031 48.0229L39.8982 48.0583C39.9164 47.8812 39.9255 47.6516 39.9255 47.5271C39.9255 46.6855 39.8284 46.2424 39.4035 46.2424C38.8896 46.2424 38.7834 46.7037 38.7834 48.9617C38.7834 51.0952 38.8451 51.5383 39.448 51.5383C39.9437 51.5383 40.0237 50.9981 40.0237 50.1928C40.0237 50.0067 40.0146 49.7234 39.9882 49.4938L41.1658 49.5292C41.1931 49.7062 41.2012 49.9278 41.2012 50.1058C41.2012 51.6547 40.7945 52.4255 39.4561 52.4255M45.4339 52.3011V49.2105C45.4339 48.1837 45.4511 47.9622 45.4602 47.3157C45.3894 47.9622 45.3722 48.4396 45.2478 49.2105C45.0799 50.2464 44.7258 52.3011 44.7258 52.3011H43.6362C43.6362 52.3011 43.2811 50.2464 43.1132 49.2105C42.9898 48.4488 42.9281 47.9885 42.8836 47.3157C42.9099 47.9885 42.9099 48.1837 42.9099 49.2105V52.3011H41.7323V45.4998H43.3874C43.6089 46.7573 43.8123 48.121 43.9802 49.0244C44.051 49.4321 44.0783 49.6101 44.1663 50.1574C44.2463 49.6172 44.2908 49.3876 44.3525 49.0335C44.5194 48.1311 44.741 46.7401 44.9716 45.4998H46.6105V52.3011H45.4329H45.4339ZM49.6697 52.3011L49.439 51.0527H48.4567L48.2433 52.3011H47.0131L48.3151 45.4735H49.6262L51.0344 52.3011H49.6707H49.6697ZM49.0414 48.3516C48.9888 47.9348 48.9524 47.5373 48.9352 47.3066C48.917 47.5373 48.8907 47.9348 48.8371 48.3425C48.7309 49.1832 48.6166 50.1129 48.6166 50.1129H49.2721C49.2721 50.1129 49.1477 49.1832 49.0414 48.3516ZM54.4163 52.3011L54.1239 51.7791C53.9024 52.1514 53.6808 52.4255 53.0617 52.4255C51.7415 52.4255 51.1396 51.7083 51.1396 49.1225C51.1396 46.1463 51.6798 45.3936 53.1406 45.3936C54.4608 45.3936 54.8321 46.1554 54.8321 47.4573C54.8321 47.5727 54.823 47.7851 54.8139 47.8731L53.6009 47.9095C53.6181 47.776 53.6181 47.6354 53.6181 47.4847C53.6181 46.7047 53.5119 46.2444 53.1224 46.2444C52.5468 46.2444 52.476 46.7148 52.476 49.0871C52.476 51.2652 52.6186 51.5403 53.1224 51.5403C53.69 51.5403 53.8225 51.0972 53.8225 50.1675C53.8225 50.0441 53.8225 49.9551 53.8134 49.7254H53.1396V48.7421H54.9373V52.3011H54.4153H54.4163ZM55.4968 50.7958H56.905V52.3011H55.4968V50.7958ZM59.2864 52.4255C57.7365 52.4255 57.2762 51.5838 57.2762 49.0153C57.2762 46.4467 57.7011 45.3936 59.2338 45.3936C60.7664 45.3936 60.9697 46.3769 60.9697 47.4745C60.9697 47.687 60.9515 47.8903 60.9343 48.0239L59.7295 48.0593C59.7477 47.8822 59.7568 47.6526 59.7568 47.5282C59.7568 46.6865 59.6587 46.2434 59.2338 46.2434C58.7198 46.2434 58.6136 46.7047 58.6136 48.9627C58.6136 51.0962 58.6753 51.5393 59.2783 51.5393C59.774 51.5393 59.8549 50.9991 59.8549 50.1938C59.8549 50.0077 59.8458 49.7244 59.8185 49.4948L60.9971 49.5302C61.0234 49.7072 61.0325 49.9288 61.0325 50.1068C61.0325 51.6557 60.6258 52.4265 59.2874 52.4265M63.3876 52.4265C62.0148 52.4265 61.4128 51.7973 61.4128 48.9111C61.4128 46.0249 62.0148 45.3946 63.3876 45.3946C64.7604 45.3946 65.3704 46.1473 65.3704 48.9111C65.3704 51.6749 64.7594 52.4265 63.3876 52.4265ZM63.3876 46.2444C62.7947 46.2444 62.7492 46.909 62.7492 48.9111C62.7492 50.9131 62.8109 51.5403 63.3876 51.5403C63.9642 51.5403 64.034 50.9819 64.034 48.9111C64.034 46.8402 63.9794 46.2444 63.3876 46.2444ZM69.5596 52.3021V49.2115C69.5596 48.1847 69.5778 47.9632 69.5859 47.3167C69.5161 47.9632 69.4979 48.4407 69.3735 49.2115C69.2055 50.2475 68.8515 52.3021 68.8515 52.3021H67.7619C67.7619 52.3021 67.4078 50.2475 67.2399 49.2115C67.1155 48.4498 67.0538 47.9895 67.0093 47.3167C67.0356 47.9895 67.0356 48.1847 67.0356 49.2115V52.3021H65.858V45.5008H67.5131C67.7346 46.7583 67.939 48.122 68.1069 49.0254C68.1767 49.4331 68.204 49.6111 68.292 50.1584C68.3709 49.6182 68.4165 49.3886 68.4782 49.0345C68.6461 48.1321 68.8676 46.7411 69.0973 45.5008H70.7362V52.3021H69.5586H69.5596Z" fill="white"/>
<path d="M174.426 28.6639L156.388 0H77.6741V57.3268H156.388L174.426 28.6639Z" fill="#E11F26"/>
<path d="M169.867 3.28885C169.867 5.15331 168.404 6.61817 166.498 6.61817C164.592 6.61817 163.109 5.15433 163.109 3.28885C163.109 1.42338 164.614 0 166.498 0C168.383 0 169.867 1.46385 169.867 3.28885ZM163.951 3.28885C163.951 4.7527 165.036 5.91609 166.519 5.91609C168.002 5.91609 169.026 4.7527 169.026 3.30909C169.026 1.86547 167.963 0.661615 166.498 0.661615C165.034 0.661615 163.951 1.84524 163.951 3.28885ZM165.977 5.01371H165.215V1.72485C165.515 1.66415 165.936 1.6247 166.478 1.6247C167.098 1.6247 167.38 1.72485 167.621 1.86547C167.801 2.00609 167.941 2.26608 167.941 2.58677C167.941 2.94793 167.66 3.22816 167.26 3.34955V3.39002C167.58 3.5104 167.762 3.75118 167.861 4.19225C167.962 4.69403 168.021 4.89433 168.103 5.01472H167.279C167.18 4.89433 167.12 4.59388 167.018 4.21249C166.96 3.85133 166.758 3.69048 166.338 3.69048H165.976V5.01371H165.977ZM165.997 3.14925H166.358C166.779 3.14925 167.121 3.00863 167.121 2.66872C167.121 2.36725 166.9 2.16694 166.418 2.16694C166.217 2.16694 166.078 2.18717 165.998 2.20741V3.14925H165.997Z" fill="#231F20"/>
<path d="M83.7075 27.0926V13.6924H90.9327V15.485H85.663V19.4325H90.9327V21.2251H85.663V25.299H90.9327V27.0916H83.7075V27.0926Z" fill="white"/>
<path d="M93.1239 27.0926V13.6924H97.7775C101.834 13.6924 104.315 16.8973 104.315 20.3925C104.315 24.4846 101.725 27.0926 97.4881 27.0926H93.1239ZM97.4153 25.3C100.512 25.3 102.359 23.4891 102.359 20.4289C102.359 17.3687 100.241 15.485 97.5063 15.485H95.0794V25.3H97.4153Z" fill="white"/>
<path d="M106.561 27.0926V13.6924H108.516V27.0926H106.561Z" fill="white"/>
<path d="M112.555 27.0926V15.485H109.983V13.6924H117.082V15.485H114.51V27.0926H112.555Z" fill="white"/>
<path d="M124.506 27.3465C120.793 27.3465 117.643 24.1598 117.643 20.5382C117.643 16.4278 120.794 13.4395 124.561 13.4395C128.545 13.4395 131.587 16.5725 131.587 20.3024C131.587 24.3591 128.453 27.3465 124.506 27.3465ZM129.631 20.4289C129.631 17.658 127.531 15.2321 124.705 15.2321C121.084 15.2321 119.599 18.3469 119.599 20.3389C119.599 23.0369 121.554 25.5539 124.614 25.5539C127.675 25.5539 129.63 22.874 129.63 20.4289H129.631Z" fill="white"/>
<path d="M139.862 27.0926L135.443 20.8811H135.407V27.0926H133.451V13.6924H137.742C140.966 13.6924 142.396 15.395 142.396 18.1467C142.396 20.7 140.44 22.0395 138.557 22.0941L142.305 27.0916H139.86L139.862 27.0926ZM136.838 20.61C139.119 20.61 140.442 19.7228 140.442 17.9838C140.442 16.4451 139.21 15.485 137.471 15.485H135.407V20.61H136.837H136.838Z" fill="white"/>
<path d="M149.368 17.1694C149.368 15.9564 148.589 15.2321 147.484 15.2321C146.543 15.2321 145.692 16.0829 145.692 17.0611C145.692 18.0394 146.325 18.5462 147.629 18.962C150.526 19.8856 151.595 20.9722 151.595 23.2898C151.595 25.6075 149.857 27.3465 147.484 27.3465C145.112 27.3465 143.392 25.6439 143.356 23.127H145.311C145.33 24.5756 146.18 25.5539 147.484 25.5539C148.788 25.5539 149.639 24.612 149.639 23.2898C149.639 22.3116 149.204 21.6965 147.774 21.2079C144.46 20.0849 143.735 18.9984 143.735 17.0976C143.735 15.051 145.42 13.4395 147.483 13.4395C149.693 13.4395 151.286 14.8335 151.323 17.1694H149.367H149.368Z" fill="white"/>
<path d="M153.641 17.0794C154.076 16.9347 154.311 16.7354 154.311 15.9018H153.641V13.6924H155.525V15.7389C155.525 17.0966 154.927 17.9666 153.641 18.2195V17.0784V17.0794Z" fill="white"/>
<path d="M96.184 40.0671C94.8264 42.403 92.6706 43.6341 89.9907 43.6341C86.278 43.6341 83.2178 40.3018 83.2178 36.7347C83.2178 32.6962 86.4045 29.7271 90.0089 29.7271C92.5441 29.7271 94.9164 30.8864 96.274 33.4034H93.92C92.9063 32.2258 91.7287 31.5197 90.1536 31.5197C87.3463 31.5197 85.1743 33.892 85.1743 36.5536C85.1743 39.3609 87.2927 41.8415 90.0454 41.8415C91.4394 41.8415 92.6888 41.2982 93.7763 40.0671H96.185H96.184Z" fill="white"/>
<path d="M105.529 43.3802V37.5491H100.005V43.3802H98.0496V29.98H100.005V35.7565H105.529V29.98H107.484V43.3802H105.529Z" fill="white"/>
<path d="M116.375 43.6341C112.663 43.6341 109.512 40.4474 109.512 36.8258C109.512 32.7154 112.664 29.7271 116.43 29.7271C120.414 29.7271 123.456 32.8601 123.456 36.59C123.456 40.6467 120.323 43.6341 116.375 43.6341ZM121.5 36.7165C121.5 33.9456 119.4 31.5197 116.575 31.5197C112.953 31.5197 111.468 34.6345 111.468 36.6265C111.468 39.3245 113.423 41.8415 116.484 41.8415C119.544 41.8415 121.499 39.1616 121.499 36.7165H121.5Z" fill="white"/>
<path d="M125.501 43.3802V29.98H127.457V43.3802H125.501Z" fill="white"/>
<path d="M142.452 40.0671C141.094 42.403 138.938 43.6341 136.258 43.6341C132.546 43.6341 129.485 40.3018 129.485 36.7347C129.485 32.6962 132.672 29.7271 136.277 29.7271C138.812 29.7271 141.184 30.8864 142.542 33.4034H140.188C139.174 32.2258 137.996 31.5197 136.421 31.5197C133.614 31.5197 131.441 33.892 131.441 36.5536C131.441 39.3609 133.559 41.8415 136.312 41.8415C137.706 41.8415 138.955 41.2982 140.042 40.0671H142.451H142.452Z" fill="white"/>
<path d="M144.135 43.3802V29.98H151.36V31.7726H146.091V35.72H151.36V37.5127H146.091V41.5876H151.36V43.3802H144.135Z" fill="white"/>
<path d="M33.4713 86.9718V81.8033H32.1561V80.3081H36.4779V81.8033H35.1718V86.9718H33.4703H33.4713Z" fill="black"/>
<path d="M40.2331 86.9718V84.2252C40.2331 83.5767 39.9812 83.2075 39.4318 83.2075C38.8825 83.2075 38.5942 83.5403 38.5942 84.1615V86.9708H37.099V80.3081H38.5942V82.4508C38.8107 82.0451 39.2963 81.8023 39.8911 81.8023C41.0343 81.8023 41.7283 82.5226 41.7283 83.8286V86.9708H40.2331V86.9718Z" fill="black"/>
<path d="M43.9964 84.9277C44.0773 85.4952 44.5548 85.8736 45.1669 85.8736C45.5715 85.8736 45.8336 85.7208 46.0763 85.4052H47.607C47.1295 86.4947 46.22 87.1341 45.1669 87.1341C43.7263 87.1341 42.5194 85.9727 42.5194 84.4866C42.5194 83.0005 43.6717 81.8037 45.1396 81.8037C46.6075 81.8037 47.7779 82.9833 47.7779 84.5321C47.7779 84.6758 47.7688 84.7931 47.7415 84.9287H43.9954L43.9964 84.9277ZM46.2837 83.9191C46.1664 83.4062 45.7162 83.0632 45.1406 83.0632C44.6004 83.0632 44.132 83.3869 44.0156 83.9191H46.2847H46.2837Z" fill="black"/>
<path d="M56.9171 86.9723L56.9708 81.9838L56.9525 81.9656L55.5302 86.9723H54.4052L52.9647 81.9211L53.0183 86.9723H51.4512V80.3096H53.6394L54.9626 84.6951H54.9809L56.2869 80.3096H58.4842V86.9723H56.9171Z" fill="black"/>
<path d="M62.0846 87.1247C60.5631 87.1247 59.3926 85.9987 59.3926 84.4681C59.3926 82.9375 60.5904 81.8115 62.0846 81.8115C63.5788 81.8115 64.7766 82.9365 64.7766 84.4499C64.7766 85.9633 63.5879 87.1237 62.0846 87.1237V87.1247ZM63.2824 84.4681C63.2824 83.8014 62.7786 83.2076 62.0755 83.2076C61.4179 83.2076 60.8868 83.7842 60.8868 84.4681C60.8868 85.152 61.4088 85.7286 62.0846 85.7286C62.7604 85.7286 63.2824 85.1348 63.2824 84.4681Z" fill="black"/>
<path d="M67.7478 83.3789C67.7387 83.0906 67.5313 83.0006 67.2885 83.0006C67.0457 83.0006 66.8565 83.1442 66.8565 83.3334C66.8565 83.6035 67.0993 83.7391 67.7933 83.9191C68.982 84.2338 69.3694 84.7112 69.3694 85.4406C69.3694 86.4857 68.4691 87.1422 67.334 87.1422C66.199 87.1422 65.4068 86.5029 65.2986 85.4852H66.7847C66.8292 85.8008 67.0548 85.9444 67.3522 85.9444C67.6132 85.9444 67.8742 85.7917 67.8742 85.557C67.8742 85.2778 67.7033 85.1341 66.9557 84.8994C65.6951 84.512 65.3623 84.0173 65.3623 83.4315C65.3623 82.4411 66.29 81.8018 67.2986 81.8018C68.379 81.8018 69.1449 82.3956 69.2167 83.3779H67.7488L67.7478 83.3789Z" fill="black"/>
<path d="M70.4125 86.9723V83.1098H69.674V81.9758H70.4125V80.3096H71.9066V81.9758H72.6269V83.1098H71.9066V86.9723H70.4125Z" fill="black"/>
<path d="M80.2355 86.9723L79.9108 86.0092H77.5972L77.2461 86.9723H75.4181L78.0919 80.3096H79.4333L82.0808 86.9723H80.2345H80.2355ZM78.7767 82.3895L78.7494 82.3804L78.0656 84.6586H79.4606L78.7767 82.3895Z" fill="black"/>
<path d="M86.2234 86.9721L85.3857 83.7399H85.3675L84.5299 86.9721H83.1429L81.6123 81.9746H83.1611L83.9087 85.0814H83.9269L84.7464 81.9746H86.0069L86.8354 85.0814H86.8536L87.6012 81.9746H89.141L87.6012 86.9721H86.2234Z" fill="black"/>
<path d="M93.3181 86.9722V86.4319H93.2999C93.0834 86.873 92.4896 87.1431 91.832 87.1431C90.355 87.1431 89.3292 85.9818 89.3292 84.4694C89.3292 82.9569 90.4006 81.8047 91.832 81.8047C92.4441 81.8047 93.0116 82.0475 93.2999 82.5068H93.3181V81.9757H94.8123V86.9732H93.3181V86.9722ZM93.3181 84.4694C93.3181 83.7673 92.7506 83.1997 92.0485 83.1997C91.3464 83.1997 90.8244 83.7673 90.8244 84.4876C90.8244 85.2079 91.3738 85.7481 92.0667 85.7481C92.7597 85.7481 93.3181 85.1896 93.3181 84.4694Z" fill="black"/>
<path d="M95.8927 86.9722V81.9747H97.2969V82.5058H97.3151C97.5761 81.9747 97.9909 81.8037 98.5665 81.8037V83.307C97.6753 83.3161 97.3869 83.6489 97.3869 84.2165V86.9722H95.8917H95.8927Z" fill="black"/>
<path d="M102.88 86.9718V86.4316H102.862C102.583 86.8909 102.079 87.1337 101.368 87.1337C99.8554 87.1337 98.865 85.9723 98.865 84.4599C98.865 82.9475 99.8827 81.8033 101.341 81.8033C101.918 81.8033 102.386 81.9743 102.809 82.3971V80.3081H104.305V86.9708H102.882L102.88 86.9718ZM102.889 84.4508C102.889 83.7578 102.358 83.1994 101.62 83.1994C100.881 83.1994 100.359 83.7214 100.359 84.4508C100.359 85.1802 100.89 85.7386 101.611 85.7386C102.331 85.7386 102.889 85.1893 102.889 84.4508Z" fill="black"/>
<path d="M106.59 84.9277C106.671 85.4952 107.148 85.8736 107.76 85.8736C108.166 85.8736 108.427 85.7208 108.67 85.4052H110.2C109.723 86.4947 108.813 87.1341 107.76 87.1341C106.32 87.1341 105.113 85.9727 105.113 84.4866C105.113 83.0005 106.265 81.8037 107.733 81.8037C109.201 81.8037 110.371 82.9833 110.371 84.5321C110.371 84.6758 110.362 84.7931 110.335 84.9287H106.589L106.59 84.9277ZM108.877 83.9191C108.76 83.4062 108.31 83.0632 107.734 83.0632C107.194 83.0632 106.725 83.3869 106.609 83.9191H108.878H108.877Z" fill="black"/>
<path d="M114.98 86.9718V86.4316H114.962C114.683 86.8909 114.179 87.1337 113.468 87.1337C111.956 87.1337 110.965 85.9723 110.965 84.4599C110.965 82.9475 111.983 81.8033 113.442 81.8033C114.018 81.8033 114.486 81.9743 114.91 82.3971V80.3081H116.405V86.9708H114.982L114.98 86.9718ZM114.99 84.4508C114.99 83.7578 114.458 83.1994 113.72 83.1994C112.981 83.1994 112.459 83.7214 112.459 84.4508C112.459 85.1802 112.991 85.7386 113.711 85.7386C114.431 85.7386 114.99 85.1893 114.99 84.4508Z" fill="black"/>
<path d="M125.155 82.8382C124.866 82.1089 124.236 81.6769 123.543 81.6769C122.481 81.6769 121.76 82.5864 121.76 83.6213C121.76 84.6562 122.499 85.6021 123.552 85.6021C124.227 85.6021 124.804 85.2237 125.155 84.4761H126.937C126.523 86.0785 125.145 87.0963 123.569 87.0963C122.642 87.0963 121.769 86.7725 121.084 86.0968C120.363 85.3947 120.057 84.5479 120.057 83.5393C120.057 81.774 121.578 80.1807 123.487 80.1807C124.406 80.1807 125.144 80.4326 125.81 81.0001C126.44 81.5403 126.819 82.1524 126.935 82.8372H125.153L125.155 82.8382Z" fill="black"/>
<path d="M130.215 87.1247C128.693 87.1247 127.523 85.9987 127.523 84.4681C127.523 82.9375 128.721 81.8115 130.215 81.8115C131.709 81.8115 132.907 82.9365 132.907 84.4499C132.907 85.9633 131.718 87.1237 130.215 87.1237V87.1247ZM131.413 84.4681C131.413 83.8014 130.909 83.2076 130.206 83.2076C129.548 83.2076 129.017 83.7842 129.017 84.4681C129.017 85.152 129.539 85.7286 130.215 85.7286C130.891 85.7286 131.413 85.1348 131.413 84.4681Z" fill="black"/>
<path d="M136.887 86.9722V84.1992C136.887 83.5235 136.653 83.2088 136.104 83.2088C135.501 83.2088 135.248 83.5417 135.248 84.2175V86.9732H133.752V81.9757H135.148V82.5068H135.166C135.48 81.9939 135.921 81.8047 136.525 81.8047C137.426 81.8047 138.38 82.3085 138.38 83.7855V86.9732H136.884L136.887 86.9722Z" fill="black"/>
<path d="M141.568 83.3789C141.559 83.0906 141.352 83.0006 141.109 83.0006C140.866 83.0006 140.677 83.1442 140.677 83.3334C140.677 83.6035 140.92 83.7391 141.614 83.9191C142.803 84.2338 143.19 84.7112 143.19 85.4406C143.19 86.4857 142.29 87.1422 141.155 87.1422C140.02 87.1422 139.228 86.5029 139.119 85.4852H140.605C140.651 85.8008 140.875 85.9444 141.173 85.9444C141.434 85.9444 141.695 85.7917 141.695 85.557C141.695 85.2778 141.524 85.1341 140.776 84.8994C139.516 84.512 139.183 84.0173 139.183 83.4315C139.183 82.4411 140.111 81.8018 141.119 81.8018C142.2 81.8018 142.965 82.3956 143.037 83.3779H141.569L141.568 83.3789Z" fill="black"/>
<path d="M147.151 86.9721V86.441H147.132C146.916 86.9003 146.52 87.134 145.845 87.134C144.792 87.134 143.917 86.5037 143.917 85.0814V81.9746H145.413V84.7748C145.413 85.4324 145.646 85.7379 146.214 85.7379C146.781 85.7379 147.07 85.3596 147.07 84.7475V81.9746H148.565V86.9721H147.152H147.151Z" fill="black"/>
<path d="M155.821 86.9722V84.2802C155.821 83.4972 155.569 83.2089 155.056 83.2089C154.488 83.2089 154.227 83.5509 154.227 84.2084V86.9722H152.733V84.2165C152.733 83.5681 152.499 83.2079 151.985 83.2079C151.4 83.2079 151.139 83.5863 151.139 84.2792V86.9712H149.643V81.9737H151.038V82.5048H151.057C151.318 82.0364 151.795 81.8027 152.435 81.8027C153.074 81.8027 153.56 82.1265 153.875 82.694C154.235 82.1265 154.776 81.8027 155.459 81.8027C156.576 81.8027 157.315 82.4866 157.315 83.8827V86.9712H155.82L155.821 86.9722Z" fill="black"/>
<path d="M159.575 84.9277C159.656 85.4952 160.133 85.8736 160.745 85.8736C161.15 85.8736 161.412 85.7208 161.655 85.4052H163.185C162.708 86.4947 161.798 87.1341 160.745 87.1341C159.305 87.1341 158.098 85.9727 158.098 84.4866C158.098 83.0005 159.25 81.8037 160.718 81.8037C162.186 81.8037 163.356 82.9833 163.356 84.5321C163.356 84.6758 163.347 84.7931 163.32 84.9287H159.574L159.575 84.9277ZM161.862 83.9191C161.745 83.4062 161.294 83.0632 160.719 83.0632C160.179 83.0632 159.71 83.3869 159.594 83.9191H161.863H161.862Z" fill="black"/>
<path d="M164.176 86.9722V81.9747H165.58V82.5058H165.598C165.859 81.9747 166.273 81.8037 166.849 81.8037V83.307C165.958 83.3161 165.67 83.6489 165.67 84.2165V86.9722H164.175H164.176Z" fill="black"/>
<path d="M32.7115 93.0582C32.6397 92.5807 32.4414 92.4097 32.1086 92.4097C31.793 92.4097 31.5229 92.6353 31.5229 92.9317C31.5229 93.3283 31.883 93.5084 32.6124 93.823C34.0803 94.4532 34.4495 94.9843 34.4495 95.8574C34.4495 97.1452 33.5674 97.9009 32.1268 97.9009C30.6862 97.9009 29.7231 97.1442 29.7231 95.7127V95.5691H31.4156C31.4247 96.1184 31.6948 96.4785 32.1177 96.4785C32.4687 96.4785 32.7571 96.1993 32.7571 95.8392C32.7571 95.3081 32.0186 95.0734 31.4156 94.8306C30.3261 94.3895 29.8304 93.8129 29.8304 92.9489C29.8304 91.8149 30.929 90.9863 32.1531 90.9863C32.5942 90.9863 32.9816 91.0855 33.3327 91.2655C34.0439 91.6348 34.3858 92.1659 34.3949 93.0572H32.7115V93.0582Z" fill="black"/>
<path d="M36.5375 95.7319C36.6185 96.2994 37.096 96.6778 37.708 96.6778C38.1127 96.6778 38.3747 96.525 38.6175 96.2094H40.1481C39.6706 97.2989 38.7611 97.9383 37.708 97.9383C36.2674 97.9383 35.0605 96.7769 35.0605 95.2908C35.0605 93.8047 36.2128 92.6079 37.6807 92.6079C39.1486 92.6079 40.3191 93.7875 40.3191 95.3363C40.3191 95.48 40.31 95.5973 40.2827 95.7329H36.5365L36.5375 95.7319ZM38.8249 94.7233C38.7075 94.2104 38.2573 93.8674 37.6817 93.8674C37.1415 93.8674 36.6731 94.1911 36.5568 94.7233H38.8259H38.8249Z" fill="black"/>
<path d="M44.6772 94.7051C44.4608 94.2367 44.0743 94.003 43.5604 94.003C42.8765 94.003 42.4081 94.5705 42.4081 95.2726C42.4081 95.9747 42.9038 96.5422 43.5968 96.5422C44.1006 96.5422 44.4527 96.3085 44.6772 95.8756H46.1988C45.9013 97.127 44.83 97.9373 43.5513 97.9373C42.0743 97.9373 40.9038 96.7395 40.9038 95.2635C40.9038 93.7875 42.0834 92.6069 43.524 92.6069C44.8381 92.6069 45.9104 93.4355 46.1886 94.7051H44.6762H44.6772Z" fill="black"/>
<path d="M50.2322 97.7754V97.2442H50.214C49.9975 97.7035 49.6019 97.9372 48.9261 97.9372C47.873 97.9372 46.999 97.307 46.999 95.8846V92.7778H48.4932V95.5781C48.4932 96.2356 48.7269 96.5411 49.2944 96.5411C49.8619 96.5411 50.1502 96.1628 50.1502 95.5508V92.7778H51.6454V97.7754H50.2322Z" fill="black"/>
<path d="M52.7168 97.7754V92.7779H54.1209V93.309H54.1391C54.4001 92.7779 54.8139 92.6069 55.3905 92.6069V94.1102C54.4993 94.1193 54.211 94.4522 54.211 95.0197V97.7754H52.7158H52.7168Z" fill="black"/>
<path d="M56.1827 92.2478V91.1138H57.6779V92.2478H56.1827ZM56.1827 97.7765V92.7789H57.6779V97.7765H56.1827Z" fill="black"/>
<path d="M59.1003 97.7755V93.913H58.3618V92.779H59.1003V91.1128H60.5944V92.779H61.3147V93.913H60.5944V97.7755H59.1003Z" fill="black"/>
<path d="M62.4943 99.4415L63.2864 97.5235L61.4321 92.7778H63.0254L64.0249 95.6772H64.0431L64.9971 92.7778H66.5823L64.0795 99.4405H62.4953L62.4943 99.4415Z" fill="black"/>
<path d="M69.9764 97.7755V91.1128H72.11C72.5875 91.1128 72.9385 91.1401 73.1722 91.1937C73.9289 91.3647 74.5592 91.9504 74.5592 92.8508C74.5592 93.4183 74.2891 93.9221 73.7853 94.2013C74.5147 94.4532 74.8839 94.9844 74.8839 95.7502C74.8839 96.3895 74.6138 96.9743 74.11 97.3263C73.588 97.6956 73.2461 97.7765 72.1919 97.7765H69.9764V97.7755ZM72.282 93.6429C72.7048 93.6429 72.9304 93.4628 72.9304 93.1118C72.9304 92.7608 72.7139 92.608 72.2911 92.608H71.6072V93.6439H72.282V93.6429ZM72.4803 96.2813C72.9578 96.2813 73.2542 96.0739 73.2542 95.6419C73.2542 95.2545 72.9932 95.0653 72.4883 95.0653H71.6062V96.2813H72.4792H72.4803Z" fill="black"/>
<path d="M75.7297 97.7754V92.7779H77.1338V93.309H77.152C77.413 92.7779 77.8268 92.6069 78.4034 92.6069V94.1102C77.5122 94.1193 77.2238 94.4522 77.2238 95.0197V97.7754H75.7286H75.7297Z" fill="black"/>
<path d="M82.6897 97.7754V97.2352H82.6715C82.455 97.6762 81.8612 97.9464 81.2036 97.9464C79.7266 97.9464 78.7008 96.785 78.7008 95.2726C78.7008 93.7602 79.7721 92.6079 81.2036 92.6079C81.8157 92.6079 82.3832 92.8507 82.6715 93.31H82.6897V92.7789H84.1839V97.7764H82.6897V97.7754ZM82.6897 95.2726C82.6897 94.5705 82.1222 94.003 81.4201 94.003C80.718 94.003 80.196 94.5705 80.196 95.2908C80.196 96.0111 80.7453 96.5513 81.4383 96.5513C82.1313 96.5513 82.6897 95.9929 82.6897 95.2726Z" fill="black"/>
<path d="M88.4065 97.7754V95.0025C88.4065 94.3267 88.1728 94.0121 87.6235 94.0121C87.0206 94.0121 86.7677 94.3449 86.7677 95.0207V97.7764H85.2725V92.7789H86.6675V93.31H86.6857C87.0004 92.7971 87.4414 92.6079 88.0454 92.6079C88.9457 92.6079 89.8997 93.1117 89.8997 94.5887V97.7764H88.4045L88.4065 97.7754Z" fill="black"/>
<path d="M94.7455 97.7755V97.2353H94.7273C94.4481 97.6946 93.9443 97.9374 93.2321 97.9374C91.7197 97.9374 90.7292 96.776 90.7292 95.2636C90.7292 93.7512 91.747 92.607 93.2047 92.607C93.7814 92.607 94.2498 92.778 94.6726 93.2009V91.1118H96.1678V97.7745H94.7455V97.7755ZM94.7546 95.2545C94.7546 94.5615 94.2235 94.0031 93.485 94.0031C92.7465 94.0031 92.2245 94.5251 92.2245 95.2545C92.2245 95.9839 92.7556 96.5423 93.4759 96.5423C94.1962 96.5423 94.7546 95.993 94.7546 95.2545Z" fill="black"/>
<path d="M100.093 97.7755V91.1128H103.794V92.608H101.723V93.6439H103.731V95.1381H101.723V96.2813H103.794V97.7755H100.093Z" fill="black"/>
<path d="M106.189 97.7754L104.398 92.7778H105.946L106.9 95.8937H106.919L107.874 92.7778H109.422L107.622 97.7754H106.19H106.189Z" fill="black"/>
<path d="M111.14 95.7319C111.221 96.2994 111.699 96.6778 112.311 96.6778C112.715 96.6778 112.977 96.525 113.22 96.2094H114.751C114.273 97.2989 113.364 97.9383 112.311 97.9383C110.87 97.9383 109.663 96.7769 109.663 95.2908C109.663 93.8047 110.815 92.6079 112.283 92.6079C113.751 92.6079 114.922 93.7875 114.922 95.3363C114.922 95.48 114.913 95.5973 114.885 95.7329H111.139L111.14 95.7319ZM113.428 94.7233C113.31 94.2104 112.86 93.8674 112.284 93.8674C111.744 93.8674 111.276 94.1911 111.159 94.7233H113.429H113.428Z" fill="black"/>
<path d="M115.741 97.7754V92.7779H117.145V93.309H117.164C117.425 92.7779 117.838 92.6069 118.415 92.6069V94.1102C117.524 94.1193 117.235 94.4522 117.235 95.0197V97.7754H115.74H115.741Z" fill="black"/>
<path d="M121.801 97.7755V91.1128H123.296V93.1745C123.693 92.7517 124.196 92.607 124.718 92.607C126.015 92.607 127.203 93.5792 127.203 95.2454C127.203 96.7851 126.222 97.9464 124.682 97.9464C124.079 97.9464 123.475 97.6672 123.251 97.2444H123.232V97.7755H121.801ZM125.709 95.2727C125.709 94.606 125.196 94.0031 124.476 94.0031C123.755 94.0031 123.242 94.5706 123.242 95.2636C123.242 96.0021 123.765 96.5514 124.458 96.5514C125.152 96.5514 125.71 95.993 125.71 95.2727H125.709Z" fill="black"/>
<path d="M128.392 99.4415L129.184 97.5235L127.33 92.7778H128.923L129.922 95.6772H129.941L130.896 92.7778H132.48L129.977 99.4405H128.393L128.392 99.4415Z" fill="black"/>
<path d="M135.874 97.7756V91.1129H138.125C138.836 91.1038 139.367 91.2029 139.718 91.3648C140.438 91.6976 140.889 92.4634 140.889 93.3638C140.889 94.597 140.204 95.6865 138.296 95.6865H137.504V97.7756H135.874ZM138.233 94.1923C138.918 94.1923 139.26 93.9586 139.26 93.3911C139.26 92.8236 138.927 92.6081 138.17 92.6081H137.504V94.1923H138.233Z" fill="black"/>
<path d="M146.605 93.6429C146.317 92.9135 145.687 92.4816 144.994 92.4816C143.932 92.4816 143.211 93.391 143.211 94.426C143.211 95.4609 143.95 96.4067 145.003 96.4067C145.678 96.4067 146.254 96.0284 146.605 95.2808H148.388C147.974 96.8832 146.596 97.9009 145.02 97.9009C144.093 97.9009 143.22 97.5772 142.535 96.9014C141.814 96.1994 141.508 95.3526 141.508 94.344C141.508 92.5787 143.029 90.9854 144.938 90.9854C145.857 90.9854 146.595 91.2372 147.261 91.8048C147.891 92.345 148.27 92.957 148.386 93.6419H146.603L146.605 93.6429Z" fill="black"/>
<path d="M154.736 97.7755L154.79 92.7871L154.771 92.7689L153.349 97.7755H152.224L150.784 92.7243L150.838 97.7755H149.271V91.1128H151.459L152.783 95.4983H152.801L154.107 91.1128H156.304V97.7755H154.737H154.736Z" fill="black"/>
<path d="M161.2 97.7754V97.2352H161.182C160.966 97.6762 160.372 97.9464 159.714 97.9464C158.237 97.9464 157.212 96.785 157.212 95.2726C157.212 93.7602 158.283 92.6079 159.714 92.6079C160.326 92.6079 160.894 92.8507 161.182 93.31H161.2V92.7789H162.695V97.7764H161.2V97.7754ZM161.2 95.2726C161.2 94.5705 160.633 94.003 159.931 94.003C159.229 94.003 158.707 94.5705 158.707 95.2908C158.707 96.0111 159.256 96.5513 159.949 96.5513C160.642 96.5513 161.2 95.9929 161.2 95.2726Z" fill="black"/>
<path d="M167.458 97.1908C167.233 97.6683 166.674 97.9384 166.062 97.9384C164.604 97.9384 163.551 96.8125 163.551 95.3092C163.551 93.8059 164.622 92.6172 166.062 92.6172C166.711 92.6172 167.206 92.86 167.449 93.2474H167.468V92.779H168.962V97.2455C168.962 97.9202 168.872 98.4341 168.692 98.7761C168.332 99.4691 167.35 100 166.099 100C164.686 100 163.767 99.1989 163.641 98.244H165.369C165.54 98.6132 165.873 98.7386 166.243 98.7386C166.999 98.7386 167.459 98.244 167.459 97.3345V97.1908H167.458ZM167.467 95.3001C167.467 94.5707 166.971 94.0122 166.242 94.0122C165.575 94.0122 165.044 94.5707 165.044 95.2545C165.044 95.9384 165.521 96.5424 166.242 96.5424C166.962 96.5424 167.467 96.0204 167.467 95.3001Z" fill="black"/>
</g>
<defs>
<clipPath id="clip0_10_25">
<rect width="174.426" height="100" fill="white"/>
</clipPath>
</defs>
</svg>
