<svg width="131" height="100" viewBox="0 0 131 100" fill="none" xmlns="http://www.w3.org/2000/svg">
<g clip-path="url(#clip0_14_140)">
<path d="M130.897 0H0V86.0007H130.897V0Z" fill="#333399"/>
<path d="M128.527 2.14795H2.54797V37.3265H128.527V2.14795Z" fill="white"/>
<path d="M45.0053 6.04395C47.5039 6.04395 49.2372 7.28833 50.2198 9.77709L49.2767 10.1425C48.536 7.96978 47.1138 6.88835 45.0053 6.88835C43.672 6.88835 42.6399 7.23401 41.8992 7.9204C41.2573 8.5179 40.9363 9.29811 40.9363 10.2561C40.9363 11.3276 41.282 12.1473 41.9782 12.7103C42.5757 13.1893 43.5535 13.5942 44.9164 13.9201L45.4892 14.0534C47.6175 14.5571 49.0544 15.2386 49.7951 16.0978C50.3581 16.7496 50.6346 17.6681 50.6346 18.8532C50.6346 20.3148 50.0816 21.4555 48.9754 22.2851C47.9878 23.0209 46.6941 23.3863 45.0941 23.3863C43.5782 23.3863 42.3042 22.9913 41.282 22.1962C40.3833 21.5 39.7265 20.5371 39.3068 19.3075L40.2697 18.9174C40.6153 20.1766 41.277 21.1197 42.2548 21.7518C43.0646 22.2752 44.0078 22.5419 45.0892 22.5419C46.6743 22.5419 47.8644 22.1567 48.6545 21.3864C49.2964 20.7543 49.6174 19.9297 49.6174 18.8976C49.6174 17.7718 49.2816 16.9224 48.61 16.3545C47.9582 15.8015 46.8373 15.3373 45.2472 14.967L44.7633 14.8583C42.8473 14.3991 41.5338 13.7621 40.8178 12.9473C40.2351 12.2856 39.9438 11.3918 39.9438 10.261C39.9438 9.03145 40.4277 8.01422 41.3906 7.20438C42.3091 6.43405 43.514 6.04888 45.0003 6.04888L45.0053 6.04395Z" fill="#333399"/>
<path d="M64.3426 6.34033V7.16498H55.227V13.7523H62.1106V14.577H55.227V22.2655H64.5006V23.0852H54.2838V6.34033H64.3426Z" fill="#333399"/>
<path d="M75.1816 6.34033V22.2655H84.0405V23.0852H74.2434V6.34033H75.1816Z" fill="#333399"/>
<path d="M86.5983 14.2513C87.3538 12.3699 88.7907 11.4268 90.9141 11.4268C92.277 11.4268 93.2597 11.7675 93.872 12.4489C94.425 13.0711 94.7016 13.9945 94.7016 15.2241V18.9573C94.7016 20.7744 94.8003 22.1472 95.0028 23.0805H94.1485C94.0201 22.562 93.9214 21.8164 93.8473 20.8485C92.7264 22.5077 91.3091 23.3373 89.5956 23.3373C88.4006 23.3373 87.4822 22.9916 86.8501 22.2904C86.3267 21.7225 86.0649 20.9917 86.0649 20.1029C86.0649 18.0437 87.334 16.8043 89.8771 16.3895C90.8548 16.2265 92.1634 16.1031 93.8028 16.0241V15.392C93.8028 14.1377 93.5461 13.2785 93.0424 12.8045C92.593 12.3897 91.882 12.1823 90.9092 12.1823C89.1216 12.1823 87.9611 13.0069 87.4229 14.6612L86.5933 14.2513H86.5983ZM93.8078 16.7401C92.4844 16.7845 91.2301 16.908 90.0401 17.1203C88.0056 17.4956 86.9884 18.4881 86.9884 20.0881C86.9884 20.9127 87.2501 21.5398 87.7735 21.9793C88.2377 22.3694 88.8549 22.5669 89.6253 22.5669C91.2696 22.5669 92.6622 21.6682 93.8078 19.8807V16.745V16.7401Z" fill="#333399"/>
<path d="M99.7532 6.04395V13.6238C100.232 12.8831 100.81 12.3202 101.491 11.935C102.079 11.6042 102.686 11.4363 103.309 11.4363C104.731 11.4363 105.857 12.0387 106.696 13.2485C107.447 14.3201 107.817 15.6978 107.817 17.3817C107.817 19.3075 107.318 20.8235 106.326 21.9345C105.481 22.8777 104.439 23.3468 103.195 23.3468C101.802 23.3468 100.652 22.616 99.7285 21.1592L99.5952 23.09H98.8545V6.04395H99.7532ZM103.309 12.256C101.882 12.256 100.696 13.0658 99.7532 14.6904V20.2013C100.321 21.1 100.899 21.7271 101.482 22.0925C101.98 22.3987 102.548 22.5468 103.175 22.5468C104.341 22.5468 105.269 22.0333 105.955 21.0111C106.583 20.0778 106.899 18.868 106.899 17.3767C106.899 15.6731 106.518 14.3546 105.753 13.4214C105.116 12.6461 104.301 12.256 103.309 12.256Z" fill="#333399"/>
<path d="M114.474 11.4316C116.325 11.4316 117.629 12.2909 118.375 14.0093L117.52 14.3747C116.997 12.913 115.98 12.1872 114.469 12.1872C113.481 12.1872 112.731 12.4044 112.217 12.8439C111.777 13.2143 111.555 13.713 111.555 14.3303C111.555 15.0413 111.768 15.5648 112.192 15.9006C112.577 16.1968 113.259 16.4437 114.232 16.6462L115.106 16.8338C116.513 17.1301 117.476 17.54 117.999 18.0585C118.478 18.5325 118.715 19.2189 118.715 20.1127C118.715 21.1052 118.335 21.8953 117.57 22.4928C116.829 23.0607 115.832 23.3471 114.577 23.3471C113.511 23.3471 112.587 23.0854 111.807 22.557C111.121 22.083 110.612 21.441 110.281 20.6361L111.131 20.246C111.698 21.8114 112.849 22.5916 114.572 22.5916C115.733 22.5916 116.592 22.3151 117.15 21.7571C117.575 21.3423 117.787 20.8188 117.787 20.1769C117.787 19.3769 117.58 18.8041 117.16 18.4535C116.75 18.1128 115.995 17.8264 114.893 17.5992L114.019 17.4215C112.666 17.14 111.738 16.7252 111.239 16.1771C110.844 15.7425 110.647 15.1352 110.647 14.3648C110.647 13.4513 110.997 12.7303 111.698 12.197C112.37 11.6835 113.293 11.4316 114.459 11.4316H114.474Z" fill="#333399"/>
<path d="M21.3472 6.17235H20.8682V14.1423H13.3772V6.65134H21.3472V6.17235H20.8682H21.3472V5.69336H12.4192V15.1003H21.8261V5.69336H21.3472V6.17235Z" fill="#333399"/>
<path d="M29.3171 14.6216V22.5915H21.8261V15.1006H29.7961V14.6216H29.3171H29.7961V14.1426H20.8682V23.5495H30.2751V14.1426H29.7961" fill="#333399"/>
<path d="M20.9817 14.3452H21.6188L21.6237 14.8983L20.9768 14.8933" fill="#F6BB60"/>
<path d="M20.9817 14.4636H21.5002V14.7796L20.9767 14.7747L20.9718 15.0117L21.7421 15.0216L21.7372 14.2266H20.9817V14.4636Z" fill="#FAC130"/>
<path d="M12.4192 27.8652H13.313V32.9465H12.4192V27.8652Z" fill="#9B9B9B"/>
<path d="M14.6412 27.8652H15.4708L18.1917 31.3811V27.8652H19.0707V32.9465H18.325L15.5202 29.3318V32.9465H14.6412V27.8652Z" fill="#9B9B9B"/>
<path d="M21.5941 28.6899H19.9843V27.8604H24.1075V28.6899H22.4977V32.9465H21.599V28.6899H21.5941Z" fill="#9B9B9B"/>
<path d="M25.0111 27.8652H28.7788V28.6652H25.9049V29.9886H28.4529V30.7885H25.9049V32.1514H28.8183V32.9514H25.0111V27.8702V27.8652Z" fill="#9B9B9B"/>
<path d="M29.8505 27.8652H30.7442V32.1366H33.4157V32.9514H29.8505V27.8702V27.8652Z" fill="#9B9B9B"/>
<path d="M34.3145 27.8652H35.2082V32.1366H37.8797V32.9514H34.3145V27.8702V27.8652Z" fill="#9B9B9B"/>
<path d="M38.8328 27.8652H39.7265V32.9465H38.8328V27.8652Z" fill="#9B9B9B"/>
<path d="M40.8326 30.4182V30.4034C40.8326 28.9812 41.9239 27.7764 43.4547 27.7764C44.3386 27.7764 44.8868 28.0233 45.4102 28.4677L44.8423 29.1442C44.4522 28.8084 44.0671 28.601 43.4202 28.601C42.4819 28.601 41.7709 29.4207 41.7709 30.3935V30.4083C41.7709 31.4552 42.4622 32.2255 43.4992 32.2255C43.9782 32.2255 44.4127 32.0725 44.7288 31.8404V30.8873H43.43V30.1121H45.5929V32.2453C45.0892 32.6749 44.3732 33.0354 43.4696 33.0354C41.8795 33.0354 40.8326 31.9046 40.8326 30.4232V30.4182Z" fill="#9B9B9B"/>
<path d="M46.7139 27.8652H50.4816V28.6652H47.6077V29.9886H50.1557V30.7885H47.6077V32.1514H50.5211V32.9514H46.7188V27.8702L46.7139 27.8652Z" fill="#9B9B9B"/>
<path d="M51.553 27.8652H52.3777L55.0985 31.3811V27.8652H55.9775V32.9465H55.2319L52.4271 29.3318V32.9465H51.5481V27.8652H51.553Z" fill="#9B9B9B"/>
<path d="M57.0294 30.4182V30.4034C57.0294 28.9566 58.1109 27.7764 59.6515 27.7764C60.5897 27.7764 61.1576 28.1023 61.6415 28.5665L61.0687 29.2281C60.6638 28.8479 60.2243 28.5961 59.6466 28.5961C58.6738 28.5961 57.9676 29.396 57.9676 30.3886V30.4034C57.9676 31.3959 58.6738 32.2107 59.6466 32.2107C60.2737 32.2107 60.6688 31.9539 61.1033 31.549L61.6761 32.1317C61.1428 32.6848 60.5651 33.0304 59.612 33.0304C58.1306 33.0304 57.0294 31.8749 57.0294 30.4182Z" fill="#9B9B9B"/>
<path d="M62.5847 27.8652H66.3524V28.6652H63.4785V29.9886H66.0265V30.7885H63.4785V32.1514H66.3919V32.9514H62.5847V27.8702V27.8652Z" fill="#9B9B9B"/>
<path d="M67.1721 30.29H69.3202V31.1542H67.1721V30.29Z" fill="#9B9B9B"/>
<path d="M70.3522 27.8652H71.246V32.1366H73.9174V32.9514H70.3522V27.8702V27.8652Z" fill="#9B9B9B"/>
<path d="M74.8212 27.8652H78.5889V28.6652H75.715V29.9886H78.263V30.7885H75.715V32.1514H78.6284V32.9514H74.8261V27.8702L74.8212 27.8652Z" fill="#9B9B9B"/>
<path d="M79.6505 27.8652H81.5467C83.1466 27.8652 84.2478 28.9615 84.2478 30.3935V30.4083C84.2478 31.8403 83.1466 32.9514 81.5467 32.9514H79.6505V27.8702V27.8652ZM81.5467 32.1366C82.6133 32.1366 83.3145 31.4157 83.3145 30.4231V30.4083C83.3145 29.4108 82.6183 28.68 81.5467 28.68H80.5443V32.1366H81.5467Z" fill="#9B9B9B"/>
<path d="M88.6921 28.6899H87.0774V27.8604H91.2007V28.6899H89.5909V32.9465H88.6921V28.6899Z" fill="#9B9B9B"/>
<path d="M92.114 27.8652H95.8817V28.6652H93.0078V29.9886H95.5558V30.7885H93.0078V32.1514H95.9212V32.9514H92.114V27.8702V27.8652Z" fill="#9B9B9B"/>
<path d="M96.6077 32.206L97.1459 31.569C97.6298 31.9888 98.1187 32.2307 98.7508 32.2307C99.3038 32.2307 99.6495 31.974 99.6495 31.5888V31.574C99.6495 31.2135 99.447 31.016 98.4989 30.7987C97.4175 30.537 96.8101 30.216 96.8101 29.2827V29.2679C96.8101 28.3988 97.536 27.7964 98.5434 27.7964C99.2841 27.7964 99.8717 28.0186 100.39 28.4334L99.9112 29.1099C99.452 28.7692 98.9977 28.5865 98.5335 28.5865C98.0101 28.5865 97.7039 28.8531 97.7039 29.1889V29.2037C97.7039 29.5938 97.936 29.7716 98.9088 30.0037C99.9853 30.2654 100.543 30.6506 100.543 31.49V31.5048C100.543 32.4579 99.7927 33.0208 98.7261 33.0208C97.9508 33.0208 97.215 32.7542 96.6077 32.206Z" fill="#9B9B9B"/>
<path d="M102.81 28.6899H101.2V27.8604H105.323V28.6899H103.714V32.9465H102.815V28.6899H102.81Z" fill="#9B9B9B"/>
<path d="M106.281 27.8652H107.175V32.9465H106.281V27.8652Z" fill="#9B9B9B"/>
<path d="M108.503 27.8652H109.333L112.054 31.3811V27.8652H112.933V32.9465H112.187L109.382 29.3318V32.9465H108.503V27.8652Z" fill="#9B9B9B"/>
<path d="M113.98 30.4182V30.4034C113.98 28.9812 115.066 27.7764 116.602 27.7764C117.491 27.7764 118.034 28.0233 118.557 28.4677L117.989 29.1442C117.599 28.8084 117.214 28.601 116.567 28.601C115.634 28.601 114.918 29.4207 114.918 30.3935V30.4083C114.918 31.4552 115.609 32.2255 116.646 32.2255C117.125 32.2255 117.56 32.0725 117.876 31.8404V30.8873H116.577V30.1121H118.745V32.2453C118.241 32.6749 117.525 33.0354 116.622 33.0354C115.032 33.0354 113.985 31.9046 113.985 30.4232L113.98 30.4182Z" fill="#9B9B9B"/>
<path d="M130.902 86.0005H0.0938721V99.9998H130.902V86.0005Z" fill="#FFD700"/>
<path d="M6.77002 88.7363H7.69343L9.91555 95.7286L12.187 88.7363H12.9623L15.219 95.7286L17.4559 88.7363H18.325L15.6091 97.2445H14.8338L12.5525 90.2079L10.281 97.2445H9.49581L6.77002 88.7363Z" fill="black"/>
<path d="M23.6877 88.7363H24.5667V97.1902H23.6877V88.7363Z" fill="black"/>
<path d="M30.5171 88.7363H31.4998L36.5514 95.7088V88.7363H37.4205V97.1902H36.6008L31.3862 90.0153V97.1902H30.5171V88.7363Z" fill="black"/>
<path d="M43.2819 88.7363H44.2645L49.3161 95.7088V88.7363H50.1852V97.1902H49.3655L44.151 90.0153V97.1902H43.2819V88.7363Z" fill="black"/>
<path d="M56.0417 88.7364H61.6316V89.5907H56.9454V92.3856H61.518V93.23H56.9454V96.3656H61.681V97.1853H56.0467V88.7314L56.0417 88.7364Z" fill="black"/>
<path d="M70.6188 93.7435H68.0856V97.1902H67.2067V88.7363H70.8559C72.8163 88.7363 73.7101 89.5215 73.7101 91.2004C73.7101 92.6621 73.0138 93.5163 71.5423 93.7089L73.5866 97.1902H72.6286L70.6188 93.7435ZM70.8707 92.9238C72.0706 92.9238 72.8113 92.5584 72.8113 91.2251C72.8113 89.8918 72.0904 89.5709 70.8361 89.5709H68.0856V92.9238H70.8707Z" fill="black"/>
<path d="M85.2552 96.4594L88.0946 93.6053C89.3291 92.3707 89.8723 91.8128 89.8723 90.7313C89.8723 89.8079 89.3686 89.3981 88.0699 89.3981C87.1218 89.3981 86.312 89.6153 85.7885 89.9017L85.3984 89.1956C86.0947 88.8302 86.9045 88.603 88.1341 88.603C89.8575 88.603 90.7216 89.2055 90.7216 90.6671C90.7216 91.9461 90.0599 92.7757 88.781 94.0546L86.4107 96.4249H90.8599V97.1903H85.2454V96.4594H85.2552Z" fill="black"/>
<path d="M96.3262 92.9535C96.3262 90.3858 96.9187 88.5933 99.5754 88.5933C102.232 88.5933 102.815 90.3858 102.815 92.9535C102.815 95.5213 102.197 97.3089 99.5754 97.3089C96.9533 97.3089 96.3262 95.4966 96.3262 92.9535ZM101.941 92.9535C101.941 90.9092 101.6 89.4179 99.5803 89.4179C97.5607 89.4179 97.22 90.9141 97.22 92.9535C97.22 94.9929 97.5508 96.5139 99.5803 96.5139C101.61 96.5139 101.941 94.9732 101.941 92.9535Z" fill="black"/>
<path d="M108.044 96.4594L110.884 93.6053C112.118 92.3707 112.661 91.8128 112.661 90.7313C112.661 89.8079 112.158 89.3981 110.859 89.3981C109.911 89.3981 109.101 89.6153 108.578 89.9017L108.188 89.1956C108.884 88.8302 109.694 88.603 110.923 88.603C112.647 88.603 113.511 89.2055 113.511 90.6671C113.511 91.9461 112.849 92.7757 111.57 94.0546L109.2 96.4249H113.649V97.1903H108.034V96.4594H108.044Z" fill="black"/>
<path d="M118.454 96.5385L118.888 95.8522C119.802 96.341 120.567 96.5484 121.491 96.5484C122.937 96.5484 123.564 96.1139 123.564 94.7214C123.564 93.556 123.164 92.9634 121.283 92.9634H120.118V92.1881H121.258C122.824 92.1881 123.323 91.7783 123.323 90.7067C123.323 89.7142 122.799 89.3833 121.476 89.3833C120.7 89.3833 119.797 89.5759 119.135 89.9759L118.666 89.3142C119.486 88.8105 120.537 88.5933 121.53 88.5933C123.298 88.5933 124.167 89.1068 124.167 90.5685C124.167 91.6993 123.722 92.3363 123.085 92.519C124.034 92.7264 124.409 93.4671 124.409 94.7757C124.409 96.7262 123.382 97.3188 121.525 97.3188C120.35 97.3188 119.461 97.1015 118.459 96.5336L118.454 96.5385Z" fill="black"/>
<path d="M48.0076 43.7954H52.9703C54.185 43.7954 55.0443 44.1016 55.6121 44.6546C55.9973 45.0546 56.2343 45.5682 56.2343 46.2299V46.2595C56.2343 47.3804 55.5973 48.0421 54.743 48.4174C55.9183 48.8026 56.6639 49.4692 56.6639 50.7827V50.8123C56.6639 52.4715 55.3109 53.4789 52.9999 53.4789H48.0076V43.8003V43.7954ZM53.5925 46.7829C53.5925 46.2447 53.1629 45.9533 52.3777 45.9533H50.6198V47.652H52.3086C53.1234 47.652 53.5925 47.3755 53.5925 46.8076V46.778V46.7829ZM52.6641 49.5334H50.6198V51.316H52.6938C53.5234 51.316 53.9777 51 53.9777 50.4321V50.4025C53.9777 49.8791 53.5629 49.5334 52.6641 49.5334Z" fill="#FFD700"/>
<path d="M57.8243 43.7954H65.6067V46.062H60.4761V47.5434H65.1228V49.6568H60.4761V51.1926H65.6758V53.4739H57.8243V43.7954Z" fill="#FFD700"/>
<path d="M66.2585 52.0368L67.7498 50.2542C68.7177 51.0147 69.7695 51.4147 70.8904 51.4147C71.6213 51.4147 72.0114 51.1678 72.0114 50.753V50.7233C72.0114 50.3085 71.6953 50.1011 70.367 49.7851C68.3078 49.316 66.7178 48.7333 66.7178 46.7581V46.7285C66.7178 44.931 68.1399 43.6323 70.4658 43.6323C72.1101 43.6323 73.3989 44.0767 74.4458 44.9162L73.1027 46.8124C72.2188 46.1754 71.2509 45.8594 70.3917 45.8594C69.7399 45.8594 69.4238 46.1211 69.4238 46.4816V46.5112C69.4238 46.9556 69.7547 47.1482 71.1126 47.4494C73.3249 47.9333 74.7075 48.6543 74.7075 50.4616V50.4912C74.7075 52.4665 73.1471 53.6417 70.7917 53.6417C69.0782 53.6417 67.4585 53.1035 66.2585 52.0368Z" fill="#FFD700"/>
<path d="M78.021 46.1459H75.1322V43.7954H83.6059V46.1459H80.7023V53.4739H78.021V46.1459Z" fill="#FFD700"/>
<path d="M48.926 58.7329H50.4124V62.2537H54.4566V58.7329H55.943V67.2016H54.4566V63.6314H50.4124V67.2016H48.926V58.7329Z" fill="white"/>
<path d="M57.4194 64.0464V64.0217C57.4194 62.1946 58.8712 60.6836 60.8316 60.6836C62.792 60.6836 64.2339 62.1699 64.2339 63.997V64.0217C64.2339 65.8389 62.7821 67.3499 60.8069 67.3499C58.8317 67.3499 57.4194 65.8636 57.4194 64.0464ZM62.7673 64.0464V64.0217C62.7673 62.8958 61.9575 61.9625 60.8069 61.9625C59.6564 61.9625 58.8811 62.881 58.8811 63.997V64.0217C58.8811 65.1328 59.6909 66.0809 60.8316 66.0809C61.9723 66.0809 62.7673 65.1476 62.7673 64.0464Z" fill="white"/>
<path d="M65.5376 60.812H67.0042V61.7799C67.4141 61.212 67.972 60.6787 68.9547 60.6787C69.8732 60.6787 70.5151 61.1281 70.8559 61.8046C71.3744 61.1281 72.0558 60.6787 73.0237 60.6787C74.4162 60.6787 75.2606 61.5626 75.2606 63.123V67.2018H73.7989V63.5724C73.7989 62.5552 73.3249 62.012 72.5052 62.012C71.6855 62.012 71.1373 62.57 71.1373 63.5971V67.2018H69.6757V63.5576C69.6757 62.565 69.1917 62.007 68.3819 62.007C67.5721 62.007 67.0141 62.6144 67.0141 63.602V67.1969H65.5475V60.8071L65.5376 60.812Z" fill="white"/>
<path d="M76.5001 64.0316V64.0069C76.5001 62.1799 77.7938 60.6787 79.6209 60.6787C81.6554 60.6787 82.6825 62.2737 82.6825 64.1156C82.6825 64.2489 82.6726 64.3822 82.6578 64.5254H77.9617C78.1197 65.5674 78.8555 66.1451 79.7987 66.1451C80.5147 66.1451 81.0184 65.8785 81.527 65.3847L82.3862 66.1451C81.7788 66.871 80.9443 67.3451 79.774 67.3451C77.9222 67.3451 76.4951 66.0019 76.4951 64.0316H76.5001ZM81.2307 63.5576C81.1319 62.6144 80.5789 61.8737 79.611 61.8737C78.7172 61.8737 78.0852 62.565 77.9518 63.5576H81.2307Z" fill="white"/>
<path d="M30.206 71.4136H31.5837L35.3119 79.9465H33.7367L32.8775 77.9021H28.8727L28.0036 79.9465H26.4778L30.206 71.4136ZM32.3343 76.5788L30.8726 73.1913L29.4209 76.5788H32.3392H32.3343Z" fill="white"/>
<path d="M36.413 73.5567H37.8796V74.5492C38.2895 73.9418 38.882 73.4233 39.8746 73.4233C41.3165 73.4233 42.151 74.3912 42.151 75.8825V79.9465H40.6844V76.317C40.6844 75.3245 40.1906 74.7566 39.3166 74.7566C38.4426 74.7566 37.8747 75.3492 37.8747 76.3417V79.9465H36.4081V73.5567H36.413Z" fill="white"/>
<path d="M44.0325 78.1787V74.8159H43.2227V73.5567H44.0325V71.8037H45.4991V73.5567H47.2175V74.8159H45.4991V77.9516C45.4991 78.5194 45.7904 78.7515 46.2842 78.7515C46.6102 78.7515 46.9015 78.6774 47.1928 78.5342V79.7342C46.8274 79.9416 46.4176 80.0601 45.8744 80.0601C44.7979 80.0601 44.0374 79.586 44.0374 78.1836L44.0325 78.1787Z" fill="white"/>
<path d="M48.5359 71.1816H50.1111V72.5742H48.5359V71.1816ZM48.5951 73.5519H50.0568V79.9417H48.5951V73.5519Z" fill="white"/>
<path d="M51.5481 75.5171H55.1282V76.959H51.5481V75.5171Z" fill="white"/>
<path d="M56.7133 71.4731H58.2984L60.8761 75.4779L63.4537 71.4731H65.0388V79.9419H63.5525V73.8681L60.8761 77.8629H60.8267L58.175 73.8928V79.9419H56.7084V71.4731H56.7133Z" fill="white"/>
<path d="M70.772 79.9417V79.1565C70.3374 79.675 69.6708 80.075 68.7029 80.075C67.4931 80.075 66.4265 79.3837 66.4265 78.1047V78.0801C66.4265 76.6628 67.5277 75.9863 69.014 75.9863C69.7893 75.9863 70.2831 76.095 70.7819 76.253V76.1295C70.7819 75.2456 70.2239 74.7617 69.2066 74.7617C68.4906 74.7617 67.9622 74.9197 67.3796 75.1617L66.9796 73.9864C67.6808 73.6704 68.3721 73.4531 69.414 73.4531C71.3004 73.4531 72.2238 74.4457 72.2238 76.1493V79.9368H70.772V79.9417ZM70.8065 77.2653C70.4313 77.1221 69.9128 77.0134 69.34 77.0134C68.4215 77.0134 67.8783 77.3887 67.8783 78.006V78.0307C67.8783 78.6381 68.4215 78.9738 69.1128 78.9738C70.0807 78.9738 70.8065 78.4307 70.8065 77.6307V77.2653Z" fill="white"/>
<path d="M73.868 71.1123H75.3297V79.9464H73.868V71.1123Z" fill="white"/>
<path d="M76.5297 73.5569H78.0308L79.3147 77.9369L80.7319 73.5322H81.9763L83.4034 77.9369L84.712 73.5569H86.1786L84.0849 79.9961H82.7763L81.3492 75.6259L79.9073 79.9961H78.5987L76.5297 73.5569Z" fill="white"/>
<path d="M90.9636 79.9417V79.1565C90.5291 79.675 89.8625 80.075 88.8946 80.075C87.6848 80.075 86.6182 79.3837 86.6182 78.1047V78.0801C86.6182 76.6628 87.7193 75.9863 89.2057 75.9863C89.981 75.9863 90.4748 76.095 90.9735 76.253V76.1295C90.9735 75.2456 90.4155 74.7617 89.3983 74.7617C88.6823 74.7617 88.1539 74.9197 87.5712 75.1617L87.1712 73.9864C87.8724 73.6704 88.5638 73.4531 89.6057 73.4531C91.492 73.4531 92.4154 74.4457 92.4154 76.1493V79.9368H90.9636V79.9417ZM90.9982 77.2653C90.6229 77.1221 90.1044 77.0134 89.5316 77.0134C88.6131 77.0134 88.0699 77.3887 88.0699 78.006V78.0307C88.0699 78.6381 88.6131 78.9738 89.3045 78.9738C90.2723 78.9738 90.9982 78.4307 90.9982 77.6307V77.2653Z" fill="white"/>
<path d="M93.9758 73.5567H95.4375V74.9986C95.8375 74.0406 96.5732 73.3888 97.6991 73.4382V74.9887H97.6152C96.3313 74.9887 95.4375 75.8232 95.4375 77.517V79.9514H93.9758V73.5616V73.5567Z" fill="white"/>
<path d="M98.2176 76.7714V76.7467C98.2176 74.9196 99.5114 73.4185 101.338 73.4185C103.373 73.4185 104.4 75.0184 104.4 76.8553C104.4 76.9887 104.39 77.122 104.375 77.2652H99.6792C99.8373 78.3071 100.573 78.8849 101.516 78.8849C102.232 78.8849 102.736 78.6182 103.245 78.1244L104.104 78.8849C103.496 79.6107 102.662 80.0848 101.492 80.0848C99.6397 80.0848 98.2126 78.7417 98.2126 76.7714H98.2176ZM102.948 76.2973C102.849 75.3542 102.296 74.6135 101.329 74.6135C100.435 74.6135 99.8027 75.3048 99.6694 76.2973H102.948Z" fill="white"/>
</g>
<defs>
<clipPath id="clip0_14_140">
<rect width="130.897" height="100" fill="white"/>
</clipPath>
</defs>
</svg>
