<svg width="37" height="37" viewBox="0 0 37 37" fill="none" xmlns="http://www.w3.org/2000/svg">
<path d="M18.5 0C28.71 0 37 8.28957 37 18.5C37 28.7104 28.71 37 18.5 37C8.29 37 0 28.7104 0 18.5C0 8.28957 8.29 0 18.5 0Z" fill="white"/>
<path d="M27 12.008C26.26 12.535 25.441 12.9381 24.574 13.2017C23.62 12.095 22.084 11.7069 20.727 12.2299C19.37 12.7529 18.481 14.0758 18.5 15.5424V16.3226C15.742 16.3948 13.131 15.068 11.545 12.7882C11.545 12.7882 8.455 19.8101 15.409 22.9309C13.818 24.0217 11.922 24.5686 10 24.4914C16.955 28.3924 25.455 24.4914 25.455 15.519C25.454 15.3016 25.433 15.0848 25.393 14.8714C26.181 14.0861 26.738 13.0946 27 12.008Z" stroke="#ED396C" stroke-width="1.3"/>
</svg>
