<svg width="37" height="37" viewBox="0 0 37 37" fill="none" xmlns="http://www.w3.org/2000/svg">
<path d="M18.5 0C28.71 0 37 8.28957 37 18.5C37 28.7104 28.71 37 18.5 37C8.2896 37 0 28.7104 0 18.5C0 8.28957 8.2896 0 18.5 0Z" fill="white"/>
<path d="M29.539 14.1915C29.298 13.3167 28.558 12.6258 27.6 12.3803C25.88 12 19 12 19 12C19 12 12.12 12 10.4 12.4166C9.44227 12.662 8.70227 13.3529 8.46047 14.2277C8.14577 15.8084 7.99177 17.4119 8.00057 19.0181C7.98937 20.6364 8.14327 22.2521 8.46047 23.8448C8.72687 24.6917 9.46247 25.351 10.4 25.5834C12.12 26 19 26 19 26C19 26 25.88 26 27.6 25.5834C28.558 25.338 29.298 24.6471 29.539 23.7723C29.852 22.2035 30.006 20.6122 29.999 19.0181C30.011 17.3998 29.857 15.7841 29.539 14.1915Z" stroke="#ED396C" stroke-width="1.3"/>
<path d="M16.75 21.9793L22.5 19.0181L16.75 16.0569V21.9793Z" stroke="#ED396C" stroke-width="1.3"/>
</svg>
